<?xml version="1.0" encoding="utf-8"?>
<!-- Generator: Adobe Illustrator 21.0.2, SVG Export Plug-In . SVG Version: 6.00 Build 0)  -->
<svg version="1.1" id="Layer_1" xmlns="http://www.w3.org/2000/svg" xmlns:xlink="http://www.w3.org/1999/xlink" x="0px" y="0px"
	 viewBox="0 0 1515 1081" style="enable-background:new 0 0 1515 1081;" xml:space="preserve">
<style type="text/css">
	.st0{fill:#F5F5F5;}
	.st1{fill:#414141;}
</style>
<rect x="-98" y="-10" width="1626" height="1104"/>
<g>
	<g>
		<path class="st0" d="M499.4,586.5c5-17.1,12.9-16.6,16.2-28.7c2-7.2,0.6-12.4-0.8-15.4c0.2-0.7,0.5-1.3,0.7-2
			c8-25.2,12.1-51.4,12.5-77.8c0.1-6.3,0.3-12.5,0.8-18.8c1.7,10.6,4.2,22,7.6,29.2c5.9,12.1,8,33,8.8,48.3c0.9,17.9-5,35.8-17.2,49
			c-0.7,0.8-1.5,1.6-2.2,2.4c-4,4-6.2,9.4-6.2,15.1c-0.2,17.9,0,58,3.7,98.7h-0.1c0,2.2,0.4,5.2,0.9,8.4c0,0.4,0.1,0.7,0.1,1h0.1
			c1.8,10.1,5.7,22,8.6,19.3c2.9-4.7,6.9-3.8,6.9-3.8c-0.3,4.3-1.9,7.2,0.6,9.1c2.1,1.6,4,2.9,6.7,3.2c8.4,0.7,23.1,1.5,23.1-2.8
			c0-5.3-4.7-14.4-14.2-16.5c-8.3-0.5-9.8-8.5-9.8-8.5s-7.2-59.3,8.5-80.1c14.7-19.5,32.2-44.8,36.8-51.4c0.1-0.1,0.1-0.2,0.2-0.3
			c0.6-0.9,0.9-1.4,0.9-1.4c0.1,0,0.2,0.1,0.2,0.1c0.4,0.2,0.9,0.4,1.3,0.6c0.5,0.2,1,0.4,1.4,0.6c0,0,0,0,0.1,0l0,0l0.4,4.9
			l1.4,16.3c0.2,2.8,0,5.6-0.8,8.3c-1.7,5.4-3.7,16.5,4.8,25.3c2.4,2.4,4.4,5.2,5.6,8.3c3.6,9.3,47.6,90.2,51.6,86.5
			c2.9-4.7,6.9-3.8,6.9-3.8c-0.3,4.3-1.8,7.2,0.6,9.1c2.2,1.7,4.7,2.9,7.4,3.2c8.4,0.7,23.1,1.5,23.1-2.8c0-5.4-5.2-14.4-14.7-16.5
			c-8.3-0.5-11.3-7.1-11.3-7.1c-29.9-51.2-29.9-97.9-28.4-116.1c0.3-4,0.7-6.6,0.8-7.6c1.2-0.2,2.4-0.5,3.4-0.7
			c0.6-0.2,1.3-0.3,1.9-0.5l5.2,16.6c0.7,2.4,2.9,3.9,5.3,3.9c0.5,0,1.1-0.1,1.6-0.3c2.9-0.9,4.5-4,3.6-6.9l-5.4-17.4
			c7.8-4,13.3-9.2,16.8-12.9c2.8-3.1,6.9-4.3,10.9-3.4c41,9.2,80.7,7.5,104.7,5c1.5-0.2,3-0.3,4.4-0.5c-0.3,2.2-0.6,4.7-0.9,7.3
			c-0.9,9.4-1.7,21.2-1.4,34.1c0.5,25.5-5.3,31.6-6.4,43.9c-2.2,26.2-0.1,49.3-0.1,49.3c1.4,12.4,7.5,26.9,11.4,23.2
			c2.9-4.7,6.9-3.8,6.9-3.8c-0.3,4.3-1.8,7.2,0.6,9.1c2.2,1.7,4,2.9,6.7,3.2c8.4,0.7,23.1,1.5,23.1-2.8c0-5.4-4.7-14.4-14.2-16.5
			c-8.3-0.5-9.3-12.4-9.3-12.4c-2.7-24.8,0.2-49.6,5.1-65.5c4-13.2,16-43.3,21.1-56c0.7-1.7,1.2-3,1.6-4c0.6,0.3,1.3,0.5,1.9,0.8
			c0.5,0.2,1,0.5,1.5,0.6c0.5,0.2,0.9,0.4,1.3,0.6l0,0c0.4,0.2,0.9,0.4,1.3,0.5c1.8,14.7,5.4,33.5,12.4,55c1,3.2,2.1,6.4,3.3,9.8
			c1.9,8.7,3.5,17.4,4.7,26.3c0.5,3.7,1.7,8.9,3.1,14.2c1.4,5.4,3,10.9,4.4,15.5c0.8,3.1,1.8,6.2,2.9,9.2c0.2,0.7,0.4,1.1,0.4,1.1
			h0.1c4.5,11.8,10.6,20.9,13.7,18c2.9-4.7,6.9-3.8,6.9-3.8c-0.3,4.3-1.9,7.2,0.6,9.1c2.1,1.6,4,2.9,6.7,3.2
			c8.4,0.7,23.1,1.5,23.1-2.8c0-5.3-4.7-14.4-14.2-16.5c-8.3-0.5-11.3-9.3-11.3-9.3c-9.3-18.9-15.8-49.7-12.8-64.4
			c2.8-13.8,3.9-41.9,4.2-52.6c10.6,0.1,21.1-1.8,32.9-5.9c30.7-15,58.9-10.4,63.5,1.5c13.1,25.5,30.1,38.6,35.7,42.4
			c1.3,0.9,2.4,2.1,3.3,3.4c6.4,9.3,14.5,12.8,19.2,14.1c2.5,0.7,4.6,2.3,6.3,4.3c6.3,7.7,17.6,10.7,17.6,10.7
			c20.7,5.5,27.1-9.2,17.8-24.1c-6.2-11.6-8-49.7-8-49.7c0.1-0.2,0.2-0.4,0.3-0.5c4.3-9.4,2.6-20.5-4.1-28.4
			c-2.3-2.7-4.8-7.1-5-13.4v-0.1c10.9-10.2,27.3-12.7,27.3-12.7c-14.6-9.9-33.4-1.3-36.1,0.1c-1.2-0.6-2.4-1.1-3.6-1.5
			c-0.9-0.3-1.9-0.5-2.8-0.8l0.2-5.9c0-11.7-2.9-26-14.5-35.5c-1.9-1.5-4.6-1.3-6.2,0.6c-2.2,2.8-5.2,7.3-7.3,13.3
			c-0.5,1.6-1,3.4-1.4,5.2c-0.1,0.6-0.3,1.3-0.4,1.9s-0.2,1.3-0.3,1.9l0,0c-0.8-0.6-1.6-1.3-2.3-1.9c-42.7-35.6-62.1-64.8-62.1-64.8
			s-32.5-52-63.2-57.5c-50.7-9.1-95.5-25.3-132.5-24.5c-31,0.6-83.6,18.6-189.4,7.5c0,0-18.2-2.9-31.9,6.5
			c-7.8,5.1-14.1,13.2-18.2,21.1c-7.5,14.2-10.6,30.4-11.8,46.3c-0.9,12.9,0,25.6,0.1,38.5c0,14.8-1.5,29.6-3.9,44.1
			c-1.3,7.4-2.7,14.8-4.6,22.1c-0.3,1-0.6,2-0.8,3c-2.8,1.2-6.1,3.8-9.1,9.2C492.2,560.1,499.4,586.5,499.4,586.5z"/>
		<g>
			<path class="st1" d="M945.3,557.4c3.5-0.9,7.4-1.6,11.5-2s8.5-0.7,13.1-0.3c4.5,0.4,9.3,1.3,13.8,3.1c4.5,1.9,8.8,4.8,11.8,9
				c2.9,4.1,4.6,8.7,7,12.5c2.4,3.9,5.1,7.7,7.8,11.2c5.5,7,11.3,12.8,16.8,17.3c1.3,1.1,2.7,2.1,4,3.3s2.3,2.3,3.2,3.5
				c1.8,2.3,3.4,4.3,4.7,5.8c1.4,1.5,2.6,2.6,3.5,3.3s1.4,1,1.4,1s-0.5-0.3-1.5-0.9c-1-0.6-2.3-1.6-3.8-3c-1.5-1.5-3.2-3.4-5.2-5.5
				c-1.9-2.2-4.4-4-7.4-6.2c-5.7-4.3-12.1-10-17.8-17c-2.8-3.5-5.6-7.3-8.1-11.3c-2.6-4.1-4.4-8.6-7-12.2c-2.5-3.7-6.4-6.4-10.5-8.1
				c-4.1-1.8-8.6-2.7-12.9-3.1c-8.7-0.8-17-0.1-24,1.4c-6.9,1.4-12.6,3.2-16.5,4.7s-6.1,2.4-6.1,2.4s2.1-1.2,5.9-2.9
				C932.7,561.5,938.3,559.1,945.3,557.4z"/>
			<path class="st1" d="M707.3,545c6.9,0.7,15,1.1,23.6,1.6c8.6,0.4,17.8,0.7,27.1,0.9c9.2,0.1,18.4,0,27-0.5
				c4.3-0.3,8.5-0.5,12.5-0.8c4-0.2,7.7-0.5,11.2-0.6c3.5-0.2,6.9,0.4,9.6,1.3c2.8,0.8,5,2,6.8,3s3.1,1.9,4,2.4
				c0.9,0.6,1.4,0.8,1.4,0.8s-2.1-0.9-5.8-2.6c-3.6-1.7-9.2-3.5-16-2.9s-14.9,1.8-23.6,2.4c-8.7,0.7-18,0.9-27.3,0.9
				s-18.6-0.4-27.3-1.1c-8.7-0.6-16.7-1.8-23.6-2.8c-6.9-1-12.6-2.3-16.5-3.2s-6.2-1.6-6.2-1.6s2.3,0.3,6.3,0.8
				C694.7,543.8,700.4,544.3,707.3,545z"/>
			<path class="st1" d="M855.9,588.3c-1.8-12.1-2.1-20.3-2.1-20.3s0.3,2,1,5.5c0.6,3.5,1.6,8.5,2.8,14.5s2.8,12.9,4.9,20.2
				c2.1,7.3,4.7,15,6.4,23.1c1.6,8.1,2.3,16.3,3.2,23.8c0.5,3.8,0.9,7.4,1.5,10.8c0.6,3.3,1.4,6.6,2.1,9.6
				c2.6,11.9,4.1,19.9,4.1,19.9s-2.4-7.8-5.7-19.5c-0.8-3-1.8-6.1-2.6-9.6c-0.7-3.4-1.4-7.1-1.9-10.9c-1.1-7.6-1.9-15.7-3.5-23.5
				c-1.6-7.9-4-15.6-6-23C857.9,601.4,856.9,594.3,855.9,588.3z"/>
			<path class="st1" d="M787.1,365.7c-5.6-0.6-11.3-0.8-16.9-0.8c-5.6,0.2-11.3,0.5-16.9,1c-11.2,1-22.3,2.5-33,3.9
				c-10.7,1.5-21.1,2.7-31,3.5c-9.9,0.9-19.3,1.2-28,1.3c-17.3,0.3-31.8-0.7-41.8-1.3c-10.1-0.7-15.8-1.4-15.8-1.4s5.8,0.1,15.9,0.3
				c10.1,0.2,24.5,0,41.7-0.7c8.6-0.4,17.9-1,27.7-2.2s20.1-2.8,30.8-4.2c10.7-1.5,21.8-3.1,33.1-4.3c5.7-0.6,11.4-1,17.3-1.3
				c5.8,0,11.7,0.1,17.5,0.7c23.3,2.3,45.7,8.8,66.6,14.2c10.5,2.7,20.5,5.3,30.2,7.4s19.1,4.5,26.8,9c7.9,4.4,13.4,10.3,18.3,15.3
				c4.9,5.2,8.7,10,11.8,14s5.3,7.3,6.8,9.6c1.5,2.3,2.3,3.5,2.3,3.5s-3.4-4.7-9.9-12.4c-3.3-3.8-7.3-8.4-12.4-13.2
				c-5.1-4.7-11-10.2-18.4-14.1c-7.4-4-16.5-6-26.2-7.8s-20.1-4-30.5-6.7C832,373.8,809.8,367.6,787.1,365.7z"/>
			<path class="st1" d="M528,581c1.2-2,2.8-3.6,4.2-5.2c5.6-6.2,10-13.5,13.2-21.3s5.1-16.2,5.9-24.5c0.8-8.3,0.6-16.7-0.2-24.6
				c-0.9-8-2.2-15.6-4.1-22.7c-1.8-7.1-4.7-13.6-6.5-19.9c-3.7-12.5-5.1-23.4-5.9-30.9c-0.4-3.8-0.5-6.8-0.7-8.8
				c-0.1-2-0.2-3.1-0.2-3.1s0.4,4.3,1.5,11.8s3.2,18.1,7.1,30.4c1.9,6.1,5,12.5,7.1,19.8c2.2,7.2,3.8,15,4.7,23.1
				c0.9,8.1,1.2,16.7,0.5,25.3s-2.5,17.4-5.9,25.6c-3.4,8.2-8.1,15.8-14.1,22.2c-3,3.1-5.4,6.1-5.8,9.9c-0.5,3.9-0.1,8-0.1,12.1
				c-0.1,16.2-0.2,31.4,0,44.3c0.1,13,0.3,23.8,0.6,31.3c0.3,7.6,0.5,11.9,0.5,11.9s-0.5-4.3-1.2-11.8c-0.6-7.6-1.4-18.4-1.9-31.3
				c-0.5-13-0.9-28.1-1.1-44.4c0-3.9-0.5-8.1,0-12.5C525.9,585.3,526.7,583,528,581z"/>
			<path class="st1" d="M636.7,605.2c0.3,2.5,0.9,6.1,1.5,10.5c0.3,2.2,0.7,4.5,1.2,6.9s1,5,1.6,7.7c1.1,5.3,2.5,10.9,4.1,16.5
				c1.5,5.6,3.3,11.1,5.1,16.3c0.9,2.6,1.8,5,2.7,7.4c0.9,2.3,1.8,4.5,2.6,6.6c1.7,4,3,7.4,4.1,9.7c1,2.4,1.6,3.7,1.6,3.7
				s-0.8-1.3-2.1-3.4c-1.3-2.2-3.1-5.4-5.1-9.3c-1.9-4-4.1-8.6-6.1-13.7c-2-5.1-3.8-10.7-5.5-16.3c-1.5-5.7-2.8-11.4-3.8-16.8
				c-1-5.4-1.5-10.5-1.9-14.9s-0.4-8.1-0.5-10.6c0-2.6,0.1-4,0.1-4S636.3,602.7,636.7,605.2z"/>
			<path class="st1" d="M808.2,628.9c1.8-7.6,4.6-14.8,7.1-21.6s5.2-12.9,7.4-18.3c4.5-10.6,7.8-17.6,7.8-17.6s-2.4,7.3-6.3,18.2
				c-1.9,5.4-4.2,11.8-6.5,18.5c-2.4,6.8-5,14-6.6,21.4c-1.8,7.4-3,14.9-3.8,22s-1.3,13.8-1.4,19.5c-0.1,5.7-0.1,10.5,0,13.9
				s0.2,5.3,0.2,5.3s-0.3-1.9-0.8-5.2c-0.3-3.3-1-8.1-1.1-13.9c-0.1-5.8-0.2-12.6,0.5-19.8C805.4,644.2,806.5,636.5,808.2,628.9z"/>
			<path class="st1" d="M1090.4,633c-1,1-2.8,3.6-3.4,4.8c1.1,0.5,2,1.2,1.8,2.9c-0.2,1.9-1.5,3.4-2.9,3.2c-1.1-0.3-1.6-1.1-1.8-1.6
				c-0.6-1.1-0.5-2.2-0.1-3.2C1085.5,635.3,1090.4,633,1090.4,633z"/>
			
				<ellipse transform="matrix(0.5794 -0.815 0.815 0.5794 -18.8884 1109.2118)" class="st1" cx="1065.3" cy="572.9" rx="3.5" ry="6.1"/>
			<path class="st1" d="M1035.7,511.8c1.3,7.5,3.4,14.9,6.7,21.7c-12.7-14.8-13.5-38.1-3-54.1c-1.5,4.7-3.2,9.2-3.9,14.2
				C1034.6,499.8,1035,505.7,1035.7,511.8C1036,513.5,1035.5,510.2,1035.7,511.8z"/>
			<path class="st1" d="M497.8,562.2c0.1-1.3,0.2-2.6,0.4-3.9c0.3-1.3,0.4-2.6,0.8-3.9c0.4-1.3,0.7-2.5,1.3-3.7c1-2.3,2.4-4.3,4-5.7
				c1.5-1.4,3.1-2.1,4.3-2.4c1.1-0.3,1.8-0.3,1.8-0.3s-2.3,1.4-4.4,4.2c-0.6,0.7-1,1.5-1.6,2.4c-0.4,0.9-1,1.8-1.4,2.9
				c-0.5,1-0.9,2.1-1.2,3.3c-0.4,1.1-0.5,2.4-0.9,3.5c-0.3,1.2-0.4,2.4-0.6,3.6c-0.2,1.2-0.2,2.4-0.3,3.6c-0.3,2.3-0.2,4.6-0.3,6.5
				c0,1.9,0,3.5,0,4.6s0,1.8,0,1.8s-0.6-2.5-1.3-6.3c-0.1-1-0.2-2-0.4-3.1c-0.2-1.1-0.2-2.3-0.2-3.5
				C497.8,564.7,497.7,563.5,497.8,562.2z"/>
			<path class="st1" d="M624,565.1c5.8,0.9,12.5-0.1,18.1-1.4c5.4-1.2,10.5-3.2,15.2-6c8.7-5.1,16.3-12.5,21.9-20.9
				c-3.8,11.5-14,21.4-24.7,26.5c-11.9,5.7-25,5.3-37.3,1.2C619.4,564.6,621.7,564.9,624,565.1C625.3,565.3,622.6,565,624,565.1z"/>
			<path class="st1" d="M657.8,578.3c-0.7-2.2-1.1-4.5-1.4-6.2c-0.3-1.7-0.3-2.9-0.3-2.9s0.6,1,1.3,2.6s1.5,3.7,2.2,6
				c0.7,2.2,1.1,4.5,1.4,6.2c0.3,1.7,0.3,2.9,0.3,2.9s-0.6-1-1.3-2.6C659.2,582.7,658.4,580.5,657.8,578.3z"/>
			<path class="st1" d="M627.4,576.8c0.4,1.8,0.9,4.2,1.2,6.6c0.3,2.4,0.4,4.9,0.4,6.7s-0.2,3.1-0.2,3.1s-0.4-1.2-0.9-3
				c-0.4-1.8-0.9-4.2-1.2-6.6c-0.3-2.4-0.4-4.9-0.4-6.7s0.2-3.1,0.2-3.1S627,575,627.4,576.8z"/>
			<path class="st1" d="M842.8,564.3c0,0.5,0,0.9,0.1,1.4c0.5,0.2,0.9,0.4,1.3,0.6l0,0c0.4,0.2,0.9,0.4,1.3,0.5
				c1.8,14.7,5.4,33.5,12.4,55c-0.5-1.8-0.9-3.7-1.4-5.8c-1.1-4.5-2.3-9.9-3.5-15.7c-1.1-5.8-2.4-11.9-3.4-18.1
				c-1-6.2-1.9-12.4-2.6-18.3c-0.8-5.8-1.3-11.3-1.8-16c-0.4-4.7-0.7-8.7-0.9-11.4c-0.2-2.8-0.3-4.4-0.3-4.4s-0.3,1.6-0.5,4.4
				c-0.3,2.8-0.6,6.7-0.7,11.5C842.4,552.8,842.5,558.4,842.8,564.3z"/>
			<path class="st1" d="M591.7,564.2c0.6-0.9,0.9-1.4,0.9-1.4c0.1,0,0.2,0.1,0.2,0.1c0.4,0.2,0.9,0.4,1.3,0.6c0.5,0.2,1,0.4,1.4,0.6
				c0.8-1.8,1.6-3.8,2.3-5.7c2.3-6.1,4-12.5,4.8-17.3c0.9-4.8,1-8.1,1-8.1s-0.5,3.2-1.9,7.9c-1.4,4.6-3.7,10.7-6.5,16.4
				C594.2,559.8,593,562.1,591.7,564.2z"/>
			<g>
				<path class="st1" d="M808.2,553.4c3.8-0.6,7.6-0.1,11,1.6c8,3.8,15.2,7.2,22,10.1c-0.6-0.3-1.2-0.5-1.9-0.8
					c-0.4,1-0.9,2.3-1.6,4c-0.5-0.2-0.9-0.4-1.1-0.5c-3.3-1.2-6.6-2.5-10-3.7c-3.3-1.3-6.5-2.7-9.8-3.8c-3.2-1.2-6.1-0.7-9.4-0.2
					c-4.4,0.8-8.8,1.6-13.2,2.4c0.3-2.6,0.6-5.1,0.9-7.3C800.7,554.6,805,554,808.2,553.4z"/>
				<path class="st1" d="M618.8,571.9l0.3,2.6l1.7,17.1c0.3,2.8,2.7,5,5.5,5c0.2,0,0.4,0,0.6,0c3-0.3,5.2-3,4.9-6.1l-1.2-11.5
					l-0.6-5.8c4.6,0.1,8.9-0.1,12.8-0.8c-0.2,1-0.5,3.6-0.8,7.6c-3.4,0.2-6.8,0.2-10.2-0.1c0.2,0.7,0.3,1.5,0.5,2.3
					c0.2,1.2,0.5,2.6,0.7,4c0.2,1.5,0.5,2.9,0.7,4.6c0.2,2.1-0.6,4.4-2.3,6s-4.2,2.3-6.5,1.9c-2.3-0.4-4.4-2-5.4-4
					c-0.5-1-0.8-2.3-0.8-3.2c0-0.8-0.1-1.6-0.1-2.4c-0.1-3.2-0.1-6.1-0.1-8.6c0-1,0-1.9,0.1-2.8c-7.6-1.9-15-4.7-22-8.2
					c-0.2-0.1-0.4-0.2-0.6-0.3l-0.4-4.9C604.1,568.2,611.8,570.6,618.8,571.9z"/>
			</g>
			<path class="st1" d="M1057.8,518.4c-0.6,7.9-2.2,13.8-2.5,14.6c2.5-4.2,4.3-8.9,5.3-13.8C1059.6,518.9,1058.7,518.7,1057.8,518.4
				z"/>
			<path class="st1" d="M1026,509.4c1.8,10.6,7.3,19.2,14.2,27.4c-10.9-14.1-13.2-26.7-12.1-36.8c-0.8-0.6-1.6-1.3-2.3-1.9
				C1025.3,501.7,1025.3,505.6,1026,509.4z"/>
		</g>
	</g>
	<path class="st0" d="M304.3,769.9c110.7-31.1,223.8-50.3,338.5-58.2c130.7-9,262.1-1.4,391.3,19.4c57.8,9.3,115,23,171.3,38.9
		c-49.8-8.4-99.4-17.2-149.5-24.2c-63-8.8-126.5-14.3-190-17.5c-129.9-6.6-259.6-0.7-388.7,14.4
		C419.2,749.3,361.9,760.1,304.3,769.9z"/>
	<g>
		<g>
			<path class="st0" d="M734.2,272.3c0.8,0.6,0.9,1.8,0.2,2.5l-3.5,4.2c-0.3,0.4-0.8,0.7-1.3,0.9c-1.7,0.5-5.9,2.2-8.8,8.1
				c-3.7,7.6-14.5,16.8-14.5,16.8s-4.8,3.8-5.1,9.8c-0.1,2-0.8,4-2.2,5.4c-3.7,3.7-7.9,2.2-11.5-0.4c-1.4-1-2.5-2.2-3.3-3.7
				c-2.3-4.6,0.6-8.2,3.7-11.8l33.7-40.2c0.6-0.8,1.8-0.9,2.5-0.2l-0.3-0.3c0.4-0.4,0.9-0.9,1.3-1.4c11.1-11.5,35.4-44.5,44.4-64.9
				c0.8-1.8,1.5-3.7,2.1-5.6c4.2-12.5,13.3-8.4,13.3-8.4s18.4,9.2,38.2,25.8c0,0-21.5,46-64.9,78.6l-19.6-15.2
				C738.5,272.5,736,270.6,734.2,272.3z"/>
			<g>
				
					<ellipse transform="matrix(0.6428 -0.766 0.766 0.6428 8.3076 641.2682)" class="st1" cx="691.8" cy="311.7" rx="2.3" ry="2.3"/>
				
					<ellipse transform="matrix(0.6428 -0.766 0.766 0.6428 28.1176 646.5424)" class="st1" cx="707.4" cy="293.1" rx="2.3" ry="2.3"/>
				
					<ellipse transform="matrix(0.6427 -0.7661 0.7661 0.6427 47.9779 651.9811)" class="st1" cx="723" cy="274.6" rx="2.3" ry="2.3"/>
				<path class="st1" d="M818.3,208.3c-10.8,24.6-27.9,46.9-48,64.6c-4.6,4-9.4,7.6-14.4,11c8.8-8.5,17.7-17,25.8-26.2
					c9.5-10.8,18.3-22.2,26.5-34C811.6,218.6,815,213.4,818.3,208.3z"/>
				<path class="st1" d="M732.4,274.3c-1.2,1.7-2.1,3.3-4,4.1c-2.6,1.1-4.9,3-6.6,5.3c-1.5,2-2.5,4.4-3.8,6.6
					c-1.7,2.6-3.7,5-5.9,7.2c-3.9,4.1-9.1,7.4-11.4,12.8c-1,2.5-0.7,5.6-2.1,7.9c-1.2,1.8-3.4,2.7-5.3,1.7c2.3,0.3,4.4-1,5.1-3.2
					c0.4-1.2,0.3-2.4,0.5-3.6c0.2-1.4,0.6-2.7,1.2-4c2.4-5.3,7.6-8.8,11.5-12.9c2.2-2.3,4.3-4.7,6-7.4c1.3-2.1,2.3-4.2,3.9-6.1
					c1.8-2.1,4.1-3.8,6.8-4.7C730,277.2,731,275.7,732.4,274.3z"/>
				
					<ellipse transform="matrix(0.6427 -0.7661 0.7661 0.6427 131.5285 668.0336)" class="st1" cx="782" cy="193" rx="3.6" ry="3.6"/>
				<path class="st1" d="M730.5,269.1l-6.7-5.6c0.4-0.4,0.9-0.9,1.3-1.4L730.5,269.1z"/>
			</g>
		</g>
		<g>
			<path class="st1" d="M788,260.1c-1.8-2.3-3.3-4.1-4.2-5.3c-0.8-1-2-1.6-3.3-1.6c-0.4,0-0.8,0.1-1.1,0.1l-24.9-29.6
				c-5.3,8.1-11.1,16.2-16.4,23.1c5.5,7.3,11.7,15.1,18.8,23.6l1.6,1.9l8.1-6.8c0,1,0.4,2,1,2.8c0.9,1.1,1.9,2.1,2.8,3.2
				c1,1.2,2,2.3,3,3.5C778.7,270,783.5,265,788,260.1z"/>
			<g>
				<path class="st0" d="M807.2,310.3c0.6,4.2,2.4,8.1,6.3,10.6c3.8,2.4,7.8,1.3,10.7-2c2.3-2.6,2.8-6.2,1.5-9.4
					c-1.2-3.2-3.8-5.5-6.2-7.8c-3.1-3.1-6.1-6.5-9-9.8c-10.9-12.7-24.8-30.5-28.9-35.5c-0.6-0.8-1.7-0.9-2.5-0.2l-0.6,0.5L721,188.2
					c-3.8-4.5-8.1-8.6-12.8-12.1c-2.4-1.7-5-3.4-7.7-4.7c0,0-1.9,26,58.1,97.5l9.2-7.7l2.3,2.7l-0.5,0.4c-0.7,0.6-0.8,1.8-0.2,2.5
					c3.7,4.3,7.3,8,10.6,12.8c4.5,6.6,11.8,17,19.7,21.4c1.3,0.7,2.5,1.5,3.6,2.5C805.6,305.1,806.7,307,807.2,310.3z"/>
				<g>
					
						<ellipse transform="matrix(0.7661 -0.6428 0.6428 0.7661 -9.1669 598.6321)" class="st1" cx="817.8" cy="311.9" rx="2.6" ry="2.6"/>
					
						<ellipse transform="matrix(0.766 -0.6428 0.6428 0.766 0.6828 581.5586)" class="st1" cx="799.2" cy="289.8" rx="2.6" ry="2.6"/>
					
						<ellipse transform="matrix(0.766 -0.6428 0.6428 0.766 10.5918 564.3962)" class="st1" cx="780.6" cy="267.6" rx="2.6" ry="2.6"/>
					<path class="st1" d="M704.5,175.7c2.4,12.8,8.3,25,15,36.1c7.6,12.8,16.1,25.1,25.7,36.6c4.6,5.6,9.5,10.9,14.5,16.1
						c-15.8-22.9-33.2-44.6-46.5-69.1C709.7,189.2,706.7,182.6,704.5,175.7z"/>
					<path class="st1" d="M773.7,268.5c3.4,4.3,6.5,8.7,9.6,13.3c3.6,5.2,7.5,10.5,12.5,14.5c4.9,4,11.1,5.9,12.8,12.7
						c0.8,3.2,1.2,6.2,3.6,8.7c1.7,1.7,4.3,3.3,6.7,2c-2.6,0.4-4.7-1.2-6.3-3.1c-1.8-2.3-2.2-5-2.8-7.8c-0.7-3.2-2.4-5.9-4.9-8
						c-2.3-2-5.2-3.3-7.6-5.2C787.9,287.9,782.3,276.9,773.7,268.5z"/>
					<polygon class="st1" points="772.1,262.2 778.7,256.6 777.5,255.1 					"/>
				</g>
			</g>
		</g>
	</g>
</g>
<g>
	<path class="st0" d="M543.5,932.4h14.4c4.2,0,6.3,1.7,6.3,5V951c0,3.3-2.1,5-6.3,5h-9v15.9h-5.4V932.4z M558.7,950.3v-12.2
		c0-0.8-0.1-1.4-0.4-1.6c-0.3-0.2-1-0.3-2-0.3h-7.4v16.1h7.4c1.1,0,1.7-0.1,2-0.3C558.6,951.7,558.7,951.1,558.7,950.3z"/>
	<path class="st0" d="M584.2,955.3v16.5h-5.4v-39.5h14.4c4.2,0,6.3,1.7,6.3,5v12.9c0,3-1.6,4.7-4.9,5l7.5,16.6h-5.9l-7.2-16.5H584.2
		z M584.2,936.1v15.5h7.4c1.1,0,1.7-0.1,2-0.3s0.4-0.8,0.4-1.6v-11.6c0-0.8-0.1-1.4-0.4-1.6c-0.3-0.2-1-0.3-2-0.3h-7.4V936.1z"/>
	<path class="st0" d="M621.1,968.1h13.6v3.7h-19v-39.5h18.5v3.7h-13v13.3h10.6v3.7h-10.6L621.1,968.1L621.1,968.1z"/>
	<path class="st0" d="M653.2,971.8h-4.7v-39.5h5.9l8.5,25.4l8.6-25.4h6v39.5h-4.7V942l-6.9,21.3h-5.8l-6.9-21.3L653.2,971.8
		L653.2,971.8z"/>
	<path class="st0" d="M695,932.4h5.4v39.5H695V932.4z"/>
	<path class="st0" d="M732.8,932.4h5.4v34.5c0,3.3-2.1,5-6.3,5h-8.1c-4.2,0-6.3-1.7-6.3-5v-34.5h5.4v33.8c0,0.8,0.2,1.4,0.5,1.6
		c0.3,0.2,1,0.3,2,0.3h4.9c1,0,1.7-0.1,2-0.3s0.5-0.8,0.5-1.6L732.8,932.4L732.8,932.4z"/>
	<path class="st0" d="M759.3,971.8h-4.7v-39.5h5.9l8.5,25.4l8.6-25.4h5.9v39.5h-4.7V942l-6.9,21.3h-5.8l-6.9-21.3v29.8H759.3z"/>
	<path class="st0" d="M824.4,971.8c-4.2,0-6.3-1.7-6.3-5v-29.4c0-3.3,2.1-5,6.3-5h8.1c4.2,0,6.3,1.7,6.3,5v29.4c0,3-1.6,4.7-4.9,5
		l5.2,6.2h-5.4l-5-6.2H824.4z M823.5,938.1v28.1c0,0.8,0.2,1.4,0.5,1.6c0.3,0.2,1,0.3,2,0.3h4.9c1,0,1.7-0.1,2-0.3s0.5-0.8,0.5-1.6
		v-28.1c0-0.8-0.2-1.4-0.5-1.6c-0.3-0.2-1-0.3-2-0.3H826c-1,0-1.7,0.1-2,0.3C823.6,936.7,823.5,937.2,823.5,938.1z"/>
	<path class="st0" d="M870,932.4h5.4v34.5c0,3.3-2.1,5-6.3,5H861c-4.2,0-6.3-1.7-6.3-5v-34.5h5.4v33.8c0,0.8,0.2,1.4,0.5,1.6
		c0.3,0.2,1,0.3,2,0.3h4.9c1,0,1.7-0.1,2-0.3s0.5-0.8,0.5-1.6L870,932.4L870,932.4z"/>
	<path class="st0" d="M908,971.8l-2.1-10h-10l-1.8,10h-5.5l7.7-39.5h8.7l8.5,39.5H908z M896.6,958.1h8.7l-4.6-22.7L896.6,958.1z"/>
	<path class="st0" d="M932.3,968.1h11.3v3.7h-16.7v-39.5h5.4V968.1z"/>
	<path class="st0" d="M957.2,932.4h5.4v39.5h-5.4V932.4z"/>
	<path class="st0" d="M997.3,932.4v3.7h-7.9v35.7H984v-35.7h-8v-3.7H997.3z"/>
	<path class="st0" d="M1021.2,971.8h-5.4v-12.1l-9.8-27.4h5.5l7,23.2l6.6-23.2h5.5l-9.4,27.4L1021.2,971.8L1021.2,971.8z"/>
</g>
<g>
	<path class="st0" d="M412,328.5l-55.7-35c-0.4-0.3-0.6-0.8-0.3-1.2l3.6-5.7c0.3-0.5,0.8-0.6,1.2-0.3l49.4,31l12.5-19.9
		c0.3-0.4,0.7-0.6,1.1-0.3l5.6,3.5c0.4,0.3,0.6,0.8,0.3,1.2l-16.5,26.4C412.9,328.7,412.4,328.8,412,328.5z"/>
	<path class="st0" d="M445,281.6c-6,7.7-16.3,9.1-24.1,3L394.7,264c-7.6-5.9-8.7-16.6-2.8-24.1c5.8-7.4,16.5-8.7,24-2.9l26.3,20.6
		C449.7,263.5,451,274,445,281.6z M398.6,245.1c-2.9,3.7-2.5,9.3,1.3,12.2l26.3,20.6c3.6,2.8,9.5,2.1,12.3-1.6
		c1.4-1.8,1.9-4.2,1.7-6.4l0.1,0.1c-0.4-2.2-1.5-4.4-3.4-5.8l-26.3-20.6C406.8,240.7,401.5,241.4,398.6,245.1z"/>
	<path class="st0" d="M465.3,221c0.4-0.4,0.9-0.4,1.2,0l5.4,5.2c6.9,6.6,7,17.3,0.4,24.1c-6.9,7.1-17.1,7.4-24.2,0.5l-24-23.3
		c-7-6.8-6.9-17.3-0.2-24.2c2.6-2.7,6.1-4.2,9.7-4.8c-0.8-2.5-0.3-4.9,1.6-6.8c0.4-0.4,0.9-0.4,1.3,0l17,16.5c0.4,0.4,0.4,0.9,0,1.3
		l-4.7,4.8c-0.4,0.4-0.9,0.4-1.3,0l-5.4-5.2c-3.2-3.1-9-3.1-12.1,0.2c-3.2,3.3-3.4,9.1,0,12.3l24,23.3c3.6,3.5,9,3.3,12.4-0.2
		c1.5-1.6,2.3-4,2.2-6.1l0.1,0.1c-0.2-2.2-1-4.6-2.6-6.2l-5.4-5.2c-0.4-0.4-0.4-0.9,0-1.2L465.3,221z"/>
	<path class="st0" d="M515.3,210.7l-12.9-9.2l-13.2,10.7l6.3,14.6c0.1,0.3,0.1,1.1-0.2,1.3l-5.2,4.3c-0.3,0.3-1.1,0.1-1.4-0.3
		l-27.4-62.4c-0.1-0.3-0.1-1.1,0.2-1.3l3.5-2.9c0.3-0.2,1.1-0.1,1.3,0.1l55.7,39.3c0.4,0.3,0.3,1.1,0,1.4l-5.4,4.4
		C516.3,211,515.6,210.9,515.3,210.7z M476.6,183.4l9,20.8l9.6-7.8L476.6,183.4z"/>
	<path class="st0" d="M528.3,201l-35.6-55.4c-0.3-0.4-0.2-0.9,0.3-1.2l5.7-3.6c0.5-0.3,0.9-0.2,1.2,0.3l31.5,49.1l19.8-12.7
		c0.4-0.3,0.9-0.3,1.2,0.2l3.6,5.6c0.3,0.4,0.2,0.9-0.3,1.2l-26.2,16.8C529,201.5,528.6,201.4,528.3,201z"/>
	<path class="st0" d="M583.4,168.8c0.2,0.5,0,1-0.4,1.2l-6,2.8c-0.5,0.2-0.9,0-1.2-0.4l-27.4-59.8c-0.2-0.5-0.1-1,0.4-1.2l28.2-13
		c0.5-0.2,1,0,1.2,0.4l2.8,6.1c0.2,0.5,0,1-0.4,1.2l-21.4,9.8l7.2,15.8l10.6-4.9c0.5-0.2,1,0,1.2,0.4l2.8,6c0.2,0.5,0,1-0.4,1.2
		l-10.6,4.9L583.4,168.8z"/>
	<path class="st0" d="M645,145.1l-8.7-13.3l-16.1,5.2l0.5,15.9c0,0.3-0.3,1-0.6,1.1l-6.4,2.1c-0.4,0.1-1.1-0.3-1.2-0.7l-2.9-68
		c0-0.4,0.3-1,0.6-1.1l4.3-1.4c0.3-0.1,1,0.3,1.2,0.5l37.6,56.7c0.2,0.4-0.1,1.2-0.5,1.3l-6.6,2.2
		C645.8,145.8,645.2,145.4,645,145.1z M618.8,105.8l0.8,22.6l11.8-3.8L618.8,105.8z"/>
	<path class="st0" d="M660.5,140.8l-12.9-64.5c-0.1-0.5,0.2-0.9,0.7-1L670,71c5.4-1.1,10.4,2.5,11.5,7.8l2.8,14.1
		c0.4,1.9,0.2,4-0.6,5.8c1.4,1.3,2.4,3.1,2.8,5l5.5,27.5c0.3,1.7,2.2,2.2,2.4,2.9c0.1,0.5-0.2,0.9-0.7,1l-8.3,1.7
		c-0.5,0.1-0.9-0.2-1-0.7l-6.1-30.7c-0.5-0.5-0.8-0.8-1.4-0.9l-14.4,2.9l6.3,31.8c0.1,0.5-0.2,0.9-0.7,1l-6.5,1.3
		C661,141.6,660.6,141.3,660.5,140.8z M675.2,96.2c0.2,0,0.6-0.4,0.7-0.5c0-0.4,0.3-0.9,0.2-1.2l-2.8-14.1c-0.1-0.6-0.9-1.1-1.5-1.1
		l-14.4,2.9l3.4,17L675.2,96.2z"/>
	<path class="st0" d="M709.8,132.2c0,0.5-0.3,0.9-0.8,1l-6.6,0.6c-0.5,0-0.7-0.4-0.8-0.8l-5.5-65.5c0-0.4,0.1-0.9,0.6-0.9l5.8-0.5
		c1,0.7,1.3,1.7,1.7,2.8l14.3,34.3l8.5-36.1v0.1c0.1-0.7,0-3.1,1.1-3.2l5.9-0.5c0.5,0,0.9,0.3,1,0.8l5.5,65.5c0,0.5-0.3,0.9-0.8,1
		l-6.7,0.6c-0.4,0-0.8-0.4-0.9-0.8l-3-35c-1.8,7.5-3.5,15-5.3,22.5l-2.4,10.1c-0.1,0.4-0.4,0.7-0.8,0.8c-0.4,0-0.7-0.3-0.9-0.6
		c-4.3-10.5-8.7-20.8-13.1-31.3L709.8,132.2z"/>
	<path class="st0" d="M771.5,130c0,0.5-0.4,0.9-0.9,0.8l-6.6-0.5c-0.5,0-0.9-0.4-0.8-0.9l4.6-65.6c0-0.5,0.4-0.9,0.9-0.8l31,2.2
		c0.5,0,0.9,0.4,0.8,0.9l-0.5,6.7c0,0.5-0.4,0.9-0.9,0.8L775.5,72l-1.2,17.3l11.6,0.8c0.5,0,0.9,0.4,0.8,0.9l-0.5,6.6
		c0,0.5-0.4,0.9-1,0.8l-11.6-0.8L771.5,130z"/>
	<path class="st0" d="M803.4,132.4l10.8-64.9c0.1-0.5,0.5-0.8,1-0.7l21.9,3.7c5.4,0.9,8.9,6,8,11.4L842.7,96
		c-0.3,1.9-1.3,3.8-2.7,5.2c0.9,1.8,1.2,3.8,0.8,5.7l-4.6,27.7c-0.3,1.7,1.3,2.8,1.2,3.5c-0.1,0.5-0.5,0.8-1,0.7l-8.4-1.4
		c-0.5-0.1-0.8-0.5-0.7-1l5.1-30.9c-0.3-0.6-0.5-1-1-1.3l-14.5-2.4l-5.3,32c-0.1,0.5-0.5,0.8-1,0.7l-6.5-1.1
		C803.6,133.3,803.3,132.9,803.4,132.4z M832.9,95.9c0.2,0,0.7-0.1,0.8-0.2c0.1-0.3,0.6-0.7,0.6-1.1l2.4-14.2c0.1-0.6-0.5-1.3-1-1.6
		l-14.5-2.4l-2.9,17.1L832.9,95.9z"/>
	<path class="st0" d="M877.5,141.1c0.5,0.1,0.8,0.5,0.6,1l-1.8,6.4c-0.1,0.5-0.6,0.8-1.1,0.6l-30-8.3c-0.5-0.1-0.8-0.6-0.6-1.1
		l17.5-63.4c0.1-0.5,0.6-0.8,1.1-0.6l30,8.3c0.5,0.1,0.8,0.6,0.6,1.1l-1.8,6.5c-0.1,0.5-0.6,0.8-1.1,0.6L868.3,86l-4.6,16.7
		l11.3,3.1c0.5,0.1,0.7,0.6,0.6,1.1l-1.8,6.4c-0.1,0.5-0.6,0.8-1.1,0.6l-11.3-3.1l-6.7,24.1L877.5,141.1z"/>
	<path class="st0" d="M929.8,124.5l-6.3-2.5c-0.5-0.2-0.7-0.6-0.5-1.1l2.7-6.8c1.7-4.3-0.7-9.5-4.9-11.1c-4.3-1.7-9.7,0.4-11.4,4.8
		c-6.6,16.9,22.3,14.2,12.1,40.1c-3.5,8.9-13.3,13.7-22.3,10.1c-9.2-3.6-13.4-13-9.8-22.2l2.9-7.3c0.2-0.5,0.7-0.7,1.2-0.5l6.2,2.4
		c0.5,0.2,0.7,0.7,0.5,1.1l-2.9,7.3c-1.8,4.6,0.4,9.6,5,11.4c2.1,0.8,4.6,0.7,6.6-0.1h-0.1c2.1-1.3,3.9-3,4.9-5.4
		c7.8-19.8-21.6-15.7-12.3-39.2c3.7-9.3,13.1-14.2,22.6-10.5c8.6,3.4,13,13.6,9.7,22.1l-2.7,6.8
		C930.7,124.5,930.3,124.7,929.8,124.5z"/>
	<path class="st0" d="M922.1,166.5l30.4-58.4c0.3-0.5,0.7-0.6,1.2-0.4l6,3.1c0.5,0.2,0.6,0.7,0.4,1.2l-11.5,22.1l14.1,7.3l11.5-22.1
		c0.2-0.5,0.7-0.6,1.2-0.4l5.9,3.1c0.5,0.2,0.6,0.7,0.4,1.2l-30.4,58.4c-0.2,0.5-0.7,0.6-1.2,0.4l-5.9-3.1c-0.5-0.2-0.6-0.7-0.4-1.2
		l15-28.8l-14.1-7.3l-15,28.8c-0.2,0.5-0.7,0.6-1.2,0.4l-6-3.1C922,167.5,921.9,167,922.1,166.5z"/>
	<path class="st0" d="M977.1,198.1c-0.3,0.4-0.8,0.5-1.2,0.2l-5.4-3.9c-0.4-0.3-0.3-0.8-0.1-1.1l38.7-53.2c0.3-0.4,0.7-0.6,1.1-0.3
		l4.7,3.4c0.3,1.2-0.1,2.1-0.5,3.2l-11.6,35.3l30-21.8v0.1c0.6-0.5,2-2.3,3-1.7l4.8,3.5c0.4,0.3,0.5,0.8,0.2,1.2l-38.7,53.2
		c-0.3,0.4-0.8,0.5-1.2,0.2l-5.4-4c-0.4-0.3-0.4-0.8-0.1-1.2L1016,183c-6.2,4.5-12.5,9.1-18.7,13.6l-8.5,6.1
		c-0.3,0.2-0.8,0.3-1.1,0.1s-0.4-0.7-0.2-1c3.6-10.8,7.1-21.4,10.5-32.2L977.1,198.1z"/>
	<path class="st0" d="M1036.5,237.2c0.4,0.4,0.5,0.8,0.1,1.2l-4.5,4.9c-0.4,0.4-0.9,0.4-1.3,0.1l-23-20.9c-0.4-0.4-0.4-0.9-0.1-1.3
		l44.3-48.7c0.4-0.4,0.9-0.4,1.3-0.1l23,20.9c0.4,0.4,0.4,0.9,0.1,1.2l-4.5,5c-0.3,0.4-0.9,0.4-1.2,0.1l-17.4-15.8l-11.7,12.8
		l8.7,7.9c0.4,0.4,0.4,0.9,0.1,1.3l-4.5,4.9c-0.3,0.4-0.9,0.4-1.2,0.1l-8.7-7.9l-16.8,18.5L1036.5,237.2z"/>
	<path class="st0" d="M1060.1,274.1l8.8-13.2l-11.2-12.8l-14.4,6.7c-0.3,0.1-1.1,0.1-1.3-0.1l-4.4-5.1c-0.3-0.3-0.2-1.1,0.2-1.4
		l61.4-29.5c0.3-0.2,1.1-0.1,1.3,0.1l3,3.4c0.2,0.3,0.1,1.1,0,1.3l-37.4,57c-0.3,0.4-1.1,0.4-1.4,0l-4.6-5.3
		C1059.8,275.2,1059.9,274.4,1060.1,274.1z M1086,234.6l-20.5,9.7l8.1,9.3L1086,234.6z"/>
	<path class="st0" d="M1082,303.9c-0.4,0.3-0.9,0.2-1.2-0.2l-3.8-5.5c-0.3-0.4-0.2-0.9,0.2-1.2l47.9-33.1l-6.5-9.4
		c-0.3-0.4-0.2-0.9,0.2-1.2l5.5-3.8c0.4-0.3,0.9-0.2,1.2,0.2l17.7,25.6c0.3,0.4,0.2,0.9-0.2,1.2l-5.5,3.8c-0.4,0.3-0.9,0.2-1.2-0.2
		l-6.4-9.2L1082,303.9z"/>
</g>
<g>
	<path class="st0" d="M358.6,791.7c3.1,0,6,0.3,8.8,0.8c2.7,0.5,5.2,1.2,7.4,2c2.2,0.8,4.2,1.7,5.8,2.6c1.6,0.9,3,1.7,4,2.5v-5h23
		v38h-24.4c0-3.1-0.4-5.7-1.2-7.8c-0.8-2.1-1.8-3.8-3.1-5.1c-1.3-1.3-2.8-2.2-4.5-2.8s-3.6-0.8-5.6-0.8c-2.7,0-5.1,0.5-7.1,1.6
		c-2,1-3.5,2.7-4.8,5.1c-1.2,2.3-2.2,5.4-2.8,9.3c-0.6,3.9-0.9,8.6-0.9,14.1c0,5.6,0.3,10.3,1,14.1s1.7,6.9,3.1,9.2
		c1.4,2.4,3.1,4,5.3,5.1c2.1,1,4.7,1.6,7.7,1.6c2,0,3.9-0.4,5.8-1.2s3.5-1.9,4.9-3.5s2.5-3.6,3.4-5.9c0.8-2.4,1.2-5.2,1.2-8.6H410
		c0,5.9-0.9,11.5-2.8,16.8s-4.8,9.9-8.7,13.8c-4,4-9,7.1-15.1,9.4c-6.1,2.3-13.3,3.5-21.7,3.5c-7.5,0-14.7-1-21.4-3.1
		c-6.7-2-12.6-5.3-17.6-9.6c-5-4.4-9-10-11.9-16.9s-4.4-15.1-4.4-24.7c0-9.6,1.5-17.9,4.4-24.7c3-6.9,6.9-12.5,11.7-16.9
		c4.9-4.4,10.4-7.6,16.6-9.6C345.5,792.7,351.9,791.7,358.6,791.7z"/>
	<path class="st0" d="M455.8,830.1c-2.4,0-4.4,0.2-6.1,0.5s-3.2,0.8-4.4,1.2c-1.2,0.5-2.2,1-3,1.6s-1.5,1.1-2.1,1.6l0.7,0.7
		c0.9-0.5,1.8-0.9,2.9-1.4c1-0.5,2.4-0.7,4-0.7c2.7,0,5.1,0.9,7.1,2.7s3,4.6,3,8.6c0,3.7-1.5,6.7-4.6,9c-3,2.3-7.1,3.4-12.3,3.4
		c-4.9,0-8.8-1.4-11.7-4.2c-2.9-2.8-4.4-6.8-4.4-12c0-2.8,0.8-5.7,2.4-8.5s4-5.3,7.4-7.6c3.3-2.2,7.6-4.1,12.7-5.5
		s11.3-2.2,18.6-2.2c8.7,0,15.7,0.8,21.2,2.4c5.5,1.6,9.8,3.7,12.8,6.3s5.1,5.5,6.3,8.7c1.1,3.3,1.7,6.5,1.7,9.8v27.3
		c0,4.2,0.1,7.1,0.4,8.6s1.3,2.3,3.1,2.3c1.4,0,2.5-0.7,3-2.1c0.6-1.4,0.9-3.7,0.9-7.1v-8.7h8v8.9c0,4.2-0.3,7.9-1,11.1
		c-0.7,3.2-2,6-4,8.3s-4.6,4-8,5.2c-3.4,1.2-7.6,1.8-12.8,1.8c-4.7,0-8.6-0.5-11.7-1.5s-5.6-2.2-7.4-3.7s-3.1-3-3.9-4.6
		s-1.2-3-1.2-4.3h-1.1c-0.3,1.9-1.1,3.7-2.4,5.4s-3.2,3.2-5.5,4.6c-2.4,1.3-5.2,2.4-8.4,3.2c-3.3,0.8-7,1.2-11.2,1.2
		c-4,0-7.6-0.4-10.9-1.2s-6.1-2-8.4-3.6c-2.3-1.7-4.1-3.8-5.4-6.4c-1.3-2.6-1.9-5.8-1.9-9.4c0-4.5,1.3-8,3.8-10.6s5.7-4.6,9.5-6.1
		s8-2.7,12.5-3.7s8.6-2.1,12.5-3.5c3.8-1.3,7-3.1,9.5-5.2c2.5-2.1,3.8-5.2,3.8-9.1c0-3.5-1.1-6.3-3.3-8.4
		C464.4,831.1,460.8,830.1,455.8,830.1z M469.9,860.3c-1,1.5-2.3,2.7-3.8,3.6c-1.5,0.9-3,1.8-4.4,2.7s-2.7,1.9-3.7,3.1
		s-1.6,2.8-1.6,4.8c0,1.5,0.4,2.9,1.3,4.2c0.8,1.2,2.5,1.9,4.9,1.9c2.2,0,4-0.8,5.3-2.5c1.4-1.7,2.1-4.1,2.1-7.2L469.9,860.3
		L469.9,860.3z"/>
	<path class="st0" d="M569.7,820.4l-1.2,19.2h1.2c1.6-7.4,4.3-12.9,8.1-16.7s8.7-5.7,14.8-5.7c3.6,0,6.7,0.6,9.2,1.7
		c2.6,1.1,4.7,2.7,6.2,4.6c1.6,1.9,2.7,4.1,3.4,6.6s1,5.1,1,7.7c0,2.2-0.3,4.4-1,6.5s-1.7,4.1-3.1,5.8c-1.4,1.7-3.3,3.1-5.6,4.2
		c-2.3,1-5.1,1.6-8.4,1.6c-4.7,0-8.3-1.2-11-3.6c-2.7-2.4-4-5.2-4-8.6c0-1.6,0.2-3,0.6-4.2c0.4-1.1,0.8-2.1,1.2-2.8s0.7-1.2,0.8-1.6
		c0.1-0.3,0-0.5-0.5-0.5c-1,0-2,1.1-3.2,3.4c-1.1,2.2-1.7,5.7-1.7,10.5v16c0,2.5,0.4,4.2,1.3,5.3c0.9,1,2.5,1.6,5,1.6h4.2v25.9
		h-58.8v-25.9h4.1c1.9,0,3.4-0.6,4.4-1.9c1-1.2,1.5-2.7,1.5-4.4v-13.3c0-2.2-0.6-3.7-1.9-4.4c-1.3-0.8-2.7-1.2-4.4-1.2h-3.7v-25.9
		h41.5V820.4z"/>
	<path class="st0" d="M684.1,852.7c0-1.8-0.2-3.3-0.7-4.4c-0.4-1.1-1-1.9-1.7-2.5s-1.4-1-2.3-1.2c-0.8-0.2-1.7-0.3-2.4-0.3
		c-3,0-5.3,0.9-6.8,2.7s-2.2,4.3-2.2,7.5v10c0,2.5,0.4,4.2,1.3,5.3c0.9,1,2.5,1.6,5,1.6h3.8v25.9h-58.4v-25.9h4.1
		c1.9,0,3.4-0.6,4.4-1.9c1-1.2,1.5-2.7,1.5-4.4v-13.3c0-2.2-0.6-3.7-1.9-4.4c-1.3-0.8-2.7-1.2-4.4-1.2h-3.7v-25.9h41.5l-1.5,19.2
		h1.2c1-7.2,4.2-12.7,9.4-16.5c5.3-3.9,12.4-5.8,21.4-5.8c6.4,0,11.6,0.9,15.6,2.7s7.1,4.1,9.3,6.9c2.2,2.8,3.7,5.8,4.5,9
		s1.2,6.3,1.2,9.1v19.6c0,2.5,0.4,4.2,1.3,5.3c0.9,1,2.5,1.6,5,1.6h3.8v25.9h-48.3L684.1,852.7L684.1,852.7z"/>
	<path class="st0" d="M788.2,820.4v43.5c0,3.1,0.8,5.2,2.3,6.1c1.5,1,3.5,1.4,5.9,1.4h1.9v25.9h-58.8v-25.9h2.7
		c2.5,0,4.3-0.8,5.5-2.3c1.2-1.6,1.8-3.2,1.8-5.1v-9.8c0-2.7-0.9-4.7-2.5-6c-1.7-1.3-3.7-1.9-5.9-1.9h-1.5v-25.9H788.2z
		 M748.4,803.2c0-4,1.5-7.4,4.6-10.3c3-2.8,7.4-4.3,13-4.3c5.7,0,10.1,1.4,13.2,4.3c3.1,2.8,4.6,6.3,4.6,10.3
		c0,4.1-1.5,7.6-4.6,10.4c-3.1,2.8-7.5,4.2-13.2,4.2c-5.6,0-10-1.4-13-4.2C749.9,810.7,748.4,807.3,748.4,803.2z"/>
	<path class="st0" d="M810.3,852.3c-1-2.1-2.1-3.6-3.4-4.6c-1.3-1-3.7-1.4-7.2-1.4v-25.9h56.1v25.9c-3,0-4.9,0.4-5.8,1.3
		c-0.9,0.9-0.9,2.2-0.2,4l7.5,21.4h1l8-21.4c0.7-1.7,0.6-3-0.2-3.9c-0.9-0.9-2.8-1.4-5.8-1.4v-25.9h38.9v25.9
		c-3.4,0-5.8,0.5-7.2,1.4s-2.6,2.5-3.5,4.6l-18.7,45H829L810.3,852.3z"/>
	<path class="st0" d="M902,858.7c0-6.8,1.2-12.8,3.6-18c2.4-5.2,5.8-9.5,10.2-12.9c4.4-3.5,9.7-6.1,15.9-7.9
		c6.2-1.8,13.1-2.7,20.7-2.7c7.6,0,14.5,0.9,20.7,2.7s11.5,4.4,15.8,7.9c4.4,3.5,7.8,7.8,10.2,12.9c2.4,5.2,3.6,11.2,3.6,18
		c0,6.7-1.2,12.7-3.6,17.9c-2.4,5.2-5.8,9.6-10.2,13.1s-9.7,6.2-15.8,7.9c-6.2,1.8-13.1,2.7-20.7,2.7c-7.6,0-14.5-0.9-20.7-2.7
		s-11.5-4.4-15.9-7.9s-7.8-7.9-10.2-13.1C903.2,871.4,902,865.4,902,858.7z M941.8,858.7c0,3.9,0.2,7.2,0.5,9.9s0.9,4.9,1.7,6.6
		c0.8,1.7,1.9,2.9,3.2,3.6c1.3,0.8,3.1,1.2,5.2,1.2c2.1,0,3.8-0.4,5.1-1.2s2.4-2,3.2-3.6s1.4-3.8,1.7-6.6c0.3-2.7,0.5-6,0.5-9.9
		c0-7.8-0.7-13.3-2.2-16.4c-1.5-3.1-4.2-4.7-8.3-4.7c-2.1,0-3.8,0.4-5.2,1.1c-1.4,0.7-2.4,1.9-3.2,3.6c-0.8,1.7-1.4,3.8-1.7,6.6
		C941.9,851.5,941.8,854.8,941.8,858.7z"/>
	<path class="st0" d="M1052.8,820.4l-1.2,19.2h1.2c1.6-7.4,4.3-12.9,8.1-16.7s8.7-5.7,14.8-5.7c3.6,0,6.7,0.6,9.2,1.7
		c2.6,1.1,4.7,2.7,6.2,4.6c1.6,1.9,2.7,4.1,3.4,6.6c0.7,2.5,1,5.1,1,7.7c0,2.2-0.3,4.4-1,6.5s-1.7,4.1-3.1,5.8s-3.3,3.1-5.6,4.2
		c-2.3,1-5.1,1.6-8.4,1.6c-4.7,0-8.3-1.2-11-3.6c-2.7-2.4-4-5.2-4-8.6c0-1.6,0.2-3,0.6-4.2c0.4-1.1,0.8-2.1,1.2-2.8
		c0.4-0.7,0.7-1.2,0.8-1.6c0.1-0.3,0-0.5-0.5-0.5c-1,0-2,1.1-3.2,3.4c-1.1,2.2-1.7,5.7-1.7,10.5v16c0,2.5,0.4,4.2,1.3,5.3
		c0.9,1,2.5,1.6,5,1.6h4.2v25.9h-58.8v-25.9h4.1c1.9,0,3.4-0.6,4.4-1.9c1-1.2,1.5-2.7,1.5-4.4v-13.3c0-2.2-0.6-3.7-1.9-4.4
		c-1.3-0.8-2.7-1.2-4.4-1.2h-3.7v-25.9h41.5V820.4z"/>
	<path class="st0" d="M1139.5,863.2c0.2,6.9,1.5,11.7,3.9,14.3s5.9,3.9,10.5,3.9c1.5,0,3-0.2,4.5-0.7c1.5-0.4,2.8-1.2,4.1-2.2
		c1.3-1,2.3-2.3,3.2-4c0.9-1.7,1.5-3.7,1.8-6.2h25.4c-0.9,6-2.6,11-5.1,15.1c-2.5,4-5.7,7.3-9.6,9.8s-8.5,4.3-13.6,5.4
		s-11,1.6-17.3,1.6c-6.6,0-12.7-0.8-18.5-2.5s-10.8-4.2-15.2-7.6c-4.4-3.4-7.8-7.7-10.2-12.9c-2.5-5.2-3.7-11.4-3.7-18.5
		c0-6.8,1.2-12.8,3.5-18s5.6-9.5,9.8-12.9c4.2-3.5,9.2-6.1,14.9-7.9c5.7-1.8,12.1-2.7,19-2.7c8.5,0,15.8,1.1,21.9,3.4
		c6.1,2.2,11.1,5.4,14.9,9.4s6.7,8.8,8.5,14.5c1.8,5.6,2.7,11.9,2.6,18.8L1139.5,863.2L1139.5,863.2z M1149.8,836.1
		c-3.3,0-5.7,1.2-7.2,3.5c-1.6,2.3-2.6,6.1-3.1,11.4h20.5c-0.3-4.6-1.3-8.2-2.9-10.9C1155.3,837.4,1152.9,836.1,1149.8,836.1z"/>
	<path class="st0" d="M1202.4,842c0-3.8,0.7-7.3,2.2-10.5c1.4-3.3,3.4-6.1,5.8-8.6c2.4-2.4,5.3-4.4,8.6-5.8
		c3.3-1.4,6.8-2.1,10.5-2.1s7.3,0.7,10.5,2.1c3.3,1.4,6.1,3.4,8.6,5.8c2.4,2.4,4.4,5.3,5.8,8.6s2.1,6.8,2.1,10.5
		c0,3.8-0.7,7.3-2.1,10.5c-1.4,3.3-3.4,6.1-5.8,8.6c-2.5,2.4-5.3,4.4-8.6,5.8c-3.3,1.4-6.8,2.1-10.5,2.1s-7.3-0.7-10.5-2.1
		c-3.3-1.4-6.1-3.4-8.6-5.8c-2.4-2.5-4.4-5.3-5.8-8.6C1203.1,849.3,1202.4,845.8,1202.4,842z M1208.4,842c0,2.9,0.6,5.6,1.7,8.2
		c1.1,2.5,2.6,4.8,4.5,6.7s4.1,3.4,6.7,4.5c2.5,1.1,5.3,1.7,8.2,1.7s5.6-0.6,8.2-1.7c2.5-1.1,4.8-2.6,6.7-4.5
		c1.9-1.9,3.4-4.1,4.5-6.7c1.1-2.5,1.7-5.3,1.7-8.2s-0.6-5.6-1.7-8.2c-1.1-2.5-2.6-4.8-4.5-6.7s-4.1-3.4-6.7-4.5
		c-2.5-1.1-5.3-1.7-8.2-1.7s-5.6,0.6-8.2,1.7c-2.5,1.1-4.8,2.6-6.7,4.5c-1.9,1.9-3.4,4.1-4.5,6.7S1208.4,839.1,1208.4,842z
		 M1215.3,855.8v-6.7c1.1,0,1.8-0.1,2.2-0.4c0.4-0.3,0.6-0.9,0.6-1.7v-10.7c0-0.8-0.2-1.4-0.6-1.7s-1.1-0.5-2.2-0.5v-6.7h18.3
		c3.4,0,5.8,0.7,7.1,2.1c1.3,1.4,1.9,3.4,1.9,5.8c0,2.1-0.5,3.8-1.4,5.1s-2.4,2-4.4,2.1v0.2c2,0.2,3.3,0.8,4,1.9s1,2.6,1,4.4v1
		c0,0.8,0.3,1.3,1,1.3c0.6,0,0.9-0.4,0.9-1.3v-4.8h2.9v4.8c0,1.9-0.5,3.4-1.6,4.6c-1.1,1.2-2.9,1.8-5.5,1.8c-1.6,0-2.8-0.2-3.7-0.5
		c-0.9-0.3-1.6-0.8-2-1.3c-0.4-0.6-0.7-1.2-0.8-2s-0.1-1.6-0.1-2.5v-1.4c0-1-0.1-1.8-0.3-2.3c-0.2-0.5-0.5-0.9-0.8-1.1
		c-0.3-0.2-0.8-0.3-1.2-0.4c-0.5,0-1,0-1.6,0h-1.3v2.3c0,0.7,0.2,1.2,0.5,1.5s0.9,0.4,1.8,0.4v6.7L1215.3,855.8L1215.3,855.8z
		 M1227.4,840.6h3.4c0.9,0,1.6-0.3,1.9-0.8c0.4-0.5,0.5-1.2,0.5-2.1c0-1.1-0.2-1.9-0.5-2.6c-0.4-0.6-1-1-1.9-1h-3.4V840.6z"/>
</g>
<g>
	<path class="st0" d="M1149.7,448l-13.5,77.7h-9l13.5-77.7h-10v21.9h-8.9v-23.9h27.9V448z"/>
	<path class="st0" d="M1181.2,448l-13.5,77.7h-9l13.5-77.7h-10v21.9h-8.9v-23.9h27.9V448z"/>
	<path class="st0" d="M1211.2,525.7h-14.8v-2.1h2.8v-16.3h-15.4v-2.4l15.4-59h9.1v59h2.8v2.4h-2.8v16.3h2.8V525.7z M1199.2,504.9
		v-49.5l-12.8,49.5H1199.2z"/>
</g>
<g>
	<path class="st0" d="M326.2,525.7h-11.1l-10-38.7v36.7h2.8v2.1h-14.8v-2.1h2.8V448h-2.8v-2.1H308v2.1h-2.8v34.6l12.5-34.6h-2.8
		v-2.1h8.5v2.1h-2.8l-9.8,27l12.6,48.6h2.9V525.7z"/>
	<path class="st0" d="M356.4,525.7h-27.9v-2.1h2.8V448h-2.8v-2.1h14.8v2.1h-2.8v75.7h6.8v-21.9h9.1V525.7z"/>
	<path class="st0" d="M392.3,525.7h-4c-5.3,0-8-2.8-8-8.3v-28.2c0-1.3-0.4-2.3-1.3-3.2c-0.9-0.9-2-1.3-3.2-1.3h-4v39.1h2.8v2.1
		h-14.8v-2.1h2.8V448h-2.8v-2.1h15.9c3.8,0,7,1.1,9.7,3.4c2.7,2.3,4,5,4,8.2v15.4c0,5-2.7,8.5-8,10.6c5.3,2.2,8,5.8,8,10.6v26.4
		c0,2,0.9,3.1,2.6,3.1h0.2V525.7z M380.3,478v-25.4c0-1.3-0.4-2.3-1.3-3.2c-0.9-0.9-2-1.3-3.2-1.3h-4v34.6h4c1.3,0,2.3-0.4,3.2-1.3
		C379.9,480.3,380.3,479.2,380.3,478z"/>
	<path class="st0" d="M422.6,514.6c0,3.2-1.3,6-3.8,8.2c-2.5,2.3-5.6,3.4-9.3,3.4c-3.7,0-6.9-1.1-9.4-3.4c-2.5-2.3-3.8-5-3.8-8.2
		v-12.9h9.1v17.9c0,3,1.3,4.6,4,4.6c2.6,0,4-1.5,4-4.6v-13.9c0-3.8-0.9-7.1-2.7-10l-11.4-17.8c-2-3.1-2.9-6.5-2.9-10.2V457
		c0-3.2,1.3-6,3.8-8.2c2.5-2.3,5.6-3.4,9.4-3.4c3.7,0,6.8,1.1,9.3,3.4c2.5,2.3,3.8,5,3.8,8.2v12.9h-9.1V452c0-3-1.3-4.6-4-4.6
		c-2.7,0-4,1.5-4,4.6v13.4c0,3.7,0.9,7,2.7,9.9l11.4,17.8c2,3.1,2.9,6.5,2.9,10.3V514.6z"/>
</g>
</svg>
