<?xml version="1.0" encoding="utf-8"?>
<!-- Generator: Adobe Illustrator 21.0.2, SVG Export Plug-In . SVG Version: 6.00 Build 0)  -->
<svg version="1.1" id="Layer_1" xmlns="http://www.w3.org/2000/svg" xmlns:xlink="http://www.w3.org/1999/xlink" x="0px" y="0px"
	 viewBox="0 0 3221 1104" style="enable-background:new 0 0 3221 1104;" xml:space="preserve">
<style type="text/css">
	.st0{fill:#A7A9AC;}
	.st1{fill:#D1D3D4;}
</style>
<g>
	<path class="st0" d="M106.7,138.6l-16.8-2.3c-1-0.1-1.7-1-1.6-2l2.3-16.9c0.1-1,1.1-1.7,2.1-1.6l16.8,2.3c1,0.1,1.7,1.1,1.6,2.1
		l-2.3,16.9C108.7,138.1,107.7,138.8,106.7,138.6z M92.2,133l13.2,1.8l1.8-13.2L94,119.7L92.2,133z"/>
</g>
<g>
	<path class="st0" d="M1597.8,547.3l-16.9-2.3c-1-0.1-1.7-1.1-1.6-2.1l2.3-16.8c0.1-1,1.1-1.7,2.1-1.6l16.9,2.3
		c1,0.1,1.7,1.1,1.6,2.1l-2.3,16.9C1599.7,546.7,1598.8,547.4,1597.8,547.3z M1583.2,541.6l13.2,1.8l1.8-13.2l-13.3-1.8
		L1583.2,541.6z"/>
</g>
<g>
	<path class="st0" d="M2612.3,1092.8c-0.8-0.1-1.5-0.5-2-1.1l-12-15.8c-1-1.3-0.8-3.2,0.6-4.2l15.8-12c1.3-1,3.2-0.8,4.2,0.6
		l12,15.7c0.5,0.7,0.7,1.5,0.6,2.2c-0.1,0.8-0.5,1.5-1.2,2l-15.8,12C2613.9,1092.7,2613.1,1092.9,2612.3,1092.8z M2604.9,1074.6
		l8.3,11l11-8.4l-8.4-11L2604.9,1074.6z"/>
</g>
<g>
	<path class="st0" d="M655.7,219.1l-26.1-3.5c-1-0.1-1.9-0.8-2.3-1.7c-0.4-0.9-0.2-2,0.4-2.8l16-20.6c1.2-1.6,4.1-1.2,4.9,0.7
		l10,24.1c0.4,0.9,0.2,2-0.3,2.8C657.7,218.8,656.7,219.2,655.7,219.1z M635.2,210.6l16.3,2.2l-6.2-15L635.2,210.6z"/>
</g>
<g>
	<path class="st0" d="M1679.7,385.1l-26.1-3.5c-1-0.1-1.9-0.8-2.3-1.7c-0.4-0.9-0.2-2,0.4-2.8l16-20.6c1.2-1.6,4.1-1.2,4.9,0.7
		l10,24.1c0.4,0.9,0.2,2-0.3,2.8C1681.7,384.8,1680.7,385.2,1679.7,385.1z M1659.2,376.6l16.3,2.2l-6.2-15L1659.2,376.6z"/>
</g>
<g>
	<path class="st0" d="M100.7,469.1l-26.1-3.5c-1-0.1-1.9-0.8-2.3-1.7c-0.4-0.9-0.2-2,0.4-2.8l16-20.6c1.2-1.6,4.1-1.2,4.9,0.7
		l10,24.1c0.4,0.9,0.2,2-0.3,2.8C102.7,468.8,101.7,469.2,100.7,469.1z M80.2,460.6l16.3,2.2l-6.2-15L80.2,460.6z"/>
</g>
<g>
	<path class="st0" d="M306.7,882.1l-26.1-3.5c-1-0.1-1.9-0.8-2.3-1.7c-0.4-0.9-0.2-2,0.4-2.8l16-20.6c1.2-1.6,4.1-1.2,4.9,0.7
		l10,24.1c0.4,0.9,0.2,2-0.3,2.8C308.7,881.8,307.7,882.2,306.7,882.1z M286.2,873.6l16.3,2.2l-6.2-15L286.2,873.6z"/>
</g>
<g>
	<path class="st0" d="M899.7,917.1l-26.1-3.5c-1-0.1-1.9-0.8-2.3-1.7c-0.4-0.9-0.2-2,0.4-2.8l16-20.6c1.2-1.6,4.1-1.2,4.9,0.7
		l10,24.1c0.4,0.9,0.2,2-0.3,2.8C901.7,916.8,900.7,917.2,899.7,917.1z M879.2,908.6l16.3,2.2l-6.2-15L879.2,908.6z"/>
</g>
<g>
	<path class="st0" d="M2361.6,809.6c-8.8-1.2-15-9.3-13.8-18.1c1.2-8.8,9.3-15,18.2-13.9c8.8,1.2,15,9.3,13.8,18.2
		C2378.5,804.5,2370.4,810.7,2361.6,809.6z M2365.1,783.2c-5.7-0.8-10.9,3.2-11.7,8.9c-0.8,5.7,3.2,10.9,8.9,11.7
		c5.7,0.8,10.9-3.3,11.7-8.9C2374.8,789.2,2370.8,784,2365.1,783.2z"/>
</g>
<g>
	<path class="st0" d="M2333.6,1044.6c-8.8-1.2-15-9.3-13.8-18.1c1.2-8.8,9.3-15,18.2-13.9c8.8,1.2,15,9.3,13.8,18.2
		C2350.5,1039.5,2342.4,1045.7,2333.6,1044.6z M2337.1,1018.2c-5.7-0.8-10.9,3.2-11.7,8.9c-0.8,5.7,3.2,10.9,8.9,11.7
		c5.7,0.8,10.9-3.3,11.7-8.9C2346.8,1024.2,2342.8,1019,2337.1,1018.2z"/>
</g>
<g>
	<path class="st0" d="M2794.6,444.6c-8.8-1.2-15-9.3-13.8-18.1c1.2-8.8,9.3-15,18.2-13.9c8.8,1.2,15,9.3,13.8,18.2
		C2811.5,439.5,2803.4,445.7,2794.6,444.6z M2798.1,418.2c-5.7-0.8-10.9,3.2-11.7,8.9c-0.8,5.7,3.2,10.9,8.9,11.7
		c5.7,0.8,10.9-3.3,11.7-8.9C2807.8,424.2,2803.8,419,2798.1,418.2z"/>
</g>
<g>
	<path class="st0" d="M2620.6,258.6c-8.8-1.2-15-9.3-13.8-18.1c1.2-8.8,9.3-15,18.2-13.9c8.8,1.2,15,9.3,13.8,18.2
		C2637.5,253.5,2629.4,259.7,2620.6,258.6z M2624.1,232.2c-5.7-0.8-10.9,3.2-11.7,8.9c-0.8,5.7,3.2,10.9,8.9,11.7
		c5.7,0.8,10.9-3.3,11.7-8.9C2633.8,238.2,2629.8,233,2624.1,232.2z"/>
</g>
<g>
	<path class="st0" d="M1371.3,1077.3c-8.8-1.2-15-9.3-13.8-18.1c1.2-8.8,9.3-15,18.2-13.9c8.8,1.2,15,9.3,13.8,18.2
		C1388.3,1072.3,1380.1,1078.5,1371.3,1077.3z M1374.9,1051c-5.7-0.8-10.9,3.2-11.7,8.9c-0.8,5.7,3.2,10.9,8.9,11.7
		c5.7,0.8,10.9-3.3,11.7-8.9C1384.6,1057,1380.6,1051.7,1374.9,1051z"/>
</g>
<g>
	<path class="st0" d="M839.6,1108.3c-8.8-1.2-15-9.3-13.8-18.1c1.2-8.8,9.3-15,18.2-13.9c8.8,1.2,15,9.3,13.8,18.2
		C856.6,1103.3,848.4,1109.5,839.6,1108.3z M843.2,1082c-5.7-0.8-10.9,3.3-11.7,8.9c-0.8,5.7,3.2,10.9,8.9,11.7
		c5.7,0.8,10.9-3.2,11.7-8.9C852.8,1088,848.8,1082.7,843.2,1082z"/>
</g>
<g>
	<path class="st0" d="M1001.6,294.3c-8.8-1.2-15-9.3-13.8-18.1c1.2-8.8,9.3-15,18.2-13.9c8.8,1.2,15,9.3,13.8,18.2
		C1018.6,289.3,1010.4,295.5,1001.6,294.3z M1005.2,268c-5.7-0.8-10.9,3.3-11.7,8.9c-0.8,5.7,3.2,10.9,8.9,11.7
		c5.7,0.8,10.9-3.2,11.7-8.9C1014.8,274,1010.8,268.7,1005.2,268z"/>
</g>
<g>
	<path class="st0" d="M148.6,69.3c-8.8-1.2-15-9.3-13.8-18.1c1.2-8.8,9.3-15,18.2-13.9c8.8,1.2,15,9.3,13.8,18.2
		C165.6,64.3,157.4,70.5,148.6,69.3z M152.2,43c-5.7-0.8-10.9,3.3-11.7,8.9c-0.8,5.7,3.2,10.9,8.9,11.7c5.7,0.8,10.9-3.2,11.7-8.9
		C161.8,49,157.8,43.7,152.2,43z"/>
</g>
<g>
	<g>
		<path class="st0" d="M2484.9,663.7c-3-0.4-5.1-3.1-4.7-6.1l2.9-21.4c0.4-3,3.1-5.1,6.1-4.7c3,0.4,5.1,3.1,4.7,6.1L2491,659
			C2490.6,662,2487.8,664.1,2484.9,663.7z M2488.9,633.6c-1.8-0.2-3.4,1.1-3.7,2.8l-2.9,21.4c-0.2,1.8,1,3.5,2.8,3.7
			c1.8,0.2,3.4-1,3.7-2.8l2.9-21.4C2492,635.5,2490.7,633.8,2488.9,633.6z"/>
	</g>
	<g>
		<path class="st0" d="M2485.5,659.1c-0.6-0.1-1-0.6-0.9-1.2l2.8-20.9c0.1-0.6,0.6-1,1.2-0.9c0.6,0.1,1,0.6,0.9,1.2l-2.8,20.9
			C2486.6,658.7,2486.1,659.1,2485.5,659.1z"/>
	</g>
</g>
<g>
	<path class="st0" d="M2776.6,77.6c-8.8-1.2-15-9.3-13.8-18.1c1.2-8.8,9.3-15,18.2-13.9c8.8,1.2,15,9.3,13.8,18.2
		C2793.5,72.5,2785.4,78.7,2776.6,77.6z M2780.1,51.2c-5.7-0.8-10.9,3.2-11.7,8.9c-0.8,5.7,3.2,10.9,8.9,11.7
		c5.7,0.8,10.9-3.3,11.7-8.9C2789.8,57.2,2785.8,52,2780.1,51.2z"/>
</g>
<g>
	<path class="st0" d="M2163.6,77.6c-8.8-1.2-15-9.3-13.8-18.1c1.2-8.8,9.3-15,18.2-13.9c8.8,1.2,15,9.3,13.8,18.2
		C2180.5,72.5,2172.4,78.7,2163.6,77.6z M2167.1,51.2c-5.7-0.8-10.9,3.2-11.7,8.9c-0.8,5.7,3.2,10.9,8.9,11.7
		c5.7,0.8,10.9-3.3,11.7-8.9C2176.8,57.2,2172.8,52,2167.1,51.2z"/>
</g>
<g>
	<g>
		<path class="st0" d="M2992.9,114.7c-3-0.4-5.1-3.1-4.7-6.1l2.9-21.4c0.4-3,3.1-5.1,6.1-4.7c3,0.4,5.1,3.1,4.7,6.1L2999,110
			C2998.6,113,2995.8,115.1,2992.9,114.7z M2996.9,84.6c-1.8-0.2-3.4,1.1-3.7,2.8l-2.9,21.4c-0.2,1.8,1,3.5,2.8,3.7
			c1.8,0.2,3.4-1,3.7-2.8l2.9-21.4C3000,86.5,2998.7,84.8,2996.9,84.6z"/>
	</g>
	<g>
		<path class="st0" d="M2993.5,110.1c-0.6-0.1-1-0.6-0.9-1.2l2.8-20.9c0.1-0.6,0.6-1,1.2-0.9c0.6,0.1,1,0.6,0.9,1.2l-2.8,20.9
			C2994.6,109.7,2994.1,110.1,2993.5,110.1z"/>
	</g>
</g>
<g>
	<g>
		<path class="st0" d="M1432.3,990.5c-3-0.4-5.1-3.1-4.7-6.1l2.9-21.5c0.4-3,3.1-5,6.1-4.7c3,0.4,5.1,3.1,4.7,6.1l-2.9,21.5
			C1438.1,988.8,1435.3,990.9,1432.3,990.5z M1436.4,960.4c-1.8-0.2-3.4,1-3.6,2.8l-2.9,21.4c-0.2,1.8,1,3.4,2.8,3.7
			c1.8,0.2,3.4-1,3.7-2.8l2.9-21.5C1439.4,962.3,1438.2,960.7,1436.4,960.4z"/>
	</g>
	<g>
		<path class="st0" d="M1432.9,985.9c-0.6-0.1-1-0.6-0.9-1.2l2.8-20.9c0.1-0.6,0.6-1,1.2-0.9c0.6,0.1,1,0.6,1,1.2l-2.8,20.9
			C1434.1,985.6,1433.6,986,1432.9,985.9z"/>
	</g>
</g>
<g>
	<path class="st0" d="M2063.8,140.4l-23-3.1c-1.4-0.2-2.4-1.5-2.2-2.8l3.1-23c0.2-1.4,1.5-2.3,2.8-2.1l23,3.1
		c1.3,0.2,2.3,1.5,2.1,2.8l-3.1,23C2066.4,139.6,2065.1,140.6,2063.8,140.4z M2043.9,132.6l18,2.4l2.4-18.1l-18-2.4L2043.9,132.6z"
		/>
</g>
<g>
	<path class="st0" d="M2957.8,52.4l-23-3.1c-1.4-0.2-2.4-1.5-2.2-2.8l3.1-23c0.2-1.4,1.5-2.3,2.8-2.1l23,3.1
		c1.3,0.2,2.3,1.5,2.1,2.8l-3.1,23C2960.4,51.6,2959.1,52.6,2957.8,52.4z M2937.9,44.6l18,2.4l2.4-18.1l-18-2.4L2937.9,44.6z"/>
</g>
<g>
	<path class="st0" d="M2983.6,564.6c-8.8-1.2-15-9.3-13.8-18.1c1.2-8.8,9.3-15,18.2-13.9c8.8,1.2,15,9.3,13.8,18.2
		C3000.5,559.5,2992.4,565.7,2983.6,564.6z M2987.1,538.2c-5.7-0.8-10.9,3.2-11.7,8.9c-0.8,5.7,3.2,10.9,8.9,11.7
		c5.7,0.8,10.9-3.3,11.7-8.9C2996.8,544.2,2992.8,539,2987.1,538.2z"/>
</g>
<g>
	<path class="st0" d="M3164.8,539.4l-23-3.1c-1.4-0.2-2.4-1.5-2.2-2.8l3.1-23c0.2-1.4,1.5-2.3,2.8-2.1l23,3.1
		c1.3,0.2,2.3,1.5,2.1,2.8l-3.1,23C3167.4,538.6,3166.1,539.6,3164.8,539.4z M3144.9,531.6l18,2.4l2.4-18.1l-18-2.4L3144.9,531.6z"
		/>
</g>
<g>
	<path class="st0" d="M1705.5,1087.2l-23-3.1c-1.4-0.2-2.3-1.4-2.1-2.8l3.1-23c0.2-1.4,1.4-2.3,2.8-2.2l23,3.1
		c1.4,0.2,2.3,1.4,2.1,2.8l-3.1,23C1708.1,1086.4,1706.9,1087.4,1705.5,1087.2z M1685.6,1079.5l18,2.4l2.4-18l-18-2.4L1685.6,1079.5
		z"/>
</g>
<g>
	<path class="st0" d="M2174.4,773c-0.7-0.1-1.4-0.4-1.9-1.1l-11.1-14.5c-0.5-0.6-0.6-1.3-0.5-2.1c0.1-0.7,0.5-1.4,1-1.8l14.6-11.1
		c0.6-0.4,1.3-0.6,2.1-0.5c0.7,0.1,1.4,0.5,1.8,1.1l11.1,14.6c0.9,1.2,0.7,3-0.5,3.9l-14.5,11.1
		C2175.9,772.9,2175.1,773.1,2174.4,773z M2167.6,756.2l7.7,10.1l10.1-7.7l-7.7-10.1L2167.6,756.2z"/>
</g>
<g>
	<path class="st0" d="M1530.6,429.6c-8.8-1.2-15-9.3-13.8-18.1c1.2-8.8,9.3-15,18.2-13.9c8.8,1.2,15,9.3,13.8,18.2
		C1547.5,424.5,1539.4,430.7,1530.6,429.6z M1534.1,403.2c-5.7-0.8-10.9,3.2-11.7,8.9c-0.8,5.7,3.2,10.9,8.9,11.7
		c5.7,0.8,10.9-3.3,11.7-8.9C1543.8,409.2,1539.8,404,1534.1,403.2z"/>
</g>
<g>
	<path class="st0" d="M1709.8,244.3l-16.9-2.3c-1-0.1-1.7-1.1-1.6-2.1l2.3-16.8c0.1-1,1.1-1.7,2.1-1.6l16.9,2.3
		c1,0.1,1.7,1.1,1.6,2.1l-2.3,16.9C1711.7,243.7,1710.8,244.4,1709.8,244.3z M1695.2,238.6l13.2,1.8l1.8-13.2l-13.3-1.8
		L1695.2,238.6z"/>
</g>
<g>
	<path class="st0" d="M1791.7,82.1l-26.1-3.5c-1-0.1-1.9-0.8-2.3-1.7c-0.4-0.9-0.2-2,0.4-2.8l16-20.6c1.2-1.6,4.1-1.2,4.9,0.7
		l10,24.1c0.4,0.9,0.2,2-0.3,2.8C1793.7,81.8,1792.7,82.2,1791.7,82.1z M1771.2,73.6l16.3,2.2l-6.2-15L1771.2,73.6z"/>
</g>
<g>
	<path class="st0" d="M2961.7,640.1l-26.1-3.5c-1-0.1-1.9-0.8-2.3-1.7c-0.4-0.9-0.2-2,0.4-2.8l16-20.6c1.2-1.6,4.1-1.2,4.9,0.7
		l10,24.1c0.4,0.9,0.2,2-0.3,2.8C2963.7,639.8,2962.7,640.2,2961.7,640.1z M2941.2,631.6l16.3,2.2l-6.2-15L2941.2,631.6z"/>
</g>
<g>
	<path class="st0" d="M1642.6,126.6c-8.8-1.2-15-9.3-13.8-18.1c1.2-8.8,9.3-15,18.2-13.9c8.8,1.2,15,9.3,13.8,18.2
		C1659.5,121.5,1651.4,127.7,1642.6,126.6z M1646.1,100.2c-5.7-0.8-10.9,3.2-11.7,8.9c-0.8,5.7,3.2,10.9,8.9,11.7
		c5.7,0.8,10.9-3.3,11.7-8.9C1655.8,106.2,1651.8,101,1646.1,100.2z"/>
</g>
<g>
	<path class="st0" d="M1436.4,576c-0.7-0.1-1.4-0.4-1.9-1.1l-11.1-14.5c-0.5-0.6-0.6-1.3-0.5-2.1c0.1-0.7,0.5-1.4,1-1.8l14.6-11.1
		c0.6-0.4,1.3-0.6,2.1-0.5c0.7,0.1,1.4,0.5,1.8,1.1l11.1,14.6c0.9,1.2,0.7,3-0.5,3.9l-14.5,11.1
		C1437.9,575.9,1437.1,576.1,1436.4,576z M1429.6,559.2l7.7,10.1l10.1-7.7l-7.7-10.1L1429.6,559.2z"/>
</g>
<g>
	<path class="st0" d="M1070.8,648.3l-16.9-2.3c-1-0.1-1.7-1.1-1.6-2.1l2.3-16.8c0.1-1,1.1-1.7,2.1-1.6l16.9,2.3
		c1,0.1,1.7,1.1,1.6,2.1l-2.3,16.9C1072.7,647.7,1071.8,648.4,1070.8,648.3z M1056.2,642.6l13.2,1.8l1.8-13.2l-13.3-1.8
		L1056.2,642.6z"/>
</g>
<g>
	<path class="st0" d="M873.7,432.1l-26.1-3.5c-1-0.1-1.9-0.8-2.3-1.7c-0.4-0.9-0.2-2,0.4-2.8l16-20.6c1.2-1.6,4.1-1.2,4.9,0.7
		l10,24.1c0.4,0.9,0.2,2-0.3,2.8C875.7,431.8,874.7,432.2,873.7,432.1z M853.2,423.6l16.3,2.2l-6.2-15L853.2,423.6z"/>
</g>
<g>
	<path class="st0" d="M724.6,476.6c-8.8-1.2-15-9.3-13.8-18.1c1.2-8.8,9.3-15,18.2-13.9c8.8,1.2,15,9.3,13.8,18.2
		C741.5,471.5,733.4,477.7,724.6,476.6z M728.1,450.2c-5.7-0.8-10.9,3.2-11.7,8.9c-0.8,5.7,3.2,10.9,8.9,11.7
		c5.7,0.8,10.9-3.3,11.7-8.9C737.8,456.2,733.8,451,728.1,450.2z"/>
</g>
<g>
	<path class="st0" d="M630.4,623c-0.7-0.1-1.4-0.4-1.9-1.1l-11.1-14.5c-0.5-0.6-0.6-1.3-0.5-2.1c0.1-0.7,0.5-1.4,1-1.8l14.6-11.1
		c0.6-0.4,1.3-0.6,2.1-0.5c0.7,0.1,1.4,0.5,1.8,1.1l11.1,14.6c0.9,1.2,0.7,3-0.5,3.9l-14.5,11.1C631.9,622.9,631.1,623.1,630.4,623z
		 M623.6,606.2l7.7,10.1l10.1-7.7l-7.7-10.1L623.6,606.2z"/>
</g>
<g>
	<path class="st0" d="M1311.8,258.3l-16.9-2.3c-1-0.1-1.7-1.1-1.6-2.1l2.3-16.8c0.1-1,1.1-1.7,2.1-1.6l16.9,2.3
		c1,0.1,1.7,1.1,1.6,2.1l-2.3,16.9C1313.7,257.7,1312.8,258.4,1311.8,258.3z M1297.2,252.6l13.2,1.8l1.8-13.2l-13.3-1.8
		L1297.2,252.6z"/>
</g>
<g>
	<path class="st0" d="M1244.6,140.6c-8.8-1.2-15-9.3-13.8-18.1c1.2-8.8,9.3-15,18.2-13.9c8.8,1.2,15,9.3,13.8,18.2
		C1261.5,135.5,1253.4,141.7,1244.6,140.6z M1248.1,114.2c-5.7-0.8-10.9,3.2-11.7,8.9c-0.8,5.7,3.2,10.9,8.9,11.7
		c5.7,0.8,10.9-3.3,11.7-8.9C1257.8,120.2,1253.8,115,1248.1,114.2z"/>
</g>
<g>
	<path class="st0" d="M1150.4,287c-0.7-0.1-1.4-0.4-1.9-1.1l-11.1-14.5c-0.5-0.6-0.6-1.3-0.5-2.1c0.1-0.7,0.5-1.4,1-1.8l14.6-11.1
		c0.6-0.4,1.3-0.6,2.1-0.5c0.7,0.1,1.4,0.5,1.8,1.1l11.1,14.6c0.9,1.2,0.7,3-0.5,3.9l-14.5,11.1
		C1151.9,286.9,1151.1,287.1,1150.4,287z M1143.6,270.2l7.7,10.1l10.1-7.7l-7.7-10.1L1143.6,270.2z"/>
</g>
<g>
	<path class="st0" d="M498.8,1051.3l-16.9-2.3c-1-0.1-1.7-1.1-1.6-2.1l2.3-16.8c0.1-1,1.1-1.7,2.1-1.6l16.9,2.3
		c1,0.1,1.7,1.1,1.6,2.1l-2.3,16.9C500.7,1050.7,499.8,1051.4,498.8,1051.3z M484.2,1045.6l13.2,1.8l1.8-13.2l-13.3-1.8
		L484.2,1045.6z"/>
</g>
<g>
	<path class="st0" d="M580.7,889.1l-26.1-3.5c-1-0.1-1.9-0.8-2.3-1.7c-0.4-0.9-0.2-2,0.4-2.8l16-20.6c1.2-1.6,4.1-1.2,4.9,0.7
		l10,24.1c0.4,0.9,0.2,2-0.3,2.8C582.7,888.8,581.7,889.2,580.7,889.1z M560.2,880.6l16.3,2.2l-6.2-15L560.2,880.6z"/>
</g>
<g>
	<path class="st0" d="M431.6,933.6c-8.8-1.2-15-9.3-13.8-18.1c1.2-8.8,9.3-15,18.2-13.9c8.8,1.2,15,9.3,13.8,18.2
		C448.5,928.5,440.4,934.7,431.6,933.6z M435.1,907.2c-5.7-0.8-10.9,3.2-11.7,8.9c-0.8,5.7,3.2,10.9,8.9,11.7
		c5.7,0.8,10.9-3.3,11.7-8.9C444.8,913.2,440.8,908,435.1,907.2z"/>
</g>
<g>
	<path class="st0" d="M337.4,1080c-0.7-0.1-1.4-0.4-1.9-1.1l-11.1-14.5c-0.5-0.6-0.6-1.3-0.5-2.1c0.1-0.7,0.5-1.4,1-1.8l14.6-11.1
		c0.6-0.4,1.3-0.6,2.1-0.5c0.7,0.1,1.4,0.5,1.8,1.1l11.1,14.6c0.9,1.2,0.7,3-0.5,3.9l-14.5,11.1
		C338.9,1079.9,338.1,1080.1,337.4,1080z M330.6,1063.2l7.7,10.1l10.1-7.7l-7.7-10.1L330.6,1063.2z"/>
</g>
<g>
	<path class="st0" d="M2282.5,396.4c-1.1-0.1-2.1-0.9-2.5-1.9l-11.1-26.5c-0.5-1-0.3-2.3,0.4-3.1c0.7-0.9,1.8-1.4,2.9-1.2l28.8,3.9
		c1.1,0.2,2.1,0.9,2.5,1.9c0.5,1,0.3,2.2-0.4,3.1l-17.7,22.7C2284.7,396.1,2283.6,396.6,2282.5,396.4z M2276.8,370.6l6.9,16.6
		l11-14.1L2276.8,370.6z"/>
</g>
<g>
	<path class="st0" d="M627.8,87.9c-1.1-0.1-2.1-0.9-2.5-1.9l-11.1-26.5c-0.5-1-0.3-2.3,0.4-3.1c0.7-0.9,1.8-1.4,2.9-1.2l28.8,3.9
		c1.1,0.2,2.1,0.9,2.5,1.9c0.4,1,0.3,2.2-0.4,3.1l-17.7,22.6C630,87.6,628.9,88,627.8,87.9z M622.1,62l6.9,16.5l11.1-14.1L622.1,62z
		"/>
</g>
<g>
	<path class="st0" d="M2528.9,1039.5c-5.7-0.8-9.6-6-8.9-11.6c0.8-5.7,6-9.6,11.6-8.9c5.6,0.8,9.6,6,8.9,11.6
		C2539.8,1036.3,2534.6,1040.3,2528.9,1039.5z M2531.2,1022.6c-3.6-0.5-7,2.1-7.5,5.7c-0.5,3.6,2.1,7,5.7,7.5c3.6,0.5,7-2.1,7.5-5.7
		C2537.4,1026.5,2534.8,1023.1,2531.2,1022.6z"/>
</g>
<g>
	<path class="st1" d="M1575.1,950.6c0,0-2,8.8-4.4,10.6c-2.4,1.8-8.4-3.6-9.8-8c-1.3-4.4,1.6-11.4,6.7-9.2
		C1572.8,946.2,1575.6,948.8,1575.1,950.6z"/>
	<path class="st1" d="M1595.3,983.9c-3.6-14.7-1.2-25.4,3.7-36.8c4.9-11.4,13.4-37,9.6-48.3c-3.2-9.5-10.7-23.9-36.7-22.8
		c-26,1.1-59.9,2.3-59.6,38.7c0.3,36.4,27.1,68.5,46.7,83.8c3.7,2.9,7.8,5.4,12.4,6.8c1.6,0.5,3.3,0.8,5,0.9c0.7,0,1.5,0.1,2.2,0
		c0.6-0.1,2-0.5,2.4-1c0.2-0.3,0.3-0.6,0.3-1c0-1.3-0.7-2.5-1.2-3.7c-0.5-1.3-1.1-2.6-1.6-3.9c-1.1-2.6-2.2-5.2-3.2-7.8
		c-2.2-5.2-4.3-10.3-6.5-15.5c-0.6-1.4-1.4-2.6-2.3-3.7c-4.1-4.8-10.6-6.8-12.8-14.3c-1.6-5.6-2-13.9,3.5-17.5
		c0.4-0.2,0.7-0.5,1.1-0.7c3.1-1.2,6.6-1.5,9.9-0.9c7.1,1.4,16.5,7.8,14.6,16.1c-0.7,3.2-1.5,7-3.3,9.8c-1.3,2.1-2.5,4-2.9,6.5
		c-0.9,5.7,1.7,11,4.1,15.9c0.5,0.9,0.9,1.9,1.3,2.9c1.8,3.9,3.4,8.2,5.6,11.9c1,1.6,2.2,2.3,3.9,1.2c1.3-0.9,2.5-2.3,3.3-3.6
		C1596.7,993,1596.3,988.2,1595.3,983.9z"/>
	<path class="st1" d="M1587.3,871.9c17,3.9,25.9,15.8,27.1,29.5c1.5,16.6-7.1,38.7-10.9,47.5c-4.7,10.9-7,21-3.6,35.1
		c1.4,5.7,1.5,12.1-1.8,17.2c-5.1,7.8-16.9,11.8-25.7,9.8c-5.1-1.2-10.5-3.9-15.9-8.1c-22.5-17.6-48.9-51.3-49.2-88.7
		c-0.4-40.9,38.6-42.4,64.3-43.5l0.3,0C1577.7,870.5,1582.9,870.9,1587.3,871.9L1587.3,871.9z M1588.8,865.6c-5-1.1-10.8-1.6-17-1.3
		l-0.3,0c-13.5,0.5-30.3,1.2-44.3,7.3c-17.6,7.7-26.4,22-26.2,42.7c0.4,39.7,28.1,75.3,51.7,93.8c6.2,4.8,12.4,8,18.4,9.3
		c11.9,2.7,26.2-2.9,32.5-12.6c3.8-6,4.7-13.7,2.6-22.3c-3-12.4-1-21,3.2-31c4.9-11.5,13-33.5,11.4-50.7
		C1619.3,882.9,1607.3,869.8,1588.8,865.6L1588.8,865.6z"/>
</g>
<g>
	<path class="st1" d="M144.1,902.6c0,0-2,8.8-4.4,10.6c-2.4,1.8-8.4-3.6-9.8-8c-1.3-4.4,1.6-11.4,6.7-9.2
		C141.8,898.2,144.6,900.8,144.1,902.6z"/>
	<path class="st1" d="M164.3,935.9c-3.6-14.7-1.2-25.4,3.7-36.8c4.9-11.4,13.4-37,9.6-48.3c-3.2-9.5-10.7-23.9-36.7-22.8
		c-26,1.1-59.9,2.3-59.6,38.7c0.3,36.4,27.1,68.5,46.7,83.8c3.7,2.9,7.8,5.4,12.4,6.8c1.6,0.5,3.3,0.8,5,0.9c0.7,0,1.5,0.1,2.2,0
		c0.6-0.1,2-0.5,2.4-1c0.2-0.3,0.3-0.6,0.3-1c0-1.3-0.7-2.5-1.2-3.7c-0.5-1.3-1.1-2.6-1.6-3.9c-1.1-2.6-2.2-5.2-3.2-7.8
		c-2.2-5.2-4.3-10.3-6.5-15.5c-0.6-1.4-1.4-2.6-2.3-3.7c-4.1-4.8-10.6-6.8-12.8-14.3c-1.6-5.6-2-13.9,3.5-17.5
		c0.4-0.2,0.7-0.5,1.1-0.7c3.1-1.2,6.6-1.5,9.9-0.9c7.1,1.4,16.5,7.8,14.6,16.1c-0.7,3.2-1.5,7-3.3,9.8c-1.3,2.1-2.5,4-2.9,6.5
		c-0.9,5.7,1.7,11,4.1,15.9c0.5,0.9,0.9,1.9,1.3,2.9c1.8,3.9,3.4,8.2,5.6,11.9c1,1.6,2.2,2.3,3.9,1.2c1.3-0.9,2.5-2.3,3.3-3.6
		C165.7,945,165.3,940.2,164.3,935.9z"/>
	<path class="st1" d="M156.3,823.9c17,3.9,25.9,15.8,27.1,29.5c1.5,16.6-7.1,38.7-10.9,47.5c-4.7,10.9-7,21-3.6,35.1
		c1.4,5.7,1.5,12.1-1.8,17.2c-5.1,7.8-16.9,11.8-25.7,9.8c-5.1-1.2-10.5-3.9-15.9-8.1c-22.5-17.6-48.9-51.3-49.2-88.7
		c-0.4-40.9,38.6-42.4,64.3-43.5l0.3,0C146.7,822.5,151.9,822.9,156.3,823.9L156.3,823.9z M157.8,817.6c-5-1.1-10.8-1.6-17-1.3
		l-0.3,0c-13.5,0.5-30.3,1.2-44.3,7.3c-17.6,7.7-26.4,22-26.2,42.7C70.3,906,98,941.6,121.6,960c6.2,4.8,12.4,8,18.4,9.3
		c11.9,2.7,26.2-2.9,32.5-12.6c3.8-6,4.7-13.7,2.6-22.3c-3-12.4-1-21,3.2-31c4.9-11.5,13-33.5,11.4-50.7
		C188.3,834.9,176.3,821.8,157.8,817.6L157.8,817.6z"/>
</g>
<g>
	<path class="st1" d="M2053.1,332.6c0,0-2,8.8-4.4,10.6c-2.4,1.8-8.4-3.6-9.8-8c-1.3-4.4,1.6-11.4,6.7-9.2
		C2050.8,328.2,2053.6,330.8,2053.1,332.6z"/>
	<path class="st1" d="M2073.3,365.9c-3.6-14.7-1.2-25.4,3.7-36.8c4.9-11.4,13.4-37,9.6-48.3c-3.2-9.5-10.7-23.9-36.7-22.8
		c-26,1.1-59.9,2.3-59.6,38.7c0.3,36.4,27.1,68.5,46.7,83.8c3.7,2.9,7.8,5.4,12.4,6.8c1.6,0.5,3.3,0.8,5,0.9c0.7,0,1.5,0.1,2.2,0
		c0.6-0.1,2-0.5,2.4-1c0.2-0.3,0.3-0.6,0.3-1c0-1.3-0.7-2.5-1.2-3.7c-0.5-1.3-1.1-2.6-1.6-3.9c-1.1-2.6-2.2-5.2-3.2-7.8
		c-2.2-5.2-4.3-10.3-6.5-15.5c-0.6-1.4-1.4-2.6-2.3-3.7c-4.1-4.8-10.6-6.8-12.8-14.3c-1.6-5.6-2-13.9,3.5-17.5
		c0.4-0.2,0.7-0.5,1.1-0.7c3.1-1.2,6.6-1.5,9.9-0.9c7.1,1.4,16.5,7.8,14.6,16.1c-0.7,3.2-1.5,7-3.3,9.8c-1.3,2.1-2.5,4-2.9,6.5
		c-0.9,5.7,1.7,11,4.1,15.9c0.5,0.9,0.9,1.9,1.3,2.9c1.8,3.9,3.4,8.2,5.6,11.9c1,1.6,2.2,2.3,3.9,1.2c1.3-0.9,2.5-2.3,3.3-3.6
		C2074.7,375,2074.3,370.2,2073.3,365.9z"/>
	<path class="st1" d="M2065.3,253.9c17,3.9,25.9,15.8,27.1,29.5c1.5,16.6-7.1,38.7-10.9,47.5c-4.7,10.9-7,21-3.6,35.1
		c1.4,5.7,1.5,12.1-1.8,17.2c-5.1,7.8-16.9,11.8-25.7,9.8c-5.1-1.2-10.5-3.9-15.9-8.1c-22.5-17.6-48.9-51.3-49.2-88.7
		c-0.4-40.9,38.6-42.4,64.3-43.5l0.3,0C2055.7,252.5,2060.9,252.9,2065.3,253.9L2065.3,253.9z M2066.8,247.6c-5-1.1-10.8-1.6-17-1.3
		l-0.3,0c-13.5,0.5-30.3,1.2-44.3,7.3c-17.6,7.7-26.4,22-26.2,42.7c0.4,39.7,28.1,75.3,51.7,93.8c6.2,4.8,12.4,8,18.4,9.3
		c11.9,2.7,26.2-2.8,32.5-12.6c3.8-6,4.7-13.7,2.6-22.3c-3-12.4-1-21,3.2-31c4.9-11.5,13-33.5,11.4-50.7
		C2097.3,264.9,2085.3,251.8,2066.8,247.6L2066.8,247.6z"/>
</g>
<g>
	<path class="st1" d="M821.2,771c0,0,1.8-13.4,15.1-23.8c0,0-11.8-20.5-24.7-40.3c-17.3-26.6-49.4-36.8-74.2-18.7
		c-38.1,27.7-10.6,64.1,21.6,70.2C778.4,762,821.2,771,821.2,771z"/>
	<path class="st1" d="M840.5,752.5c-6.2,5-10,11.1-11.9,18.1l16.8,9c0,0-5.4,7.1-0.5,13c4.9,5.9,19,4.5,17.7-6.1l-1.6-6.9l7.4-2.5
		c0,0,10.6-4.5,4.5-13.4c-5.8-8.4-16.3,0.9-16.3,0.9L840.5,752.5z"/>
</g>
<g>
	<path class="st1" d="M1028.8,447.8l103.1-32.5c3.3-1,5.9-2.4,8.1-4.1c-8.9,1.5-20.1-0.4-31.1-6c-9-4.6-16.4-11-21-18.1
		c-5.1-7.9-6.1-15.7-2.8-22.1c0.3-0.6,0.6-1.1,0.9-1.6l0,0c0.8-1.2,1.8-2.3,2.9-3.3l-79.9,25.1c-16.7,5.3-26.1,23.3-20.9,40l0.5,1.7
		C994.1,443.7,1012.1,453,1028.8,447.8z"/>
	<path class="st1" d="M990,421.3l-14.7-2.8c-1.6-0.3-2.9,1.1-2.5,2.7l3.9,15.8c0.4,1.5,2.2,2.2,3.5,1.2l11.8-9.4L990,421.3z"/>
	<path class="st1" d="M1097.1,370.4c5.7-0.5,10.7,3,11.1,7.8c0.4,4.7-4,9-9.7,9.4c-1.5,0.1-3-0.1-4.4-0.5c4,5.1,9.9,10,17.1,13.7
		c17,8.7,34.8,7.9,39.9-1.9c5-9.8-4.6-24.8-21.6-33.5c-17-8.7-34.8-7.9-39.8,1.9c-1.3,2.5-1.6,5.3-1.1,8.2
		C1090.1,372.7,1093.3,370.7,1097.1,370.4z M1127.9,383.1c1.7-2.6,7.1-2.2,11.9,1c4.8,3.2,7.2,7.9,5.5,10.6c-1.8,2.6-7.1,2.2-11.8-1
		S1126.1,385.7,1127.9,383.1z"/>
</g>
<g>
	<path class="st1" d="M3006.8,472.8l103.1-32.5c3.3-1,5.9-2.4,8.1-4.1c-8.9,1.5-20.1-0.4-31.1-6c-9-4.6-16.4-11-21-18.1
		c-5.1-7.9-6.1-15.7-2.8-22.1c0.3-0.6,0.6-1.1,0.9-1.6l0,0c0.8-1.2,1.8-2.3,2.9-3.3l-79.9,25.1c-16.7,5.3-26.1,23.3-20.9,40l0.5,1.7
		C2972.1,468.7,2990.1,478,3006.8,472.8z"/>
	<path class="st1" d="M2968,446.3l-14.7-2.8c-1.6-0.3-2.9,1.1-2.5,2.7l3.9,15.8c0.4,1.5,2.2,2.2,3.5,1.2l11.8-9.4L2968,446.3z"/>
	<path class="st1" d="M3075.1,395.4c5.7-0.5,10.7,3,11.1,7.8c0.4,4.7-4,9-9.7,9.4c-1.5,0.1-3-0.1-4.4-0.5c4,5.1,9.9,10,17.1,13.7
		c17,8.7,34.8,7.9,39.9-1.9c5-9.8-4.6-24.8-21.6-33.5c-17-8.7-34.8-7.9-39.8,1.9c-1.3,2.5-1.6,5.3-1.1,8.2
		C3068.1,397.7,3071.3,395.7,3075.1,395.4z M3105.9,408.1c1.8-2.6,7.1-2.2,11.9,1c4.8,3.2,7.2,7.9,5.5,10.6c-1.8,2.6-7.1,2.2-11.8-1
		C3106.6,415.5,3104.1,410.7,3105.9,408.1z"/>
</g>
<g>
	<path class="st1" d="M1463.1,100L1463.1,100c-5.3-9.7-0.4-17.5,2.8-22.7c0.8-1.3,1.5-2.5,2-3.5c3.7-7.9,27.6-39.4,28.7-40.7
		c3.2-4.4,20.1-26.5,31.5-20.8l0.2,0.1c30.3,18.2,69.2,57.4,70.9,59.1c1.8,1.8,3.4,3.9,4.4,5.6c1.9,3.6,1,5.7-0.1,6.8
		c-1.3,1.7-21.2,34.2-28.4,63.2c-2.8,11.3-7.4,17.9-13.7,19.7c-7.5,2.1-14.3-3.6-15.6-4.8c-3.2-2.3-46.3-32.4-69.5-48.7
		C1469.8,108.9,1465.5,104.5,1463.1,100z M1525.1,18.1c-4.6-2.1-16.4,9.6-23.2,18.9c-6.8,9-25.1,33.6-28,39.7
		c-0.6,1.4-1.5,2.7-2.4,4.1c-3.1,5-6.1,9.7-2.6,16l0,0c1.9,3.5,5.7,7.3,11.2,11.2c24.1,16.9,69.7,48.8,69.7,48.8l0.4,0.3
		c1.4,1.3,5.7,4.5,9.5,3.4c3.8-1.1,7-6.3,9.1-14.9c6.8-27.3,24.9-58.5,29.2-65.1c0-0.1-0.1-0.1-0.1-0.2c-0.6-1.2-1.9-2.8-3.2-4.1
		C1594.1,75.7,1554.6,36,1525.1,18.1z"/>
	<path class="st1" d="M1581,120.1c-0.2-0.4-0.4-0.8-0.7-1.2c-4.3-6.7-10.3-11.8-17.7-14.9c-6.9-2.9-15.8-5.5-23.5-6.7
		c-4.7-0.7-9.6-2-13.9-4.1c-3.7-1.8-5.8-5.3-8.2-8.5c-5.4-7.3-8.4-16-13.5-23.5c-3.5-5.1-7.9-10.4-12.8-14.9
		c-3.9,5.3-8.6,11.7-12.5,17.3c5.8,3.1,11.1,7,14.7,13c4.4,7.4,5.8,15.9,12.4,22.1c5.3,5,12.2,7,19.3,8.4c9.9,2,19.5,5.9,28,11.4
		c8.9,5.7,13.2,15.7,18.9,24.3c0.3,0.4,0.6,0.8,0.9,1.2C1574.7,136,1577.7,127.8,1581,120.1z"/>
	<path class="st1" d="M1543.5,52.5c11.3,6,21.4,14.6,31.8,22.1c6.7,4.8,13.5,10.5,20.6,15.5c2.8-5,4.8-8.1,5.2-8.5
		c1.2-1.2-1.8-5.3-4.3-7.8c0,0-7.3-7.4-18-17.2c-8-6.5-17.9-16.4-26.1-22.6c-10.6-8.1-24.5-19.7-30.9-19
		c-6.9,1.7-15.4,11.1-19.7,16.5c2.4,1.1,4.8,2.1,7,3.2C1520.7,40.4,1532.1,46.5,1543.5,52.5z"/>
	<path class="st1" d="M1539.2,77.5c6.8,6.1,16.4,8.6,24.7,12c9.3,3.8,16.3,10.5,23.3,17.2c2.1-4.2,4.1-8.1,5.9-11.5
		c-2.8-3.2-6-6.1-9.5-8.4c-11.8-7.7-23.8-8.6-36.5-13.5c-12.2-4.8-20.9-21.9-30.6-30.5c-4.4-3.9-9.4-7.7-14.7-10.9
		c-1.6,1.9-2.5,3.2-2.5,3.2s-1.2,1.6-3.1,4.1c6.3,3.4,12.4,6.9,18.2,11.9C1523.6,58.9,1530.2,69.4,1539.2,77.5z"/>
</g>
<g>
	<path class="st1" d="M2606.7,453.1l5,10.4c0.5,1.1,2,1.3,2.8,0.3l8-9.7c0.8-0.9,0.3-2.4-0.9-2.7l-11.2-3L2606.7,453.1z"/>
	<path class="st1" d="M2501.3,366.5l0.6-11.6c0.1-1.2-1.2-2.1-2.3-1.6l-11.7,4.7c-1.1,0.5-1.4,1.9-0.5,2.8l8.4,7.9L2501.3,366.5z"/>
	<path class="st1" d="M2613.9,431.3c-2.4-6.2-8.1-10.3-13.9-13.1c-5.8-2.8-12.2-4.7-17.6-8.2c-6.1-3.9-9.3-11.2-13.1-17.4
		c-0.9-1.5-1.8-2.9-3-4.2c-6.3-6.8-17.5-7-25.8-2.5c0.8,3.3,1.6,6.4,3,9.1c2.4,5,6.8,8.5,11.5,12.2c1.3,1.1,2.7,2.1,3.9,3.2
		c10.7,9.1,20.2,19.7,16.6,35.1c-1,4.5-2.8,8.6-5.2,12.2c5.3,2.7,11.4,4.7,17,5.8c5.2,1,10.8,1.2,15.6-1.9c0.7-0.4,1.3-0.9,2-1.4
		c1.7-1.2,3.3-2.5,4.6-4.1C2614.9,449.8,2616.9,439,2613.9,431.3z"/>
	<path class="st1" d="M2570,444.1c3.1-13.8-6.8-23.7-16.6-31.8c-6.3-5.2-13.6-9.7-17.4-17.1c-4.9-9.4-4.3-21.5-11.7-29.1
		c-5.9-6-18.7-5.6-26.6-2.7c-12.8,4.7-24.9,21.9-12.6,50.2c10.3,23.8,20.4,41.2,42,52.1c4.6,2.3,9.8,3.9,14.9,3.3
		C2556,467.5,2567,458,2570,444.1z M2555.5,455.3c-4.2,1.8-4.1,5.3-5.8,9.1c-0.3,0-0.4-0.4-0.4-0.8c0-1.6-0.3-3.8-1.8-4.6
		c-1.4-0.8-3-0.6-4.5-0.8c-2-0.2-4-0.9-5.8-1.9c0,0,3.5-0.6,4-0.6c1.6-0.1,3.2-0.4,4.3-1.7c1.1-1.3-0.3-3-0.7-4.7
		c-0.4-1.5-0.6-3.2-0.6-4.8c0-0.4,0.5-0.4,0.7-0.2c2.2,2.1,2.4,4.3,5.5,5.6c0.1,0,0.2,0.1,0.4,0.1c0.1,0,0.2-0.1,0.3-0.2
		c2.2-2.2,4.3-5.4,5-8.5c0-0.2,0.3-0.1,0.3,0c-0.2,1.8-0.6,3.5-0.9,5.2c-0.4,1.7-1.7,4-1.7,5.7c1.4,0.5,3,0.4,4.4,0.3
		c0.3,0,2.6-0.2,2.7-0.3C2559.7,453.7,2557.5,454.4,2555.5,455.3z"/>
</g>
<g>
	<path class="st1" d="M352.7,227.1l5,10.4c0.5,1.1,2,1.3,2.8,0.3l8-9.7c0.8-0.9,0.3-2.4-0.9-2.7l-11.2-3L352.7,227.1z"/>
	<path class="st1" d="M247.3,140.5l0.6-11.6c0.1-1.2-1.2-2.1-2.3-1.6l-11.7,4.7c-1.1,0.5-1.4,1.9-0.5,2.8l8.4,7.9L247.3,140.5z"/>
	<path class="st1" d="M359.9,205.3c-2.4-6.2-8.1-10.3-13.9-13.1c-5.8-2.8-12.2-4.7-17.6-8.2c-6.1-3.9-9.3-11.2-13.1-17.4
		c-0.9-1.5-1.8-2.9-3-4.2c-6.3-6.8-17.5-7-25.8-2.5c0.8,3.3,1.6,6.4,3,9.1c2.4,5,6.8,8.5,11.5,12.2c1.3,1.1,2.7,2.1,3.9,3.2
		c10.7,9.1,20.2,19.7,16.6,35.1c-1,4.5-2.8,8.6-5.2,12.2c5.3,2.7,11.4,4.7,17,5.8c5.2,1,10.8,1.2,15.6-1.9c0.7-0.4,1.3-0.9,2-1.4
		c1.7-1.2,3.3-2.5,4.6-4.1C360.9,223.8,362.9,213,359.9,205.3z"/>
	<path class="st1" d="M316,218.1c3.1-13.8-6.8-23.7-16.6-31.8c-6.3-5.2-13.6-9.7-17.4-17.1c-4.9-9.4-4.3-21.5-11.7-29.1
		c-5.9-6-18.7-5.6-26.6-2.7c-12.8,4.7-24.9,21.9-12.6,50.2c10.3,23.8,20.4,41.2,42,52.1c4.6,2.3,9.8,3.9,14.9,3.3
		C302,241.5,313,232,316,218.1z M301.5,229.3c-4.2,1.8-4.1,5.3-5.8,9.1c-0.3,0-0.4-0.4-0.4-0.8c0-1.6-0.3-3.8-1.8-4.6
		c-1.4-0.8-3-0.6-4.5-0.8c-2-0.2-4-0.9-5.8-1.9c0,0,3.5-0.6,4-0.6c1.6-0.1,3.2-0.4,4.3-1.7c1.1-1.3-0.3-3-0.7-4.7
		c-0.4-1.5-0.6-3.2-0.6-4.8c0-0.4,0.5-0.4,0.7-0.2c2.2,2.1,2.4,4.3,5.5,5.6c0.1,0,0.2,0.1,0.4,0.1c0.1,0,0.2-0.1,0.3-0.2
		c2.2-2.2,4.3-5.4,5-8.5c0-0.2,0.3-0.1,0.3,0c-0.2,1.8-0.6,3.5-0.9,5.2c-0.4,1.7-1.7,4-1.7,5.7c1.4,0.5,3,0.4,4.4,0.3
		c0.3,0,2.6-0.2,2.7-0.3C305.7,227.7,303.5,228.4,301.5,229.3z"/>
</g>
<g>
	<path class="st1" d="M750.5,274.1l-21.7,0.7c-2.1,0.1-4,1.4-4.8,3.4c-0.4,1-0.4,2-0.2,3c2,9.1,7.1,34.6,9.2,45.1
		c0.3,1.6,1.3,2.9,2.8,3.6c1.4,0.7,3.1,0.8,4.6,0.1l16.6-7.6c1.3-0.6,2.3-1.6,2.7-3c0.3-0.8,0.4-1.6,0.3-2.4l-4.2-38.3
		C755.6,276.1,753.2,274,750.5,274.1z"/>
	<path class="st1" d="M787,258.8c-1.6-0.4-3.2,0-4.5,1l-10.5,8.1c-0.8,0.6-1.4,1.4-1.7,2.3c-0.3,0.8-0.4,1.7-0.3,2.5l4.7,36.8
		c0.2,1.4,1,2.7,2.1,3.6c1.2,0.9,2.7,1.2,4.1,0.9l24.8-4.6c1.8-0.3,3.3-1.6,4-3.4c0.5-1.3,0.4-2.8-0.2-4.1l-19-40.3
		C789.9,260.2,788.6,259.1,787,258.8z"/>
	<path class="st1" d="M833.9,245.4l-23.7,4.7c-1.8,0.4-3.3,1.6-3.9,3.3c-0.5,1.4-0.4,2.9,0.3,4.3l18.9,36.2c0.7,1.3,1.9,2.3,3.3,2.7
		c1.4,0.4,2.9,0.2,4.2-0.6l13.1-8c1-0.6,1.8-1.6,2.2-2.7c0.4-1,0.4-2.1,0.2-3.1l-8.2-32.9C839.4,246.6,836.7,244.9,833.9,245.4z"/>
	<path class="st1" d="M821.1,298.3c-0.3,0.5-0.7,1-1.3,1.3c-1.6,0.9-3.6,0.3-4.5-1.3L794,259.5c-0.9-1.6-0.3-3.6,1.3-4.5
		c1.6-0.9,3.6-0.3,4.5,1.3l21.4,38.8C821.7,296.2,821.6,297.4,821.1,298.3z"/>
	<path class="st1" d="M770.9,319c-0.5,0.9-1.4,1.5-2.5,1.7c-1.8,0.2-3.4-1.1-3.6-2.9l-5.1-46.6c-0.2-1.8,1.1-3.4,2.9-3.6
		c1.8-0.2,3.4,1.1,3.6,2.9l5.1,46.6C771.4,317.8,771.3,318.5,770.9,319z"/>
	<path class="st1" d="M715.6,322.8C715.6,322.8,715.6,322.8,715.6,322.8c-3.8,6.7-11.8,9.8-19.2,7.3c-4.1-1.4-7.4-4.3-9.3-8.1
		c-1.9-3.8-2.2-8.2-0.8-12.3c0.3-1,0.7-1.9,1.2-2.8c3.8-6.7,11.8-9.8,19.2-7.3c8.4,2.8,12.9,12,10.1,20.4
		C716.5,321,716.1,322,715.6,322.8z M693.3,310.3c-0.3,0.5-0.5,1.1-0.7,1.6c-0.8,2.4-0.6,5,0.5,7.2c1.1,2.3,3.1,4,5.5,4.8
		c4.3,1.5,9.1-0.4,11.3-4.3l0,0c0.3-0.5,0.5-1.1,0.7-1.6c1.7-5-1-10.3-5.9-12C700.3,304.5,695.6,306.3,693.3,310.3z"/>
	<path class="st1" d="M725.8,309.5c-0.4,0.7-1,1.2-1.7,1.5l-9.1,3.3c-1.7,0.6-3.6-0.3-4.2-2c-0.6-1.7,0.3-3.6,2-4.2l9.1-3.3
		c1.7-0.6,3.6,0.3,4.2,2C726.3,307.7,726.2,308.7,725.8,309.5z"/>
	<path class="st1" d="M868.8,257.1c-0.4,0.7-1,1.2-1.7,1.5l-17.6,6.4c-1.7,0.6-3.6-0.3-4.2-2c-0.6-1.7,0.3-3.6,2-4.2l17.6-6.4
		c1.7-0.6,3.6,0.3,4.2,2C869.4,255.3,869.3,256.3,868.8,257.1z"/>
</g>
<g>
	<path class="st1" d="M1832.5,107.1l-21.7,0.7c-2.1,0.1-4,1.4-4.8,3.4c-0.4,1-0.4,2-0.2,3c2,9.1,7.1,34.6,9.2,45.1
		c0.3,1.6,1.3,2.9,2.8,3.6c1.4,0.7,3.1,0.8,4.6,0.1l16.6-7.6c1.3-0.6,2.3-1.6,2.7-3c0.3-0.8,0.4-1.6,0.3-2.4l-4.2-38.3
		C1837.6,109.1,1835.2,107,1832.5,107.1z"/>
	<path class="st1" d="M1869,91.8c-1.6-0.4-3.2,0-4.5,1l-10.5,8.1c-0.8,0.6-1.4,1.4-1.7,2.3c-0.3,0.8-0.4,1.7-0.3,2.5l4.7,36.8
		c0.2,1.4,1,2.7,2.1,3.6c1.2,0.9,2.7,1.2,4.1,0.9l24.8-4.6c1.8-0.3,3.3-1.6,4-3.4c0.5-1.3,0.4-2.8-0.2-4.1l-19-40.3
		C1871.9,93.2,1870.6,92.1,1869,91.8z"/>
	<path class="st1" d="M1915.9,78.4l-23.7,4.7c-1.8,0.4-3.3,1.6-3.9,3.3c-0.5,1.4-0.4,2.9,0.3,4.3l18.9,36.2c0.7,1.3,1.9,2.3,3.3,2.7
		c1.4,0.4,2.9,0.2,4.2-0.6l13.1-8c1-0.6,1.8-1.6,2.2-2.7c0.4-1,0.4-2.1,0.2-3.1l-8.2-32.9C1921.4,79.6,1918.7,77.9,1915.9,78.4z"/>
	<path class="st1" d="M1903.1,131.3c-0.3,0.5-0.7,1-1.3,1.3c-1.6,0.9-3.6,0.3-4.5-1.3L1876,92.5c-0.9-1.6-0.3-3.6,1.3-4.5
		c1.6-0.9,3.6-0.3,4.5,1.3l21.4,38.8C1903.7,129.2,1903.6,130.4,1903.1,131.3z"/>
	<path class="st1" d="M1852.9,152c-0.5,0.9-1.4,1.5-2.5,1.7c-1.8,0.2-3.4-1.1-3.6-2.9l-5.1-46.6c-0.2-1.8,1.1-3.4,2.9-3.6
		c1.8-0.2,3.4,1.1,3.6,2.9l5.1,46.6C1853.4,150.8,1853.3,151.5,1852.9,152z"/>
	<path class="st1" d="M1797.6,155.8C1797.6,155.8,1797.6,155.8,1797.6,155.8c-3.8,6.7-11.8,9.8-19.2,7.3c-4.1-1.4-7.4-4.3-9.3-8.1
		s-2.2-8.2-0.8-12.3c0.3-1,0.7-1.9,1.2-2.8c3.8-6.7,11.8-9.8,19.2-7.3c8.4,2.8,12.9,12,10.1,20.4
		C1798.5,154,1798.1,155,1797.6,155.8z M1775.3,143.3c-0.3,0.5-0.5,1.1-0.7,1.6c-0.8,2.4-0.6,5,0.5,7.2c1.1,2.3,3.1,4,5.5,4.8
		c4.3,1.5,9.1-0.4,11.3-4.3l0,0c0.3-0.5,0.5-1.1,0.7-1.6c1.7-5-1-10.3-5.9-12C1782.3,137.5,1777.6,139.3,1775.3,143.3z"/>
	<path class="st1" d="M1807.8,142.5c-0.4,0.7-1,1.2-1.7,1.5l-9.1,3.3c-1.7,0.6-3.6-0.3-4.2-2c-0.6-1.7,0.3-3.6,2-4.2l9.1-3.3
		c1.7-0.6,3.6,0.3,4.2,2C1808.3,140.7,1808.2,141.7,1807.8,142.5z"/>
	<path class="st1" d="M1950.8,90.1c-0.4,0.7-1,1.2-1.7,1.5l-17.6,6.4c-1.7,0.6-3.6-0.3-4.2-2c-0.6-1.7,0.3-3.6,2-4.2l17.6-6.4
		c1.7-0.6,3.6,0.3,4.2,2C1951.4,88.3,1951.3,89.3,1950.8,90.1z"/>
</g>
<g>
	<path class="st0" d="M1605.6,813.6l-19.5-12.6c-1.2-0.8-1.5-2.3-0.8-3.5l12.6-19.5c0.8-1.2,2.3-1.5,3.5-0.7l19.4,12.6
		c1.1,0.7,1.5,2.3,0.7,3.5l-12.6,19.5C1608.3,814.1,1606.7,814.4,1605.6,813.6z M1590.9,798.2l15.2,9.9l9.9-15.3l-15.2-9.9
		L1590.9,798.2z"/>
</g>
<g>
	<path class="st0" d="M1241.2,755.9l-14.3-9.3c-0.9-0.5-1.1-1.7-0.5-2.5l9.3-14.3c0.6-0.8,1.7-1.1,2.5-0.5l14.3,9.3
		c0.9,0.6,1.1,1.7,0.5,2.5l-9.3,14.3C1243.1,756.2,1242,756.5,1241.2,755.9z M1230.4,744.6l11.2,7.3l7.3-11.2l-11.2-7.3
		L1230.4,744.6z"/>
</g>
<g>
	<path class="st0" d="M1384.6,644.4l-22.1-14.4c-0.8-0.6-1.3-1.5-1.3-2.5c0.1-1,0.7-1.9,1.6-2.4l23.3-11.7c1.8-0.9,4.2,0.7,4.1,2.7
		l-1.2,26c0,1-0.6,1.9-1.5,2.4C1386.6,645,1385.5,644.9,1384.6,644.4z M1369.8,628l13.8,8.9l0.8-16.2L1369.8,628z"/>
</g>
<g>
	<path class="st0" d="M2704.6,158.4l-22.1-14.4c-0.8-0.6-1.3-1.5-1.3-2.5c0.1-1,0.7-1.9,1.6-2.4l23.3-11.7c1.8-0.9,4.2,0.7,4.1,2.7
		l-1.2,26c0,1-0.6,1.9-1.5,2.4C2706.6,159,2705.5,158.9,2704.6,158.4z M2689.8,142l13.8,8.9l0.8-16.2L2689.8,142z"/>
</g>
<g>
	<path class="st0" d="M1182,953.1c0.2-0.7,0.7-1.3,1.3-1.7l16-8.8c0.7-0.4,1.4-0.4,2.1-0.2c0.7,0.2,1.3,0.7,1.6,1.3l8.8,16.1
		c0.3,0.6,0.4,1.4,0.2,2.1c-0.2,0.7-0.7,1.3-1.3,1.7l-16.1,8.7c-1.3,0.8-3,0.3-3.8-1.1l-8.7-16
		C1181.8,954.6,1181.8,953.8,1182,953.1z M1199.6,948.9l-11.2,6.1l6.1,11.1l11.1-6.1L1199.6,948.9z"/>
</g>
<g>
	<path class="st0" d="M1122.2,891.6l17.5-19.7c0.7-0.8,1.7-1.1,2.7-0.9c1,0.2,1.8,1,2.1,1.9l8,24.8c0.6,1.9-1.3,4-3.3,3.7l-25.5-5.2
		c-1-0.2-1.8-0.9-2.2-1.9C1121.3,893.4,1121.5,892.3,1122.2,891.6z M1140.7,879.4l-10.9,12.3l15.9,3.2L1140.7,879.4z"/>
</g>
<g>
	<path class="st0" d="M278.4,594.6l11,13c0.7,0.8,0.6,1.9-0.2,2.6l-13,11c-0.8,0.7-1.9,0.6-2.6-0.2l-11-13c-0.7-0.8-0.6-1.9,0.2-2.6
		l13-11C276.6,593.8,277.8,593.9,278.4,594.6z M285.5,608.6l-8.6-10.2l-10.2,8.6l8.6,10.2L285.5,608.6z"/>
</g>
<g>
	<path class="st0" d="M417.5,681.4c0.5,0.5,0.7,1.3,0.7,2l-1.5,18.2c-0.1,0.7-0.4,1.4-1,1.9c-0.6,0.5-1.3,0.7-2,0.6l-18.3-1.5
		c-0.7-0.1-1.4-0.4-1.9-1c-0.5-0.6-0.7-1.3-0.6-2l1.5-18.2c0.1-1.5,1.5-2.7,3-2.5l18.2,1.5C416.3,680.5,417,680.9,417.5,681.4z
		 M411.3,698.4l1-12.7l-12.7-1l-1,12.7L411.3,698.4z"/>
</g>
<g>
	<path class="st0" d="M1959.7,545.4l6.8,25.5c0.3,1,0,2-0.7,2.8c-0.7,0.7-1.8,1-2.8,0.7l-25.1-6.9c-1.9-0.5-2.7-3.3-1.3-4.8
		l18.4-18.5c0.7-0.7,1.8-1,2.7-0.8C1958.7,543.6,1959.5,544.4,1959.7,545.4z M1959.8,567.5l-4.2-15.9l-11.5,11.5L1959.8,567.5z"/>
</g>
<g>
	<path class="st1" d="M1448.6,684.5l19.9-8.6c2-0.9,4.2-0.4,5.8,1.1c0.7,0.7,1.2,1.6,1.5,2.6c2.1,9.1,8.4,34.3,11,44.7
		c0.4,1.6,0.1,3.2-0.9,4.5c-1,1.3-2.5,2-4.1,2.1l-18.2,0.2c-1.4,0-2.7-0.5-3.7-1.5c-0.6-0.6-1-1.3-1.3-2l-12.7-36.4
		C1444.8,688.5,1446.1,685.6,1448.6,684.5z"/>
	<path class="st1" d="M1409,686.3c1.2-1,2.9-1.4,4.4-1l12.9,2.9c1,0.2,1.8,0.7,2.5,1.4c0.6,0.6,1.1,1.3,1.3,2.1l11.5,35.3
		c0.4,1.4,0.3,2.9-0.4,4.2c-0.7,1.3-1.9,2.2-3.3,2.6l-24.4,6.4c-1.8,0.5-3.7,0-5-1.3c-1-1-1.6-2.3-1.6-3.8l0-44.6
		C1407,688.8,1407.7,687.3,1409,686.3z"/>
	<path class="st1" d="M1360.9,694.3l23.4-5.9c1.8-0.5,3.7,0,5,1.3c1.1,1,1.6,2.5,1.6,4l-1.5,40.8c0,1.4-0.7,2.8-1.8,3.8
		c-1.1,1-2.6,1.4-4,1.3l-15.2-1.6c-1.2-0.1-2.3-0.6-3.1-1.5c-0.8-0.7-1.3-1.7-1.5-2.7l-6.7-33.3
		C1356.5,697.7,1358.2,695,1360.9,694.3z"/>
	<path class="st1" d="M1395.2,736.6c0.5,0.3,1.1,0.6,1.7,0.6c1.8,0.1,3.4-1.3,3.5-3.1l2.7-44.2c0.1-1.8-1.3-3.4-3.1-3.5
		c-1.8-0.1-3.4,1.3-3.5,3.1l-2.7,44.2C1393.7,734.9,1394.3,736,1395.2,736.6z"/>
	<path class="st1" d="M1449.4,733.9c0.8,0.6,1.9,0.8,3,0.4c1.7-0.6,2.6-2.5,2-4.2l-15.4-44.3c-0.6-1.7-2.5-2.6-4.2-2
		c-1.7,0.6-2.6,2.5-2,4.2l15.4,44.2C1448.4,732.9,1448.8,733.5,1449.4,733.9z"/>
	<path class="st1" d="M1498.7,711.6c-6.2-6.4-6-16.6,0.4-22.7c5.5-5.4,14.1-6,20.4-1.6c0.8,0.6,1.6,1.2,2.3,2
		c3,3.1,4.6,7.1,4.5,11.4c-0.1,4.3-1.8,8.3-4.9,11.3c-5.5,5.4-14.1,6-20.4,1.6c0,0,0,0,0,0C1500.2,713,1499.4,712.4,1498.7,711.6z
		 M1503.7,693.6c-3.8,3.6-3.9,9.6-0.2,13.4c0.4,0.4,0.9,0.8,1.4,1.2l0,0c3.7,2.6,8.8,2.2,12.1-0.9c1.8-1.8,2.8-4.1,2.9-6.7
		c0-2.5-0.9-4.9-2.7-6.8c-0.4-0.4-0.9-0.8-1.4-1.2C1512,690.1,1507,690.5,1503.7,693.6z"/>
	<path class="st1" d="M1486.1,705.9c0.6,0.4,1.4,0.7,2.2,0.6l9.6-0.9c1.8-0.2,3.1-1.8,3-3.6c-0.2-1.8-1.8-3.1-3.6-3l-9.6,0.9
		c-1.8,0.2-3.1,1.8-3,3.6C1484.8,704.5,1485.4,705.4,1486.1,705.9z"/>
	<path class="st1" d="M1334.4,719.8c0.6,0.4,1.4,0.7,2.2,0.6l18.7-1.8c1.8-0.2,3.1-1.8,3-3.6c-0.2-1.8-1.8-3.1-3.6-3l-18.7,1.8
		c-1.8,0.2-3.1,1.8-3,3.6C1333.1,718.4,1333.7,719.3,1334.4,719.8z"/>
</g>
<g>
	<path class="st1" d="M437.1,508.7c-1.2-2.9-3.3-5.3-5.3-7.7c-10.2-12.5-17.1-27.7-19.9-43.6c-1-5.8-1.8-12.3-6.4-16
		c-1.8-1.4-3.9-2.2-6.2-2.5c3.3,5.7,2.2,13.9-3.2,20.2c-6.5,7.6-16.8,9.4-23,4.1c-3.8-3.3-5.1-8.5-4.1-13.9
		c-2.8,3.6-4.4,8.1-3.8,12.5c-2.2-0.4-4.4-0.6-6.6-0.6c0.1,0.1,0.3,0.2,0.4,0.3c6.2,5.3,5.8,15.8-0.7,23.3c-6.5,7.6-16.8,9.4-23,4.1
		c-3.6-3.1-5-8.1-4.2-13.1c-1.8,3.9-2.5,8.2-1.6,12.3c-2.6,0.3-5.2,1-7.6,1.9c3.2,0,6.3,0.9,8.7,3c6.2,5.3,5.8,15.8-0.7,23.3
		c-6.5,7.6-16.8,9.4-23,4.1c-3.7-3.2-5-8.2-4.1-13.4c-0.7,1.4-1.3,2.8-1.8,4.2c-0.9,2.5-1.5,5.2-1.2,7.9c0.7,6.9,6.8,11.9,12.4,16.1
		c16.2,12,32.4,24,48.6,36c2.4,1.8,4.8,3.6,7.6,4.6c5.1,2,11.1,1.3,15.5-1.8c4.5-3.1,7.2-8.5,7.2-13.9c10.2-1.2,19.5-8.5,23.2-18.1
		c0.6-1.6,1.2-3.4,2.5-4.6c0.8-0.7,1.8-1.1,2.8-1.5c5.6-2.3,11-5.5,14.7-10.3C437.8,521,439.4,514.3,437.1,508.7z M371.7,571.6
		L371.7,571.6c-0.5-0.1-1-0.3-1.5-0.5c-2.1-0.8-4.2-2.3-6.3-4l-48.6-36c-1.1-0.8-2.3-1.7-3.3-2.6c3.5,0.6,7.2,0.2,10.7-1
		c0.4-0.1,0.9-0.1,1.2,0.2c7.8,6.2,42.2,35.1,48.8,41.1C375.3,570.6,373.2,571.9,371.7,571.6z M393.9,554.4
		c-0.9,0.3-1.7,0.5-2.6,0.6c-0.4,0.1-0.9-0.1-1.2-0.4c-17.2-18.1-50.7-57.1-51-57.9c0.1,0,0.2,0.1,0.4,0.1c2.1,0.5,4.3,0.5,6.4,0.3
		c0.4,0,0.9,0.1,1.1,0.5c4.7,6.3,35.5,42.2,47.4,54.6C395.2,552.9,394.9,554.1,393.9,554.4z M416.3,531.4c-0.2,0.2-0.5,0.4-0.8,0.6
		c-0.5,0.3-1,0.4-1.5,0.3c-1.7-0.3-3.3-3.3-4.3-4.5c-1.5-1.9-3.1-3.8-4.6-5.7c0,0-8.8-12.5-13-18.6c-7.8-11.2-15.8-23-21.8-35.4
		l0.6,0.1c1.9,1.4,4.1,2.3,6.5,2.9c1,0.2,1.9,0.3,2.9,0.4c0.5,0,0.9,0.3,1.2,0.8c4.6,9.6,10.8,18.5,16.4,27.7
		c3.2,5.2,6.3,10.4,9.6,15.6c1.7,2.6,3.4,5.3,5.2,7.8c0.8,1.2,1.8,2.4,2.6,3.6c0.6,0.8,2,2.4,1.8,3.5c0,0.1-0.1,0.2-0.1,0.3
		C416.7,531,416.5,531.2,416.3,531.4z"/>
	<path class="st1" d="M345.5,484.6c0.6,0,1.1-0.5,1.6-0.9c2.1-2.2,4.2-4.3,6.3-6.4c0.8-0.8,1.7-1.7,2-2.8c0.5-1.5-0.1-3.1-0.9-4.4
		c-0.8-1.3-2-2.4-2.9-3.6c-2.7-3.6-3.5-8.2-5-12.4c-0.3-0.9-0.7-1.8-1.5-2.3c-1.1-0.6-2.5-0.2-3.6,0.4c-4.6,2.3-8.5,6.1-10.7,10.7
		c-0.4,0.8-0.8,1.6-0.8,2.5c0,1,0.4,2,0.8,3c3,6.4,7.7,11.9,13.5,15.9C344.6,484.4,345,484.6,345.5,484.6z"/>
	<path class="st1" d="M302.9,502.3c0.5,2.4,2,4.6,4,6.1c1.9,1.6,4.2,2.7,6.4,3.7c0.6,0.3,1.3,0.6,2,0.6c0.5,0,1-0.1,1.4-0.3
		c2.9-0.9,5.5-2.7,7.4-5c0.4-0.5,0.8-1,0.8-1.6c0-0.7-0.3-1.3-0.7-1.8c-2.7-4.1-5.4-8.3-8.3-12.2c-0.6-0.8-1.2-1.6-2.1-2.2
		C308.1,485.8,302.1,497.8,302.9,502.3z"/>
	<path class="st1" d="M374.1,432.7c-0.8,1-1.6,2.1-1.8,3.3c-0.2,1.1,0.1,2.1,0.5,3.1c1.4,4.3,3.4,8.4,6,12c1,1.4,2.2,2.8,3.9,3.2
		c0.9,0.2,1.8,0,2.7-0.1c3-0.5,7.5-3,7.1-5.9c0-0.3-0.1-0.5-0.2-0.7c-1.3-2.8-2.7-5.7-3.6-8.6c-1.2-3.7-2.1-7.5-2.7-11.4
		c-0.1-0.8-0.2-1.7-0.7-2.4c-0.4-0.7-1.3-1.2-2.1-1c-0.3,0.1-0.5,0.3-0.8,0.5C379.4,427.1,376.6,429.7,374.1,432.7z"/>
</g>
<g>
	<path class="st1" d="M2260.1,958.7c-1.2-2.9-3.3-5.3-5.3-7.7c-10.2-12.5-17.1-27.7-19.9-43.6c-1-5.8-1.8-12.3-6.4-16
		c-1.8-1.4-3.9-2.2-6.2-2.5c3.3,5.7,2.2,13.9-3.2,20.2c-6.5,7.6-16.8,9.4-23,4.1c-3.8-3.3-5.1-8.5-4.1-13.9
		c-2.8,3.6-4.4,8.1-3.8,12.5c-2.2-0.4-4.4-0.6-6.6-0.6c0.1,0.1,0.3,0.2,0.4,0.3c6.2,5.3,5.8,15.8-0.7,23.3c-6.5,7.6-16.8,9.4-23,4.1
		c-3.6-3.1-5-8.1-4.2-13.1c-1.8,3.9-2.5,8.2-1.6,12.3c-2.6,0.3-5.2,1-7.6,1.9c3.2,0,6.3,0.9,8.7,3c6.2,5.3,5.8,15.8-0.7,23.3
		c-6.5,7.6-16.8,9.4-23,4.1c-3.7-3.2-5-8.2-4.1-13.4c-0.7,1.4-1.3,2.8-1.8,4.2c-0.9,2.5-1.5,5.2-1.2,7.9c0.7,6.9,6.8,11.9,12.4,16.1
		c16.2,12,32.4,24,48.6,36c2.4,1.8,4.8,3.6,7.6,4.6c5.1,2,11.1,1.3,15.5-1.8c4.5-3.1,7.2-8.5,7.2-13.9c10.2-1.2,19.5-8.5,23.2-18.1
		c0.6-1.6,1.2-3.4,2.5-4.6c0.8-0.7,1.8-1.1,2.8-1.5c5.6-2.3,11-5.5,14.7-10.3C2260.8,971,2262.4,964.3,2260.1,958.7z M2194.7,1021.6
		L2194.7,1021.6c-0.5-0.1-1-0.3-1.5-0.5c-2.1-0.8-4.2-2.3-6.3-4l-48.6-36c-1.1-0.8-2.3-1.7-3.3-2.6c3.5,0.6,7.2,0.2,10.7-1
		c0.4-0.1,0.9-0.1,1.2,0.2c7.8,6.2,42.2,35.1,48.8,41.1C2198.3,1020.6,2196.2,1021.9,2194.7,1021.6z M2216.9,1004.4
		c-0.9,0.3-1.7,0.5-2.6,0.6c-0.4,0.1-0.9-0.1-1.2-0.4c-17.2-18.1-50.7-57.1-51-57.9c0.1,0,0.2,0.1,0.4,0.1c2.1,0.5,4.3,0.5,6.4,0.3
		c0.4,0,0.9,0.1,1.1,0.5c4.7,6.3,35.5,42.2,47.4,54.6C2218.2,1002.9,2217.9,1004.1,2216.9,1004.4z M2239.3,981.4
		c-0.2,0.2-0.5,0.4-0.8,0.6c-0.5,0.3-1,0.4-1.5,0.3c-1.7-0.3-3.3-3.3-4.3-4.5c-1.5-1.9-3.1-3.8-4.6-5.7c0,0-8.8-12.5-13-18.6
		c-7.8-11.2-15.8-23-21.8-35.4l0.6,0.1c1.9,1.4,4.1,2.3,6.5,2.9c1,0.2,1.9,0.3,2.9,0.4c0.5,0,0.9,0.3,1.2,0.8
		c4.6,9.6,10.8,18.5,16.4,27.7c3.2,5.2,6.3,10.4,9.6,15.6c1.7,2.6,3.4,5.3,5.2,7.8c0.8,1.2,1.8,2.4,2.6,3.6c0.6,0.8,2,2.4,1.8,3.5
		c0,0.1-0.1,0.2-0.1,0.3C2239.7,981,2239.5,981.2,2239.3,981.4z"/>
	<path class="st1" d="M2168.5,934.6c0.6,0,1.1-0.5,1.6-0.9c2.1-2.2,4.2-4.3,6.3-6.4c0.8-0.8,1.7-1.7,2-2.8c0.5-1.5-0.1-3.1-0.9-4.4
		c-0.8-1.3-2-2.4-2.9-3.6c-2.7-3.6-3.5-8.2-5-12.4c-0.3-0.9-0.7-1.8-1.5-2.3c-1.1-0.6-2.5-0.2-3.6,0.4c-4.6,2.3-8.5,6.1-10.7,10.7
		c-0.4,0.8-0.8,1.6-0.8,2.5c0,1,0.4,2,0.8,3c3,6.4,7.7,11.9,13.5,15.9C2167.6,934.4,2168,934.6,2168.5,934.6z"/>
	<path class="st1" d="M2125.9,952.3c0.5,2.4,2,4.6,4,6.1c1.9,1.6,4.2,2.7,6.4,3.7c0.6,0.3,1.3,0.6,2,0.6c0.5,0,1-0.1,1.4-0.3
		c2.9-0.9,5.5-2.7,7.4-5c0.4-0.5,0.8-1,0.8-1.6c0-0.7-0.3-1.3-0.7-1.8c-2.7-4.1-5.4-8.3-8.3-12.2c-0.6-0.8-1.2-1.6-2.1-2.2
		C2131.1,935.8,2125.1,947.8,2125.9,952.3z"/>
	<path class="st1" d="M2197.1,882.7c-0.8,1-1.6,2.1-1.8,3.3c-0.2,1.1,0.1,2.1,0.5,3.1c1.4,4.3,3.4,8.4,6,12c1,1.4,2.2,2.8,3.9,3.2
		c0.9,0.2,1.8,0,2.7-0.1c3-0.5,7.5-3,7.1-5.9c0-0.3-0.1-0.5-0.2-0.7c-1.3-2.8-2.7-5.7-3.6-8.6c-1.2-3.7-2.1-7.5-2.7-11.4
		c-0.1-0.8-0.2-1.7-0.7-2.4c-0.4-0.7-1.3-1.2-2.1-1c-0.3,0.1-0.5,0.3-0.8,0.5C2202.4,877.1,2199.6,879.7,2197.1,882.7z"/>
</g>
<g>
	<path class="st1" d="M3044.1,682.9c-1.4-6.4-10.3-6.8-14.9-6.4c-2.9,0.3-5.8,0.9-8,3.5c-3.6,4.2,0.1,9.3,3.6,11.1
		c3.9,1.9,9.3,1.8,13.5,0.3c2-0.7,4.3-2,5.3-4.4C3044.2,685.4,3044.3,684.1,3044.1,682.9z"/>
	<path class="st1" d="M3063.8,713.9c1.1-9.9-7.2-16.7-14.5-18.2c-1.1-0.2-2.3-0.3-3.4-0.1c-2.3,0.4-4.5,1.8-6.9,2.1
		c-2.9,0.4-5.7,0.4-8.6,0.2c-2.8-0.2-5.7-1.1-8.6-1.4c-9.2,3.4-16.9,10.9-26.3,14.3c-4.7,1.7-9.8,2.9-14.3,5.3
		c-2.3,1.2-4.2,2.8-5.8,4.5c0.9,2.6,2.5,4.8,5,6.6c14.2,10,35.3,12,52.1,11.2c7.1-0.3,14.2-1.4,21.2-3.1c1.3-2.1,3.1-3.9,4.5-6.3
		C3060.6,724.3,3063.2,719.2,3063.8,713.9z"/>
	<path class="st1" d="M2982.1,709.1c2.8-1.2,5.7-2.3,8.5-3.4c5.8-2.3,11.5-4.7,17-8.2c2.1-1.4,5.5-2.9,6.7-5.6
		c0.9-2-0.4-3.5-0.7-5.4c-0.3-2.2,0-4.6,0.9-6.6c0.2-0.4,0.4-0.9,0.5-1.3c0.7-3.4-4.2-7.1-5.6-9.5c-1-1.8-1.5-3.6-1.6-5.4
		c-10.3,5.7-32.6,32-33.5,50.2c0.1-1.1,6.5-4.2,7.5-4.6C2982.1,709.1,2982.1,709.1,2982.1,709.1z"/>
	<path class="st1" d="M3115,675.6c-3.9-2.7-8.1-4.8-12.4-6.6c-10-4.2-20.4-7.7-31-10.2c-11-2.5-22.4-3.9-33.8-3.2
		c-4.4,0.3-8.9,0.9-13.3,1.9c-2.2,0.5-4.3,1.1-6.4,1.8c-1.2,0.4-2.9,1-3.9,2.1c-1.2,1.4,0.2,3.3,1,4.4c2.4,3.5,6.9,5.8,10.8,5.6
		c5-0.3,10,1.2,15,1.1c5.2-1.8,9.8-4.8,15.4-6.2c9.1-2.3,18.7,0.3,27.2,2.8c8.8,2.6,17.6,5.8,26.8,6.8
		C3111.5,676,3114.3,675.1,3115,675.6z"/>
	<path class="st1" d="M3123.3,682.9c-0.3-0.4-0.6-0.7-1-1c-13.6,4-27.1-1.6-39.7-7.1c-5.5-2.4-11.4-3.9-17.6-3.5
		c-2.9,0.2-5.7,0.7-8.5,1.6c-2.9,0.9-6.5,1.2-7.9,4.9c-0.7,1.8-0.3,3.9,0.3,5.7c0.5,1.6,1.3,3.2,2.5,4.1c3.7,2.6,8.2,3.4,12,6.1
		c3.6,2.6,6.5,6.3,7.7,11.1c2.1,8.4,0.1,17.9-3.1,26.1c7.3-2.6,14.4-5.8,21.3-9.6C3097.4,716.7,3134.4,696.1,3123.3,682.9z"/>
	<path class="st1" d="M3021.6,761.2c19.7,2.5,39.8-1.9,58.8-10.1c7.6-3.3,15.4-7.2,22.6-11.7c5.8-3.6,12.6-7.4,15.9-14.5
		c1-2.2,1.6-4.5,2.2-6.9c1-3.8,1.9-7.6,2.8-11.4c0.4-1.5,0.9-2.9,1.3-4.4c0.3-1.3,0.2-2.7,0.7-3.9c-1.3,3.4-3.7,6.1-6.2,8.5
		c-8.8,8.5-18.6,13.1-28.6,18.8l-0.3,0.2c-18.6,10.5-38.8,16.5-58.6,17.4c-8,0.4-20,0.3-31.9-2.4c-8.9-2-16.5-5.2-22.5-9.5
		c-1.2-0.9-2.3-1.9-3.3-3c0.7,5.1,3.7,9.8,6.9,13.3C2992.2,753.4,3006.7,759.3,3021.6,761.2z"/>
</g>
<g>
	<path class="st1" d="M2991.1,948.9c-1.4-6.4-10.3-6.8-14.9-6.4c-2.9,0.3-5.8,0.9-8,3.5c-3.6,4.2,0.1,9.3,3.6,11.1
		c3.9,1.9,9.3,1.8,13.5,0.3c2-0.7,4.3-2,5.3-4.4C2991.2,951.4,2991.3,950.1,2991.1,948.9z"/>
	<path class="st1" d="M3010.8,979.9c1.1-9.9-7.2-16.7-14.5-18.2c-1.1-0.2-2.3-0.3-3.4-0.1c-2.3,0.4-4.5,1.8-6.9,2.1
		c-2.9,0.4-5.7,0.4-8.6,0.2c-2.8-0.2-5.7-1.1-8.6-1.4c-9.2,3.4-16.9,10.9-26.3,14.3c-4.7,1.7-9.8,2.9-14.3,5.3
		c-2.3,1.2-4.2,2.8-5.8,4.5c0.9,2.6,2.5,4.8,5,6.6c14.2,10,35.3,12,52.1,11.2c7.1-0.3,14.2-1.4,21.2-3.1c1.3-2.1,3.1-3.9,4.5-6.3
		C3007.6,990.3,3010.2,985.2,3010.8,979.9z"/>
	<path class="st1" d="M2929.1,975.1c2.8-1.2,5.7-2.3,8.5-3.4c5.8-2.3,11.5-4.7,17-8.2c2.1-1.4,5.5-2.9,6.7-5.6
		c0.9-2-0.4-3.5-0.7-5.4c-0.3-2.2,0-4.6,0.9-6.6c0.2-0.4,0.4-0.9,0.5-1.3c0.7-3.4-4.2-7.1-5.6-9.5c-1-1.8-1.5-3.6-1.6-5.4
		c-10.3,5.7-32.6,32-33.5,50.2c0.1-1.1,6.5-4.2,7.5-4.6C2929.1,975.1,2929.1,975.1,2929.1,975.1z"/>
	<path class="st1" d="M3062,941.6c-3.9-2.7-8.1-4.8-12.4-6.6c-10-4.2-20.4-7.7-31-10.2c-11-2.5-22.4-3.9-33.8-3.2
		c-4.4,0.3-8.9,0.9-13.3,1.9c-2.2,0.5-4.3,1.1-6.4,1.8c-1.2,0.4-2.9,1-3.9,2.1c-1.2,1.4,0.2,3.3,1,4.4c2.4,3.5,6.9,5.8,10.8,5.6
		c5-0.3,10,1.2,15,1.1c5.2-1.8,9.8-4.8,15.4-6.2c9.1-2.3,18.7,0.3,27.2,2.8c8.8,2.6,17.6,5.8,26.8,6.8
		C3058.5,942,3061.3,941.1,3062,941.6z"/>
	<path class="st1" d="M3070.3,948.9c-0.3-0.4-0.6-0.7-1-1c-13.6,4-27.1-1.6-39.7-7.1c-5.5-2.4-11.4-3.9-17.6-3.5
		c-2.9,0.2-5.7,0.7-8.5,1.6c-2.9,0.9-6.5,1.2-7.9,4.9c-0.7,1.8-0.3,3.9,0.3,5.7c0.5,1.6,1.3,3.2,2.5,4.1c3.7,2.6,8.2,3.4,12,6.1
		c3.6,2.6,6.5,6.3,7.7,11.1c2.1,8.4,0.1,17.9-3.1,26.1c7.3-2.6,14.4-5.8,21.3-9.6C3044.4,982.7,3081.4,962.1,3070.3,948.9z"/>
	<path class="st1" d="M2968.6,1027.2c19.7,2.5,39.8-1.9,58.8-10.1c7.6-3.3,15.4-7.2,22.6-11.7c5.8-3.6,12.6-7.4,15.9-14.5
		c1-2.2,1.6-4.5,2.2-6.9c1-3.8,1.9-7.6,2.8-11.4c0.4-1.5,0.9-2.9,1.3-4.4c0.3-1.3,0.2-2.7,0.7-3.9c-1.3,3.4-3.7,6.1-6.2,8.5
		c-8.8,8.5-18.6,13.1-28.6,18.8l-0.3,0.2c-18.6,10.5-38.8,16.5-58.6,17.4c-8,0.4-20,0.3-31.9-2.4c-8.9-2-16.5-5.2-22.5-9.5
		c-1.2-0.9-2.3-1.9-3.3-3c0.7,5.1,3.7,9.8,6.9,13.3C2939.2,1019.4,2953.7,1025.3,2968.6,1027.2z"/>
</g>
<g>
	<path class="st1" d="M816.1,91.9c-1.4-6.4-10.3-6.8-14.9-6.4c-2.9,0.3-5.8,0.9-8,3.5c-3.6,4.2,0.1,9.3,3.6,11.1
		c3.9,1.9,9.3,1.8,13.5,0.3c2-0.7,4.3-2,5.3-4.4C816.2,94.4,816.3,93.1,816.1,91.9z"/>
	<path class="st1" d="M835.8,122.9c1.1-9.9-7.2-16.7-14.5-18.2c-1.1-0.2-2.3-0.3-3.4-0.1c-2.3,0.4-4.5,1.8-6.9,2.1
		c-2.9,0.4-5.7,0.4-8.6,0.2c-2.8-0.2-5.7-1.1-8.6-1.4c-9.2,3.4-16.9,10.9-26.3,14.3c-4.7,1.7-9.8,2.9-14.3,5.3
		c-2.3,1.2-4.2,2.8-5.8,4.5c0.9,2.6,2.5,4.8,5,6.6c14.2,10,35.3,12,52.1,11.2c7.1-0.3,14.2-1.4,21.2-3.1c1.3-2.1,3.1-3.9,4.5-6.3
		C832.6,133.3,835.2,128.2,835.8,122.9z"/>
	<path class="st1" d="M754.1,118.1c2.8-1.2,5.7-2.3,8.5-3.4c5.8-2.3,11.5-4.7,17-8.2c2.1-1.4,5.5-2.9,6.7-5.6c0.9-2-0.4-3.5-0.7-5.4
		c-0.3-2.2,0-4.6,0.9-6.6c0.2-0.4,0.4-0.9,0.5-1.3c0.7-3.4-4.2-7.1-5.6-9.5c-1-1.8-1.5-3.6-1.6-5.4c-10.3,5.7-32.6,32-33.5,50.2
		c0.1-1.1,6.5-4.2,7.5-4.6C754.1,118.1,754.1,118.1,754.1,118.1z"/>
	<path class="st1" d="M887,84.6c-3.9-2.7-8.1-4.8-12.4-6.6c-10-4.2-20.4-7.7-31-10.2c-11-2.5-22.4-3.9-33.8-3.2
		c-4.4,0.3-8.9,0.9-13.3,1.9c-2.2,0.5-4.3,1.1-6.4,1.8c-1.2,0.4-2.9,1-3.9,2.1c-1.2,1.4,0.2,3.3,1,4.4c2.4,3.5,6.9,5.8,10.8,5.6
		c5-0.3,10,1.2,15,1.1c5.2-1.8,9.8-4.8,15.4-6.2c9.1-2.3,18.7,0.3,27.2,2.8c8.8,2.6,17.6,5.8,26.8,6.8C883.5,85,886.3,84.1,887,84.6
		z"/>
	<path class="st1" d="M895.3,91.9c-0.3-0.4-0.6-0.7-1-1c-13.6,4-27.1-1.6-39.7-7.1c-5.5-2.4-11.4-3.9-17.6-3.5
		c-2.9,0.2-5.7,0.7-8.5,1.6c-2.9,0.9-6.5,1.2-7.9,4.9c-0.7,1.8-0.3,3.9,0.3,5.7c0.5,1.6,1.3,3.2,2.5,4.1c3.7,2.6,8.2,3.4,12,6.1
		c3.6,2.6,6.5,6.3,7.7,11.1c2.1,8.4,0.1,17.9-3.1,26.1c7.3-2.6,14.4-5.8,21.3-9.6C869.4,125.7,906.4,105.1,895.3,91.9z"/>
	<path class="st1" d="M793.6,170.2c19.7,2.5,39.8-1.9,58.8-10.1c7.6-3.3,15.4-7.2,22.6-11.7c5.8-3.6,12.6-7.4,15.9-14.5
		c1-2.2,1.6-4.5,2.2-6.9c1-3.8,1.9-7.6,2.8-11.4c0.4-1.5,0.9-2.9,1.3-4.4c0.3-1.3,0.2-2.7,0.7-3.9c-1.3,3.4-3.7,6.1-6.2,8.5
		c-8.8,8.5-18.6,13.1-28.6,18.8l-0.3,0.2c-18.6,10.5-38.8,16.5-58.6,17.4c-8,0.4-20,0.3-31.9-2.4c-8.9-2-16.5-5.2-22.5-9.5
		c-1.2-0.9-2.3-1.9-3.3-3c0.7,5.1,3.7,9.8,6.9,13.3C764.2,162.4,778.7,168.3,793.6,170.2z"/>
</g>
<g>
	<path class="st0" d="M1751.7,843.1l-26.1-3.5c-1-0.1-1.9-0.8-2.3-1.7c-0.4-0.9-0.2-2,0.4-2.8l16-20.6c1.2-1.6,4.1-1.2,4.9,0.7
		l10,24.1c0.4,0.9,0.2,2-0.3,2.8C1753.7,842.8,1752.7,843.2,1751.7,843.1z M1731.2,834.6l16.3,2.2l-6.2-15L1731.2,834.6z"/>
</g>
<g>
	<path class="st0" d="M1723.8,711.9c-1.1-0.1-2.1-0.9-2.5-1.9l-11.1-26.5c-0.5-1-0.3-2.3,0.4-3.1c0.7-0.9,1.8-1.4,2.9-1.2l28.8,3.9
		c1.1,0.2,2.1,0.9,2.5,1.9c0.4,1,0.3,2.2-0.4,3.1l-17.7,22.6C1726,711.6,1724.9,712,1723.8,711.9z M1718.1,686l6.9,16.5l11.1-14.1
		L1718.1,686z"/>
</g>
<g>
	<path class="st0" d="M2652.6,829.6l-19.5-12.6c-1.2-0.8-1.5-2.3-0.8-3.5l12.6-19.5c0.8-1.2,2.3-1.5,3.5-0.7l19.4,12.6
		c1.1,0.7,1.5,2.3,0.7,3.5l-12.6,19.5C2655.3,830.1,2653.7,830.4,2652.6,829.6z M2637.9,814.2l15.2,9.9l9.9-15.3l-15.2-9.9
		L2637.9,814.2z"/>
</g>
<g>
	<path class="st0" d="M2496.6,158.6l-19.5-12.6c-1.2-0.8-1.5-2.3-0.8-3.5l12.6-19.5c0.8-1.2,2.3-1.5,3.5-0.7l19.4,12.6
		c1.1,0.7,1.5,2.3,0.7,3.5l-12.6,19.5C2499.3,159.1,2497.7,159.4,2496.6,158.6z M2481.9,143.2l15.2,9.9l9.9-15.3l-15.2-9.9
		L2481.9,143.2z"/>
</g>
<g>
	<path class="st0" d="M2798.7,859.1l-26.1-3.5c-1-0.1-1.9-0.8-2.3-1.7c-0.4-0.9-0.2-2,0.4-2.8l16-20.6c1.2-1.6,4.1-1.2,4.9,0.7
		l10,24.1c0.4,0.9,0.2,2-0.3,2.8C2800.7,858.8,2799.7,859.2,2798.7,859.1z M2778.2,850.6l16.3,2.2l-6.2-15L2778.2,850.6z"/>
</g>
<g>
	<path class="st0" d="M2770.8,727.9c-1.1-0.1-2.1-0.9-2.5-1.9l-11.1-26.5c-0.5-1-0.3-2.3,0.4-3.1c0.7-0.9,1.8-1.4,2.9-1.2l28.8,3.9
		c1.1,0.2,2.1,0.9,2.5,1.9c0.4,1,0.3,2.2-0.4,3.1l-17.7,22.6C2773,727.6,2771.9,728,2770.8,727.9z M2765.1,702l6.9,16.5l11.1-14.1
		L2765.1,702z"/>
</g>
<g>
	<path class="st1" d="M1912.1,715.9c-1.4-6.4-10.3-6.8-14.9-6.4c-2.9,0.3-5.8,0.9-8,3.5c-3.6,4.2,0.1,9.3,3.6,11.1
		c3.9,1.9,9.3,1.8,13.5,0.3c2-0.7,4.3-2,5.3-4.4C1912.2,718.4,1912.3,717.1,1912.1,715.9z"/>
	<path class="st1" d="M1931.8,746.9c1.1-9.9-7.2-16.7-14.5-18.2c-1.1-0.2-2.3-0.3-3.4-0.1c-2.3,0.4-4.5,1.8-6.9,2.1
		c-2.9,0.4-5.7,0.4-8.6,0.2c-2.8-0.2-5.7-1.1-8.6-1.4c-9.2,3.4-16.9,10.9-26.3,14.3c-4.7,1.7-9.8,2.9-14.3,5.3
		c-2.3,1.2-4.2,2.8-5.8,4.5c0.9,2.6,2.5,4.8,5,6.6c14.2,10,35.3,12,52.1,11.2c7.1-0.3,14.2-1.4,21.2-3.1c1.3-2.1,3.1-3.9,4.5-6.3
		C1928.6,757.3,1931.2,752.2,1931.8,746.9z"/>
	<path class="st1" d="M1850.1,742.1c2.8-1.2,5.7-2.3,8.5-3.4c5.8-2.3,11.5-4.7,17-8.2c2.1-1.4,5.5-2.9,6.7-5.6
		c0.9-2-0.4-3.5-0.7-5.4c-0.3-2.2,0-4.6,0.9-6.6c0.2-0.4,0.4-0.9,0.5-1.3c0.7-3.4-4.2-7.1-5.6-9.5c-1-1.8-1.5-3.6-1.6-5.4
		c-10.3,5.7-32.6,32-33.5,50.2c0.1-1.1,6.5-4.2,7.5-4.6C1850.1,742.1,1850.1,742.1,1850.1,742.1z"/>
	<path class="st1" d="M1983,708.6c-3.9-2.7-8.1-4.8-12.4-6.6c-10-4.2-20.4-7.7-31-10.2c-11-2.5-22.4-3.9-33.8-3.2
		c-4.4,0.3-8.9,0.9-13.3,1.9c-2.2,0.5-4.3,1.1-6.4,1.8c-1.2,0.4-2.9,1-3.9,2.1c-1.2,1.4,0.2,3.3,1,4.4c2.4,3.5,6.9,5.8,10.8,5.6
		c5-0.3,10,1.2,15,1.1c5.2-1.8,9.8-4.8,15.4-6.2c9.1-2.3,18.7,0.3,27.2,2.8c8.8,2.6,17.6,5.8,26.8,6.8
		C1979.5,709,1982.3,708.1,1983,708.6z"/>
	<path class="st1" d="M1991.3,715.9c-0.3-0.4-0.6-0.7-1-1c-13.6,4-27.1-1.6-39.7-7.1c-5.5-2.4-11.4-3.9-17.6-3.5
		c-2.9,0.2-5.7,0.7-8.5,1.6c-2.9,0.9-6.5,1.2-7.9,4.9c-0.7,1.8-0.3,3.9,0.3,5.7c0.5,1.6,1.3,3.2,2.5,4.1c3.7,2.6,8.2,3.4,12,6.1
		c3.6,2.6,6.5,6.3,7.7,11.1c2.1,8.4,0.1,17.9-3.1,26.1c7.3-2.6,14.4-5.8,21.3-9.6C1965.4,749.7,2002.4,729.1,1991.3,715.9z"/>
	<path class="st1" d="M1889.6,794.2c19.7,2.5,39.8-1.9,58.8-10.1c7.6-3.3,15.4-7.2,22.6-11.7c5.8-3.6,12.6-7.4,15.9-14.5
		c1-2.2,1.6-4.5,2.2-6.9c1-3.8,1.9-7.6,2.8-11.4c0.4-1.5,0.9-2.9,1.3-4.4c0.3-1.3,0.2-2.7,0.7-3.9c-1.3,3.4-3.7,6.1-6.2,8.5
		c-8.8,8.5-18.6,13.1-28.6,18.8l-0.3,0.2c-18.6,10.5-38.8,16.5-58.6,17.4c-8,0.4-20,0.3-31.9-2.4c-8.9-2-16.5-5.2-22.5-9.5
		c-1.2-0.9-2.3-1.9-3.3-3c0.7,5.1,3.7,9.8,6.9,13.3C1860.2,786.4,1874.7,792.3,1889.6,794.2z"/>
</g>
</svg>
