<?xml version="1.0" encoding="utf-8"?>
<!-- Generator: Adobe Illustrator 21.0.2, SVG Export Plug-In . SVG Version: 6.00 Build 0)  -->
<svg version="1.1" id="Layer_1" xmlns="http://www.w3.org/2000/svg" xmlns:xlink="http://www.w3.org/1999/xlink" x="0px" y="0px"
	 viewBox="0 0 1622 249" style="enable-background:new 0 0 1622 249;" xml:space="preserve">
<style type="text/css">
	.st0{fill:#D51C29;}
	.st1{fill:#FFFFFF;}
</style>
<g>
	<path d="M112.5,34.3c5.2,0,10,0.4,14.5,1.3c4.5,0.9,8.6,2,12.3,3.3c3.7,1.4,6.9,2.8,9.6,4.3c2.7,1.5,4.9,2.9,6.6,4.1v-8.3h38.2V102
		h-40.5c0-5.2-0.6-9.5-1.9-13c-1.3-3.5-3-6.3-5.1-8.5c-2.1-2.2-4.6-3.7-7.5-4.6c-2.9-0.9-5.9-1.4-9.3-1.4c-4.6,0-8.5,0.9-11.7,2.6
		c-3.2,1.7-5.9,4.5-7.9,8.4c-2,3.9-3.6,9-4.6,15.4c-1,6.4-1.6,14.2-1.6,23.4c0,9.3,0.6,17.2,1.7,23.4c1.1,6.3,2.8,11.4,5.1,15.3
		c2.3,3.9,5.2,6.7,8.7,8.5c3.5,1.7,7.8,2.6,12.7,2.6c3.3,0,6.5-0.6,9.6-1.9c3.1-1.3,5.8-3.2,8.2-5.8c2.4-2.6,4.2-5.9,5.6-9.8
		c1.3-3.9,2-8.7,2-14.2h40.3c0,9.8-1.5,19.1-4.6,27.8c-3.1,8.7-7.9,16.4-14.5,22.9c-6.6,6.6-14.9,11.8-25,15.6
		c-10.1,3.9-22.1,5.8-36,5.8c-12.5,0-24.3-1.7-35.5-5.1c-11.2-3.4-20.9-8.7-29.2-16c-8.3-7.3-14.9-16.6-19.7-28
		c-4.8-11.4-7.2-25.1-7.2-41s2.4-29.7,7.4-41c4.9-11.4,11.4-20.7,19.5-28c8.1-7.3,17.3-12.6,27.6-16C90.7,36,101.4,34.3,112.5,34.3z
		"/>
	<path d="M273.7,97.9c-3.9,0-7.3,0.3-10.1,0.9c-2.8,0.6-5.2,1.3-7.2,2c-2,0.8-3.7,1.6-5,2.6c-1.3,1-2.5,1.8-3.5,2.6l1.2,1.2
		c1.5-0.8,3.1-1.5,4.8-2.3c1.7-0.8,4-1.2,6.7-1.2c4.6,0,8.5,1.5,11.8,4.5c3.3,3,5,7.7,5,14.2c0,6.2-2.5,11.1-7.6,14.9
		c-5.1,3.7-11.8,5.6-20.3,5.6c-8.1,0-14.6-2.3-19.4-7c-4.8-4.7-7.2-11.3-7.2-19.9c0-4.7,1.3-9.4,3.9-14.1c2.6-4.7,6.7-8.9,12.2-12.6
		c5.5-3.7,12.5-6.8,21.1-9.1c8.5-2.4,18.8-3.6,30.9-3.6c14.4,0,26.1,1.4,35.2,4.1c9.1,2.7,16.2,6.2,21.2,10.4
		c5.1,4.2,8.5,9.1,10.4,14.5c1.9,5.4,2.8,10.8,2.8,16.3v45.3c0,7,0.2,11.8,0.7,14.3c0.5,2.5,2.2,3.8,5.2,3.8c2.4,0,4.1-1.1,5-3.4
		c1-2.3,1.4-6.2,1.4-11.8v-14.5h13.2v14.7c0,6.9-0.6,13.1-1.7,18.5c-1.2,5.4-3.4,10-6.6,13.8c-3.2,3.8-7.6,6.7-13.2,8.7
		c-5.6,2-12.7,3-21.3,3c-7.8,0-14.3-0.8-19.4-2.5c-5.1-1.7-9.2-3.7-12.2-6.2c-3-2.5-5.2-5-6.4-7.7c-1.3-2.7-1.9-5-1.9-7.1h-1.9
		c-0.5,3.2-1.8,6.2-4,9c-2.2,2.9-5.3,5.4-9.1,7.6c-3.9,2.2-8.6,4-14,5.3c-5.4,1.3-11.6,2-18.6,2c-6.6,0-12.7-0.6-18.1-1.9
		c-5.4-1.3-10.1-3.3-13.9-6s-6.8-6.3-8.9-10.7c-2.1-4.4-3.2-9.6-3.2-15.6c0-7.4,2.1-13.3,6.3-17.5c4.2-4.3,9.4-7.7,15.7-10.2
		c6.3-2.5,13.2-4.6,20.7-6.1c7.4-1.6,14.3-3.5,20.7-5.7c6.3-2.2,11.6-5.1,15.7-8.7c4.2-3.5,6.3-8.6,6.3-15.1c0-5.8-1.8-10.4-5.4-14
		C287.9,99.7,281.9,97.9,273.7,97.9z M296.9,148.1c-1.7,2.5-3.8,4.5-6.4,6c-2.5,1.5-5,3-7.4,4.4c-2.4,1.4-4.4,3.1-6.1,5.1
		c-1.7,2-2.6,4.6-2.6,7.9c0,2.5,0.7,4.8,2.1,6.9c1.4,2,4.1,3.1,8.1,3.1c3.6,0,6.6-1.4,8.9-4.2c2.3-2.8,3.4-6.8,3.4-11.9V148.1z"/>
	<path d="M462.5,81.9l-2,31.8h2c2.7-12.2,7.2-21.4,13.5-27.7c6.3-6.3,14.5-9.4,24.5-9.4c5.9,0,11.1,0.9,15.3,2.8
		c4.3,1.9,7.7,4.4,10.4,7.6c2.6,3.2,4.5,6.8,5.7,10.9c1.2,4.1,1.7,8.4,1.7,12.8c0,3.6-0.5,7.2-1.6,10.8c-1.1,3.6-2.8,6.8-5.2,9.6
		c-2.4,2.9-5.5,5.2-9.3,6.9c-3.8,1.7-8.5,2.6-14,2.6c-7.7,0-13.8-2-18.2-5.9c-4.4-3.9-6.7-8.7-6.7-14.2c0-2.7,0.3-5,0.9-6.9
		c0.6-1.9,1.3-3.4,1.9-4.6c0.7-1.2,1.1-2.1,1.3-2.6c0.2-0.5,0-0.8-0.8-0.8c-1.6,0-3.4,1.9-5.3,5.6c-1.9,3.7-2.8,9.5-2.8,17.5v26.5
		c0,4.1,0.7,7,2.1,8.7c1.4,1.7,4.2,2.6,8.3,2.6h6.9v43h-97.5v-43h6.8c3.2,0,5.6-1,7.2-3.1c1.7-2,2.5-4.5,2.5-7.4v-22
		c0-3.6-1.1-6.1-3.2-7.4c-2.1-1.3-4.5-1.9-7.2-1.9h-6.1v-43H462.5z"/>
	<path d="M652.3,135.5c0-3-0.4-5.4-1.1-7.2c-0.7-1.8-1.7-3.2-2.8-4.2c-1.1-1-2.4-1.6-3.8-1.9c-1.4-0.3-2.7-0.5-4.1-0.5
		c-5,0-8.8,1.5-11.2,4.4c-2.5,2.9-3.7,7.1-3.7,12.5v16.6c0,4.1,0.7,7,2.1,8.7c1.4,1.7,4.2,2.6,8.3,2.6h6.3v43h-96.8v-43h6.8
		c3.2,0,5.6-1,7.2-3.1c1.7-2,2.5-4.5,2.5-7.4v-22c0-3.6-1.1-6.1-3.2-7.4c-2.1-1.3-4.5-1.9-7.2-1.9h-6.1v-43h68.8l-2.4,31.8h2
		c1.7-11.9,6.9-21,15.6-27.4c8.7-6.4,20.6-9.6,35.5-9.6c10.6,0,19.2,1.5,25.8,4.5c6.6,3,11.8,6.8,15.5,11.4
		c3.7,4.6,6.2,9.6,7.5,14.9c1.3,5.4,2,10.4,2,15.1v32.5c0,4.1,0.7,7,2.1,8.7c1.4,1.7,4.2,2.6,8.3,2.6h6.3v43h-80.1V135.5z"/>
	<path d="M825,81.9V154c0,5.2,1.3,8.5,3.8,10.1c2.5,1.6,5.8,2.4,9.7,2.4h3.1v43h-97.5v-43h4.5c4.1,0,7.1-1.3,9.1-3.9
		c2-2.6,3-5.4,3-8.4v-16.3c0-4.5-1.4-7.8-4.2-9.9c-2.8-2.1-6.1-3.2-9.8-3.2h-2.5v-43H825z M758.9,53.4c0-6.6,2.5-12.3,7.6-17
		c5.1-4.7,12.3-7.1,21.6-7.1c9.5,0,16.8,2.4,21.9,7.1c5.1,4.7,7.7,10.4,7.7,17c0,6.8-2.6,12.5-7.7,17.2c-5.1,4.7-12.4,7-21.9,7
		c-9.3,0-16.5-2.3-21.6-7C761.4,65.9,758.9,60.2,758.9,53.4z"/>
	<path d="M861.6,134.8c-1.6-3.5-3.5-6-5.6-7.6c-2.1-1.6-6.1-2.4-12-2.4v-43h93v43c-4.9,0-8.1,0.7-9.6,2.1c-1.4,1.4-1.6,3.6-0.4,6.7
		l12.5,35.5h1.7l13.2-35.5c1.2-2.9,1-5-0.4-6.5c-1.4-1.5-4.6-2.3-9.6-2.3v-43h64.5v43c-5.6,0-9.6,0.8-11.9,2.3
		c-2.3,1.5-4.2,4.1-5.8,7.7l-31,74.7h-67.6L861.6,134.8z"/>
	<path d="M1013.7,145.4c0-11.3,2-21.3,5.9-29.9s9.6-15.7,16.8-21.5c7.3-5.8,16.1-10.1,26.3-13c10.3-2.9,21.7-4.4,34.4-4.4
		c12.7,0,24.1,1.5,34.4,4.4c10.3,2.9,19,7.3,26.3,13c7.3,5.8,12.9,12.9,16.8,21.5c4,8.6,6,18.5,6,29.9c0,11.2-2,21.1-6,29.8
		c-4,8.6-9.6,15.9-16.8,21.7c-7.3,5.8-16,10.2-26.3,13.1c-10.3,2.9-21.7,4.4-34.4,4.4c-12.7,0-24.1-1.5-34.4-4.4
		c-10.3-2.9-19-7.3-26.3-13.1c-7.3-5.8-12.9-13.1-16.8-21.7C1015.7,166.5,1013.7,156.6,1013.7,145.4z M1079.6,145.4
		c0,6.5,0.3,12,0.9,16.5s1.5,8.1,2.8,10.9c1.3,2.7,3.1,4.7,5.3,6c2.2,1.3,5.1,1.9,8.6,1.9c3.5,0,6.3-0.6,8.5-1.9
		c2.2-1.3,4-3.3,5.3-6c1.3-2.7,2.3-6.4,2.8-10.9c0.5-4.5,0.8-10,0.8-16.5c0-13-1.2-22.1-3.6-27.3s-7-7.8-13.8-7.8
		c-3.5,0-6.3,0.6-8.6,1.8c-2.2,1.2-4,3.2-5.3,5.9c-1.3,2.7-2.3,6.4-2.8,10.9C1079.9,133.4,1079.6,138.9,1079.6,145.4z"/>
	<path d="M1263.7,81.9l-2,31.8h2c2.7-12.2,7.2-21.4,13.5-27.7s14.5-9.4,24.5-9.4c5.9,0,11.1,0.9,15.3,2.8c4.3,1.9,7.7,4.4,10.4,7.6
		c2.6,3.2,4.5,6.8,5.7,10.9c1.2,4.1,1.7,8.4,1.7,12.8c0,3.6-0.5,7.2-1.6,10.8c-1.1,3.6-2.8,6.8-5.2,9.6c-2.4,2.9-5.5,5.2-9.3,6.9
		c-3.8,1.7-8.5,2.6-14,2.6c-7.7,0-13.8-2-18.2-5.9c-4.4-3.9-6.7-8.7-6.7-14.2c0-2.7,0.3-5,0.9-6.9c0.6-1.9,1.3-3.4,1.9-4.6
		c0.7-1.2,1.1-2.1,1.3-2.6c0.2-0.5,0-0.8-0.8-0.8c-1.6,0-3.4,1.9-5.3,5.6c-1.9,3.7-2.8,9.5-2.8,17.5v26.5c0,4.1,0.7,7,2.1,8.7
		c1.4,1.7,4.2,2.6,8.3,2.6h6.9v43h-97.5v-43h6.8c3.2,0,5.6-1,7.2-3.1c1.7-2,2.5-4.5,2.5-7.4v-22c0-3.6-1.1-6.1-3.2-7.4
		c-2.1-1.3-4.5-1.9-7.2-1.9h-6.1v-43H1263.7z"/>
	<path d="M1407.5,152.8c0.3,11.5,2.5,19.4,6.5,23.8c4.1,4.4,9.9,6.5,17.4,6.5c2.5,0,5-0.4,7.5-1.1c2.4-0.7,4.7-1.9,6.8-3.6
		c2.1-1.7,3.9-3.9,5.4-6.6c1.5-2.7,2.5-6.2,3-10.4h42.1c-1.5,10-4.4,18.3-8.5,25c-4.1,6.7-9.4,12.1-15.9,16.3
		c-6.5,4.1-14,7.1-22.6,8.9c-8.6,1.8-18.2,2.7-28.8,2.7c-10.9,0-21.1-1.4-30.7-4.2c-9.6-2.8-18-7-25.2-12.7
		c-7.2-5.7-12.9-12.8-17-21.4c-4.1-8.6-6.1-18.9-6.1-30.7c0-11.3,1.9-21.3,5.8-29.9c3.9-8.6,9.3-15.7,16.3-21.5
		c7-5.8,15.2-10.1,24.8-13c9.5-2.9,20-4.4,31.4-4.4c14,0,26.1,1.9,36.2,5.6c10.1,3.7,18.4,8.9,24.8,15.5c6.4,6.6,11.1,14.6,14.1,24
		c3,9.3,4.4,19.7,4.3,31.1H1407.5z M1424.6,107.9c-5.4,0-9.4,1.9-12,5.7c-2.6,3.8-4.3,10.1-5.2,18.9h33.9c-0.5-7.6-2.1-13.6-4.9-18
		C1433.8,110.1,1429.8,107.9,1424.6,107.9z"/>
	<path d="M1511.2,81.5c0-5.6,1.1-10.8,3.2-15.7c2.2-4.9,5-9.1,8.7-12.8c3.6-3.6,7.9-6.5,12.8-8.6c4.9-2.1,10.1-3.2,15.7-3.2
		s10.8,1.1,15.7,3.2c4.9,2.1,9.2,5,12.8,8.6c3.7,3.6,6.6,7.9,8.7,12.8c2.1,4.9,3.2,10.1,3.2,15.7c0,5.6-1.1,10.8-3.2,15.7
		c-2.1,4.9-5,9.2-8.7,12.8c-3.7,3.7-7.9,6.6-12.8,8.7s-10.1,3.2-15.7,3.2s-10.8-1.1-15.7-3.2c-4.9-2.1-9.1-5-12.8-8.7
		s-6.5-7.9-8.7-12.8C1512.2,92.3,1511.2,87.1,1511.2,81.5z M1520.1,81.5c0,4.4,0.8,8.4,2.5,12.2c1.7,3.8,3.9,7.1,6.8,10
		c2.8,2.8,6.2,5.1,10,6.8c3.8,1.7,7.9,2.5,12.2,2.5c4.4,0,8.4-0.8,12.2-2.5c3.8-1.7,7.1-3.9,10-6.8c2.8-2.8,5.1-6.2,6.8-10
		c1.7-3.8,2.5-7.9,2.5-12.2c0-4.4-0.8-8.4-2.5-12.2c-1.7-3.8-3.9-7.1-6.8-10c-2.8-2.8-6.2-5.1-10-6.7c-3.8-1.6-7.9-2.5-12.2-2.5
		c-4.4,0-8.4,0.8-12.2,2.5c-3.8,1.6-7.1,3.9-10,6.7c-2.8,2.8-5.1,6.2-6.8,10C1520.9,73,1520.1,77.1,1520.1,81.5z M1530.4,102.1v-9.9
		c1.6,0,2.7-0.2,3.3-0.7c0.6-0.4,0.9-1.3,0.9-2.6v-16c0-1.2-0.3-2-0.9-2.5c-0.6-0.5-1.7-0.7-3.3-0.7v-9.9h27.3
		c5.1,0,8.7,1.1,10.6,3.2c1.9,2.1,2.8,5,2.8,8.6c0,3.2-0.7,5.7-2.1,7.6c-1.4,1.9-3.6,2.9-6.6,3.1v0.3c3,0.3,5,1.2,5.9,2.9
		s1.4,3.9,1.4,6.6v1.5c0,1.3,0.5,1.9,1.5,1.9c0.9,0,1.4-0.6,1.4-1.9v-7.2h4.3v7.2c0,2.8-0.8,5.1-2.4,6.9c-1.6,1.8-4.4,2.7-8.3,2.7
		c-2.4,0-4.2-0.2-5.6-0.7c-1.3-0.5-2.3-1.2-3-2c-0.6-0.9-1-1.9-1.2-3c-0.1-1.1-0.2-2.4-0.2-3.7v-2.1c0-1.5-0.2-2.7-0.5-3.5
		c-0.3-0.8-0.7-1.4-1.2-1.7c-0.5-0.3-1.1-0.5-1.8-0.6c-0.7,0-1.5-0.1-2.3-0.1h-2v3.4c0,1,0.2,1.7,0.7,2.2c0.5,0.4,1.4,0.7,2.7,0.7
		v9.9H1530.4z M1548.5,79.3h5.1c1.4,0,2.4-0.4,2.9-1.2c0.5-0.8,0.8-1.9,0.8-3.2c0-1.6-0.3-2.9-0.8-3.9c-0.5-0.9-1.5-1.4-2.9-1.4
		h-5.1V79.3z"/>
</g>
<polygon class="st0" points="-284.6,-1034.2 -1380.1,-1034.2 -1380.1,-1031.2 -2457.1,-1031.2 -2457.1,64.3 -1361.6,64.3 
	-1361.6,61.3 -284.6,61.3 "/>
<path class="st1" d="M-567.5-452.9c-1.6,1.3-2.7,3.3-2.9,5.5c-0.4,4.5,2.9,8.5,7.5,8.9c4.5,0.4,8.5-2.9,8.9-7.5c0-0.3,0-0.6,0-0.9
	l49.6,4.4c-0.3,5.1,3.4,9.5,8.5,9.9c5.1,0.5,9.7-3.3,10.1-8.5c0.3-3.4-1.3-6.6-3.9-8.4c1.6-1.3,2.7-3.3,2.9-5.5
	c0.4-4.5-2.9-8.5-7.5-8.9c-4.5-0.4-8.5,2.9-8.9,7.5c0,0.5,0,1.1,0,1.6l-49.7-4.4c0-0.1,0-0.3,0.1-0.4c0.5-5.1-3.3-9.7-8.5-10.1
	c-5.1-0.5-9.7,3.3-10.1,8.5C-571.7-458-570.1-454.8-567.5-452.9z"/>
<path class="st1" d="M-894.2-454.5c-0.2,2.1,0.3,4.2,1.7,6c2.8,3.6,8,4.2,11.5,1.4c3.6-2.8,4.2-8,1.4-11.5c-0.2-0.2-0.4-0.5-0.6-0.7
	l39.1-30.7c3.2,3.9,9,4.6,13,1.4c4.1-3.2,4.8-9.1,1.6-13.1c-2.1-2.7-5.4-3.9-8.6-3.5c0.2-2.1-0.3-4.2-1.7-6c-2.8-3.6-8-4.2-11.5-1.4
	c-3.6,2.8-4.2,8-1.4,11.5c0.3,0.4,0.7,0.8,1.1,1.1l-39.2,30.8c-0.1-0.1-0.2-0.2-0.2-0.3c-3.2-4.1-9.1-4.8-13.1-1.6
	c-4.1,3.2-4.8,9.1-1.6,13.1C-900.7-455.3-897.4-454.1-894.2-454.5z"/>
<path class="st1" d="M-499.4-983c1.6-1.3,2.8-3.2,3.1-5.4c0.6-4.5-2.6-8.6-7.1-9.2c-4.5-0.6-8.6,2.6-9.2,7.1c0,0.3-0.1,0.6-0.1,0.9
	l-49.4-6.2c0.5-5-3.1-9.6-8.1-10.2c-5.1-0.6-9.8,3-10.5,8.1c-0.4,3.4,1,6.6,3.6,8.6c-1.6,1.3-2.8,3.2-3.1,5.4
	c-0.6,4.5,2.6,8.6,7.1,9.2c4.5,0.6,8.6-2.6,9.2-7.1c0.1-0.5,0.1-1.1,0-1.6l49.5,6.3c0,0.1-0.1,0.3-0.1,0.4c-0.6,5.1,3,9.8,8.1,10.5
	c5.1,0.6,9.8-3,10.5-8.1C-495.3-977.9-496.8-981.1-499.4-983z"/>
<path class="st1" d="M-559.1-821.6c-2.1,0.1-4.1,1-5.6,2.6c-3.1,3.3-2.8,8.5,0.5,11.6c3.3,3.1,8.5,2.8,11.6-0.5
	c0.2-0.2,0.4-0.5,0.6-0.7l36.7,33.6c-3.3,3.8-3,9.6,0.7,13.1c3.8,3.5,9.7,3.2,13.2-0.6c2.3-2.5,3-6,2-9.1c2.1-0.1,4.1-1,5.6-2.6
	c3.1-3.3,2.8-8.5-0.5-11.6c-3.3-3.1-8.5-2.8-11.6,0.5c-0.4,0.4-0.7,0.8-0.9,1.3l-36.8-33.7c0.1-0.1,0.2-0.2,0.3-0.3
	c3.5-3.8,3.2-9.7-0.6-13.2c-3.8-3.5-9.7-3.2-13.2,0.6C-559.4-828.1-560-824.6-559.1-821.6z"/>
<path class="st1" d="M-976.7-619.6c0.1,2.1,0.9,4.1,2.5,5.7c3.3,3.1,8.5,3,11.6-0.3c3.1-3.3,3-8.5-0.3-11.6
	c-0.2-0.2-0.5-0.4-0.7-0.6l34.4-36c3.7,3.4,9.5,3.2,13.1-0.4c3.6-3.7,3.4-9.7-0.3-13.2c-2.5-2.4-6-3.1-9-2.2
	c-0.1-2.1-0.9-4.1-2.5-5.7c-3.3-3.1-8.5-3-11.6,0.3c-3.1,3.3-3,8.5,0.3,11.6c0.4,0.4,0.8,0.7,1.2,1l-34.4,36
	c-0.1-0.1-0.2-0.2-0.3-0.3c-3.7-3.6-9.7-3.4-13.2,0.3c-3.6,3.7-3.4,9.7,0.3,13.2C-983.2-619.5-979.7-618.7-976.7-619.6z"/>
<path class="st1" d="M-1161.2-28c-0.2-2.1-1.2-4-3-5.5c-3.5-2.9-8.7-2.3-11.6,1.2c-2.9,3.5-2.3,8.7,1.2,11.6
	c0.2,0.2,0.5,0.4,0.8,0.5l-31.5,38.5c-4-3.1-9.8-2.5-13,1.4c-3.3,4-2.7,9.9,1.3,13.2c2.7,2.2,6.2,2.6,9.2,1.5c0.2,2.1,1.2,4,3,5.5
	c3.5,2.9,8.7,2.3,11.6-1.2c2.9-3.5,2.3-8.7-1.2-11.6c-0.4-0.3-0.9-0.6-1.3-0.9l31.5-38.6c0.1,0.1,0.2,0.2,0.3,0.3
	c4,3.3,9.9,2.7,13.2-1.3c3.3-4,2.7-9.9-1.3-13.2C-1154.7-28.7-1158.2-29.1-1161.2-28z"/>
<path class="st1" d="M-459.7-653.4c2.1-0.2,4.1-1.1,5.5-2.8c3-3.4,2.6-8.6-0.9-11.6c-3.4-3-8.6-2.6-11.6,0.9
	c-0.2,0.2-0.4,0.5-0.6,0.7l-37.7-32.5c3.2-3.9,2.8-9.7-1.1-13c-3.9-3.4-9.8-2.9-13.2,1c-2.3,2.6-2.8,6.1-1.8,9.1
	c-2.1,0.2-4.1,1.1-5.5,2.8c-3,3.4-2.6,8.6,0.9,11.6c3.4,3,8.6,2.6,11.6-0.9c0.3-0.4,0.6-0.8,0.9-1.3l37.7,32.6
	c-0.1,0.1-0.2,0.2-0.3,0.3c-3.4,3.9-2.9,9.8,1,13.2c3.9,3.4,9.8,2.9,13.2-1C-459.2-646.9-458.6-650.4-459.7-653.4z"/>
<path class="st1" d="M-650.2-594.1c-0.6-2-2-3.7-3.9-4.8c-4-2.1-9-0.7-11.1,3.3c-2.1,4-0.7,9,3.3,11.1c0.3,0.2,0.6,0.3,0.9,0.4
	l-23.6,43.8c-4.5-2.3-10.1-0.6-12.5,3.9c-2.4,4.5-0.7,10.2,3.8,12.7c3,1.6,6.6,1.4,9.3-0.3c0.6,2,2,3.7,3.9,4.8
	c4,2.1,9,0.7,11.1-3.3c2.1-4,0.7-9-3.3-11.1c-0.5-0.3-1-0.5-1.4-0.6l23.6-43.9c0.1,0.1,0.2,0.1,0.4,0.2c4.5,2.4,10.2,0.7,12.7-3.8
	c2.4-4.5,0.7-10.2-3.8-12.7C-643.9-595.9-647.4-595.7-650.2-594.1z"/>
<path class="st1" d="M-488.1-259.7c-2.1,0.1-4.1,1-5.7,2.6c-3.1,3.3-2.9,8.5,0.4,11.6c3.3,3.1,8.5,2.9,11.6-0.4
	c0.2-0.2,0.4-0.5,0.6-0.7l36.3,34c-3.4,3.8-3.1,9.6,0.6,13.1c3.8,3.5,9.7,3.3,13.2-0.4c2.4-2.5,3-6,2.1-9.1c2.1-0.1,4.1-1,5.7-2.6
	c3.1-3.3,2.9-8.5-0.4-11.6c-3.3-3.1-8.5-2.9-11.6,0.4c-0.4,0.4-0.7,0.8-1,1.2l-36.4-34.1c0.1-0.1,0.2-0.2,0.3-0.3
	c3.5-3.8,3.3-9.7-0.4-13.2c-3.8-3.5-9.7-3.3-13.2,0.4C-488.3-266.2-489-262.8-488.1-259.7z"/>
<path class="st1" d="M-383.5-632.4c-0.7,2-0.7,4.2,0.2,6.2c1.9,4.1,6.7,6,10.9,4.1s6-6.7,4.1-10.9c-0.1-0.3-0.3-0.6-0.4-0.8
	l45.3-20.6c2.2,4.6,7.6,6.6,12.3,4.5c4.7-2.1,6.8-7.7,4.7-12.4c-1.4-3.1-4.4-5.1-7.6-5.4c0.7-2,0.7-4.2-0.2-6.2
	c-1.9-4.1-6.7-6-10.9-4.1c-4.1,1.9-6,6.7-4.1,10.9c0.2,0.5,0.5,0.9,0.8,1.4l-45.4,20.6c-0.1-0.1-0.1-0.3-0.2-0.4
	c-2.1-4.7-7.7-6.8-12.4-4.7c-4.7,2.1-6.8,7.7-4.7,12.4C-389.7-634.7-386.7-632.7-383.5-632.4z"/>
<path class="st1" d="M-543.5-551.5c1.9,0.8,4.1,0.9,6.2,0c4.2-1.7,6.2-6.5,4.5-10.7c-1.7-4.2-6.5-6.2-10.7-4.5
	c-0.3,0.1-0.6,0.3-0.8,0.4l-18.6-46.1c4.7-2,6.9-7.4,5-12.1c-1.9-4.8-7.4-7.1-12.2-5.2c-3.2,1.3-5.3,4.1-5.7,7.3
	c-1.9-0.8-4.1-0.9-6.2,0c-4.2,1.7-6.2,6.5-4.5,10.7c1.7,4.2,6.5,6.2,10.7,4.5c0.5-0.2,1-0.4,1.4-0.7l18.7,46.2
	c-0.1,0-0.3,0.1-0.4,0.1c-4.8,1.9-7.1,7.4-5.2,12.2c1.9,4.8,7.4,7.1,12.2,5.2C-546.1-545.4-544-548.3-543.5-551.5z"/>
<path class="st1" d="M-1154.3-871c0.2,2.1,1.2,4,3,5.5c3.5,2.9,8.7,2.4,11.6-1.2c2.9-3.5,2.4-8.7-1.2-11.6c-0.2-0.2-0.5-0.4-0.8-0.5
	l31.5-38.5c4,3.1,9.8,2.5,13-1.4c3.3-4,2.7-9.9-1.3-13.2c-2.7-2.2-6.2-2.6-9.2-1.5c-0.2-2.1-1.2-4-3-5.5c-3.5-2.9-8.7-2.4-11.6,1.2
	c-2.9,3.5-2.4,8.7,1.2,11.6c0.4,0.3,0.9,0.6,1.3,0.9l-31.6,38.6c-0.1-0.1-0.2-0.2-0.3-0.3c-4-3.3-9.9-2.7-13.2,1.3
	c-3.3,4-2.7,9.9,1.3,13.2C-1160.8-870.3-1157.3-869.9-1154.3-871z"/>
<path class="st1" d="M-1345-189.4c-2-0.7-4.2-0.6-6.2,0.3c-4.1,1.9-5.9,6.8-3.9,10.9c1.9,4.1,6.8,5.9,10.9,3.9
	c0.3-0.1,0.6-0.3,0.8-0.5l21.3,45c-4.5,2.3-6.5,7.7-4.3,12.4c2.2,4.7,7.8,6.7,12.5,4.5c3.1-1.5,5-4.4,5.3-7.6c2,0.7,4.2,0.6,6.2-0.3
	c4.1-1.9,5.9-6.8,3.9-10.9c-1.9-4.1-6.8-5.9-10.9-3.9c-0.5,0.2-0.9,0.5-1.3,0.8L-1332-180c0.1-0.1,0.3-0.1,0.4-0.2
	c4.7-2.2,6.7-7.8,4.5-12.5c-2.2-4.7-7.8-6.7-12.5-4.5C-1342.8-195.6-1344.7-192.6-1345-189.4z"/>
<path class="st1" d="M-1036.3-778.3c-2.1,0.2-4.1,1.2-5.5,2.9c-2.9,3.5-2.5,8.6,1,11.6c3.5,2.9,8.6,2.5,11.6-1
	c0.2-0.2,0.4-0.5,0.6-0.8l38,32.1c-3.2,3.9-2.7,9.7,1.2,13c3.9,3.3,9.8,2.8,13.2-1.1c2.2-2.6,2.7-6.1,1.7-9.2
	c2.1-0.2,4.1-1.2,5.5-2.9c2.9-3.5,2.5-8.6-1-11.6c-3.5-2.9-8.6-2.5-11.6,1c-0.3,0.4-0.6,0.8-0.9,1.3l-38.1-32.2
	c0.1-0.1,0.2-0.2,0.3-0.3c3.3-3.9,2.8-9.8-1.1-13.2c-3.9-3.3-9.8-2.8-13.2,1.1C-1036.9-784.8-1037.4-781.3-1036.3-778.3z"/>
<path class="st1" d="M-575.1-87.9c0.4-2,0.1-4.2-1.1-6.1c-2.5-3.8-7.5-4.9-11.4-2.4c-3.8,2.5-4.9,7.5-2.4,11.4
	c0.2,0.3,0.4,0.5,0.6,0.8l-41.8,27c-2.8-4.2-8.5-5.4-12.8-2.6c-4.3,2.8-5.6,8.6-2.8,12.9c1.9,2.9,5.1,4.4,8.3,4.3
	c-0.4,2-0.1,4.2,1.1,6.1c2.5,3.8,7.5,4.9,11.4,2.4c3.8-2.5,4.9-7.5,2.4-11.4c-0.3-0.4-0.6-0.9-1-1.2l41.9-27.1
	c0.1,0.1,0.1,0.2,0.2,0.4c2.8,4.3,8.6,5.6,12.9,2.8c4.3-2.8,5.6-8.6,2.8-12.9C-568.7-86.5-571.9-88-575.1-87.9z"/>
<path class="st1" d="M-334.9-56c-1.7-1.2-3.9-1.7-6.1-1.3c-4.5,0.8-7.5,5-6.7,9.5c0.8,4.5,5,7.5,9.5,6.7c0.3-0.1,0.6-0.1,0.9-0.2
	l8.5,49c-5,1-8.3,5.7-7.4,10.8c0.9,5.1,5.7,8.5,10.8,7.6c3.4-0.6,6-2.9,7.2-6c1.7,1.2,3.9,1.7,6.1,1.3c4.5-0.8,7.5-5,6.7-9.5
	c-0.8-4.5-5-7.5-9.5-6.7c-0.5,0.1-1,0.2-1.5,0.4l-8.5-49.1c0.1,0,0.3,0,0.4-0.1c5.1-0.9,8.5-5.7,7.6-10.8c-0.9-5.1-5.7-8.5-10.8-7.6
	C-331.1-61.4-333.7-59-334.9-56z"/>
<path class="st1" d="M-796.5-904.6c-1,1.8-1.3,4-0.7,6.2c1.3,4.4,5.8,6.9,10.2,5.6c4.4-1.3,6.9-5.8,5.6-10.2
	c-0.1-0.3-0.2-0.6-0.3-0.9l47.8-13.9c1.5,4.8,6.6,7.6,11.5,6.2c5-1.4,7.8-6.6,6.4-11.6c-1-3.3-3.6-5.7-6.7-6.5c1-1.8,1.3-4,0.7-6.2
	c-1.3-4.4-5.8-6.9-10.2-5.6c-4.4,1.3-6.9,5.8-5.6,10.2c0.1,0.5,0.3,1,0.6,1.5l-47.9,13.9c0-0.1-0.1-0.3-0.1-0.4
	c-1.4-5-6.6-7.8-11.6-6.4c-5,1.4-7.8,6.6-6.4,11.6C-802.2-907.7-799.6-905.3-796.5-904.6z"/>
<path class="st1" d="M-1121-539c2,0.6,4.2,0.5,6.2-0.6c4-2.1,5.6-7,3.5-11.1c-2.1-4-7-5.6-11.1-3.5c-0.3,0.1-0.5,0.3-0.8,0.5
	l-22.9-44.1c4.4-2.4,6.2-8,3.8-12.5c-2.4-4.6-8-6.4-12.6-4c-3.1,1.6-4.9,4.6-5,7.8c-2-0.6-4.2-0.5-6.2,0.6c-4,2.1-5.6,7-3.5,11.1
	c2.1,4,7,5.6,11.1,3.5c0.5-0.2,0.9-0.5,1.3-0.9l23,44.2c-0.1,0.1-0.3,0.1-0.4,0.2c-4.6,2.4-6.4,8-4,12.6c2.4,4.6,8,6.4,12.6,4
	C-1123-532.8-1121.2-535.8-1121-539z"/>
<path class="st1" d="M-483.2,37.5c2.1,0.3,4.2-0.1,6-1.4c3.7-2.6,4.5-7.8,1.9-11.5c-2.6-3.7-7.8-4.5-11.5-1.9
	c-0.3,0.2-0.5,0.4-0.7,0.6l-29-40.4c4.1-3,4.9-8.8,2-12.9c-3-4.2-8.9-5.1-13.1-2.1c-2.8,2-4.1,5.3-3.8,8.5c-2.1-0.3-4.2,0.1-6,1.4
	c-3.7,2.6-4.5,7.8-1.9,11.5c2.6,3.7,7.8,4.5,11.5,1.9c0.4-0.3,0.8-0.7,1.2-1l29.1,40.5c-0.1,0.1-0.2,0.1-0.3,0.2
	c-4.2,3-5.1,8.9-2.1,13.1c3,4.2,8.9,5.1,13.1,2.1C-484.2,43.9-482.9,40.7-483.2,37.5z"/>
<path class="st1" d="M-386.6-334c0.5,2,1.7,3.9,3.6,5c3.8,2.4,8.9,1.2,11.3-2.6c2.4-3.8,1.2-8.9-2.6-11.3c-0.3-0.2-0.5-0.3-0.8-0.4
	l26.3-42.2c4.4,2.6,10,1.2,12.7-3.1c2.7-4.4,1.4-10.2-3-12.9c-2.9-1.8-6.5-1.8-9.3-0.3c-0.5-2-1.7-3.9-3.6-5
	c-3.8-2.4-8.9-1.2-11.3,2.6c-2.4,3.8-1.2,8.9,2.6,11.3c0.5,0.3,0.9,0.5,1.4,0.7l-26.4,42.3c-0.1-0.1-0.2-0.2-0.3-0.2
	c-4.4-2.7-10.2-1.4-12.9,3c-2.7,4.4-1.4,10.2,3,12.9C-392.9-332.5-389.4-332.5-386.6-334z"/>
<path class="st1" d="M-383.2-907.2c-0.5-2-1.9-3.8-3.8-4.9c-3.9-2.3-8.9-0.9-11.2,3c-2.3,3.9-0.9,8.9,3,11.2
	c0.3,0.2,0.6,0.3,0.8,0.4l-25,43c-4.4-2.5-10-0.9-12.6,3.5c-2.6,4.5-1.1,10.2,3.4,12.8c3,1.7,6.5,1.6,9.3,0c0.5,2,1.9,3.8,3.8,4.9
	c3.9,2.3,8.9,0.9,11.2-3c2.3-3.9,0.9-8.9-3-11.2c-0.5-0.3-0.9-0.5-1.4-0.7l25.1-43.1c0.1,0.1,0.2,0.2,0.3,0.2
	c4.5,2.6,10.2,1.1,12.8-3.4c2.6-4.5,1.1-10.2-3.4-12.8C-376.9-908.9-380.4-908.8-383.2-907.2z"/>
<path class="st1" d="M-343.2-465c1.3,1.6,3.3,2.7,5.5,2.9c4.5,0.4,8.5-2.9,9-7.4c0.4-4.5-2.9-8.5-7.4-9c-0.3,0-0.6,0-0.9,0l4.9-49.5
	c5.1,0.4,9.5-3.3,10-8.4c0.5-5.1-3.3-9.7-8.4-10.2c-3.4-0.3-6.6,1.2-8.5,3.8c-1.3-1.6-3.3-2.7-5.5-2.9c-4.5-0.4-8.5,2.9-9,7.4
	c-0.4,4.5,2.9,8.5,7.4,9c0.5,0.1,1.1,0,1.6,0l-4.9,49.6c-0.1,0-0.3,0-0.4-0.1c-5.1-0.5-9.7,3.3-10.2,8.4c-0.5,5.1,3.3,9.7,8.4,10.2
	C-348.2-460.8-345.1-462.4-343.2-465z"/>
<path class="st1" d="M-333.1-153.9c0.9-1.9,1.2-4.1,0.5-6.2c-1.4-4.3-6-6.7-10.3-5.3c-4.3,1.4-6.7,6-5.3,10.3
	c0.1,0.3,0.2,0.6,0.3,0.9l-47.3,15.4c-1.7-4.8-6.9-7.4-11.7-5.8c-4.9,1.6-7.6,6.9-6,11.8c1.1,3.3,3.8,5.6,6.9,6.2
	c-0.9,1.9-1.2,4.1-0.5,6.2c1.4,4.3,6,6.7,10.3,5.3c4.3-1.4,6.7-6,5.3-10.3c-0.2-0.5-0.4-1-0.6-1.4l47.4-15.4c0,0.1,0.1,0.3,0.1,0.4
	c1.6,4.9,6.9,7.6,11.8,6c4.9-1.6,7.6-6.9,6-11.8C-327.3-150.9-330-153.2-333.1-153.9z"/>
<path class="st1" d="M-385.2,1c2.1-0.1,4.1-1,5.6-2.6c3.1-3.3,2.9-8.5-0.5-11.6c-3.3-3.1-8.5-2.9-11.6,0.5c-0.2,0.2-0.4,0.5-0.6,0.7
	l-36.6-33.7c3.4-3.8,3.1-9.6-0.7-13.1c-3.8-3.5-9.7-3.3-13.2,0.5c-2.3,2.5-3,6-2.1,9.1c-2.1,0.1-4.1,1-5.6,2.6
	c-3.1,3.3-2.9,8.5,0.5,11.6c3.3,3.1,8.5,2.9,11.6-0.5c0.4-0.4,0.7-0.8,0.9-1.2l36.6,33.8c-0.1,0.1-0.2,0.2-0.3,0.3
	c-3.5,3.8-3.3,9.7,0.5,13.2c3.8,3.5,9.7,3.3,13.2-0.5C-385,7.5-384.3,4.1-385.2,1z"/>
<path class="st1" d="M-1086.3-366c-0.3-2.1-1.4-4-3.2-5.3c-3.7-2.7-8.8-1.9-11.5,1.8c-2.7,3.7-1.9,8.8,1.8,11.5
	c0.3,0.2,0.5,0.4,0.8,0.5l-29.4,40.1c-4.2-2.9-9.9-2-12.9,2.1c-3.1,4.2-2.2,10,2,13.1c2.8,2,6.3,2.3,9.3,1c0.3,2.1,1.4,4,3.2,5.3
	c3.7,2.7,8.8,1.9,11.5-1.8c2.7-3.7,1.9-8.8-1.8-11.5c-0.4-0.3-0.9-0.6-1.3-0.8l29.5-40.2c0.1,0.1,0.2,0.2,0.3,0.3
	c4.2,3.1,10,2.2,13.1-2c3.1-4.2,2.2-10-2-13.1C-1079.8-367-1083.4-367.3-1086.3-366z"/>
<path class="st1" d="M-304.5-946.7c2,0.6,4.2,0.5,6.2-0.5c4-2.1,5.7-7,3.6-11c-2.1-4-7-5.7-11-3.6c-0.3,0.1-0.5,0.3-0.8,0.5
	l-22.5-44.4c4.5-2.4,6.2-7.9,3.9-12.5c-2.3-4.6-8-6.4-12.6-4.1c-3.1,1.6-4.9,4.6-5.1,7.8c-2-0.6-4.2-0.5-6.2,0.5c-4,2-5.7,7-3.6,11
	c2.1,4,7,5.7,11,3.6c0.5-0.2,0.9-0.5,1.3-0.8l22.5,44.5c-0.1,0.1-0.3,0.1-0.4,0.2c-4.6,2.3-6.4,8-4.1,12.6c2.3,4.6,8,6.4,12.6,4.1
	C-306.5-940.5-304.7-943.5-304.5-946.7z"/>
<path class="st1" d="M-322.7-808.1c1.4,1.5,3.5,2.4,5.7,2.5c4.5,0.1,8.3-3.5,8.4-8s-3.5-8.3-8-8.4c-0.3,0-0.6,0-0.9,0l1.2-49.7
	c5.1,0,9.2-4,9.4-9.1c0.1-5.2-4-9.5-9.1-9.6c-3.4-0.1-6.5,1.7-8.2,4.4c-1.4-1.5-3.5-2.4-5.7-2.5c-4.5-0.1-8.3,3.5-8.4,8
	c-0.1,4.5,3.5,8.3,8,8.4c0.5,0,1.1,0,1.6-0.1l-1.2,49.8c-0.1,0-0.3,0-0.4,0c-5.2-0.1-9.5,4-9.6,9.1c-0.1,5.2,4,9.5,9.1,9.6
	C-327.4-803.6-324.4-805.4-322.7-808.1z"/>
<path class="st1" d="M-340-761.1c1-1.8,1.3-4,0.8-6.2c-1.2-4.4-5.7-6.9-10.1-5.8c-4.4,1.2-6.9,5.7-5.8,10.1c0.1,0.3,0.2,0.6,0.3,0.9
	l-48,13.1c-1.4-4.9-6.5-7.7-11.4-6.4c-5,1.4-7.9,6.5-6.6,11.5c0.9,3.3,3.5,5.7,6.6,6.6c-1,1.8-1.3,4-0.8,6.2
	c1.2,4.4,5.7,6.9,10.1,5.8c4.4-1.2,6.9-5.7,5.8-10.1c-0.1-0.5-0.3-1-0.6-1.5l48.1-13.2c0,0.1,0.1,0.3,0.1,0.4
	c1.4,5,6.5,7.9,11.5,6.6c5-1.4,7.9-6.5,6.6-11.5C-334.3-757.8-336.9-760.2-340-761.1z"/>
<path class="st1" d="M-1046.5-30.9c-0.4-2-1.5-4-3.3-5.3c-3.7-2.6-8.8-1.8-11.5,1.9c-2.6,3.7-1.8,8.8,1.9,11.5
	c0.3,0.2,0.5,0.3,0.8,0.5l-29.1,40.4c-4.2-2.9-9.9-1.9-12.9,2.2c-3,4.2-2.1,10,2.1,13.1c2.8,2,6.3,2.3,9.3,0.9c0.4,2,1.5,4,3.3,5.3
	c3.7,2.6,8.8,1.8,11.5-1.9c2.6-3.7,1.8-8.8-1.9-11.5c-0.4-0.3-0.9-0.6-1.4-0.8l29.1-40.5c0.1,0.1,0.2,0.2,0.3,0.3
	c4.2,3,10,2.1,13.1-2.1c3-4.2,2.1-10-2.1-13.1C-1040.1-32-1043.6-32.2-1046.5-30.9z"/>
<path class="st1" d="M-1242.1-321.5c-1.8-1.1-3.9-1.5-6.1-1.1c-4.4,1-7.2,5.4-6.3,9.8c1,4.4,5.3,7.2,9.8,6.3
	c0.3-0.1,0.6-0.2,0.9-0.3l10.7,48.6c-4.9,1.2-8,6.1-6.9,11.1c1.1,5,6.1,8.2,11.1,7.1c3.4-0.7,5.9-3.2,6.9-6.3
	c1.8,1.1,3.9,1.5,6.1,1.1c4.4-1,7.2-5.4,6.3-9.8c-1-4.4-5.4-7.2-9.8-6.3c-0.5,0.1-1,0.3-1.5,0.5l-10.7-48.7c0.1,0,0.3,0,0.4-0.1
	c5-1.1,8.2-6.1,7.1-11.1c-1.1-5-6.1-8.2-11.1-7.1C-1238.6-327-1241.1-324.5-1242.1-321.5z"/>
<path class="st1" d="M-384.7-967.9c2-0.5,3.8-1.8,4.9-3.8c2.3-3.9,1-8.9-2.9-11.2s-8.9-1-11.2,2.9c-0.2,0.3-0.3,0.6-0.4,0.8
	l-42.9-25.2c2.5-4.4,1-10-3.4-12.6c-4.5-2.6-10.2-1.1-12.8,3.3c-1.7,3-1.7,6.5-0.1,9.3c-2,0.5-3.8,1.8-4.9,3.8
	c-2.3,3.9-1,8.9,2.9,11.2c3.9,2.3,8.9,1,11.2-2.9c0.3-0.5,0.5-0.9,0.7-1.4l43,25.3c-0.1,0.1-0.2,0.2-0.2,0.3
	c-2.6,4.5-1.1,10.2,3.3,12.8c4.5,2.6,10.2,1.1,12.8-3.3C-383.1-961.5-383.1-965.1-384.7-967.9z"/>
<path class="st1" d="M-644-977.5c1.9-0.8,3.5-2.4,4.4-4.4c1.7-4.2-0.3-9-4.5-10.7c-4.2-1.7-9,0.3-10.7,4.5c-0.1,0.3-0.2,0.6-0.3,0.9
	l-46.1-18.8c1.8-4.7-0.5-10.1-5.2-12c-4.8-1.9-10.2,0.4-12.2,5.1c-1.3,3.2-0.7,6.7,1.3,9.2c-1.9,0.8-3.5,2.4-4.4,4.4
	c-1.7,4.2,0.3,9,4.5,10.7c4.2,1.7,9-0.3,10.7-4.5c0.2-0.5,0.3-1,0.4-1.5l46.2,18.8c-0.1,0.1-0.1,0.2-0.2,0.4
	c-1.9,4.8,0.4,10.2,5.1,12.2c4.8,1.9,10.2-0.4,12.2-5.1C-641.5-971.5-642.1-975-644-977.5z"/>
<path class="st1" d="M-596-713.1c1.5-1.4,2.5-3.4,2.5-5.7c0.2-4.5-3.4-8.3-7.9-8.5c-4.5-0.2-8.3,3.4-8.5,7.9c0,0.3,0,0.6,0,0.9
	l-49.7-1.7c0.1-5.1-3.9-9.3-9-9.5c-5.2-0.2-9.5,3.9-9.7,9c-0.1,3.4,1.6,6.5,4.4,8.2c-1.5,1.4-2.5,3.4-2.5,5.7
	c-0.2,4.5,3.4,8.3,7.9,8.5c4.5,0.2,8.3-3.4,8.5-7.9c0-0.5,0-1.1-0.1-1.6l49.8,1.7c0,0.1,0,0.3,0,0.4c-0.2,5.2,3.9,9.5,9,9.7
	c5.2,0.2,9.5-3.9,9.7-9C-591.6-708.3-593.3-711.4-596-713.1z"/>
<path class="st1" d="M-698-170.6c-1.9,0.8-3.5,2.4-4.3,4.4c-1.7,4.2,0.3,9,4.5,10.7c4.2,1.7,9-0.3,10.7-4.5c0.1-0.3,0.2-0.6,0.3-0.9
	l46.1,18.7c-1.8,4.7,0.5,10.1,5.2,12c4.8,1.9,10.2-0.4,12.2-5.2c1.3-3.2,0.7-6.7-1.3-9.2c1.9-0.8,3.5-2.4,4.3-4.4
	c1.7-4.2-0.3-9-4.5-10.7c-4.2-1.7-9,0.3-10.7,4.5c-0.2,0.5-0.3,1-0.4,1.5l-46.2-18.7c0.1-0.1,0.1-0.2,0.2-0.4
	c1.9-4.8-0.4-10.2-5.2-12.2c-4.8-1.9-10.2,0.4-12.2,5.2C-700.6-176.6-700-173.1-698-170.6z"/>
<path class="st1" d="M-662.1-389.2c-1.3-1.6-3.2-2.7-5.5-3c-4.5-0.5-8.6,2.7-9.1,7.2c-0.5,4.5,2.7,8.6,7.2,9.1c0.3,0,0.6,0,0.9,0
	l-5.5,49.4c-5-0.5-9.6,3.2-10.1,8.3c-0.6,5.1,3.1,9.8,8.3,10.3c3.4,0.4,6.6-1.1,8.5-3.7c1.3,1.6,3.2,2.7,5.5,3
	c4.5,0.5,8.6-2.7,9.1-7.2s-2.7-8.6-7.2-9.1c-0.5-0.1-1.1-0.1-1.6,0l5.6-49.5c0.1,0,0.3,0.1,0.4,0.1c5.1,0.6,9.8-3.1,10.3-8.3
	s-3.1-9.8-8.3-10.3C-657-393.3-660.2-391.8-662.1-389.2z"/>
<path class="st1" d="M-1146.7-967.8c1.8-1,3.3-2.6,4-4.8c1.4-4.3-1-8.9-5.3-10.3c-4.3-1.4-8.9,1-10.3,5.3c-0.1,0.3-0.2,0.6-0.2,0.9
	l-47.4-15.1c1.4-4.9-1.3-10-6.1-11.5c-4.9-1.6-10.2,1.2-11.7,6.1c-1,3.3-0.2,6.7,2,9.1c-1.8,1-3.3,2.6-4,4.8
	c-1.4,4.3,1,8.9,5.3,10.3c4.3,1.4,8.9-1,10.3-5.3c0.2-0.5,0.3-1,0.3-1.5l47.5,15.1c0,0.1-0.1,0.3-0.1,0.4
	c-1.6,4.9,1.2,10.2,6.1,11.7c4.9,1.6,10.2-1.2,11.7-6.1C-1143.7-962-1144.6-965.4-1146.7-967.8z"/>
<path class="st1" d="M-910.3-346.8c-1.8-1.1-3.9-1.6-6.1-1.1c-4.4,1-7.2,5.3-6.3,9.8c1,4.4,5.3,7.2,9.8,6.3c0.3-0.1,0.6-0.2,0.9-0.3
	l10.5,48.6c-4.9,1.2-8,6.1-7,11.1c1.1,5,6.1,8.3,11.1,7.2c3.4-0.7,5.9-3.2,6.9-6.2c1.8,1.1,3.9,1.6,6.1,1.1c4.4-1,7.2-5.3,6.3-9.8
	c-1-4.4-5.3-7.2-9.8-6.3c-0.5,0.1-1,0.3-1.5,0.5l-10.5-48.7c0.1,0,0.3,0,0.4-0.1c5-1.1,8.3-6.1,7.2-11.1c-1.1-5-6.1-8.3-11.1-7.2
	C-906.8-352.3-909.3-349.9-910.3-346.8z"/>
<path class="st1" d="M-350.1-292.8c-1.9-0.8-4.2-0.8-6.2,0.1c-4.2,1.8-6.1,6.6-4.4,10.8s6.6,6.1,10.8,4.4c0.3-0.1,0.6-0.3,0.8-0.4
	l19.4,45.8c-4.6,2.1-6.8,7.5-4.8,12.2c2,4.8,7.5,7,12.3,5c3.2-1.3,5.2-4.2,5.6-7.4c1.9,0.8,4.2,0.8,6.2-0.1
	c4.2-1.8,6.1-6.6,4.4-10.8c-1.8-4.2-6.6-6.1-10.8-4.4c-0.5,0.2-0.9,0.5-1.4,0.7l-19.4-45.9c0.1,0,0.3-0.1,0.4-0.1
	c4.8-2,7-7.5,5-12.3c-2-4.8-7.5-7-12.3-5C-347.7-298.9-349.7-296-350.1-292.8z"/>
<path class="st1" d="M-1024.1-284c-2.1,0-4.2,0.8-5.8,2.3c-3.3,3.2-3.3,8.4-0.2,11.6c3.2,3.3,8.4,3.3,11.6,0.2
	c0.2-0.2,0.4-0.5,0.6-0.7l34.7,35.7c-3.6,3.6-3.6,9.4,0,13.1c3.6,3.7,9.5,3.8,13.2,0.2c2.5-2.4,3.3-5.8,2.6-9c2.1,0,4.2-0.8,5.8-2.3
	c3.3-3.2,3.3-8.4,0.2-11.6c-3.2-3.3-8.4-3.3-11.6-0.2c-0.4,0.4-0.7,0.8-1,1.2l-34.7-35.7c0.1-0.1,0.2-0.2,0.3-0.3
	c3.7-3.6,3.8-9.5,0.2-13.2s-9.5-3.8-13.2-0.2C-1024-290.5-1024.9-287.1-1024.1-284z"/>
<path class="st1" d="M-714.6-470.3c0.6-2,0.4-4.2-0.7-6.2c-2.2-4-7.2-5.5-11.1-3.3c-4,2.2-5.5,7.2-3.3,11.1c0.2,0.3,0.3,0.5,0.5,0.8
	l-43.7,23.8c-2.5-4.4-8.1-6-12.6-3.6c-4.5,2.5-6.2,8.2-3.7,12.7c1.6,3,4.7,4.8,7.9,4.9c-0.6,2-0.4,4.2,0.7,6.2
	c2.2,4,7.2,5.5,11.1,3.3c4-2.2,5.5-7.2,3.3-11.1c-0.3-0.5-0.6-0.9-0.9-1.3l43.8-23.8c0.1,0.1,0.1,0.3,0.2,0.4
	c2.5,4.5,8.2,6.2,12.7,3.7c4.5-2.5,6.2-8.2,3.7-12.7C-708.3-468.4-711.4-470.2-714.6-470.3z"/>
<path class="st1" d="M-904.5-973.1c-1.5,1.5-2.4,3.5-2.4,5.7c0,4.5,3.6,8.2,8.2,8.3c4.5,0,8.2-3.6,8.3-8.2c0-0.3,0-0.6-0.1-0.9
	l49.7,0.3c0.1,5.1,4.2,9.2,9.3,9.2c5.2,0,9.4-4.1,9.4-9.3c0-3.4-1.8-6.5-4.6-8.1c1.5-1.5,2.4-3.5,2.4-5.7c0-4.5-3.6-8.2-8.2-8.3
	c-4.5,0-8.2,3.6-8.3,8.2c0,0.5,0,1.1,0.1,1.6l-49.9-0.3c0-0.1,0-0.3,0-0.4c0-5.2-4.1-9.4-9.3-9.4c-5.2,0-9.4,4.1-9.4,9.3
	C-909.2-977.8-907.3-974.8-904.5-973.1z"/>
<path class="st1" d="M-791.6-76.2c-1.7,1.2-2.9,3.1-3.3,5.3c-0.8,4.5,2.2,8.7,6.7,9.5c4.5,0.8,8.7-2.2,9.5-6.7
	c0.1-0.3,0.1-0.6,0.1-0.9l49,8.4c-0.8,5,2.6,9.7,7.7,10.6c5.1,0.9,9.9-2.5,10.8-7.6c0.6-3.4-0.7-6.7-3.2-8.7
	c1.7-1.2,2.9-3.1,3.3-5.3c0.8-4.5-2.2-8.7-6.7-9.5c-4.5-0.8-8.7,2.2-9.5,6.7c-0.1,0.5-0.1,1-0.1,1.6l-49.1-8.5
	c0-0.1,0.1-0.3,0.1-0.4c0.9-5.1-2.5-9.9-7.6-10.8c-5.1-0.9-9.9,2.5-10.8,7.6C-795.4-81.6-794.1-78.3-791.6-76.2z"/>
<path class="st1" d="M-1256.2-760.1c-1.4,1.5-2.3,3.6-2.2,5.8c0.1,4.5,3.8,8.1,8.4,8c4.5-0.1,8.1-3.8,8-8.4c0-0.3,0-0.6-0.1-0.9
	l49.7-1c0.2,5.1,4.4,9.1,9.5,9c5.2-0.1,9.3-4.4,9.2-9.5c-0.1-3.4-2-6.4-4.8-8c1.4-1.5,2.3-3.6,2.2-5.8c-0.1-4.5-3.8-8.1-8.4-8
	c-4.5,0.1-8.1,3.8-8,8.4c0,0.5,0.1,1.1,0.2,1.6l-49.8,1c0-0.1,0-0.3,0-0.4c-0.1-5.2-4.4-9.3-9.5-9.2c-5.2,0.1-9.3,4.4-9.2,9.5
	C-1261-764.6-1259-761.6-1256.2-760.1z"/>
<path class="st1" d="M-923.5-141.5c-1,1.8-1.3,4-0.7,6.2c1.2,4.4,5.7,6.9,10.1,5.7c4.4-1.2,6.9-5.7,5.7-10.1
	c-0.1-0.3-0.2-0.6-0.3-0.9l48-13.2c1.4,4.9,6.5,7.7,11.4,6.3c5-1.4,7.9-6.5,6.5-11.5c-0.9-3.3-3.5-5.7-6.6-6.6c1-1.8,1.3-4,0.7-6.2
	c-1.2-4.4-5.7-6.9-10.1-5.7c-4.4,1.2-6.9,5.7-5.7,10.1c0.1,0.5,0.3,1,0.6,1.5l-48.1,13.2c0-0.1-0.1-0.3-0.1-0.4
	c-1.4-5-6.5-7.9-11.5-6.5s-7.9,6.5-6.5,11.5C-929.2-144.7-926.6-142.3-923.5-141.5z"/>
<path class="st1" d="M-1256.1,11.1c1.1-1.7,1.6-3.9,1.2-6.1c-0.9-4.4-5.2-7.3-9.7-6.4c-4.4,0.9-7.3,5.2-6.4,9.7
	c0.1,0.3,0.1,0.6,0.2,0.9l-48.8,9.9c-1.1-4.9-6-8.1-11-7.1c-5.1,1-8.3,6-7.3,11c0.7,3.4,3.1,5.9,6.2,7c-1.1,1.7-1.6,3.9-1.2,6.1
	c0.9,4.4,5.2,7.3,9.7,6.4s7.3-5.2,6.4-9.7c-0.1-0.5-0.3-1-0.5-1.5l48.9-9.9c0,0.1,0,0.3,0.1,0.4c1,5.1,6,8.3,11,7.3
	c5.1-1,8.3-6,7.3-11C-1250.7,14.7-1253.1,12.1-1256.1,11.1z"/>
<path class="st1" d="M-654.3-850.6c0,2.1,0.8,4.2,2.4,5.7c3.2,3.2,8.4,3.3,11.6,0.1c3.2-3.2,3.3-8.4,0.1-11.6
	c-0.2-0.2-0.5-0.4-0.7-0.6l35.4-34.9c3.6,3.5,9.4,3.5,13.1-0.1c3.7-3.6,3.7-9.6,0.1-13.2c-2.4-2.5-5.9-3.3-9-2.5
	c0-2.1-0.8-4.2-2.4-5.7c-3.2-3.2-8.4-3.3-11.6-0.1c-3.2,3.2-3.3,8.4-0.1,11.6c0.4,0.4,0.8,0.7,1.2,1l-35.5,35
	c-0.1-0.1-0.2-0.2-0.3-0.3c-3.6-3.7-9.6-3.7-13.2-0.1c-3.7,3.6-3.7,9.6-0.1,13.2C-660.8-850.7-657.4-849.8-654.3-850.6z"/>
<path class="st1" d="M-1344-581.9c-1.5-1.5-3.5-2.4-5.7-2.5c-4.5-0.1-8.3,3.5-8.3,8.1c-0.1,4.5,3.5,8.3,8.1,8.3c0.3,0,0.6,0,0.9,0
	l-0.8,49.7c-5.1,0-9.2,4.1-9.3,9.2c-0.1,5.2,4,9.4,9.2,9.5c3.4,0.1,6.5-1.8,8.1-4.5c1.5,1.5,3.5,2.4,5.7,2.5
	c4.5,0.1,8.3-3.5,8.3-8.1c0.1-4.5-3.5-8.3-8.1-8.3c-0.5,0-1.1,0-1.6,0.1l0.8-49.8c0.1,0,0.3,0,0.4,0c5.2,0.1,9.4-4,9.5-9.2
	c0.1-5.2-4-9.4-9.2-9.5C-1339.3-586.5-1342.3-584.7-1344-581.9z"/>
<path class="st1" d="M-441.5-583.9c-1.5-1.4-3.6-2.3-5.8-2.2c-4.5,0.1-8.1,3.9-8,8.4c0.1,4.5,3.9,8.1,8.4,8c0.3,0,0.6,0,0.9-0.1
	l1.5,49.7c-5.1,0.3-9,4.5-8.9,9.6c0.2,5.2,4.5,9.2,9.6,9.1c3.4-0.1,6.4-2.1,7.9-4.9c1.5,1.4,3.6,2.3,5.8,2.2c4.5-0.1,8.1-3.9,8-8.4
	c-0.1-4.5-3.9-8.1-8.4-8c-0.5,0-1.1,0.1-1.6,0.2l-1.5-49.8c0.1,0,0.3,0,0.4,0c5.2-0.2,9.2-4.5,9.1-9.6c-0.2-5.2-4.5-9.2-9.6-9.1
	C-437.1-588.6-440-586.7-441.5-583.9z"/>
<path class="st1" d="M-1333.7-326.3c-1.4-1.5-3.4-2.4-5.7-2.5c-4.5-0.1-8.3,3.5-8.4,8c-0.1,4.5,3.5,8.3,8,8.4c0.3,0,0.6,0,0.9,0
	l-1.3,49.7c-5.1,0-9.3,4-9.4,9.1c-0.1,5.2,3.9,9.5,9.1,9.6c3.4,0.1,6.5-1.7,8.2-4.4c1.4,1.5,3.4,2.4,5.7,2.5c4.5,0.1,8.3-3.5,8.4-8
	c0.1-4.5-3.5-8.3-8-8.4c-0.5,0-1.1,0-1.6,0.1l1.3-49.8c0.1,0,0.3,0,0.4,0c5.2,0.1,9.5-3.9,9.6-9.1c0.1-5.2-3.9-9.5-9.1-9.6
	C-1328.9-330.8-1332-329-1333.7-326.3z"/>
<path class="st1" d="M-1083.9-792.1c2.1-0.3,4-1.4,5.3-3.2c2.7-3.6,1.9-8.8-1.7-11.5c-3.6-2.7-8.8-1.9-11.5,1.7
	c-0.2,0.3-0.4,0.5-0.5,0.8l-40-29.6c2.9-4.1,2-9.9-2.1-12.9c-4.2-3.1-10-2.2-13.1,2c-2,2.8-2.3,6.3-1.1,9.2c-2.1,0.3-4,1.4-5.3,3.2
	c-2.7,3.6-1.9,8.8,1.7,11.5c3.6,2.7,8.8,1.9,11.5-1.7c0.3-0.4,0.6-0.9,0.8-1.3l40.1,29.6c-0.1,0.1-0.2,0.2-0.3,0.3
	c-3.1,4.2-2.2,10,2,13.1c4.2,3.1,10,2.2,13.1-2C-1082.9-785.6-1082.6-789.1-1083.9-792.1z"/>
<path class="st1" d="M-1279.2-527.2c-1.2,1.7-1.9,3.8-1.5,6c0.6,4.5,4.8,7.6,9.3,7c4.5-0.6,7.6-4.8,7-9.3c0-0.3-0.1-0.6-0.2-0.9
	l49.3-6.8c0.8,5,5.5,8.5,10.5,7.8c5.1-0.7,8.7-5.4,8-10.5c-0.5-3.4-2.7-6.1-5.7-7.4c1.2-1.7,1.9-3.8,1.5-6c-0.6-4.5-4.8-7.6-9.3-7
	s-7.6,4.8-7,9.3c0.1,0.5,0.2,1,0.4,1.5l-49.4,6.8c0-0.1,0-0.3,0-0.4c-0.7-5.1-5.4-8.7-10.5-8c-5.1,0.7-8.7,5.4-8,10.5
	C-1284.5-531.1-1282.2-528.4-1279.2-527.2z"/>
<path class="st1" d="M-870.1-41.3c-2.1-0.2-4.2,0.4-5.9,1.9c-3.5,2.9-3.9,8.1-1,11.6c2.9,3.5,8.1,3.9,11.6,1
	c0.2-0.2,0.5-0.4,0.7-0.6l31.9,38.2c-3.8,3.3-4.3,9.1-1,13c3.3,4,9.2,4.5,13.2,1.2c2.6-2.2,3.7-5.6,3.2-8.7c2.1,0.2,4.2-0.4,5.9-1.9
	c3.5-2.9,3.9-8.1,1-11.6c-2.9-3.5-8.1-3.9-11.6-1c-0.4,0.3-0.8,0.7-1.1,1.1l-32-38.2c0.1-0.1,0.2-0.2,0.3-0.3
	c4-3.3,4.5-9.2,1.2-13.2s-9.2-4.5-13.2-1.2C-869.5-47.9-870.6-44.5-870.1-41.3z"/>
<path class="st1" d="M-1025.6-542.8c-1.6,1.3-2.7,3.2-3,5.5c-0.5,4.5,2.8,8.6,7.3,9.1c4.5,0.5,8.6-2.8,9.1-7.3c0-0.3,0-0.6,0-0.9
	l49.4,5.4c-0.4,5.1,3.2,9.6,8.3,10.1c5.1,0.6,9.8-3.1,10.3-8.3c0.4-3.4-1.2-6.6-3.7-8.5c1.6-1.3,2.7-3.2,3-5.5
	c0.5-4.5-2.8-8.6-7.3-9.1c-4.5-0.5-8.6,2.8-9.1,7.3c-0.1,0.5-0.1,1.1,0,1.6l-49.6-5.4c0-0.1,0.1-0.3,0.1-0.4
	c0.6-5.1-3.1-9.8-8.3-10.3c-5.1-0.6-9.8,3.1-10.3,8.3C-1029.7-547.9-1028.2-544.7-1025.6-542.8z"/>
<path class="st1" d="M-539.6-170.4c-2.1-0.3-4.2,0.2-6,1.5c-3.7,2.7-4.4,7.8-1.7,11.5c2.7,3.7,7.8,4.4,11.5,1.7
	c0.3-0.2,0.5-0.4,0.7-0.6l29.5,40.1c-4,3.1-4.8,8.8-1.8,12.9c3.1,4.2,8.9,5.1,13.1,2c2.8-2,4.1-5.3,3.7-8.5c2.1,0.3,4.2-0.2,6-1.5
	c3.7-2.7,4.4-7.8,1.7-11.5c-2.7-3.7-7.8-4.4-11.5-1.7c-0.4,0.3-0.8,0.7-1.2,1l-29.5-40.2c0.1-0.1,0.2-0.1,0.3-0.2
	c4.2-3.1,5.1-8.9,2-13.1c-3.1-4.2-8.9-5.1-13.1-2C-538.6-176.9-539.9-173.6-539.6-170.4z"/>
<path class="st1" d="M-856.2-848.5c-0.3-2.1-1.3-4-3.1-5.4c-3.6-2.8-8.7-2.2-11.5,1.4c-2.8,3.6-2.2,8.7,1.4,11.5
	c0.2,0.2,0.5,0.4,0.8,0.5l-30.8,39.1c-4.1-3-9.8-2.3-13,1.7c-3.2,4.1-2.5,9.9,1.6,13.1c2.7,2.1,6.2,2.5,9.2,1.3
	c0.3,2.1,1.3,4,3.1,5.4c3.6,2.8,8.7,2.2,11.5-1.4c2.8-3.6,2.2-8.7-1.4-11.5c-0.4-0.3-0.9-0.6-1.3-0.8l30.8-39.2
	c0.1,0.1,0.2,0.2,0.3,0.3c4.1,3.2,9.9,2.5,13.1-1.6c3.2-4.1,2.5-9.9-1.6-13.1C-849.7-849.3-853.2-849.7-856.2-848.5z"/>
<path class="st1" d="M-1308.5-906.6c-1.8-1.1-4-1.4-6.2-0.9c-4.4,1.1-7.1,5.6-6,10c1.1,4.4,5.6,7.1,10,6c0.3-0.1,0.6-0.2,0.9-0.3
	l12.1,48.3c-4.9,1.3-7.8,6.3-6.6,11.3c1.3,5,6.3,8.1,11.3,6.8c3.3-0.8,5.8-3.4,6.7-6.5c1.8,1.1,4,1.4,6.2,0.9c4.4-1.1,7.1-5.6,6-10
	c-1.1-4.4-5.6-7.1-10-6c-0.5,0.1-1,0.3-1.5,0.5l-12.1-48.4c0.1,0,0.3,0,0.4-0.1c5-1.3,8.1-6.3,6.8-11.3c-1.3-5-6.3-8.1-11.3-6.8
	C-1305.2-912.2-1307.6-909.6-1308.5-906.6z"/>
<path class="st1" d="M-1336.3-7.8c1.5,1.5,3.5,2.4,5.7,2.4c4.5,0,8.2-3.6,8.3-8.2c0-4.5-3.6-8.2-8.2-8.3c-0.3,0-0.6,0-0.9,0.1
	l0.3-49.7c5.1-0.1,9.2-4.2,9.2-9.3c0-5.2-4.1-9.4-9.3-9.4c-3.4,0-6.5,1.8-8.1,4.6c-1.5-1.5-3.5-2.4-5.7-2.4c-4.5,0-8.2,3.6-8.3,8.2
	c0,4.5,3.6,8.2,8.2,8.3c0.5,0,1.1,0,1.6-0.1l-0.3,49.9c-0.1,0-0.3,0-0.4,0c-5.2,0-9.4,4.1-9.4,9.3c0,5.2,4.1,9.4,9.3,9.4
	C-1340.9-3.2-1337.9-5.1-1336.3-7.8z"/>
<path class="st1" d="M-743.9-184.9c2-0.5,3.9-1.7,5.1-3.6c2.5-3.8,1.4-8.9-2.4-11.4c-3.8-2.5-8.9-1.4-11.4,2.4
	c-0.2,0.3-0.3,0.5-0.5,0.8l-41.8-27c2.7-4.3,1.4-10-2.9-12.8c-4.3-2.8-10.1-1.6-12.9,2.8c-1.9,2.9-1.9,6.4-0.5,9.3
	c-2,0.5-3.9,1.7-5.1,3.6c-2.5,3.8-1.4,8.9,2.4,11.4c3.8,2.5,8.9,1.4,11.4-2.4c0.3-0.4,0.5-0.9,0.7-1.4l41.9,27
	c-0.1,0.1-0.2,0.2-0.2,0.3c-2.8,4.3-1.6,10.1,2.8,12.9c4.3,2.8,10.1,1.6,12.9-2.8C-742.5-178.5-742.4-182-743.9-184.9z"/>
<path class="st1" d="M-956-866.2c2-0.4,3.9-1.5,5.2-3.4c2.6-3.7,1.7-8.8-2-11.4c-3.7-2.6-8.8-1.7-11.4,2c-0.2,0.3-0.3,0.5-0.5,0.8
	l-40.8-28.5c2.8-4.2,1.8-9.9-2.4-12.8c-4.2-3-10.1-1.9-13,2.3c-2,2.8-2.2,6.4-0.8,9.3c-2,0.4-3.9,1.5-5.2,3.4
	c-2.6,3.7-1.7,8.8,2,11.4c3.7,2.6,8.8,1.7,11.4-2c0.3-0.4,0.6-0.9,0.8-1.4l40.9,28.5c-0.1,0.1-0.2,0.2-0.3,0.3
	c-3,4.2-1.9,10.1,2.3,13c4.2,3,10.1,1.9,13-2.3C-954.8-859.8-954.7-863.3-956-866.2z"/>
<path class="st1" d="M-991.7,17.6c-1.5,1.4-2.5,3.4-2.6,5.6c-0.2,4.5,3.3,8.4,7.8,8.6c4.5,0.2,8.4-3.3,8.6-7.8c0-0.3,0-0.6,0-0.9
	l49.7,2.5c-0.1,5.1,3.8,9.3,8.9,9.6c5.2,0.3,9.5-3.7,9.8-8.9c0.2-3.4-1.5-6.5-4.2-8.3c1.5-1.4,2.5-3.4,2.6-5.6
	c0.2-4.5-3.3-8.4-7.8-8.6c-4.5-0.2-8.4,3.3-8.6,7.8c0,0.5,0,1.1,0.1,1.6l-49.8-2.5c0-0.1,0-0.3,0-0.4c0.3-5.2-3.7-9.5-8.9-9.8
	s-9.5,3.7-9.8,8.9C-996.1,12.8-994.3,15.9-991.7,17.6z"/>
<path class="st1" d="M-693.2-777.1c2.1,0.3,4.2-0.1,6-1.5c3.7-2.7,4.5-7.8,1.9-11.5c-2.7-3.7-7.8-4.5-11.5-1.9
	c-0.3,0.2-0.5,0.4-0.7,0.6l-29.1-40.4c4-3.1,4.9-8.8,2-12.9c-3-4.2-8.9-5.1-13.1-2.1c-2.8,2-4.1,5.3-3.8,8.5c-2.1-0.3-4.2,0.1-6,1.5
	c-3.7,2.7-4.5,7.8-1.9,11.5c2.7,3.7,7.8,4.5,11.5,1.9c0.4-0.3,0.8-0.7,1.2-1l29.2,40.4c-0.1,0.1-0.2,0.1-0.3,0.2
	c-4.2,3-5.1,8.9-2.1,13.1c3,4.2,8.9,5.1,13.1,2.1C-694.2-770.6-692.9-773.9-693.2-777.1z"/>
<path class="st1" d="M-462-876.1c1.9-0.7,3.6-2.2,4.5-4.2c1.9-4.1,0.1-9-4-10.9c-4.1-1.9-9-0.1-10.9,4c-0.1,0.3-0.2,0.6-0.3,0.9
	L-518-907c2-4.7-0.1-10.1-4.7-12.2c-4.7-2.2-10.2-0.1-12.4,4.6c-1.4,3.1-1,6.6,0.9,9.3c-1.9,0.7-3.6,2.2-4.5,4.2
	c-1.9,4.1-0.1,9,4,10.9c4.1,1.9,9,0.1,10.9-4c0.2-0.5,0.4-1,0.5-1.5L-478-875c-0.1,0.1-0.1,0.2-0.2,0.4c-2.2,4.7-0.1,10.2,4.6,12.4
	c4.7,2.1,10.2,0.1,12.4-4.6C-459.7-869.9-460.2-873.4-462-876.1z"/>
<path class="st1" d="M-636.6-225.6c-0.6,2-0.5,4.2,0.6,6.2c2.1,4,7,5.6,11.1,3.5c4-2.1,5.6-7,3.5-11.1c-0.1-0.3-0.3-0.5-0.5-0.8
	l44.1-23c2.4,4.4,8,6.2,12.5,3.8c4.6-2.4,6.4-8,4-12.6c-1.6-3.1-4.6-4.9-7.8-5c0.6-2,0.5-4.2-0.6-6.2c-2.1-4-7-5.6-11.1-3.5
	c-4,2.1-5.6,7-3.5,11.1c0.2,0.5,0.5,0.9,0.9,1.3l-44.2,23c-0.1-0.1-0.1-0.3-0.2-0.4c-2.4-4.6-8-6.4-12.6-4c-4.6,2.4-6.4,8-4,12.6
	C-642.8-227.6-639.8-225.8-636.6-225.6z"/>
<path class="st1" d="M-1021.1-434.5c-2,0.7-3.6,2.1-4.6,4.2c-2,4.1-0.3,9,3.8,11c4.1,2,9,0.3,11-3.8c0.1-0.3,0.3-0.6,0.4-0.9
	l44.8,21.6c-2.1,4.6-0.1,10.1,4.4,12.3c4.7,2.2,10.2,0.3,12.5-4.4c1.5-3.1,1.1-6.6-0.7-9.3c2-0.7,3.6-2.1,4.6-4.2
	c2-4.1,0.3-9-3.8-11c-4.1-2-9-0.3-11,3.8c-0.2,0.5-0.4,1-0.5,1.5l-44.9-21.7c0.1-0.1,0.1-0.2,0.2-0.4c2.2-4.7,0.3-10.2-4.4-12.5
	c-4.7-2.2-10.2-0.3-12.5,4.4C-1023.3-440.7-1022.9-437.1-1021.1-434.5z"/>
<path class="st1" d="M-1087-639.5c1.8,1,4,1.2,6.2,0.6c4.3-1.3,6.8-5.9,5.5-10.2c-1.3-4.3-5.9-6.8-10.2-5.5
	c-0.3,0.1-0.6,0.2-0.9,0.3l-14.5-47.6c4.8-1.6,7.5-6.7,6-11.6c-1.5-4.9-6.7-7.7-11.7-6.2c-3.3,1-5.6,3.7-6.4,6.8
	c-1.8-1-4-1.2-6.2-0.6c-4.3,1.3-6.8,5.9-5.5,10.2c1.3,4.3,5.9,6.8,10.2,5.5c0.5-0.2,1-0.4,1.4-0.6l14.6,47.7c-0.1,0-0.3,0.1-0.4,0.1
	c-4.9,1.5-7.7,6.7-6.2,11.7c1.5,4.9,6.7,7.7,11.7,6.2C-1090.1-633.7-1087.7-636.4-1087-639.5z"/>
<path class="st1" d="M-1348.6-991.9c-1.9,0.9-3.5,2.4-4.3,4.5c-1.6,4.2,0.5,9,4.7,10.6c4.2,1.6,9-0.5,10.6-4.7
	c0.1-0.3,0.2-0.6,0.3-0.9l46.4,17.9c-1.7,4.8,0.7,10.1,5.4,11.9c4.8,1.9,10.2-0.5,12.1-5.4c1.2-3.2,0.6-6.7-1.4-9.2
	c1.9-0.9,3.5-2.4,4.3-4.5c1.6-4.2-0.5-9-4.7-10.6c-4.2-1.6-9,0.5-10.6,4.7c-0.2,0.5-0.3,1-0.4,1.5l-46.5-17.9
	c0.1-0.1,0.1-0.2,0.2-0.4c1.9-4.8-0.5-10.2-5.4-12.1c-4.8-1.9-10.2,0.5-12.1,5.4C-1351.2-997.9-1350.6-994.5-1348.6-991.9z"/>
<path class="st1" d="M-1340.5-702.4c1.5,1.5,3.5,2.4,5.7,2.4c4.5,0.1,8.3-3.6,8.3-8.1c0.1-4.5-3.6-8.3-8.1-8.3c-0.3,0-0.6,0-0.9,0
	l0.7-49.7c5.1,0,9.2-4.1,9.3-9.2c0.1-5.2-4.1-9.4-9.2-9.5c-3.4,0-6.5,1.8-8.1,4.5c-1.5-1.5-3.5-2.4-5.7-2.4
	c-4.5-0.1-8.3,3.6-8.3,8.1c-0.1,4.5,3.6,8.3,8.1,8.3c0.5,0,1.1,0,1.6-0.1l-0.7,49.8c-0.1,0-0.3,0-0.4,0c-5.2-0.1-9.4,4.1-9.5,9.2
	c-0.1,5.2,4.1,9.4,9.2,9.5C-1345.2-697.8-1342.2-699.6-1340.5-702.4z"/>
<path class="st1" d="M-822.8-569.5c0.1,2.1,1,4.1,2.6,5.6c3.3,3.1,8.5,2.9,11.6-0.4c3.1-3.3,2.9-8.5-0.4-11.6
	c-0.2-0.2-0.5-0.4-0.7-0.6l33.9-36.4c3.8,3.4,9.6,3.1,13.1-0.6c3.5-3.8,3.3-9.7-0.5-13.2c-2.5-2.3-6-3-9.1-2.1
	c-0.1-2.1-1-4.1-2.6-5.6c-3.3-3.1-8.5-2.9-11.6,0.4c-3.1,3.3-2.9,8.5,0.4,11.6c0.4,0.4,0.8,0.7,1.2,1l-34,36.5
	c-0.1-0.1-0.2-0.2-0.3-0.3c-3.8-3.5-9.7-3.3-13.2,0.5c-3.5,3.8-3.3,9.7,0.5,13.2C-829.4-569.2-825.9-568.5-822.8-569.5z"/>
<path class="st1" d="M-1058.3-993.7c-1.5,1.5-2.4,3.5-2.4,5.7c0,4.5,3.7,8.2,8.2,8.2c4.5,0,8.2-3.7,8.2-8.2c0-0.3,0-0.6-0.1-0.9
	l49.7,0.1c0.1,5.1,4.2,9.2,9.3,9.2c5.2,0,9.4-4.2,9.4-9.3c0-3.4-1.9-6.5-4.6-8.1c1.5-1.5,2.4-3.5,2.4-5.7c0-4.5-3.7-8.2-8.2-8.2
	c-4.5,0-8.2,3.7-8.2,8.2c0,0.5,0.1,1.1,0.1,1.6l-49.9-0.1c0-0.1,0-0.3,0-0.4c0-5.2-4.2-9.4-9.3-9.4c-5.2,0-9.4,4.2-9.4,9.3
	C-1062.9-998.3-1061-995.3-1058.3-993.7z"/>
<path class="st1" d="M-1109.4-452.9c0.9-1.9,1.1-4.1,0.4-6.2c-1.5-4.3-6.1-6.6-10.4-5.1c-4.3,1.5-6.6,6.1-5.1,10.4
	c0.1,0.3,0.2,0.6,0.4,0.9l-47.1,16c-1.7-4.8-7-7.3-11.8-5.7c-4.9,1.7-7.5,7-5.9,11.9c1.1,3.3,3.8,5.5,7,6.2
	c-0.9,1.9-1.1,4.1-0.4,6.2c1.5,4.3,6.1,6.6,10.4,5.1c4.3-1.5,6.6-6.1,5.1-10.4c-0.2-0.5-0.4-1-0.6-1.4l47.2-16
	c0,0.1,0.1,0.3,0.1,0.4c1.7,4.9,7,7.5,11.9,5.9c4.9-1.7,7.5-7,5.9-11.9C-1103.5-450-1106.2-452.2-1109.4-452.9z"/>
<path class="st1" d="M-1335.1-419.8c-1.8,1.1-3.2,2.8-3.7,5c-1.1,4.4,1.5,8.9,5.9,10c4.4,1.1,8.9-1.5,10-5.9
	c0.1-0.3,0.1-0.6,0.2-0.9l48.1,12.6c-1.2,4.9,1.8,9.9,6.7,11.2c5,1.3,10.1-1.7,11.4-6.7c0.9-3.3-0.2-6.7-2.4-9
	c1.8-1.1,3.2-2.8,3.7-5c1.1-4.4-1.5-8.9-5.9-10c-4.4-1.1-8.9,1.5-10,5.9c-0.1,0.5-0.2,1-0.2,1.5l-48.2-12.6c0-0.1,0.1-0.3,0.1-0.4
	c1.3-5-1.7-10.1-6.7-11.4c-5-1.3-10.1,1.7-11.4,6.7C-1338.4-425.5-1337.3-422.1-1335.1-419.8z"/>
<path class="st1" d="M-1240.3-93c1,1.8,2.7,3.3,4.8,3.9c4.3,1.3,8.9-1.1,10.2-5.5c1.3-4.3-1.1-8.9-5.5-10.2
	c-0.3-0.1-0.6-0.2-0.9-0.2l14.4-47.6c4.9,1.4,10-1.4,11.5-6.3c1.5-4.9-1.3-10.2-6.3-11.7c-3.3-1-6.7-0.1-9.1,2.1
	c-1-1.8-2.7-3.3-4.8-3.9c-4.3-1.3-8.9,1.1-10.2,5.5c-1.3,4.3,1.1,8.9,5.5,10.2c0.5,0.2,1,0.3,1.5,0.3l-14.4,47.7
	c-0.1,0-0.3-0.1-0.4-0.1c-4.9-1.5-10.2,1.3-11.7,6.3c-1.5,4.9,1.3,10.2,6.3,11.7C-1246.1-89.9-1242.6-90.8-1240.3-93z"/>
<path class="st1" d="M-1101.6-133.7c-0.4-2-1.5-4-3.3-5.2c-3.7-2.6-8.8-1.7-11.4,2c-2.6,3.7-1.7,8.8,2,11.4c0.3,0.2,0.5,0.3,0.8,0.5
	l-28.8,40.6c-4.2-2.8-9.9-1.8-12.9,2.3c-3,4.2-2,10.1,2.2,13c2.8,2,6.3,2.2,9.3,0.9c0.4,2,1.5,4,3.3,5.2c3.7,2.6,8.8,1.7,11.4-2
	c2.6-3.7,1.7-8.8-2-11.4c-0.4-0.3-0.9-0.6-1.4-0.8l28.8-40.7c0.1,0.1,0.2,0.2,0.3,0.3c4.2,3,10.1,2,13-2.2c3-4.2,2-10.1-2.2-13
	C-1095.2-134.8-1098.7-135-1101.6-133.7z"/>
<path class="st1" d="M-1060.6-200.1c1.8-1.1,3.1-2.9,3.6-5c1.1-4.4-1.6-8.8-6-9.9s-8.8,1.6-9.9,6c-0.1,0.3-0.1,0.6-0.2,0.9
	l-48.3-11.8c1.1-5-2-9.9-6.9-11.1c-5-1.2-10.1,1.9-11.3,6.9c-0.8,3.3,0.3,6.7,2.6,8.9c-1.8,1.1-3.1,2.9-3.6,5
	c-1.1,4.4,1.6,8.8,6,9.9s8.8-1.6,9.9-6c0.1-0.5,0.2-1,0.2-1.6l48.4,11.8c0,0.1-0.1,0.3-0.1,0.4c-1.2,5,1.9,10.1,6.9,11.3
	c5,1.2,10.1-1.9,11.3-6.9C-1057.2-194.5-1058.3-197.9-1060.6-200.1z"/>
<path class="st1" d="M-1285.4-625.6c0.2,2.1,1.2,4.1,2.9,5.5c3.5,2.9,8.6,2.5,11.6-0.9c2.9-3.5,2.5-8.6-0.9-11.6
	c-0.2-0.2-0.5-0.4-0.8-0.6l32.2-37.9c3.9,3.2,9.7,2.7,13-1.2c3.3-3.9,2.9-9.8-1.1-13.2c-2.6-2.2-6.1-2.7-9.2-1.7
	c-0.2-2.1-1.2-4.1-2.9-5.5c-3.5-2.9-8.6-2.5-11.6,0.9c-2.9,3.5-2.5,8.6,0.9,11.6c0.4,0.3,0.8,0.6,1.3,0.9l-32.3,38
	c-0.1-0.1-0.2-0.2-0.3-0.3c-3.9-3.3-9.8-2.9-13.2,1.1c-3.3,3.9-2.9,9.8,1.1,13.2C-1291.9-625-1288.4-624.5-1285.4-625.6z"/>
<path class="st1" d="M-1034.7-99.7c-1.6,1.3-2.7,3.3-2.9,5.5c-0.4,4.5,2.9,8.5,7.4,9c4.5,0.4,8.5-2.9,9-7.4c0-0.3,0-0.6,0-0.9
	l49.5,4.9c-0.4,5.1,3.3,9.5,8.4,10c5.1,0.5,9.7-3.3,10.2-8.4c0.3-3.4-1.2-6.6-3.8-8.5c1.6-1.3,2.7-3.3,2.9-5.5
	c0.4-4.5-2.9-8.5-7.4-9c-4.5-0.4-8.5,2.9-9,7.4c-0.1,0.5,0,1.1,0,1.6l-49.6-4.9c0-0.1,0-0.3,0.1-0.4c0.5-5.1-3.3-9.7-8.4-10.2
	c-5.1-0.5-9.7,3.3-10.2,8.4C-1038.9-104.8-1037.3-101.6-1034.7-99.7z"/>
<path class="st1" d="M-830.6-743.8c-2.1,0.1-4.1,1-5.6,2.7c-3,3.4-2.7,8.6,0.6,11.6c3.4,3,8.6,2.7,11.6-0.6c0.2-0.2,0.4-0.5,0.6-0.7
	l37.1,33.2c-3.3,3.9-2.9,9.6,0.9,13c3.8,3.4,9.8,3.1,13.2-0.7c2.3-2.6,2.9-6.1,1.9-9.1c2.1-0.1,4.1-1,5.6-2.7
	c3-3.4,2.7-8.6-0.6-11.6c-3.4-3-8.6-2.7-11.6,0.6c-0.4,0.4-0.7,0.8-0.9,1.3l-37.1-33.3c0.1-0.1,0.2-0.2,0.3-0.3
	c3.4-3.8,3.1-9.8-0.7-13.2c-3.8-3.4-9.8-3.1-13.2,0.7C-831-750.3-831.6-746.8-830.6-743.8z"/>
<path class="st1" d="M-479.1-339c1.8-1,3.2-2.7,3.9-4.9c1.3-4.4-1.2-8.9-5.6-10.2c-4.4-1.3-8.9,1.2-10.2,5.6
	c-0.1,0.3-0.2,0.6-0.2,0.9l-47.7-14c1.3-4.9-1.5-10-6.4-11.4c-5-1.4-10.2,1.4-11.6,6.4c-1,3.3,0,6.7,2.2,9c-1.8,1-3.2,2.7-3.9,4.9
	c-1.3,4.4,1.2,8.9,5.6,10.2s8.9-1.2,10.2-5.6c0.1-0.5,0.2-1,0.3-1.5l47.9,14c0,0.1-0.1,0.3-0.1,0.4c-1.4,5,1.4,10.2,6.4,11.6
	s10.2-1.4,11.6-6.4C-475.9-333.3-476.8-336.7-479.1-339z"/>
<path class="st1" d="M-627.8,22.4c1.5-1.4,2.5-3.4,2.5-5.7c0.1-4.5-3.4-8.3-7.9-8.5c-4.5-0.1-8.3,3.4-8.5,7.9c0,0.3,0,0.6,0,0.9
	l-49.7-1.6c0-5.1-4-9.3-9.1-9.4c-5.2-0.2-9.5,3.9-9.6,9.1c-0.1,3.4,1.7,6.5,4.4,8.2c-1.5,1.4-2.5,3.4-2.5,5.7
	c-0.1,4.5,3.4,8.3,7.9,8.5c4.5,0.1,8.3-3.4,8.5-7.9c0-0.5,0-1.1-0.1-1.6l49.8,1.6c0,0.1,0,0.3,0,0.4c-0.2,5.2,3.9,9.5,9.1,9.6
	c5.2,0.2,9.5-3.9,9.6-9.1C-623.3,27.2-625,24.1-627.8,22.4z"/>
<path class="st1" d="M-788.5-369.3c-1.4-1.5-3.4-2.5-5.6-2.6c-4.5-0.2-8.4,3.3-8.6,7.8c-0.2,4.5,3.3,8.4,7.8,8.6c0.3,0,0.6,0,0.9,0
	l-2.5,49.7c-5.1-0.1-9.3,3.8-9.6,8.9c-0.3,5.2,3.7,9.5,8.9,9.8c3.4,0.2,6.5-1.5,8.3-4.2c1.4,1.5,3.4,2.5,5.6,2.6
	c4.5,0.2,8.4-3.3,8.6-7.8c0.2-4.5-3.3-8.4-7.8-8.6c-0.5,0-1.1,0-1.6,0.1l2.5-49.8c0.1,0,0.3,0,0.4,0c5.2,0.3,9.5-3.7,9.8-8.9
	c0.3-5.2-3.7-9.5-8.9-9.8C-783.6-373.7-786.7-372-788.5-369.3z"/>
<g>
	<path class="st1" d="M-1644.5-449.9c-1.6,1.3-2.7,3.3-2.9,5.5c-0.4,4.5,2.9,8.5,7.5,8.9c4.5,0.4,8.5-2.9,8.9-7.5c0-0.3,0-0.6,0-0.9
		l49.6,4.4c-0.3,5.1,3.4,9.5,8.5,9.9c5.1,0.5,9.7-3.3,10.1-8.5c0.3-3.4-1.3-6.6-3.9-8.4c1.6-1.3,2.7-3.3,2.9-5.5
		c0.4-4.5-2.9-8.5-7.5-8.9c-4.5-0.4-8.5,2.9-8.9,7.5c0,0.5,0,1.1,0,1.6l-49.7-4.4c0-0.1,0-0.3,0.1-0.4c0.5-5.1-3.3-9.7-8.5-10.1
		c-5.1-0.5-9.7,3.3-10.1,8.5C-1648.7-455-1647.1-451.8-1644.5-449.9z"/>
	<path class="st1" d="M-1971.2-451.5c-0.2,2.1,0.3,4.2,1.7,6c2.8,3.6,8,4.2,11.5,1.4c3.6-2.8,4.2-8,1.4-11.5
		c-0.2-0.2-0.4-0.5-0.6-0.7l39.1-30.7c3.2,3.9,9,4.6,13,1.4c4.1-3.2,4.8-9.1,1.6-13.1c-2.1-2.7-5.4-3.9-8.6-3.5
		c0.2-2.1-0.3-4.2-1.7-6c-2.8-3.6-8-4.2-11.5-1.4c-3.6,2.8-4.2,8-1.4,11.5c0.3,0.4,0.7,0.8,1.1,1.1l-39.2,30.8
		c-0.1-0.1-0.2-0.2-0.2-0.3c-3.2-4.1-9.1-4.8-13.1-1.6c-4.1,3.2-4.8,9.1-1.6,13.1C-1977.7-452.3-1974.4-451.1-1971.2-451.5z"/>
	<path class="st1" d="M-1576.4-980c1.6-1.3,2.8-3.2,3.1-5.4c0.6-4.5-2.6-8.6-7.1-9.2c-4.5-0.6-8.6,2.6-9.2,7.1
		c0,0.3-0.1,0.6-0.1,0.9l-49.4-6.2c0.5-5-3.1-9.6-8.1-10.2c-5.1-0.6-9.8,3-10.5,8.1c-0.4,3.4,1,6.6,3.6,8.6
		c-1.6,1.3-2.8,3.2-3.1,5.4c-0.6,4.5,2.6,8.6,7.1,9.2c4.5,0.6,8.6-2.6,9.2-7.1c0.1-0.5,0.1-1.1,0-1.6l49.5,6.3
		c0,0.1-0.1,0.3-0.1,0.4c-0.6,5.1,3,9.8,8.1,10.5s9.8-3,10.5-8.1C-1572.3-974.9-1573.8-978.1-1576.4-980z"/>
	<path class="st1" d="M-1636.1-818.6c-2.1,0.1-4.1,1-5.6,2.6c-3.1,3.3-2.8,8.5,0.5,11.6c3.3,3.1,8.5,2.8,11.6-0.5
		c0.2-0.2,0.4-0.5,0.6-0.7l36.7,33.6c-3.3,3.8-3,9.6,0.7,13.1c3.8,3.5,9.7,3.2,13.2-0.6c2.3-2.5,3-6,2-9.1c2.1-0.1,4.1-1,5.6-2.6
		c3.1-3.3,2.8-8.5-0.5-11.6c-3.3-3.1-8.5-2.8-11.6,0.5c-0.4,0.4-0.7,0.8-0.9,1.3l-36.8-33.7c0.1-0.1,0.2-0.2,0.3-0.3
		c3.5-3.8,3.2-9.7-0.6-13.2c-3.8-3.5-9.7-3.2-13.2,0.6C-1636.4-825.1-1637-821.6-1636.1-818.6z"/>
	<path class="st1" d="M-2053.7-616.6c0.1,2.1,0.9,4.1,2.5,5.7c3.3,3.1,8.5,3,11.6-0.3c3.1-3.3,3-8.5-0.3-11.6
		c-0.2-0.2-0.5-0.4-0.7-0.6l34.4-36c3.7,3.4,9.5,3.2,13.1-0.4c3.6-3.7,3.4-9.7-0.3-13.2c-2.5-2.4-6-3.1-9-2.2
		c-0.1-2.1-0.9-4.1-2.5-5.7c-3.3-3.1-8.5-3-11.6,0.3c-3.1,3.3-3,8.5,0.3,11.6c0.4,0.4,0.8,0.7,1.2,1l-34.4,36
		c-0.1-0.1-0.2-0.2-0.3-0.3c-3.7-3.6-9.7-3.4-13.2,0.3c-3.6,3.7-3.4,9.7,0.3,13.2C-2060.2-616.5-2056.7-615.7-2053.7-616.6z"/>
	<path class="st1" d="M-2238.2-25c-0.2-2.1-1.2-4-3-5.5c-3.5-2.9-8.7-2.3-11.6,1.2c-2.9,3.5-2.3,8.7,1.2,11.6
		c0.2,0.2,0.5,0.4,0.8,0.5l-31.5,38.5c-4-3.1-9.8-2.5-13,1.4c-3.3,4-2.7,9.9,1.3,13.2c2.7,2.2,6.2,2.6,9.2,1.5c0.2,2.1,1.2,4,3,5.5
		c3.5,2.9,8.7,2.3,11.6-1.2c2.9-3.5,2.3-8.7-1.2-11.6c-0.4-0.3-0.9-0.6-1.3-0.9l31.5-38.6c0.1,0.1,0.2,0.2,0.3,0.3
		c4,3.3,9.9,2.7,13.2-1.3c3.3-4,2.7-9.9-1.3-13.2C-2231.7-25.7-2235.2-26.1-2238.2-25z"/>
	<path class="st1" d="M-1536.7-650.4c2.1-0.2,4.1-1.1,5.5-2.8c3-3.4,2.6-8.6-0.9-11.6c-3.4-3-8.6-2.6-11.6,0.9
		c-0.2,0.2-0.4,0.5-0.6,0.7l-37.7-32.5c3.2-3.9,2.8-9.7-1.1-13c-3.9-3.4-9.8-2.9-13.2,1c-2.3,2.6-2.8,6.1-1.8,9.1
		c-2.1,0.2-4.1,1.1-5.5,2.8c-3,3.4-2.6,8.6,0.9,11.6c3.4,3,8.6,2.6,11.6-0.9c0.3-0.4,0.6-0.8,0.9-1.3l37.7,32.6
		c-0.1,0.1-0.2,0.2-0.3,0.3c-3.4,3.9-2.9,9.8,1,13.2c3.9,3.4,9.8,2.9,13.2-1C-1536.2-643.9-1535.6-647.4-1536.7-650.4z"/>
	<path class="st1" d="M-1727.2-591.1c-0.6-2-2-3.7-3.9-4.8c-4-2.1-9-0.7-11.1,3.3c-2.1,4-0.7,9,3.3,11.1c0.3,0.2,0.6,0.3,0.9,0.4
		l-23.6,43.8c-4.5-2.3-10.1-0.6-12.5,3.9c-2.4,4.5-0.7,10.2,3.8,12.7c3,1.6,6.6,1.4,9.3-0.3c0.6,2,2,3.7,3.9,4.8
		c4,2.1,9,0.7,11.1-3.3c2.1-4,0.7-9-3.3-11.1c-0.5-0.3-1-0.5-1.4-0.6l23.6-43.9c0.1,0.1,0.2,0.1,0.4,0.2c4.5,2.4,10.2,0.7,12.7-3.8
		c2.4-4.5,0.7-10.2-3.8-12.7C-1720.9-592.9-1724.4-592.7-1727.2-591.1z"/>
	<path class="st1" d="M-1565.1-256.7c-2.1,0.1-4.1,1-5.7,2.6c-3.1,3.3-2.9,8.5,0.4,11.6c3.3,3.1,8.5,2.9,11.6-0.4
		c0.2-0.2,0.4-0.5,0.6-0.7l36.3,34c-3.4,3.8-3.1,9.6,0.6,13.1c3.8,3.5,9.7,3.3,13.2-0.4c2.4-2.5,3-6,2.1-9.1c2.1-0.1,4.1-1,5.7-2.6
		c3.1-3.3,2.9-8.5-0.4-11.6c-3.3-3.1-8.5-2.9-11.6,0.4c-0.4,0.4-0.7,0.8-1,1.2l-36.4-34.1c0.1-0.1,0.2-0.2,0.3-0.3
		c3.5-3.8,3.3-9.7-0.4-13.2c-3.8-3.5-9.7-3.3-13.2,0.4C-1565.3-263.2-1566-259.8-1565.1-256.7z"/>
	<path class="st1" d="M-1460.5-629.4c-0.7,2-0.7,4.2,0.2,6.2c1.9,4.1,6.7,6,10.9,4.1c4.1-1.9,6-6.7,4.1-10.9
		c-0.1-0.3-0.3-0.6-0.4-0.8l45.3-20.6c2.2,4.6,7.6,6.6,12.3,4.5c4.7-2.1,6.8-7.7,4.7-12.4c-1.4-3.1-4.4-5.1-7.6-5.4
		c0.7-2,0.7-4.2-0.2-6.2c-1.9-4.1-6.7-6-10.9-4.1c-4.1,1.9-6,6.7-4.1,10.9c0.2,0.5,0.5,0.9,0.8,1.4l-45.4,20.6
		c-0.1-0.1-0.1-0.3-0.2-0.4c-2.1-4.7-7.7-6.8-12.4-4.7c-4.7,2.1-6.8,7.7-4.7,12.4C-1466.7-631.7-1463.7-629.7-1460.5-629.4z"/>
	<path class="st1" d="M-1620.5-548.5c1.9,0.8,4.1,0.9,6.2,0c4.2-1.7,6.2-6.5,4.5-10.7c-1.7-4.2-6.5-6.2-10.7-4.5
		c-0.3,0.1-0.6,0.3-0.8,0.4l-18.6-46.1c4.7-2,6.9-7.4,5-12.1c-1.9-4.8-7.4-7.1-12.2-5.2c-3.2,1.3-5.3,4.1-5.7,7.3
		c-1.9-0.8-4.1-0.9-6.2,0c-4.2,1.7-6.2,6.5-4.5,10.7c1.7,4.2,6.5,6.2,10.7,4.5c0.5-0.2,1-0.4,1.4-0.7l18.7,46.2
		c-0.1,0-0.3,0.1-0.4,0.1c-4.8,1.9-7.1,7.4-5.2,12.2c1.9,4.8,7.4,7.1,12.2,5.2C-1623.1-542.4-1621-545.3-1620.5-548.5z"/>
	<path class="st1" d="M-2231.3-868c0.2,2.1,1.2,4,3,5.5c3.5,2.9,8.7,2.4,11.6-1.2c2.9-3.5,2.4-8.7-1.2-11.6
		c-0.2-0.2-0.5-0.4-0.8-0.5l31.5-38.5c4,3.1,9.8,2.5,13-1.4c3.3-4,2.7-9.9-1.3-13.2c-2.7-2.2-6.2-2.6-9.2-1.5c-0.2-2.1-1.2-4-3-5.5
		c-3.5-2.9-8.7-2.4-11.6,1.2c-2.9,3.5-2.4,8.7,1.2,11.6c0.4,0.3,0.9,0.6,1.3,0.9l-31.6,38.6c-0.1-0.1-0.2-0.2-0.3-0.3
		c-4-3.3-9.9-2.7-13.2,1.3c-3.3,4-2.7,9.9,1.3,13.2C-2237.8-867.3-2234.3-866.9-2231.3-868z"/>
	<path class="st1" d="M-2422-186.4c-2-0.7-4.2-0.6-6.2,0.3c-4.1,1.9-5.9,6.8-3.9,10.9c1.9,4.1,6.8,5.9,10.9,3.9
		c0.3-0.1,0.6-0.3,0.8-0.5l21.3,45c-4.5,2.3-6.5,7.7-4.3,12.4c2.2,4.7,7.8,6.7,12.5,4.5c3.1-1.5,5-4.4,5.3-7.6
		c2,0.7,4.2,0.6,6.2-0.3c4.1-1.9,5.9-6.8,3.9-10.9c-1.9-4.1-6.8-5.9-10.9-3.9c-0.5,0.2-0.9,0.5-1.3,0.8L-2409-177
		c0.1-0.1,0.3-0.1,0.4-0.2c4.7-2.2,6.7-7.8,4.5-12.5c-2.2-4.7-7.8-6.7-12.5-4.5C-2419.8-192.6-2421.7-189.6-2422-186.4z"/>
	<path class="st1" d="M-2113.3-775.3c-2.1,0.2-4.1,1.2-5.5,2.9c-2.9,3.5-2.5,8.6,1,11.6c3.5,2.9,8.6,2.5,11.6-1
		c0.2-0.2,0.4-0.5,0.6-0.8l38,32.1c-3.2,3.9-2.7,9.7,1.2,13c3.9,3.3,9.8,2.8,13.2-1.1c2.2-2.6,2.7-6.1,1.7-9.2
		c2.1-0.2,4.1-1.2,5.5-2.9c2.9-3.5,2.5-8.6-1-11.6c-3.5-2.9-8.6-2.5-11.6,1c-0.3,0.4-0.6,0.8-0.9,1.3l-38.1-32.2
		c0.1-0.1,0.2-0.2,0.3-0.3c3.3-3.9,2.8-9.8-1.1-13.2c-3.9-3.3-9.8-2.8-13.2,1.1C-2113.9-781.8-2114.4-778.3-2113.3-775.3z"/>
	<path class="st1" d="M-1652.1-84.9c0.4-2,0.1-4.2-1.1-6.1c-2.5-3.8-7.5-4.9-11.4-2.4c-3.8,2.5-4.9,7.5-2.4,11.4
		c0.2,0.3,0.4,0.5,0.6,0.8l-41.8,27c-2.8-4.2-8.5-5.4-12.8-2.6c-4.3,2.8-5.6,8.6-2.8,12.9c1.9,2.9,5.1,4.4,8.3,4.3
		c-0.4,2-0.1,4.2,1.1,6.1c2.5,3.8,7.5,4.9,11.4,2.4c3.8-2.5,4.9-7.5,2.4-11.4c-0.3-0.4-0.6-0.9-1-1.2l41.9-27.1
		c0.1,0.1,0.1,0.2,0.2,0.4c2.8,4.3,8.6,5.6,12.9,2.8c4.3-2.8,5.6-8.6,2.8-12.9C-1645.7-83.5-1648.9-85-1652.1-84.9z"/>
	<path class="st1" d="M-1411.9-53c-1.7-1.2-3.9-1.7-6.1-1.3c-4.5,0.8-7.5,5-6.7,9.5s5,7.5,9.5,6.7c0.3-0.1,0.6-0.1,0.9-0.2l8.5,49
		c-5,1-8.3,5.7-7.4,10.8c0.9,5.1,5.7,8.5,10.8,7.6c3.4-0.6,6-2.9,7.2-6c1.7,1.2,3.9,1.7,6.1,1.3c4.5-0.8,7.5-5,6.7-9.5
		c-0.8-4.5-5-7.5-9.5-6.7c-0.5,0.1-1,0.2-1.5,0.4l-8.5-49.1c0.1,0,0.3,0,0.4-0.1c5.1-0.9,8.5-5.7,7.6-10.8
		c-0.9-5.1-5.7-8.5-10.8-7.6C-1408.1-58.4-1410.7-56-1411.9-53z"/>
	<path class="st1" d="M-1873.5-901.6c-1,1.8-1.3,4-0.7,6.2c1.3,4.4,5.8,6.9,10.2,5.6c4.4-1.3,6.9-5.8,5.6-10.2
		c-0.1-0.3-0.2-0.6-0.3-0.9l47.8-13.9c1.5,4.8,6.6,7.6,11.5,6.2c5-1.4,7.8-6.6,6.4-11.6c-1-3.3-3.6-5.7-6.7-6.5c1-1.8,1.3-4,0.7-6.2
		c-1.3-4.4-5.8-6.9-10.2-5.6c-4.4,1.3-6.9,5.8-5.6,10.2c0.1,0.5,0.3,1,0.6,1.5l-47.9,13.9c0-0.1-0.1-0.3-0.1-0.4
		c-1.4-5-6.6-7.8-11.6-6.4c-5,1.4-7.8,6.6-6.4,11.6C-1879.2-904.7-1876.6-902.3-1873.5-901.6z"/>
	<path class="st1" d="M-2198-536c2,0.6,4.2,0.5,6.2-0.6c4-2.1,5.6-7,3.5-11.1c-2.1-4-7-5.6-11.1-3.5c-0.3,0.1-0.5,0.3-0.8,0.5
		l-22.9-44.1c4.4-2.4,6.2-8,3.8-12.5c-2.4-4.6-8-6.4-12.6-4c-3.1,1.6-4.9,4.6-5,7.8c-2-0.6-4.2-0.5-6.2,0.6c-4,2.1-5.6,7-3.5,11.1
		c2.1,4,7,5.6,11.1,3.5c0.5-0.2,0.9-0.5,1.3-0.9l23,44.2c-0.1,0.1-0.3,0.1-0.4,0.2c-4.6,2.4-6.4,8-4,12.6c2.4,4.6,8,6.4,12.6,4
		C-2200-529.8-2198.2-532.8-2198-536z"/>
	<path class="st1" d="M-1560.2,40.5c2.1,0.3,4.2-0.1,6-1.4c3.7-2.6,4.5-7.8,1.9-11.5c-2.6-3.7-7.8-4.5-11.5-1.9
		c-0.3,0.2-0.5,0.4-0.7,0.6l-29-40.4c4.1-3,4.9-8.8,2-12.9c-3-4.2-8.9-5.1-13.1-2.1c-2.8,2-4.1,5.3-3.8,8.5c-2.1-0.3-4.2,0.1-6,1.4
		c-3.7,2.6-4.5,7.8-1.9,11.5s7.8,4.5,11.5,1.9c0.4-0.3,0.8-0.7,1.2-1l29.1,40.5c-0.1,0.1-0.2,0.1-0.3,0.2c-4.2,3-5.1,8.9-2.1,13.1
		c3,4.2,8.9,5.1,13.1,2.1C-1561.2,46.9-1559.9,43.7-1560.2,40.5z"/>
	<path class="st1" d="M-1463.6-331c0.5,2,1.7,3.9,3.6,5c3.8,2.4,8.9,1.2,11.3-2.6c2.4-3.8,1.2-8.9-2.6-11.3
		c-0.3-0.2-0.5-0.3-0.8-0.4l26.3-42.2c4.4,2.6,10,1.2,12.7-3.1c2.7-4.4,1.4-10.2-3-12.9c-2.9-1.8-6.5-1.8-9.3-0.3
		c-0.5-2-1.7-3.9-3.6-5c-3.8-2.4-8.9-1.2-11.3,2.6c-2.4,3.8-1.2,8.9,2.6,11.3c0.5,0.3,0.9,0.5,1.4,0.7l-26.4,42.3
		c-0.1-0.1-0.2-0.2-0.3-0.2c-4.4-2.7-10.2-1.4-12.9,3c-2.7,4.4-1.4,10.2,3,12.9C-1469.9-329.5-1466.4-329.5-1463.6-331z"/>
	<path class="st1" d="M-1460.2-904.2c-0.5-2-1.9-3.8-3.8-4.9c-3.9-2.3-8.9-0.9-11.2,3c-2.3,3.9-0.9,8.9,3,11.2
		c0.3,0.2,0.6,0.3,0.8,0.4l-25,43c-4.4-2.5-10-0.9-12.6,3.5c-2.6,4.5-1.1,10.2,3.4,12.8c3,1.7,6.5,1.6,9.3,0c0.5,2,1.9,3.8,3.8,4.9
		c3.9,2.3,8.9,0.9,11.2-3c2.3-3.9,0.9-8.9-3-11.2c-0.5-0.3-0.9-0.5-1.4-0.7l25.1-43.1c0.1,0.1,0.2,0.2,0.3,0.2
		c4.5,2.6,10.2,1.1,12.8-3.4c2.6-4.5,1.1-10.2-3.4-12.8C-1453.9-905.9-1457.4-905.8-1460.2-904.2z"/>
	<path class="st1" d="M-1420.2-462c1.3,1.6,3.3,2.7,5.5,2.9c4.5,0.4,8.5-2.9,9-7.4c0.4-4.5-2.9-8.5-7.4-9c-0.3,0-0.6,0-0.9,0
		l4.9-49.5c5.1,0.4,9.5-3.3,10-8.4c0.5-5.1-3.3-9.7-8.4-10.2c-3.4-0.3-6.6,1.2-8.5,3.8c-1.3-1.6-3.3-2.7-5.5-2.9
		c-4.5-0.4-8.5,2.9-9,7.4c-0.4,4.5,2.9,8.5,7.4,9c0.5,0.1,1.1,0,1.6,0l-4.9,49.6c-0.1,0-0.3,0-0.4-0.1c-5.1-0.5-9.7,3.3-10.2,8.4
		c-0.5,5.1,3.3,9.7,8.4,10.2C-1425.2-457.8-1422.1-459.4-1420.2-462z"/>
	<path class="st1" d="M-1410.1-150.9c0.9-1.9,1.2-4.1,0.5-6.2c-1.4-4.3-6-6.7-10.3-5.3c-4.3,1.4-6.7,6-5.3,10.3
		c0.1,0.3,0.2,0.6,0.3,0.9l-47.3,15.4c-1.7-4.8-6.9-7.4-11.7-5.8c-4.9,1.6-7.6,6.9-6,11.8c1.1,3.3,3.8,5.6,6.9,6.2
		c-0.9,1.9-1.2,4.1-0.5,6.2c1.4,4.3,6,6.7,10.3,5.3c4.3-1.4,6.7-6,5.3-10.3c-0.2-0.5-0.4-1-0.6-1.4l47.4-15.4c0,0.1,0.1,0.3,0.1,0.4
		c1.6,4.9,6.9,7.6,11.8,6c4.9-1.6,7.6-6.9,6-11.8C-1404.3-147.9-1407-150.2-1410.1-150.9z"/>
	<path class="st1" d="M-1462.2,4c2.1-0.1,4.1-1,5.6-2.6c3.1-3.3,2.9-8.5-0.5-11.6c-3.3-3.1-8.5-2.9-11.6,0.5
		c-0.2,0.2-0.4,0.5-0.6,0.7l-36.6-33.7c3.4-3.8,3.1-9.6-0.7-13.1c-3.8-3.5-9.7-3.3-13.2,0.5c-2.3,2.5-3,6-2.1,9.1
		c-2.1,0.1-4.1,1-5.6,2.6c-3.1,3.3-2.9,8.5,0.5,11.6c3.3,3.1,8.5,2.9,11.6-0.5c0.4-0.4,0.7-0.8,0.9-1.2l36.6,33.8
		c-0.1,0.1-0.2,0.2-0.3,0.3c-3.5,3.8-3.3,9.7,0.5,13.2c3.8,3.5,9.7,3.3,13.2-0.5C-1462,10.5-1461.3,7.1-1462.2,4z"/>
	<path class="st1" d="M-2163.3-363c-0.3-2.1-1.4-4-3.2-5.3c-3.7-2.7-8.8-1.9-11.5,1.8s-1.9,8.8,1.8,11.5c0.3,0.2,0.5,0.4,0.8,0.5
		l-29.4,40.1c-4.2-2.9-9.9-2-12.9,2.1c-3.1,4.2-2.2,10,2,13.1c2.8,2,6.3,2.3,9.3,1c0.3,2.1,1.4,4,3.2,5.3c3.7,2.7,8.8,1.9,11.5-1.8
		c2.7-3.7,1.9-8.8-1.8-11.5c-0.4-0.3-0.9-0.6-1.3-0.8l29.5-40.2c0.1,0.1,0.2,0.2,0.3,0.3c4.2,3.1,10,2.2,13.1-2
		c3.1-4.2,2.2-10-2-13.1C-2156.8-364-2160.4-364.3-2163.3-363z"/>
	<path class="st1" d="M-1381.5-943.7c2,0.6,4.2,0.5,6.2-0.5c4-2.1,5.7-7,3.6-11c-2.1-4-7-5.7-11-3.6c-0.3,0.1-0.6,0.3-0.8,0.5
		l-22.5-44.4c4.5-2.4,6.2-7.9,3.9-12.5c-2.3-4.6-8-6.4-12.6-4.1c-3.1,1.6-4.9,4.6-5.1,7.8c-2-0.6-4.2-0.5-6.2,0.5c-4,2-5.7,7-3.6,11
		c2.1,4,7,5.7,11,3.6c0.5-0.2,0.9-0.5,1.3-0.8l22.5,44.5c-0.1,0.1-0.3,0.1-0.4,0.2c-4.6,2.3-6.4,8-4.1,12.6c2.3,4.6,8,6.4,12.6,4.1
		C-1383.5-937.5-1381.7-940.5-1381.5-943.7z"/>
	<path class="st1" d="M-1399.7-805.1c1.4,1.5,3.5,2.4,5.7,2.5c4.5,0.1,8.3-3.5,8.4-8c0.1-4.5-3.5-8.3-8-8.4c-0.3,0-0.6,0-0.9,0
		l1.2-49.7c5.1,0,9.2-4,9.4-9.1c0.1-5.2-4-9.5-9.1-9.6c-3.4-0.1-6.5,1.7-8.2,4.4c-1.4-1.5-3.5-2.4-5.7-2.5c-4.5-0.1-8.3,3.5-8.4,8
		c-0.1,4.5,3.5,8.3,8,8.4c0.5,0,1.1,0,1.6-0.1l-1.2,49.8c-0.1,0-0.3,0-0.4,0c-5.2-0.1-9.5,4-9.6,9.1c-0.1,5.2,4,9.5,9.1,9.6
		C-1404.4-800.6-1401.4-802.4-1399.7-805.1z"/>
	<path class="st1" d="M-1417-758.1c1-1.8,1.3-4,0.8-6.2c-1.2-4.4-5.7-6.9-10.1-5.8c-4.4,1.2-6.9,5.7-5.8,10.1
		c0.1,0.3,0.2,0.6,0.3,0.9l-48,13.1c-1.4-4.9-6.5-7.7-11.4-6.4c-5,1.4-7.9,6.5-6.6,11.5c0.9,3.3,3.5,5.7,6.6,6.6
		c-1,1.8-1.3,4-0.8,6.2c1.2,4.4,5.7,6.9,10.1,5.8c4.4-1.2,6.9-5.7,5.8-10.1c-0.1-0.5-0.3-1-0.6-1.5l48.1-13.2c0,0.1,0.1,0.3,0.1,0.4
		c1.4,5,6.5,7.9,11.5,6.6c5-1.4,7.9-6.5,6.6-11.5C-1411.3-754.8-1413.9-757.2-1417-758.1z"/>
	<path class="st1" d="M-2123.5-27.9c-0.4-2-1.5-4-3.3-5.3c-3.7-2.6-8.8-1.8-11.5,1.9c-2.6,3.7-1.8,8.8,1.9,11.5
		c0.3,0.2,0.5,0.3,0.8,0.5l-29.1,40.4c-4.2-2.9-9.9-1.9-12.9,2.2c-3,4.2-2.1,10,2.1,13.1c2.8,2,6.3,2.3,9.3,0.9c0.4,2,1.5,4,3.3,5.3
		c3.7,2.6,8.8,1.8,11.5-1.9c2.6-3.7,1.8-8.8-1.9-11.5c-0.4-0.3-0.9-0.6-1.4-0.8l29.1-40.5c0.1,0.1,0.2,0.2,0.3,0.3
		c4.2,3,10,2.1,13.1-2.1c3-4.2,2.1-10-2.1-13.1C-2117.1-29-2120.6-29.2-2123.5-27.9z"/>
	<path class="st1" d="M-2319.1-318.5c-1.8-1.1-3.9-1.5-6.1-1.1c-4.4,1-7.2,5.4-6.3,9.8c1,4.4,5.3,7.2,9.8,6.3
		c0.3-0.1,0.6-0.2,0.9-0.3l10.7,48.6c-4.9,1.2-8,6.1-6.9,11.1c1.1,5,6.1,8.2,11.1,7.1c3.4-0.7,5.9-3.2,6.9-6.3
		c1.8,1.1,3.9,1.5,6.1,1.1c4.4-1,7.2-5.4,6.3-9.8c-1-4.4-5.4-7.2-9.8-6.3c-0.5,0.1-1,0.3-1.5,0.5l-10.7-48.7c0.1,0,0.3,0,0.4-0.1
		c5-1.1,8.2-6.1,7.1-11.1c-1.1-5-6.1-8.2-11.1-7.1C-2315.6-324-2318.1-321.5-2319.1-318.5z"/>
	<path class="st1" d="M-1461.7-964.9c2-0.5,3.8-1.8,4.9-3.8c2.3-3.9,1-8.9-2.9-11.2s-8.9-1-11.2,2.9c-0.2,0.3-0.3,0.6-0.4,0.8
		l-42.9-25.2c2.5-4.4,1-10-3.4-12.6c-4.5-2.6-10.2-1.1-12.8,3.3c-1.7,3-1.7,6.5-0.1,9.3c-2,0.5-3.8,1.8-4.9,3.8
		c-2.3,3.9-1,8.9,2.9,11.2c3.9,2.3,8.9,1,11.2-2.9c0.3-0.5,0.5-0.9,0.7-1.4l43,25.3c-0.1,0.1-0.2,0.2-0.2,0.3
		c-2.6,4.5-1.1,10.2,3.3,12.8c4.5,2.6,10.2,1.1,12.8-3.3C-1460.1-958.5-1460.1-962.1-1461.7-964.9z"/>
	<path class="st1" d="M-1721-974.5c1.9-0.8,3.5-2.4,4.4-4.4c1.7-4.2-0.3-9-4.5-10.7c-4.2-1.7-9,0.3-10.7,4.5
		c-0.1,0.3-0.2,0.6-0.3,0.9l-46.1-18.8c1.8-4.7-0.5-10.1-5.2-12c-4.8-1.9-10.2,0.4-12.2,5.1c-1.3,3.2-0.7,6.7,1.3,9.2
		c-1.9,0.8-3.5,2.4-4.4,4.4c-1.7,4.2,0.3,9,4.5,10.7c4.2,1.7,9-0.3,10.7-4.5c0.2-0.5,0.3-1,0.4-1.5l46.2,18.8
		c-0.1,0.1-0.1,0.2-0.2,0.4c-1.9,4.8,0.4,10.2,5.1,12.2c4.8,1.9,10.2-0.4,12.2-5.1C-1718.5-968.5-1719.1-972-1721-974.5z"/>
	<path class="st1" d="M-1673-710.1c1.5-1.4,2.5-3.4,2.5-5.7c0.2-4.5-3.4-8.3-7.9-8.5c-4.5-0.2-8.3,3.4-8.5,7.9c0,0.3,0,0.6,0,0.9
		l-49.7-1.7c0.1-5.1-3.9-9.3-9-9.5c-5.2-0.2-9.5,3.9-9.7,9c-0.1,3.4,1.6,6.5,4.4,8.2c-1.5,1.4-2.5,3.4-2.5,5.7
		c-0.2,4.5,3.4,8.3,7.9,8.5c4.5,0.2,8.3-3.4,8.5-7.9c0-0.5,0-1.1-0.1-1.6l49.8,1.7c0,0.1,0,0.3,0,0.4c-0.2,5.2,3.9,9.5,9,9.7
		c5.2,0.2,9.5-3.9,9.7-9C-1668.6-705.3-1670.3-708.4-1673-710.1z"/>
	<path class="st1" d="M-1775-167.6c-1.9,0.8-3.5,2.4-4.3,4.4c-1.7,4.2,0.3,9,4.5,10.7c4.2,1.7,9-0.3,10.7-4.5
		c0.1-0.3,0.2-0.6,0.3-0.9l46.1,18.7c-1.8,4.7,0.5,10.1,5.2,12c4.8,1.9,10.2-0.4,12.2-5.2c1.3-3.2,0.7-6.7-1.3-9.2
		c1.9-0.8,3.5-2.4,4.3-4.4c1.7-4.2-0.3-9-4.5-10.7c-4.2-1.7-9,0.3-10.7,4.5c-0.2,0.5-0.3,1-0.4,1.5l-46.2-18.7
		c0.1-0.1,0.1-0.2,0.2-0.4c1.9-4.8-0.4-10.2-5.2-12.2c-4.8-1.9-10.2,0.4-12.2,5.2C-1777.6-173.6-1777-170.1-1775-167.6z"/>
	<path class="st1" d="M-1739.1-386.2c-1.3-1.6-3.2-2.7-5.5-3c-4.5-0.5-8.6,2.7-9.1,7.2c-0.5,4.5,2.7,8.6,7.2,9.1c0.3,0,0.6,0,0.9,0
		l-5.5,49.4c-5-0.5-9.6,3.2-10.1,8.3c-0.6,5.1,3.1,9.8,8.3,10.3c3.4,0.4,6.6-1.1,8.5-3.7c1.3,1.6,3.2,2.7,5.5,3
		c4.5,0.5,8.6-2.7,9.1-7.2c0.5-4.5-2.7-8.6-7.2-9.1c-0.5-0.1-1.1-0.1-1.6,0l5.6-49.5c0.1,0,0.3,0.1,0.4,0.1
		c5.1,0.6,9.8-3.1,10.3-8.3c0.6-5.1-3.1-9.8-8.3-10.3C-1734-390.3-1737.2-388.8-1739.1-386.2z"/>
	<path class="st1" d="M-2223.7-964.8c1.8-1,3.3-2.6,4-4.8c1.4-4.3-1-8.9-5.3-10.3c-4.3-1.4-8.9,1-10.3,5.3c-0.1,0.3-0.2,0.6-0.2,0.9
		l-47.4-15.1c1.4-4.9-1.3-10-6.1-11.5c-4.9-1.6-10.2,1.2-11.7,6.1c-1,3.3-0.2,6.7,2,9.1c-1.8,1-3.3,2.6-4,4.8
		c-1.4,4.3,1,8.9,5.3,10.3c4.3,1.4,8.9-1,10.3-5.3c0.2-0.5,0.3-1,0.3-1.5l47.5,15.1c0,0.1-0.1,0.3-0.1,0.4
		c-1.6,4.9,1.2,10.2,6.1,11.7c4.9,1.6,10.2-1.2,11.7-6.1C-2220.7-959-2221.6-962.4-2223.7-964.8z"/>
	<path class="st1" d="M-1987.3-343.8c-1.8-1.1-3.9-1.6-6.1-1.1c-4.4,1-7.2,5.3-6.3,9.8c1,4.4,5.3,7.2,9.8,6.3
		c0.3-0.1,0.6-0.2,0.9-0.3l10.5,48.6c-4.9,1.2-8,6.1-7,11.1c1.1,5,6.1,8.3,11.1,7.2c3.4-0.7,5.9-3.2,6.9-6.2
		c1.8,1.1,3.9,1.6,6.1,1.1c4.4-1,7.2-5.3,6.3-9.8c-1-4.4-5.3-7.2-9.8-6.3c-0.5,0.1-1,0.3-1.5,0.5l-10.5-48.7c0.1,0,0.3,0,0.4-0.1
		c5-1.1,8.3-6.1,7.2-11.1c-1.1-5-6.1-8.3-11.1-7.2C-1983.8-349.3-1986.3-346.9-1987.3-343.8z"/>
	<path class="st1" d="M-1427.1-289.8c-1.9-0.8-4.2-0.8-6.2,0.1c-4.2,1.8-6.1,6.6-4.4,10.8s6.6,6.1,10.8,4.4c0.3-0.1,0.6-0.3,0.8-0.4
		l19.4,45.8c-4.6,2.1-6.8,7.5-4.8,12.2c2,4.8,7.5,7,12.3,5c3.2-1.3,5.2-4.2,5.6-7.4c1.9,0.8,4.2,0.8,6.2-0.1
		c4.2-1.8,6.1-6.6,4.4-10.8c-1.8-4.2-6.6-6.1-10.8-4.4c-0.5,0.2-0.9,0.5-1.4,0.7l-19.4-45.9c0.1,0,0.3-0.1,0.4-0.1
		c4.8-2,7-7.5,5-12.3c-2-4.8-7.5-7-12.3-5C-1424.7-295.9-1426.7-293-1427.1-289.8z"/>
	<path class="st1" d="M-2101.1-281c-2.1,0-4.2,0.8-5.8,2.3c-3.3,3.2-3.3,8.4-0.2,11.6c3.2,3.3,8.4,3.3,11.6,0.2
		c0.2-0.2,0.4-0.5,0.6-0.7l34.7,35.7c-3.6,3.6-3.6,9.4,0,13.1c3.6,3.7,9.5,3.8,13.2,0.2c2.5-2.4,3.3-5.8,2.6-9
		c2.1,0,4.2-0.8,5.8-2.3c3.3-3.2,3.3-8.4,0.2-11.6c-3.2-3.3-8.4-3.3-11.6-0.2c-0.4,0.4-0.7,0.8-1,1.2l-34.7-35.7
		c0.1-0.1,0.2-0.2,0.3-0.3c3.7-3.6,3.8-9.5,0.2-13.2c-3.6-3.7-9.5-3.8-13.2-0.2C-2101-287.5-2101.9-284.1-2101.1-281z"/>
	<path class="st1" d="M-1791.6-467.3c0.6-2,0.4-4.2-0.7-6.2c-2.2-4-7.2-5.5-11.1-3.3c-4,2.2-5.5,7.2-3.3,11.1
		c0.2,0.3,0.3,0.5,0.5,0.8l-43.7,23.8c-2.5-4.4-8.1-6-12.6-3.6c-4.5,2.5-6.2,8.2-3.7,12.7c1.6,3,4.7,4.8,7.9,4.9
		c-0.6,2-0.4,4.2,0.7,6.2c2.2,4,7.2,5.5,11.1,3.3c4-2.2,5.5-7.2,3.3-11.1c-0.3-0.5-0.6-0.9-0.9-1.3l43.8-23.8
		c0.1,0.1,0.1,0.3,0.2,0.4c2.5,4.5,8.2,6.2,12.7,3.7c4.5-2.5,6.2-8.2,3.7-12.7C-1785.3-465.4-1788.4-467.2-1791.6-467.3z"/>
	<path class="st1" d="M-1981.5-970.1c-1.5,1.5-2.4,3.5-2.4,5.7c0,4.5,3.6,8.2,8.2,8.3c4.5,0,8.2-3.6,8.3-8.2c0-0.3,0-0.6-0.1-0.9
		l49.7,0.3c0.1,5.1,4.2,9.2,9.3,9.2c5.2,0,9.4-4.1,9.4-9.3c0-3.4-1.8-6.5-4.6-8.1c1.5-1.5,2.4-3.5,2.4-5.7c0-4.5-3.6-8.2-8.2-8.3
		c-4.5,0-8.2,3.6-8.3,8.2c0,0.5,0,1.1,0.1,1.6l-49.9-0.3c0-0.1,0-0.3,0-0.4c0-5.2-4.1-9.4-9.3-9.4c-5.2,0-9.4,4.1-9.4,9.3
		C-1986.2-974.8-1984.3-971.8-1981.5-970.1z"/>
	<path class="st1" d="M-1868.6-73.2c-1.7,1.2-2.9,3.1-3.3,5.3c-0.8,4.5,2.2,8.7,6.7,9.5c4.5,0.8,8.7-2.2,9.5-6.7
		c0.1-0.3,0.1-0.6,0.1-0.9l49,8.4c-0.8,5,2.6,9.7,7.7,10.6c5.1,0.9,9.9-2.5,10.8-7.6c0.6-3.4-0.7-6.7-3.2-8.7
		c1.7-1.2,2.9-3.1,3.3-5.3c0.8-4.5-2.2-8.7-6.7-9.5c-4.5-0.8-8.7,2.2-9.5,6.7c-0.1,0.5-0.1,1-0.1,1.6l-49.1-8.5
		c0-0.1,0.1-0.3,0.1-0.4c0.9-5.1-2.5-9.9-7.6-10.8c-5.1-0.9-9.9,2.5-10.8,7.6C-1872.4-78.6-1871.1-75.3-1868.6-73.2z"/>
	<path class="st1" d="M-2333.2-757.1c-1.4,1.5-2.3,3.6-2.2,5.8c0.1,4.5,3.8,8.1,8.4,8c4.5-0.1,8.1-3.8,8-8.4c0-0.3,0-0.6-0.1-0.9
		l49.7-1c0.2,5.1,4.4,9.1,9.5,9c5.2-0.1,9.3-4.4,9.2-9.5c-0.1-3.4-2-6.4-4.8-8c1.4-1.5,2.3-3.6,2.2-5.8c-0.1-4.5-3.8-8.1-8.4-8
		c-4.5,0.1-8.1,3.8-8,8.4c0,0.5,0.1,1.1,0.2,1.6l-49.8,1c0-0.1,0-0.3,0-0.4c-0.1-5.2-4.4-9.3-9.5-9.2c-5.2,0.1-9.3,4.4-9.2,9.5
		C-2338-761.6-2336-758.6-2333.2-757.1z"/>
	<path class="st1" d="M-2000.5-138.5c-1,1.8-1.3,4-0.7,6.2c1.2,4.4,5.7,6.9,10.1,5.7c4.4-1.2,6.9-5.7,5.7-10.1
		c-0.1-0.3-0.2-0.6-0.3-0.9l48-13.2c1.4,4.9,6.5,7.7,11.4,6.3c5-1.4,7.9-6.5,6.5-11.5c-0.9-3.3-3.5-5.7-6.6-6.6c1-1.8,1.3-4,0.7-6.2
		c-1.2-4.4-5.7-6.9-10.1-5.7c-4.4,1.2-6.9,5.7-5.7,10.1c0.1,0.5,0.3,1,0.6,1.5l-48.1,13.2c0-0.1-0.1-0.3-0.1-0.4
		c-1.4-5-6.5-7.9-11.5-6.5c-5,1.4-7.9,6.5-6.5,11.5C-2006.2-141.7-2003.6-139.3-2000.5-138.5z"/>
	<path class="st1" d="M-2333.1,14.1c1.1-1.7,1.6-3.9,1.2-6.1c-0.9-4.4-5.2-7.3-9.7-6.4c-4.4,0.9-7.3,5.2-6.4,9.7
		c0.1,0.3,0.1,0.6,0.2,0.9l-48.8,9.9c-1.1-4.9-6-8.1-11-7.1c-5.1,1-8.3,6-7.3,11c0.7,3.4,3.1,5.9,6.2,7c-1.1,1.7-1.6,3.9-1.2,6.1
		c0.9,4.4,5.2,7.3,9.7,6.4c4.4-0.9,7.3-5.2,6.4-9.7c-0.1-0.5-0.3-1-0.5-1.5l48.9-9.9c0,0.1,0,0.3,0.1,0.4c1,5.1,6,8.3,11,7.3
		c5.1-1,8.3-6,7.3-11C-2327.7,17.7-2330.1,15.1-2333.1,14.1z"/>
	<path class="st1" d="M-1731.3-847.6c0,2.1,0.8,4.2,2.4,5.7c3.2,3.2,8.4,3.3,11.6,0.1c3.2-3.2,3.3-8.4,0.1-11.6
		c-0.2-0.2-0.5-0.4-0.7-0.6l35.4-34.9c3.6,3.5,9.4,3.5,13.1-0.1c3.7-3.6,3.7-9.6,0.1-13.2c-2.4-2.5-5.9-3.3-9-2.5
		c0-2.1-0.8-4.2-2.4-5.7c-3.2-3.2-8.4-3.3-11.6-0.1c-3.2,3.2-3.3,8.4-0.1,11.6c0.4,0.4,0.8,0.7,1.2,1l-35.5,35
		c-0.1-0.1-0.2-0.2-0.3-0.3c-3.6-3.7-9.6-3.7-13.2-0.1c-3.7,3.6-3.7,9.6-0.1,13.2C-1737.8-847.7-1734.4-846.8-1731.3-847.6z"/>
	<path class="st1" d="M-2421-578.9c-1.5-1.5-3.5-2.4-5.7-2.5c-4.5-0.1-8.3,3.5-8.3,8.1c-0.1,4.5,3.5,8.3,8.1,8.3c0.3,0,0.6,0,0.9,0
		l-0.8,49.7c-5.1,0-9.2,4.1-9.3,9.2c-0.1,5.2,4,9.4,9.2,9.5c3.4,0.1,6.5-1.8,8.1-4.5c1.5,1.5,3.5,2.4,5.7,2.5
		c4.5,0.1,8.3-3.5,8.3-8.1c0.1-4.5-3.5-8.3-8.1-8.3c-0.5,0-1.1,0-1.6,0.1l0.8-49.8c0.1,0,0.3,0,0.4,0c5.2,0.1,9.4-4,9.5-9.2
		c0.1-5.2-4-9.4-9.2-9.5C-2416.3-583.5-2419.3-581.7-2421-578.9z"/>
	<path class="st1" d="M-1518.5-580.9c-1.5-1.4-3.6-2.3-5.8-2.2c-4.5,0.1-8.1,3.9-8,8.4c0.1,4.5,3.9,8.1,8.4,8c0.3,0,0.6,0,0.9-0.1
		l1.5,49.7c-5.1,0.3-9,4.5-8.9,9.6c0.2,5.2,4.5,9.2,9.6,9.1c3.4-0.1,6.4-2.1,7.9-4.9c1.5,1.4,3.6,2.3,5.8,2.2c4.5-0.1,8.1-3.9,8-8.4
		c-0.1-4.5-3.9-8.1-8.4-8c-0.5,0-1.1,0.1-1.6,0.2l-1.5-49.8c0.1,0,0.3,0,0.4,0c5.2-0.2,9.2-4.5,9.1-9.6c-0.2-5.2-4.5-9.2-9.6-9.1
		C-1514.1-585.6-1517-583.7-1518.5-580.9z"/>
	<path class="st1" d="M-2410.7-323.3c-1.4-1.5-3.4-2.4-5.7-2.5c-4.5-0.1-8.3,3.5-8.4,8c-0.1,4.5,3.5,8.3,8,8.4c0.3,0,0.6,0,0.9,0
		l-1.3,49.7c-5.1,0-9.3,4-9.4,9.1c-0.1,5.2,3.9,9.5,9.1,9.6c3.4,0.1,6.5-1.7,8.2-4.4c1.4,1.5,3.4,2.4,5.7,2.5c4.5,0.1,8.3-3.5,8.4-8
		c0.1-4.5-3.5-8.3-8-8.4c-0.5,0-1.1,0-1.6,0.1l1.3-49.8c0.1,0,0.3,0,0.4,0c5.2,0.1,9.5-3.9,9.6-9.1c0.1-5.2-3.9-9.5-9.1-9.6
		C-2405.9-327.8-2409-326-2410.7-323.3z"/>
	<path class="st1" d="M-2160.9-789.1c2.1-0.3,4-1.4,5.3-3.2c2.7-3.6,1.9-8.8-1.7-11.5c-3.6-2.7-8.8-1.9-11.5,1.7
		c-0.2,0.3-0.4,0.5-0.5,0.8l-40-29.6c2.9-4.1,2-9.9-2.1-12.9c-4.2-3.1-10-2.2-13.1,2c-2,2.8-2.3,6.3-1.1,9.2c-2.1,0.3-4,1.4-5.3,3.2
		c-2.7,3.6-1.9,8.8,1.7,11.5c3.6,2.7,8.8,1.9,11.5-1.7c0.3-0.4,0.6-0.9,0.8-1.3l40.1,29.6c-0.1,0.1-0.2,0.2-0.3,0.3
		c-3.1,4.2-2.2,10,2,13.1c4.2,3.1,10,2.2,13.1-2C-2159.9-782.6-2159.6-786.1-2160.9-789.1z"/>
	<path class="st1" d="M-2356.2-524.2c-1.2,1.7-1.9,3.8-1.5,6c0.6,4.5,4.8,7.6,9.3,7c4.5-0.6,7.6-4.8,7-9.3c0-0.3-0.1-0.6-0.2-0.9
		l49.3-6.8c0.8,5,5.5,8.5,10.5,7.8c5.1-0.7,8.7-5.4,8-10.5c-0.5-3.4-2.7-6.1-5.7-7.4c1.2-1.7,1.9-3.8,1.5-6c-0.6-4.5-4.8-7.6-9.3-7
		s-7.6,4.8-7,9.3c0.1,0.5,0.2,1,0.4,1.5l-49.4,6.8c0-0.1,0-0.3,0-0.4c-0.7-5.1-5.4-8.7-10.5-8c-5.1,0.7-8.7,5.4-8,10.5
		C-2361.5-528.1-2359.2-525.4-2356.2-524.2z"/>
	<path class="st1" d="M-1947.1-38.3c-2.1-0.2-4.2,0.4-5.9,1.9c-3.5,2.9-3.9,8.1-1,11.6c2.9,3.5,8.1,3.9,11.6,1
		c0.2-0.2,0.5-0.4,0.7-0.6l31.9,38.2c-3.8,3.3-4.3,9.1-1,13c3.3,4,9.2,4.5,13.2,1.2c2.6-2.2,3.7-5.6,3.2-8.7
		c2.1,0.2,4.2-0.4,5.9-1.9c3.5-2.9,3.9-8.1,1-11.6c-2.9-3.5-8.1-3.9-11.6-1c-0.4,0.3-0.8,0.7-1.1,1.1l-32-38.2
		c0.1-0.1,0.2-0.2,0.3-0.3c4-3.3,4.5-9.2,1.2-13.2s-9.2-4.5-13.2-1.2C-1946.5-44.9-1947.6-41.5-1947.1-38.3z"/>
	<path class="st1" d="M-2102.6-539.8c-1.6,1.3-2.7,3.2-3,5.5c-0.5,4.5,2.8,8.6,7.3,9.1c4.5,0.5,8.6-2.8,9.1-7.3c0-0.3,0-0.6,0-0.9
		l49.4,5.4c-0.4,5.1,3.2,9.6,8.3,10.1c5.1,0.6,9.8-3.1,10.3-8.3c0.4-3.4-1.2-6.6-3.7-8.5c1.6-1.3,2.7-3.2,3-5.5
		c0.5-4.5-2.8-8.6-7.3-9.1c-4.5-0.5-8.6,2.8-9.1,7.3c-0.1,0.5-0.1,1.1,0,1.6l-49.6-5.4c0-0.1,0.1-0.3,0.1-0.4
		c0.6-5.1-3.1-9.8-8.3-10.3c-5.1-0.6-9.8,3.1-10.3,8.3C-2106.7-544.9-2105.2-541.7-2102.6-539.8z"/>
	<path class="st1" d="M-1616.6-167.4c-2.1-0.3-4.2,0.2-6,1.5c-3.7,2.7-4.4,7.8-1.7,11.5c2.7,3.7,7.8,4.4,11.5,1.7
		c0.3-0.2,0.5-0.4,0.7-0.6l29.5,40.1c-4,3.1-4.8,8.8-1.8,12.9c3.1,4.2,8.9,5.1,13.1,2c2.8-2,4.1-5.3,3.7-8.5c2.1,0.3,4.2-0.2,6-1.5
		c3.7-2.7,4.4-7.8,1.7-11.5c-2.7-3.7-7.8-4.4-11.5-1.7c-0.4,0.3-0.8,0.7-1.2,1l-29.5-40.2c0.1-0.1,0.2-0.1,0.3-0.2
		c4.2-3.1,5.1-8.9,2-13.1c-3.1-4.2-8.9-5.1-13.1-2C-1615.6-173.9-1616.9-170.6-1616.6-167.4z"/>
	<path class="st1" d="M-1933.2-845.5c-0.3-2.1-1.3-4-3.1-5.4c-3.6-2.8-8.7-2.2-11.5,1.4c-2.8,3.6-2.2,8.7,1.4,11.5
		c0.2,0.2,0.5,0.4,0.8,0.5l-30.8,39.1c-4.1-3-9.8-2.3-13,1.7c-3.2,4.1-2.5,9.9,1.6,13.1c2.7,2.1,6.2,2.5,9.2,1.3
		c0.3,2.1,1.3,4,3.1,5.4c3.6,2.8,8.7,2.2,11.5-1.4c2.8-3.6,2.2-8.7-1.4-11.5c-0.4-0.3-0.9-0.6-1.3-0.8l30.8-39.2
		c0.1,0.1,0.2,0.2,0.3,0.3c4.1,3.2,9.9,2.5,13.1-1.6c3.2-4.1,2.5-9.9-1.6-13.1C-1926.7-846.3-1930.2-846.7-1933.2-845.5z"/>
	<path class="st1" d="M-2385.5-903.6c-1.8-1.1-4-1.4-6.2-0.9c-4.4,1.1-7.1,5.6-6,10c1.1,4.4,5.6,7.1,10,6c0.3-0.1,0.6-0.2,0.9-0.3
		l12.1,48.3c-4.9,1.3-7.8,6.3-6.6,11.3c1.3,5,6.3,8.1,11.3,6.8c3.3-0.8,5.8-3.4,6.7-6.5c1.8,1.1,4,1.4,6.2,0.9c4.4-1.1,7.1-5.6,6-10
		c-1.1-4.4-5.6-7.1-10-6c-0.5,0.1-1,0.3-1.5,0.5l-12.1-48.4c0.1,0,0.3,0,0.4-0.1c5-1.3,8.1-6.3,6.8-11.3c-1.3-5-6.3-8.1-11.3-6.8
		C-2382.2-909.2-2384.6-906.6-2385.5-903.6z"/>
	<path class="st1" d="M-2413.3-4.8c1.5,1.5,3.5,2.4,5.7,2.4c4.5,0,8.2-3.6,8.3-8.2c0-4.5-3.6-8.2-8.2-8.3c-0.3,0-0.6,0-0.9,0.1
		l0.3-49.7c5.1-0.1,9.2-4.2,9.2-9.3c0-5.2-4.1-9.4-9.3-9.4c-3.4,0-6.5,1.8-8.1,4.6c-1.5-1.5-3.5-2.4-5.7-2.4c-4.5,0-8.2,3.6-8.3,8.2
		c0,4.5,3.6,8.2,8.2,8.3c0.5,0,1.1,0,1.6-0.1l-0.3,49.9c-0.1,0-0.3,0-0.4,0c-5.2,0-9.4,4.1-9.4,9.3c0,5.2,4.1,9.4,9.3,9.4
		C-2417.9-0.2-2414.9-2.1-2413.3-4.8z"/>
	<path class="st1" d="M-1820.9-181.9c2-0.5,3.9-1.7,5.1-3.6c2.5-3.8,1.4-8.9-2.4-11.4c-3.8-2.5-8.9-1.4-11.4,2.4
		c-0.2,0.3-0.3,0.5-0.5,0.8l-41.8-27c2.7-4.3,1.4-10-2.9-12.8c-4.3-2.8-10.1-1.6-12.9,2.8c-1.9,2.9-1.9,6.4-0.5,9.3
		c-2,0.5-3.9,1.7-5.1,3.6c-2.5,3.8-1.4,8.9,2.4,11.4c3.8,2.5,8.9,1.4,11.4-2.4c0.3-0.4,0.5-0.9,0.7-1.4l41.9,27
		c-0.1,0.1-0.2,0.2-0.2,0.3c-2.8,4.3-1.6,10.1,2.8,12.9c4.3,2.8,10.1,1.6,12.9-2.8C-1819.5-175.5-1819.4-179-1820.9-181.9z"/>
	<path class="st1" d="M-2033-863.2c2-0.4,3.9-1.5,5.2-3.4c2.6-3.7,1.7-8.8-2-11.4c-3.7-2.6-8.8-1.7-11.4,2c-0.2,0.3-0.3,0.5-0.5,0.8
		l-40.8-28.5c2.8-4.2,1.8-9.9-2.4-12.8c-4.2-3-10.1-1.9-13,2.3c-2,2.8-2.2,6.4-0.8,9.3c-2,0.4-3.9,1.5-5.2,3.4
		c-2.6,3.7-1.7,8.8,2,11.4c3.7,2.6,8.8,1.7,11.4-2c0.3-0.4,0.6-0.9,0.8-1.4l40.9,28.5c-0.1,0.1-0.2,0.2-0.3,0.3
		c-3,4.2-1.9,10.1,2.3,13c4.2,3,10.1,1.9,13-2.3C-2031.8-856.8-2031.7-860.3-2033-863.2z"/>
	<path class="st1" d="M-2068.7,20.6c-1.5,1.4-2.5,3.4-2.6,5.6c-0.2,4.5,3.3,8.4,7.8,8.6c4.5,0.2,8.4-3.3,8.6-7.8c0-0.3,0-0.6,0-0.9
		l49.7,2.5c-0.1,5.1,3.8,9.3,8.9,9.6c5.2,0.3,9.5-3.7,9.8-8.9c0.2-3.4-1.5-6.5-4.2-8.3c1.5-1.4,2.5-3.4,2.6-5.6
		c0.2-4.5-3.3-8.4-7.8-8.6c-4.5-0.2-8.4,3.3-8.6,7.8c0,0.5,0,1.1,0.1,1.6l-49.8-2.5c0-0.1,0-0.3,0-0.4c0.3-5.2-3.7-9.5-8.9-9.8
		c-5.2-0.3-9.5,3.7-9.8,8.9C-2073.1,15.8-2071.3,18.9-2068.7,20.6z"/>
	<path class="st1" d="M-1770.2-774.1c2.1,0.3,4.2-0.1,6-1.5c3.7-2.7,4.5-7.8,1.9-11.5c-2.7-3.7-7.8-4.5-11.5-1.9
		c-0.3,0.2-0.5,0.4-0.7,0.6l-29.1-40.4c4-3.1,4.9-8.8,2-12.9c-3-4.2-8.9-5.1-13.1-2.1c-2.8,2-4.1,5.3-3.8,8.5
		c-2.1-0.3-4.2,0.1-6,1.5c-3.7,2.7-4.5,7.8-1.9,11.5c2.7,3.7,7.8,4.5,11.5,1.9c0.4-0.3,0.8-0.7,1.2-1l29.2,40.4
		c-0.1,0.1-0.2,0.1-0.3,0.2c-4.2,3-5.1,8.9-2.1,13.1c3,4.2,8.9,5.1,13.1,2.1C-1771.2-767.6-1769.9-770.9-1770.2-774.1z"/>
	<path class="st1" d="M-1539-873.1c1.9-0.7,3.6-2.2,4.5-4.2c1.9-4.1,0.1-9-4-10.9c-4.1-1.9-9-0.1-10.9,4c-0.1,0.3-0.2,0.6-0.3,0.9
		L-1595-904c2-4.7-0.1-10.1-4.7-12.2c-4.7-2.2-10.2-0.1-12.4,4.6c-1.4,3.1-1,6.6,0.9,9.3c-1.9,0.7-3.6,2.2-4.5,4.2
		c-1.9,4.1-0.1,9,4,10.9c4.1,1.9,9,0.1,10.9-4c0.2-0.5,0.4-1,0.5-1.5l45.3,20.7c-0.1,0.1-0.1,0.2-0.2,0.4
		c-2.2,4.7-0.1,10.2,4.6,12.4c4.7,2.1,10.2,0.1,12.4-4.6C-1536.7-866.9-1537.2-870.4-1539-873.1z"/>
	<path class="st1" d="M-1713.6-222.6c-0.6,2-0.5,4.2,0.6,6.2c2.1,4,7.1,5.6,11.1,3.5c4-2.1,5.6-7,3.5-11.1c-0.1-0.3-0.3-0.5-0.5-0.8
		l44.1-23c2.4,4.4,8,6.2,12.5,3.8c4.6-2.4,6.4-8,4-12.6c-1.6-3.1-4.6-4.9-7.8-5c0.6-2,0.5-4.2-0.6-6.2c-2.1-4-7.1-5.6-11.1-3.5
		c-4,2.1-5.6,7-3.5,11.1c0.2,0.5,0.5,0.9,0.9,1.3l-44.2,23c-0.1-0.1-0.1-0.3-0.2-0.4c-2.4-4.6-8-6.4-12.6-4c-4.6,2.4-6.4,8-4,12.6
		C-1719.8-224.6-1716.8-222.8-1713.6-222.6z"/>
	<path class="st1" d="M-2098.1-431.5c-2,0.7-3.6,2.1-4.6,4.2c-2,4.1-0.3,9,3.8,11c4.1,2,9,0.3,11-3.8c0.1-0.3,0.3-0.6,0.4-0.9
		l44.8,21.6c-2.1,4.6-0.1,10.1,4.4,12.3c4.7,2.2,10.2,0.3,12.5-4.4c1.5-3.1,1.1-6.6-0.7-9.3c2-0.7,3.6-2.1,4.6-4.2
		c2-4.1,0.3-9-3.8-11c-4.1-2-9-0.3-11,3.8c-0.2,0.5-0.4,1-0.5,1.5l-44.9-21.7c0.1-0.1,0.1-0.2,0.2-0.4c2.2-4.7,0.3-10.2-4.4-12.5
		c-4.7-2.2-10.2-0.3-12.5,4.4C-2100.3-437.7-2099.9-434.1-2098.1-431.5z"/>
	<path class="st1" d="M-2164-636.5c1.8,1,4,1.2,6.2,0.6c4.3-1.3,6.8-5.9,5.5-10.2c-1.3-4.3-5.9-6.8-10.2-5.5
		c-0.3,0.1-0.6,0.2-0.9,0.3l-14.5-47.6c4.8-1.6,7.5-6.7,6-11.6c-1.5-4.9-6.7-7.7-11.7-6.2c-3.3,1-5.6,3.7-6.4,6.8
		c-1.8-1-4-1.2-6.2-0.6c-4.3,1.3-6.8,5.9-5.5,10.2c1.3,4.3,5.9,6.8,10.2,5.5c0.5-0.2,1-0.4,1.4-0.6l14.6,47.7
		c-0.1,0-0.3,0.1-0.4,0.1c-4.9,1.5-7.7,6.7-6.2,11.7c1.5,4.9,6.7,7.7,11.7,6.2C-2167.1-630.7-2164.7-633.4-2164-636.5z"/>
	<path class="st1" d="M-2425.6-988.9c-1.9,0.9-3.5,2.4-4.3,4.5c-1.6,4.2,0.5,9,4.7,10.6c4.2,1.6,9-0.5,10.6-4.7
		c0.1-0.3,0.2-0.6,0.3-0.9l46.4,17.9c-1.7,4.8,0.7,10.1,5.4,11.9c4.8,1.9,10.2-0.5,12.1-5.4c1.2-3.2,0.6-6.7-1.4-9.2
		c1.9-0.9,3.5-2.4,4.3-4.5c1.6-4.2-0.5-9-4.7-10.6c-4.2-1.6-9,0.5-10.6,4.7c-0.2,0.5-0.3,1-0.4,1.5l-46.5-17.9
		c0.1-0.1,0.1-0.2,0.2-0.4c1.9-4.8-0.5-10.2-5.4-12.1c-4.8-1.9-10.2,0.5-12.1,5.4C-2428.2-994.9-2427.6-991.5-2425.6-988.9z"/>
	<path class="st1" d="M-2417.5-699.4c1.5,1.5,3.5,2.4,5.7,2.4c4.5,0.1,8.3-3.6,8.3-8.1c0.1-4.5-3.6-8.3-8.1-8.3c-0.3,0-0.6,0-0.9,0
		l0.7-49.7c5.1,0,9.2-4.1,9.3-9.2c0.1-5.2-4.1-9.4-9.2-9.5c-3.4,0-6.5,1.8-8.1,4.5c-1.5-1.5-3.5-2.4-5.7-2.4
		c-4.5-0.1-8.3,3.6-8.3,8.1c-0.1,4.5,3.6,8.3,8.1,8.3c0.5,0,1.1,0,1.6-0.1l-0.7,49.8c-0.1,0-0.3,0-0.4,0c-5.2-0.1-9.4,4.1-9.5,9.2
		c-0.1,5.2,4.1,9.4,9.2,9.5C-2422.2-694.8-2419.2-696.6-2417.5-699.4z"/>
	<path class="st1" d="M-1899.8-566.5c0.1,2.1,1,4.1,2.6,5.6c3.3,3.1,8.5,2.9,11.6-0.4c3.1-3.3,2.9-8.5-0.4-11.6
		c-0.2-0.2-0.5-0.4-0.7-0.6l33.9-36.4c3.8,3.4,9.6,3.1,13.1-0.6c3.5-3.8,3.3-9.7-0.5-13.2c-2.5-2.3-6-3-9.1-2.1
		c-0.1-2.1-1-4.1-2.6-5.6c-3.3-3.1-8.5-2.9-11.6,0.4c-3.1,3.3-2.9,8.5,0.4,11.6c0.4,0.4,0.8,0.7,1.2,1l-34,36.5
		c-0.1-0.1-0.2-0.2-0.3-0.3c-3.8-3.5-9.7-3.3-13.2,0.5c-3.5,3.8-3.3,9.7,0.5,13.2C-1906.4-566.2-1902.9-565.5-1899.8-566.5z"/>
	<path class="st1" d="M-2135.3-990.7c-1.5,1.5-2.4,3.5-2.4,5.7c0,4.5,3.7,8.2,8.2,8.2c4.5,0,8.2-3.7,8.2-8.2c0-0.3,0-0.6-0.1-0.9
		l49.7,0.1c0.1,5.1,4.2,9.2,9.3,9.2c5.2,0,9.4-4.2,9.4-9.3c0-3.4-1.9-6.5-4.6-8.1c1.5-1.5,2.4-3.5,2.4-5.7c0-4.5-3.7-8.2-8.2-8.2
		c-4.5,0-8.2,3.7-8.2,8.2c0,0.5,0.1,1.1,0.1,1.6l-49.9-0.1c0-0.1,0-0.3,0-0.4c0-5.2-4.2-9.4-9.3-9.4c-5.2,0-9.4,4.2-9.4,9.3
		C-2139.9-995.3-2138-992.3-2135.3-990.7z"/>
	<path class="st1" d="M-2186.4-449.9c0.9-1.9,1.1-4.1,0.4-6.2c-1.5-4.3-6.1-6.6-10.4-5.1c-4.3,1.5-6.6,6.1-5.1,10.4
		c0.1,0.3,0.2,0.6,0.4,0.9l-47.1,16c-1.7-4.8-7-7.3-11.8-5.7c-4.9,1.7-7.5,7-5.9,11.9c1.1,3.3,3.8,5.5,7,6.2
		c-0.9,1.9-1.1,4.1-0.4,6.2c1.5,4.3,6.1,6.6,10.4,5.1c4.3-1.5,6.6-6.1,5.1-10.4c-0.2-0.5-0.4-1-0.6-1.4l47.2-16
		c0,0.1,0.1,0.3,0.1,0.4c1.7,4.9,7,7.5,11.9,5.9c4.9-1.7,7.5-7,5.9-11.9C-2180.5-447-2183.2-449.2-2186.4-449.9z"/>
	<path class="st1" d="M-2412.1-416.8c-1.8,1.1-3.2,2.8-3.7,5c-1.1,4.4,1.5,8.9,5.9,10c4.4,1.1,8.9-1.5,10-5.9
		c0.1-0.3,0.1-0.6,0.2-0.9l48.1,12.6c-1.2,4.9,1.8,9.9,6.7,11.2c5,1.3,10.1-1.7,11.4-6.7c0.9-3.3-0.2-6.7-2.4-9
		c1.8-1.1,3.2-2.8,3.7-5c1.1-4.4-1.5-8.9-5.9-10c-4.4-1.1-8.9,1.5-10,5.9c-0.1,0.5-0.2,1-0.2,1.5l-48.2-12.6c0-0.1,0.1-0.3,0.1-0.4
		c1.3-5-1.7-10.1-6.7-11.4c-5-1.3-10.1,1.7-11.4,6.7C-2415.4-422.5-2414.3-419.1-2412.1-416.8z"/>
	<path class="st1" d="M-2317.3-90c1,1.8,2.7,3.3,4.8,3.9c4.3,1.3,8.9-1.1,10.2-5.5c1.3-4.3-1.1-8.9-5.5-10.2
		c-0.3-0.1-0.6-0.2-0.9-0.2l14.4-47.6c4.9,1.4,10-1.4,11.5-6.3c1.5-4.9-1.3-10.2-6.3-11.7c-3.3-1-6.7-0.1-9.1,2.1
		c-1-1.8-2.7-3.3-4.8-3.9c-4.3-1.3-8.9,1.1-10.2,5.5c-1.3,4.3,1.1,8.9,5.5,10.2c0.5,0.2,1,0.3,1.5,0.3l-14.4,47.7
		c-0.1,0-0.3-0.1-0.4-0.1c-4.9-1.5-10.2,1.3-11.7,6.3c-1.5,4.9,1.3,10.2,6.3,11.7C-2323.1-86.9-2319.6-87.8-2317.3-90z"/>
	<path class="st1" d="M-2178.6-130.7c-0.4-2-1.5-4-3.3-5.2c-3.7-2.6-8.8-1.7-11.4,2c-2.6,3.7-1.7,8.8,2,11.4
		c0.3,0.2,0.5,0.3,0.8,0.5l-28.8,40.6c-4.2-2.8-9.9-1.8-12.9,2.3c-3,4.2-2,10.1,2.2,13c2.8,2,6.3,2.2,9.3,0.9c0.4,2,1.5,4,3.3,5.2
		c3.7,2.6,8.8,1.7,11.4-2c2.6-3.7,1.7-8.8-2-11.4c-0.4-0.3-0.9-0.6-1.4-0.8l28.8-40.7c0.1,0.1,0.2,0.2,0.3,0.3c4.2,3,10.1,2,13-2.2
		c3-4.2,2-10.1-2.2-13C-2172.2-131.8-2175.7-132-2178.6-130.7z"/>
	<path class="st1" d="M-2137.6-197.1c1.8-1.1,3.1-2.9,3.6-5c1.1-4.4-1.6-8.8-6-9.9s-8.8,1.6-9.9,6c-0.1,0.3-0.1,0.6-0.2,0.9
		l-48.3-11.8c1.1-5-2-9.9-6.9-11.1c-5-1.2-10.1,1.9-11.3,6.9c-0.8,3.3,0.3,6.7,2.6,8.9c-1.8,1.1-3.1,2.9-3.6,5
		c-1.1,4.4,1.6,8.8,6,9.9c4.4,1.1,8.8-1.6,9.9-6c0.1-0.5,0.2-1,0.2-1.6l48.4,11.8c0,0.1-0.1,0.3-0.1,0.4c-1.2,5,1.9,10.1,6.9,11.3
		c5,1.2,10.1-1.9,11.3-6.9C-2134.2-191.5-2135.3-194.9-2137.6-197.1z"/>
	<path class="st1" d="M-2362.4-622.6c0.2,2.1,1.2,4.1,2.9,5.5c3.5,2.9,8.6,2.5,11.6-0.9c2.9-3.5,2.5-8.6-0.9-11.6
		c-0.2-0.2-0.5-0.4-0.8-0.6l32.2-37.9c3.9,3.2,9.7,2.7,13-1.2c3.3-3.9,2.9-9.8-1.1-13.2c-2.6-2.2-6.1-2.7-9.2-1.7
		c-0.2-2.1-1.2-4.1-2.9-5.5c-3.5-2.9-8.6-2.5-11.6,0.9c-2.9,3.5-2.5,8.6,0.9,11.6c0.4,0.3,0.8,0.6,1.3,0.9l-32.3,38
		c-0.1-0.1-0.2-0.2-0.3-0.3c-3.9-3.3-9.8-2.9-13.2,1.1c-3.3,3.9-2.9,9.8,1.1,13.2C-2368.9-622-2365.4-621.5-2362.4-622.6z"/>
	<path class="st1" d="M-2111.7-96.7c-1.6,1.3-2.7,3.3-2.9,5.5c-0.4,4.5,2.9,8.5,7.4,9c4.5,0.4,8.5-2.9,9-7.4c0-0.3,0-0.6,0-0.9
		l49.5,4.9c-0.4,5.1,3.3,9.5,8.4,10c5.1,0.5,9.7-3.3,10.2-8.4c0.3-3.4-1.2-6.6-3.8-8.5c1.6-1.3,2.7-3.3,2.9-5.5
		c0.4-4.5-2.9-8.5-7.4-9c-4.5-0.4-8.5,2.9-9,7.4c-0.1,0.5,0,1.1,0,1.6l-49.6-4.9c0-0.1,0-0.3,0.1-0.4c0.5-5.1-3.3-9.7-8.4-10.2
		c-5.1-0.5-9.7,3.3-10.2,8.4C-2115.9-101.8-2114.3-98.6-2111.7-96.7z"/>
	<path class="st1" d="M-1907.6-740.8c-2.1,0.1-4.1,1-5.6,2.7c-3,3.4-2.7,8.6,0.6,11.6c3.4,3,8.6,2.7,11.6-0.6
		c0.2-0.2,0.4-0.5,0.6-0.7l37.1,33.2c-3.3,3.9-2.9,9.6,0.9,13c3.8,3.4,9.8,3.1,13.2-0.7c2.3-2.6,2.9-6.1,1.9-9.1
		c2.1-0.1,4.1-1,5.6-2.7c3-3.4,2.7-8.6-0.6-11.6c-3.4-3-8.6-2.7-11.6,0.6c-0.4,0.4-0.7,0.8-0.9,1.3l-37.1-33.3
		c0.1-0.1,0.2-0.2,0.3-0.3c3.4-3.8,3.1-9.8-0.7-13.2c-3.8-3.4-9.8-3.1-13.2,0.7C-1908-747.3-1908.6-743.8-1907.6-740.8z"/>
	<path class="st1" d="M-1556.1-336c1.8-1,3.2-2.7,3.9-4.9c1.3-4.4-1.2-8.9-5.6-10.2c-4.4-1.3-8.9,1.2-10.2,5.6
		c-0.1,0.3-0.2,0.6-0.2,0.9l-47.7-14c1.3-4.9-1.5-10-6.4-11.4c-5-1.4-10.2,1.4-11.6,6.4c-1,3.3,0,6.7,2.2,9c-1.8,1-3.2,2.7-3.9,4.9
		c-1.3,4.4,1.2,8.9,5.6,10.2c4.4,1.3,8.9-1.2,10.2-5.6c0.1-0.5,0.2-1,0.3-1.5l47.9,14c0,0.1-0.1,0.3-0.1,0.4
		c-1.4,5,1.4,10.2,6.4,11.6c5,1.4,10.2-1.4,11.6-6.4C-1552.9-330.3-1553.8-333.7-1556.1-336z"/>
	<path class="st1" d="M-1704.8,25.4c1.5-1.4,2.5-3.4,2.5-5.7c0.1-4.5-3.4-8.3-7.9-8.5c-4.5-0.1-8.3,3.4-8.5,7.9c0,0.3,0,0.6,0,0.9
		l-49.7-1.6c0-5.1-4-9.3-9.1-9.4c-5.2-0.2-9.5,3.9-9.6,9.1c-0.1,3.4,1.7,6.5,4.4,8.2c-1.5,1.4-2.5,3.4-2.5,5.7
		c-0.1,4.5,3.4,8.3,7.9,8.5c4.5,0.1,8.3-3.4,8.5-7.9c0-0.5,0-1.1-0.1-1.6l49.8,1.6c0,0.1,0,0.3,0,0.4c-0.2,5.2,3.9,9.5,9.1,9.6
		c5.2,0.2,9.5-3.9,9.6-9.1C-1700.3,30.2-1702,27.1-1704.8,25.4z"/>
	<path class="st1" d="M-1865.5-366.3c-1.4-1.5-3.4-2.5-5.6-2.6c-4.5-0.2-8.4,3.3-8.6,7.8c-0.2,4.5,3.3,8.4,7.8,8.6
		c0.3,0,0.6,0,0.9,0l-2.5,49.7c-5.1-0.1-9.3,3.8-9.6,8.9c-0.3,5.2,3.7,9.5,8.9,9.8c3.4,0.2,6.5-1.5,8.3-4.2c1.4,1.5,3.4,2.5,5.6,2.6
		c4.5,0.2,8.4-3.3,8.6-7.8c0.2-4.5-3.3-8.4-7.8-8.6c-0.5,0-1.1,0-1.6,0.1l2.5-49.8c0.1,0,0.3,0,0.4,0c5.2,0.3,9.5-3.7,9.8-8.9
		c0.3-5.2-3.7-9.5-8.9-9.8C-1860.6-370.7-1863.7-369-1865.5-366.3z"/>
</g>
<g>
	<path class="st0" d="M120.4,26.4c5.2,0,10,0.4,14.5,1.3c4.5,0.9,8.6,2,12.3,3.3c3.7,1.4,6.9,2.8,9.6,4.3c2.7,1.5,4.9,2.9,6.6,4.1
		V31h38.2v63.1h-40.5c0-5.2-0.6-9.5-1.9-13c-1.3-3.5-3-6.3-5.1-8.5c-2.1-2.2-4.6-3.7-7.5-4.6c-2.9-0.9-5.9-1.4-9.3-1.4
		c-4.6,0-8.5,0.9-11.7,2.6c-3.2,1.7-5.9,4.5-7.9,8.4c-2,3.9-3.6,9-4.6,15.4c-1,6.4-1.6,14.2-1.6,23.4c0,9.3,0.6,17.2,1.7,23.4
		c1.1,6.3,2.8,11.4,5.1,15.3c2.3,3.9,5.2,6.7,8.7,8.5c3.5,1.7,7.8,2.6,12.7,2.6c3.3,0,6.5-0.6,9.6-1.9c3.1-1.3,5.8-3.2,8.2-5.8
		c2.4-2.6,4.2-5.9,5.6-9.8c1.3-3.9,2-8.7,2-14.2h40.3c0,9.8-1.5,19.1-4.6,27.8c-3.1,8.7-7.9,16.4-14.5,22.9
		c-6.6,6.6-14.9,11.8-25,15.6c-10.1,3.9-22.1,5.8-36,5.8c-12.5,0-24.3-1.7-35.5-5.1c-11.2-3.4-20.9-8.7-29.2-16
		c-8.3-7.3-14.9-16.6-19.7-28c-4.8-11.4-7.2-25.1-7.2-41s2.4-29.7,7.4-41c4.9-11.4,11.4-20.7,19.5-28c8.1-7.3,17.3-12.6,27.6-16
		C98.6,28.1,109.3,26.4,120.4,26.4z"/>
	<path class="st0" d="M281.6,90c-3.9,0-7.3,0.3-10.1,0.9c-2.8,0.6-5.2,1.3-7.2,2c-2,0.8-3.7,1.6-5,2.6c-1.3,1-2.5,1.8-3.5,2.6
		l1.2,1.2c1.5-0.8,3.1-1.5,4.8-2.3c1.7-0.8,4-1.2,6.7-1.2c4.6,0,8.5,1.5,11.8,4.5c3.3,3,5,7.7,5,14.2c0,6.2-2.5,11.1-7.6,14.9
		c-5.1,3.7-11.8,5.6-20.3,5.6c-8.1,0-14.6-2.3-19.4-7c-4.8-4.7-7.2-11.3-7.2-19.9c0-4.7,1.3-9.4,3.9-14.1c2.6-4.7,6.7-8.9,12.2-12.6
		c5.5-3.7,12.5-6.8,21.1-9.1c8.5-2.4,18.8-3.6,30.9-3.6c14.4,0,26.1,1.4,35.2,4.1c9.1,2.7,16.2,6.2,21.2,10.4
		c5.1,4.2,8.5,9.1,10.4,14.5c1.9,5.4,2.8,10.8,2.8,16.3v45.3c0,7,0.2,11.8,0.7,14.3c0.5,2.5,2.2,3.8,5.2,3.8c2.4,0,4.1-1.1,5-3.4
		c1-2.3,1.4-6.2,1.4-11.8v-14.5H394v14.7c0,6.9-0.6,13.1-1.7,18.5c-1.2,5.4-3.4,10-6.6,13.8c-3.2,3.8-7.6,6.7-13.2,8.7
		c-5.6,2-12.7,3-21.3,3c-7.8,0-14.3-0.8-19.4-2.5c-5.1-1.7-9.2-3.7-12.2-6.2c-3-2.5-5.2-5-6.4-7.7c-1.3-2.7-1.9-5-1.9-7.1h-1.9
		c-0.5,3.2-1.8,6.2-4,9c-2.2,2.9-5.3,5.4-9.1,7.6c-3.9,2.2-8.6,4-14,5.3c-5.4,1.3-11.6,2-18.6,2c-6.6,0-12.7-0.6-18.1-1.9
		c-5.4-1.3-10.1-3.3-13.9-6s-6.8-6.3-8.9-10.7c-2.1-4.4-3.2-9.6-3.2-15.6c0-7.4,2.1-13.3,6.3-17.5c4.2-4.3,9.4-7.7,15.7-10.2
		c6.3-2.5,13.2-4.6,20.7-6.1c7.4-1.6,14.3-3.5,20.7-5.7c6.3-2.2,11.6-5.1,15.7-8.7c4.2-3.5,6.3-8.6,6.3-15.1c0-5.8-1.8-10.4-5.4-14
		C295.8,91.8,289.8,90,281.6,90z M304.9,140.2c-1.7,2.5-3.8,4.5-6.4,6c-2.5,1.5-5,3-7.4,4.4c-2.4,1.4-4.4,3.1-6.1,5.1
		c-1.7,2-2.6,4.6-2.6,7.9c0,2.5,0.7,4.8,2.1,6.9c1.4,2,4.1,3.1,8.1,3.1c3.6,0,6.6-1.4,8.9-4.2c2.3-2.8,3.4-6.8,3.4-11.9V140.2z"/>
	<path class="st0" d="M470.4,73.9l-2,31.8h2c2.7-12.2,7.2-21.4,13.5-27.7c6.3-6.3,14.5-9.4,24.5-9.4c5.9,0,11.1,0.9,15.3,2.8
		c4.3,1.9,7.7,4.4,10.4,7.6c2.6,3.2,4.5,6.8,5.7,10.9c1.2,4.1,1.7,8.4,1.7,12.8c0,3.6-0.5,7.2-1.6,10.8c-1.1,3.6-2.8,6.8-5.2,9.6
		c-2.4,2.9-5.5,5.2-9.3,6.9c-3.8,1.7-8.5,2.6-14,2.6c-7.7,0-13.8-2-18.2-5.9c-4.4-3.9-6.7-8.7-6.7-14.2c0-2.7,0.3-5,0.9-6.9
		c0.6-1.9,1.3-3.4,1.9-4.6c0.7-1.2,1.1-2.1,1.3-2.6c0.2-0.5,0-0.8-0.8-0.8c-1.6,0-3.4,1.9-5.3,5.6c-1.9,3.7-2.8,9.5-2.8,17.5v26.5
		c0,4.1,0.7,7,2.1,8.7c1.4,1.7,4.2,2.6,8.3,2.6h6.9v43h-97.5v-43h6.8c3.2,0,5.6-1,7.2-3.1c1.7-2,2.5-4.5,2.5-7.4v-22
		c0-3.6-1.1-6.1-3.2-7.4c-2.1-1.3-4.5-1.9-7.2-1.9h-6.1v-43H470.4z"/>
	<path class="st0" d="M660.2,127.6c0-3-0.4-5.4-1.1-7.2c-0.7-1.8-1.7-3.2-2.8-4.2c-1.1-1-2.4-1.6-3.8-1.9c-1.4-0.3-2.7-0.5-4.1-0.5
		c-5,0-8.8,1.5-11.2,4.4c-2.5,2.9-3.7,7.1-3.7,12.5v16.6c0,4.1,0.7,7,2.1,8.7c1.4,1.7,4.2,2.6,8.3,2.6h6.3v43h-96.8v-43h6.8
		c3.2,0,5.6-1,7.2-3.1c1.7-2,2.5-4.5,2.5-7.4v-22c0-3.6-1.1-6.1-3.2-7.4c-2.1-1.3-4.5-1.9-7.2-1.9h-6.1v-43h68.8l-2.4,31.8h2
		c1.7-11.9,6.9-21,15.6-27.4c8.7-6.4,20.6-9.6,35.5-9.6c10.6,0,19.2,1.5,25.8,4.5c6.6,3,11.8,6.8,15.5,11.4
		c3.7,4.6,6.2,9.6,7.5,14.9c1.3,5.4,2,10.4,2,15.1v32.5c0,4.1,0.7,7,2.1,8.7c1.4,1.7,4.2,2.6,8.3,2.6h6.3v43h-80.1V127.6z"/>
	<path class="st0" d="M832.9,73.9v72.1c0,5.2,1.3,8.5,3.8,10.1c2.5,1.6,5.8,2.4,9.7,2.4h3.1v43h-97.5v-43h4.5c4.1,0,7.1-1.3,9.1-3.9
		c2-2.6,3-5.4,3-8.4V130c0-4.5-1.4-7.8-4.2-9.9c-2.8-2.1-6.1-3.2-9.8-3.2h-2.5v-43H832.9z M766.8,45.5c0-6.6,2.5-12.3,7.6-17
		c5.1-4.7,12.3-7.1,21.6-7.1c9.5,0,16.8,2.4,21.9,7.1c5.1,4.7,7.7,10.4,7.7,17c0,6.8-2.6,12.5-7.7,17.2c-5.1,4.7-12.4,7-21.9,7
		c-9.3,0-16.5-2.3-21.6-7C769.3,58,766.8,52.3,766.8,45.5z"/>
	<path class="st0" d="M869.5,126.9c-1.6-3.5-3.5-6-5.6-7.6c-2.1-1.6-6.1-2.4-12-2.4v-43h93v43c-4.9,0-8.1,0.7-9.6,2.1
		c-1.4,1.4-1.6,3.6-0.4,6.7l12.5,35.5h1.7l13.2-35.5c1.2-2.9,1-5-0.4-6.5c-1.4-1.5-4.6-2.3-9.6-2.3v-43h64.5v43
		c-5.6,0-9.6,0.8-11.9,2.3c-2.3,1.5-4.2,4.1-5.8,7.7l-31,74.7h-67.6L869.5,126.9z"/>
	<path class="st0" d="M1021.6,137.5c0-11.3,2-21.3,5.9-29.9s9.6-15.7,16.8-21.5c7.3-5.8,16.1-10.1,26.3-13
		c10.3-2.9,21.7-4.4,34.4-4.4c12.7,0,24.1,1.5,34.4,4.4c10.3,2.9,19,7.3,26.3,13c7.3,5.8,12.9,12.9,16.8,21.5c4,8.6,6,18.5,6,29.9
		c0,11.2-2,21.1-6,29.8c-4,8.6-9.6,15.9-16.8,21.7c-7.3,5.8-16,10.2-26.3,13.1c-10.3,2.9-21.7,4.4-34.4,4.4
		c-12.7,0-24.1-1.5-34.4-4.4c-10.3-2.9-19-7.3-26.3-13.1c-7.3-5.8-12.9-13.1-16.8-21.7C1023.6,158.6,1021.6,148.7,1021.6,137.5z
		 M1087.5,137.5c0,6.5,0.3,12,0.9,16.5s1.5,8.1,2.8,10.9c1.3,2.7,3.1,4.7,5.3,6c2.2,1.3,5.1,1.9,8.6,1.9c3.5,0,6.3-0.6,8.5-1.9
		c2.2-1.3,4-3.3,5.3-6c1.3-2.7,2.3-6.4,2.8-10.9c0.5-4.5,0.8-10,0.8-16.5c0-13-1.2-22.1-3.6-27.3s-7-7.8-13.8-7.8
		c-3.5,0-6.3,0.6-8.6,1.8c-2.2,1.2-4,3.2-5.3,5.9c-1.3,2.7-2.3,6.4-2.8,10.9C1087.8,125.5,1087.5,131,1087.5,137.5z"/>
	<path class="st0" d="M1271.6,73.9l-2,31.8h2c2.7-12.2,7.2-21.4,13.5-27.7s14.5-9.4,24.5-9.4c5.9,0,11.1,0.9,15.3,2.8
		c4.3,1.9,7.7,4.4,10.4,7.6c2.6,3.2,4.5,6.8,5.7,10.9c1.2,4.1,1.7,8.4,1.7,12.8c0,3.6-0.5,7.2-1.6,10.8c-1.1,3.6-2.8,6.8-5.2,9.6
		c-2.4,2.9-5.5,5.2-9.3,6.9c-3.8,1.7-8.5,2.6-14,2.6c-7.7,0-13.8-2-18.2-5.9c-4.4-3.9-6.7-8.7-6.7-14.2c0-2.7,0.3-5,0.9-6.9
		c0.6-1.9,1.3-3.4,1.9-4.6c0.7-1.2,1.1-2.1,1.3-2.6c0.2-0.5,0-0.8-0.8-0.8c-1.6,0-3.4,1.9-5.3,5.6c-1.9,3.7-2.8,9.5-2.8,17.5v26.5
		c0,4.1,0.7,7,2.1,8.7c1.4,1.7,4.2,2.6,8.3,2.6h6.9v43h-97.5v-43h6.8c3.2,0,5.6-1,7.2-3.1c1.7-2,2.5-4.5,2.5-7.4v-22
		c0-3.6-1.1-6.1-3.2-7.4c-2.1-1.3-4.5-1.9-7.2-1.9h-6.1v-43H1271.6z"/>
	<path class="st0" d="M1415.4,144.9c0.3,11.5,2.5,19.4,6.5,23.8c4.1,4.4,9.9,6.5,17.4,6.5c2.5,0,5-0.4,7.5-1.1
		c2.4-0.7,4.7-1.9,6.8-3.6c2.1-1.7,3.9-3.9,5.4-6.6c1.5-2.7,2.5-6.2,3-10.4h42.1c-1.5,10-4.4,18.3-8.5,25
		c-4.1,6.7-9.4,12.1-15.9,16.3c-6.5,4.1-14,7.1-22.6,8.9c-8.6,1.8-18.2,2.7-28.8,2.7c-10.9,0-21.1-1.4-30.7-4.2
		c-9.6-2.8-18-7-25.2-12.7c-7.2-5.7-12.9-12.8-17-21.4c-4.1-8.6-6.1-18.9-6.1-30.7c0-11.3,1.9-21.3,5.8-29.9
		c3.9-8.6,9.3-15.7,16.3-21.5c7-5.8,15.2-10.1,24.8-13c9.5-2.9,20-4.4,31.4-4.4c14,0,26.1,1.9,36.2,5.6c10.1,3.7,18.4,8.9,24.8,15.5
		c6.4,6.6,11.1,14.6,14.1,24c3,9.3,4.4,19.7,4.3,31.1H1415.4z M1432.5,100c-5.4,0-9.4,1.9-12,5.7c-2.6,3.8-4.3,10.1-5.2,18.9h33.9
		c-0.5-7.6-2.1-13.6-4.9-18C1441.7,102.2,1437.7,100,1432.5,100z"/>
	<path class="st0" d="M1519.1,73.6c0-5.6,1.1-10.8,3.2-15.7c2.2-4.9,5-9.1,8.7-12.8c3.6-3.6,7.9-6.5,12.8-8.6
		c4.9-2.1,10.1-3.2,15.7-3.2s10.8,1.1,15.7,3.2c4.9,2.1,9.2,5,12.8,8.6c3.7,3.6,6.6,7.9,8.7,12.8c2.1,4.9,3.2,10.1,3.2,15.7
		c0,5.6-1.1,10.8-3.2,15.7c-2.1,4.9-5,9.2-8.7,12.8c-3.7,3.7-7.9,6.6-12.8,8.7s-10.1,3.2-15.7,3.2s-10.8-1.1-15.7-3.2
		c-4.9-2.1-9.1-5-12.8-8.7s-6.5-7.9-8.7-12.8C1520.1,84.4,1519.1,79.2,1519.1,73.6z M1528,73.6c0,4.4,0.8,8.4,2.5,12.2
		c1.7,3.8,3.9,7.1,6.8,10c2.8,2.8,6.2,5.1,10,6.8c3.8,1.7,7.9,2.5,12.2,2.5c4.4,0,8.4-0.8,12.2-2.5c3.8-1.7,7.1-3.9,10-6.8
		c2.8-2.8,5.1-6.2,6.8-10c1.7-3.8,2.5-7.9,2.5-12.2c0-4.4-0.8-8.4-2.5-12.2c-1.7-3.8-3.9-7.1-6.8-10c-2.8-2.8-6.2-5.1-10-6.7
		c-3.8-1.6-7.9-2.5-12.2-2.5c-4.4,0-8.4,0.8-12.2,2.5c-3.8,1.6-7.1,3.9-10,6.7c-2.8,2.8-5.1,6.2-6.8,10
		C1528.8,65.1,1528,69.2,1528,73.6z M1538.3,94.2v-9.9c1.6,0,2.7-0.2,3.3-0.7c0.6-0.4,0.9-1.3,0.9-2.6V65c0-1.2-0.3-2-0.9-2.5
		c-0.6-0.5-1.7-0.7-3.3-0.7v-9.9h27.3c5.1,0,8.7,1.1,10.6,3.2c1.9,2.1,2.8,5,2.8,8.6c0,3.2-0.7,5.7-2.1,7.6
		c-1.4,1.9-3.6,2.9-6.6,3.1v0.3c3,0.3,5,1.2,5.9,2.9s1.4,3.9,1.4,6.6v1.5c0,1.3,0.5,1.9,1.5,1.9c0.9,0,1.4-0.6,1.4-1.9v-7.2h4.3v7.2
		c0,2.8-0.8,5.1-2.4,6.9c-1.6,1.8-4.4,2.7-8.3,2.7c-2.4,0-4.2-0.2-5.6-0.7c-1.3-0.5-2.3-1.2-3-2c-0.6-0.9-1-1.9-1.2-3
		c-0.1-1.1-0.2-2.4-0.2-3.7v-2.1c0-1.5-0.2-2.7-0.5-3.5c-0.3-0.8-0.7-1.4-1.2-1.7c-0.5-0.3-1.1-0.5-1.8-0.6c-0.7,0-1.5-0.1-2.3-0.1
		h-2v3.4c0,1,0.2,1.7,0.7,2.2c0.5,0.4,1.4,0.7,2.7,0.7v9.9H1538.3z M1556.4,71.4h5.1c1.4,0,2.4-0.4,2.9-1.2c0.5-0.8,0.8-1.9,0.8-3.2
		c0-1.6-0.3-2.9-0.8-3.9c-0.5-0.9-1.5-1.4-2.9-1.4h-5.1V71.4z"/>
</g>
</svg>
