<?xml version="1.0" encoding="utf-8"?>
<!-- Generator: Adobe Illustrator 21.0.2, SVG Export Plug-In . SVG Version: 6.00 Build 0)  -->
<svg version="1.1" id="Layer_1" xmlns="http://www.w3.org/2000/svg" xmlns:xlink="http://www.w3.org/1999/xlink" x="0px" y="0px"
	 viewBox="0 0 1920 1080" style="enable-background:new 0 0 1920 1080;" xml:space="preserve">
<style type="text/css">
	.st0{fill:#FFFED9;stroke:#000000;stroke-miterlimit:10;}
	.st1{fill:#FFFFFF;}
</style>
<g>
	<polygon class="st0" points="2116.4,-3.2 1020.9,-3.2 1020.9,-0.2 -56.1,-0.2 -56.1,1095.3 1039.4,1095.3 1039.4,1092.3 
		2116.4,1092.3 	"/>
	<g>
		<path class="st1" d="M1833.5,578.1c-1.6,1.3-2.7,3.3-2.9,5.5c-0.4,4.5,2.9,8.5,7.5,8.9c4.5,0.4,8.5-2.9,8.9-7.5c0-0.3,0-0.6,0-0.9
			l49.6,4.4c-0.3,5.1,3.4,9.5,8.5,9.9c5.1,0.5,9.7-3.3,10.1-8.5c0.3-3.4-1.3-6.6-3.9-8.4c1.6-1.3,2.7-3.3,2.9-5.5
			c0.4-4.5-2.9-8.5-7.5-8.9c-4.5-0.4-8.5,2.9-8.9,7.5c0,0.5,0,1.1,0,1.6l-49.7-4.4c0-0.1,0-0.3,0.1-0.4c0.5-5.1-3.3-9.7-8.5-10.1
			c-5.1-0.5-9.7,3.3-10.1,8.5C1829.3,573,1830.9,576.2,1833.5,578.1z"/>
		<path class="st1" d="M1506.8,576.5c-0.2,2.1,0.3,4.2,1.7,6c2.8,3.6,8,4.2,11.5,1.4c3.6-2.8,4.2-8,1.4-11.5
			c-0.2-0.2-0.4-0.5-0.6-0.7l39.1-30.7c3.2,3.9,9,4.6,13,1.4c4.1-3.2,4.8-9.1,1.6-13.1c-2.1-2.7-5.4-3.9-8.6-3.5
			c0.2-2.1-0.3-4.2-1.7-6c-2.8-3.6-8-4.2-11.5-1.4c-3.6,2.8-4.2,8-1.4,11.5c0.3,0.4,0.7,0.8,1.1,1.1l-39.2,30.8
			c-0.1-0.1-0.2-0.2-0.2-0.3c-3.2-4.1-9.1-4.8-13.1-1.6c-4.1,3.2-4.8,9.1-1.6,13.1C1500.3,575.7,1503.6,576.9,1506.8,576.5z"/>
		<path class="st1" d="M1901.6,48c1.6-1.3,2.8-3.2,3.1-5.4c0.6-4.5-2.6-8.6-7.1-9.2c-4.5-0.6-8.6,2.6-9.2,7.1c0,0.3-0.1,0.6-0.1,0.9
			l-49.4-6.2c0.5-5-3.1-9.6-8.1-10.2c-5.1-0.6-9.8,3-10.5,8.1c-0.4,3.4,1,6.6,3.6,8.6c-1.6,1.3-2.8,3.2-3.1,5.4
			c-0.6,4.5,2.6,8.6,7.1,9.2c4.5,0.6,8.6-2.6,9.2-7.1c0.1-0.5,0.1-1.1,0-1.6l49.5,6.3c0,0.1-0.1,0.3-0.1,0.4
			c-0.6,5.1,3,9.8,8.1,10.5c5.1,0.6,9.8-3,10.5-8.1C1905.7,53.1,1904.2,49.9,1901.6,48z"/>
		<path class="st1" d="M1841.9,209.4c-2.1,0.1-4.1,1-5.6,2.6c-3.1,3.3-2.8,8.5,0.5,11.6s8.5,2.8,11.6-0.5c0.2-0.2,0.4-0.5,0.6-0.7
			l36.7,33.6c-3.3,3.8-3,9.6,0.7,13.1c3.8,3.5,9.7,3.2,13.2-0.6c2.3-2.5,3-6,2-9.1c2.1-0.1,4.1-1,5.6-2.6c3.1-3.3,2.8-8.5-0.5-11.6
			s-8.5-2.8-11.6,0.5c-0.4,0.4-0.7,0.8-0.9,1.3l-36.8-33.7c0.1-0.1,0.2-0.2,0.3-0.3c3.5-3.8,3.2-9.7-0.6-13.2
			c-3.8-3.5-9.7-3.2-13.2,0.6C1841.6,202.9,1841,206.4,1841.9,209.4z"/>
		<path class="st1" d="M1424.3,411.4c0.1,2.1,0.9,4.1,2.5,5.7c3.3,3.1,8.5,3,11.6-0.3s3-8.5-0.3-11.6c-0.2-0.2-0.5-0.4-0.7-0.6
			l34.4-36c3.7,3.4,9.5,3.2,13.1-0.4c3.6-3.7,3.4-9.7-0.3-13.2c-2.5-2.4-6-3.1-9-2.2c-0.1-2.1-0.9-4.1-2.5-5.7
			c-3.3-3.1-8.5-3-11.6,0.3s-3,8.5,0.3,11.6c0.4,0.4,0.8,0.7,1.2,1l-34.4,36c-0.1-0.1-0.2-0.2-0.3-0.3c-3.7-3.6-9.7-3.4-13.2,0.3
			c-3.6,3.7-3.4,9.7,0.3,13.2C1417.8,411.5,1421.3,412.3,1424.3,411.4z"/>
		<path class="st1" d="M1239.8,1003c-0.2-2.1-1.2-4-3-5.5c-3.5-2.9-8.7-2.3-11.6,1.2s-2.3,8.7,1.2,11.6c0.2,0.2,0.5,0.4,0.8,0.5
			l-31.5,38.5c-4-3.1-9.8-2.5-13,1.4c-3.3,4-2.7,9.9,1.3,13.2c2.7,2.2,6.2,2.6,9.2,1.5c0.2,2.1,1.2,4,3,5.5
			c3.5,2.9,8.7,2.3,11.6-1.2s2.3-8.7-1.2-11.6c-0.4-0.3-0.9-0.6-1.3-0.9l31.5-38.6c0.1,0.1,0.2,0.2,0.3,0.3c4,3.3,9.9,2.7,13.2-1.3
			c3.3-4,2.7-9.9-1.3-13.2C1246.3,1002.3,1242.8,1001.9,1239.8,1003z"/>
		<path class="st1" d="M1941.3,377.6c2.1-0.2,4.1-1.1,5.5-2.8c3-3.4,2.6-8.6-0.9-11.6c-3.4-3-8.6-2.6-11.6,0.9
			c-0.2,0.2-0.4,0.5-0.6,0.7l-37.7-32.5c3.2-3.9,2.8-9.7-1.1-13c-3.9-3.4-9.8-2.9-13.2,1c-2.3,2.6-2.8,6.1-1.8,9.1
			c-2.1,0.2-4.1,1.1-5.5,2.8c-3,3.4-2.6,8.6,0.9,11.6c3.4,3,8.6,2.6,11.6-0.9c0.3-0.4,0.6-0.8,0.9-1.3l37.7,32.6
			c-0.1,0.1-0.2,0.2-0.3,0.3c-3.4,3.9-2.9,9.8,1,13.2s9.8,2.9,13.2-1C1941.8,384.1,1942.4,380.6,1941.3,377.6z"/>
		<path class="st1" d="M1750.8,436.9c-0.6-2-2-3.7-3.9-4.8c-4-2.1-9-0.7-11.1,3.3s-0.7,9,3.3,11.1c0.3,0.2,0.6,0.3,0.9,0.4
			l-23.6,43.8c-4.5-2.3-10.1-0.6-12.5,3.9s-0.7,10.2,3.8,12.7c3,1.6,6.6,1.4,9.3-0.3c0.6,2,2,3.7,3.9,4.8c4,2.1,9,0.7,11.1-3.3
			s0.7-9-3.3-11.1c-0.5-0.3-1-0.5-1.4-0.6l23.6-43.9c0.1,0.1,0.2,0.1,0.4,0.2c4.5,2.4,10.2,0.7,12.7-3.8c2.4-4.5,0.7-10.2-3.8-12.7
			C1757.1,435.1,1753.6,435.3,1750.8,436.9z"/>
		<path class="st1" d="M1912.9,771.3c-2.1,0.1-4.1,1-5.7,2.6c-3.1,3.3-2.9,8.5,0.4,11.6s8.5,2.9,11.6-0.4c0.2-0.2,0.4-0.5,0.6-0.7
			l36.3,34c-3.4,3.8-3.1,9.6,0.6,13.1c3.8,3.5,9.7,3.3,13.2-0.4c2.4-2.5,3-6,2.1-9.1c2.1-0.1,4.1-1,5.7-2.6
			c3.1-3.3,2.9-8.5-0.4-11.6s-8.5-2.9-11.6,0.4c-0.4,0.4-0.7,0.8-1,1.2l-36.4-34.1c0.1-0.1,0.2-0.2,0.3-0.3
			c3.5-3.8,3.3-9.7-0.4-13.2c-3.8-3.5-9.7-3.3-13.2,0.4C1912.7,764.8,1912,768.2,1912.9,771.3z"/>
		<path class="st1" d="M2017.5,398.6c-0.7,2-0.7,4.2,0.2,6.2c1.9,4.1,6.7,6,10.9,4.1c4.1-1.9,6-6.7,4.1-10.9
			c-0.1-0.3-0.3-0.6-0.4-0.8l45.3-20.6c2.2,4.6,7.6,6.6,12.3,4.5s6.8-7.7,4.7-12.4c-1.4-3.1-4.4-5.1-7.6-5.4c0.7-2,0.7-4.2-0.2-6.2
			c-1.9-4.1-6.7-6-10.9-4.1c-4.1,1.9-6,6.7-4.1,10.9c0.2,0.5,0.5,0.9,0.8,1.4l-45.4,20.6c-0.1-0.1-0.1-0.3-0.2-0.4
			c-2.1-4.7-7.7-6.8-12.4-4.7c-4.7,2.1-6.8,7.7-4.7,12.4C2011.3,396.3,2014.3,398.3,2017.5,398.6z"/>
		<path class="st1" d="M1857.5,479.5c1.9,0.8,4.1,0.9,6.2,0c4.2-1.7,6.2-6.5,4.5-10.7s-6.5-6.2-10.7-4.5c-0.3,0.1-0.6,0.3-0.8,0.4
			l-18.6-46.1c4.7-2,6.9-7.4,5-12.1c-1.9-4.8-7.4-7.1-12.2-5.2c-3.2,1.3-5.3,4.1-5.7,7.3c-1.9-0.8-4.1-0.9-6.2,0
			c-4.2,1.7-6.2,6.5-4.5,10.7s6.5,6.2,10.7,4.5c0.5-0.2,1-0.4,1.4-0.7l18.7,46.2c-0.1,0-0.3,0.1-0.4,0.1c-4.8,1.9-7.1,7.4-5.2,12.2
			c1.9,4.8,7.4,7.1,12.2,5.2C1854.9,485.6,1857,482.7,1857.5,479.5z"/>
		<path class="st1" d="M1246.7,160c0.2,2.1,1.2,4,3,5.5c3.5,2.9,8.7,2.4,11.6-1.2c2.9-3.5,2.4-8.7-1.2-11.6
			c-0.2-0.2-0.5-0.4-0.8-0.5l31.5-38.5c4,3.1,9.8,2.5,13-1.4c3.3-4,2.7-9.9-1.3-13.2c-2.7-2.2-6.2-2.6-9.2-1.5c-0.2-2.1-1.2-4-3-5.5
			c-3.5-2.9-8.7-2.4-11.6,1.2c-2.9,3.5-2.4,8.7,1.2,11.6c0.4,0.3,0.9,0.6,1.3,0.9l-31.6,38.6c-0.1-0.1-0.2-0.2-0.3-0.3
			c-4-3.3-9.9-2.7-13.2,1.3c-3.3,4-2.7,9.9,1.3,13.2C1240.2,160.7,1243.7,161.1,1246.7,160z"/>
		<path class="st1" d="M1056,841.6c-2-0.7-4.2-0.6-6.2,0.3c-4.1,1.9-5.9,6.8-3.9,10.9c1.9,4.1,6.8,5.9,10.9,3.9
			c0.3-0.1,0.6-0.3,0.8-0.5l21.3,45c-4.5,2.3-6.5,7.7-4.3,12.4s7.8,6.7,12.5,4.5c3.1-1.5,5-4.4,5.3-7.6c2,0.7,4.2,0.6,6.2-0.3
			c4.1-1.9,5.9-6.8,3.9-10.9c-1.9-4.1-6.8-5.9-10.9-3.9c-0.5,0.2-0.9,0.5-1.3,0.8L1069,851c0.1-0.1,0.3-0.1,0.4-0.2
			c4.7-2.2,6.7-7.8,4.5-12.5s-7.8-6.7-12.5-4.5C1058.2,835.4,1056.3,838.4,1056,841.6z"/>
		<path class="st1" d="M1364.7,252.7c-2.1,0.2-4.1,1.2-5.5,2.9c-2.9,3.5-2.5,8.6,1,11.6s8.6,2.5,11.6-1c0.2-0.2,0.4-0.5,0.6-0.8
			l38,32.1c-3.2,3.9-2.7,9.7,1.2,13c3.9,3.3,9.8,2.8,13.2-1.1c2.2-2.6,2.7-6.1,1.7-9.2c2.1-0.2,4.1-1.2,5.5-2.9
			c2.9-3.5,2.5-8.6-1-11.6c-3.5-2.9-8.6-2.5-11.6,1c-0.3,0.4-0.6,0.8-0.9,1.3l-38.1-32.2c0.1-0.1,0.2-0.2,0.3-0.3
			c3.3-3.9,2.8-9.8-1.1-13.2s-9.8-2.8-13.2,1.1C1364.1,246.2,1363.6,249.7,1364.7,252.7z"/>
		<path class="st1" d="M1825.9,943.1c0.4-2,0.1-4.2-1.1-6.1c-2.5-3.8-7.5-4.9-11.4-2.4c-3.8,2.5-4.9,7.5-2.4,11.4
			c0.2,0.3,0.4,0.5,0.6,0.8l-41.8,27c-2.8-4.2-8.5-5.4-12.8-2.6c-4.3,2.8-5.6,8.6-2.8,12.9c1.9,2.9,5.1,4.4,8.3,4.3
			c-0.4,2-0.1,4.2,1.1,6.1c2.5,3.8,7.5,4.9,11.4,2.4c3.8-2.5,4.9-7.5,2.4-11.4c-0.3-0.4-0.6-0.9-1-1.2l41.9-27.1
			c0.1,0.1,0.1,0.2,0.2,0.4c2.8,4.3,8.6,5.6,12.9,2.8s5.6-8.6,2.8-12.9C1832.3,944.5,1829.1,943,1825.9,943.1z"/>
		<path class="st1" d="M2066.1,975c-1.7-1.2-3.9-1.7-6.1-1.3c-4.5,0.8-7.5,5-6.7,9.5s5,7.5,9.5,6.7c0.3-0.1,0.6-0.1,0.9-0.2l8.5,49
			c-5,1-8.3,5.7-7.4,10.8c0.9,5.1,5.7,8.5,10.8,7.6c3.4-0.6,6-2.9,7.2-6c1.7,1.2,3.9,1.7,6.1,1.3c4.5-0.8,7.5-5,6.7-9.5
			s-5-7.5-9.5-6.7c-0.5,0.1-1,0.2-1.5,0.4l-8.5-49.1c0.1,0,0.3,0,0.4-0.1c5.1-0.9,8.5-5.7,7.6-10.8s-5.7-8.5-10.8-7.6
			C2069.9,969.6,2067.3,972,2066.1,975z"/>
		<path class="st1" d="M1604.5,126.4c-1,1.8-1.3,4-0.7,6.2c1.3,4.4,5.8,6.9,10.2,5.6c4.4-1.3,6.9-5.8,5.6-10.2
			c-0.1-0.3-0.2-0.6-0.3-0.9l47.8-13.9c1.5,4.8,6.6,7.6,11.5,6.2c5-1.4,7.8-6.6,6.4-11.6c-1-3.3-3.6-5.7-6.7-6.5
			c1-1.8,1.3-4,0.7-6.2c-1.3-4.4-5.8-6.9-10.2-5.6c-4.4,1.3-6.9,5.8-5.6,10.2c0.1,0.5,0.3,1,0.6,1.5l-47.9,13.9
			c0-0.1-0.1-0.3-0.1-0.4c-1.4-5-6.6-7.8-11.6-6.4s-7.8,6.6-6.4,11.6C1598.8,123.3,1601.4,125.7,1604.5,126.4z"/>
		<path class="st1" d="M1280,492c2,0.6,4.2,0.5,6.2-0.6c4-2.1,5.6-7,3.5-11.1c-2.1-4-7-5.6-11.1-3.5c-0.3,0.1-0.5,0.3-0.8,0.5
			l-22.9-44.1c4.4-2.4,6.2-8,3.8-12.5c-2.4-4.6-8-6.4-12.6-4c-3.1,1.6-4.9,4.6-5,7.8c-2-0.6-4.2-0.5-6.2,0.6c-4,2.1-5.6,7-3.5,11.1
			c2.1,4,7,5.6,11.1,3.5c0.5-0.2,0.9-0.5,1.3-0.9l23,44.2c-0.1,0.1-0.3,0.1-0.4,0.2c-4.6,2.4-6.4,8-4,12.6s8,6.4,12.6,4
			C1278,498.2,1279.8,495.2,1280,492z"/>
		<path class="st1" d="M1917.8,1068.5c2.1,0.3,4.2-0.1,6-1.4c3.7-2.6,4.5-7.8,1.9-11.5s-7.8-4.5-11.5-1.9c-0.3,0.2-0.5,0.4-0.7,0.6
			l-29-40.4c4.1-3,4.9-8.8,2-12.9c-3-4.2-8.9-5.1-13.1-2.1c-2.8,2-4.1,5.3-3.8,8.5c-2.1-0.3-4.2,0.1-6,1.4
			c-3.7,2.6-4.5,7.8-1.9,11.5s7.8,4.5,11.5,1.9c0.4-0.3,0.8-0.7,1.2-1l29.1,40.5c-0.1,0.1-0.2,0.1-0.3,0.2c-4.2,3-5.1,8.9-2.1,13.1
			s8.9,5.1,13.1,2.1C1916.8,1074.9,1918.1,1071.7,1917.8,1068.5z"/>
		<path class="st1" d="M2014.4,697c0.5,2,1.7,3.9,3.6,5c3.8,2.4,8.9,1.2,11.3-2.6s1.2-8.9-2.6-11.3c-0.3-0.2-0.5-0.3-0.8-0.4
			l26.3-42.2c4.4,2.6,10,1.2,12.7-3.1c2.7-4.4,1.4-10.2-3-12.9c-2.9-1.8-6.5-1.8-9.3-0.3c-0.5-2-1.7-3.9-3.6-5
			c-3.8-2.4-8.9-1.2-11.3,2.6s-1.2,8.9,2.6,11.3c0.5,0.3,0.9,0.5,1.4,0.7l-26.4,42.3c-0.1-0.1-0.2-0.2-0.3-0.2
			c-4.4-2.7-10.2-1.4-12.9,3c-2.7,4.4-1.4,10.2,3,12.9C2008.1,698.5,2011.6,698.5,2014.4,697z"/>
		<path class="st1" d="M2017.8,123.8c-0.5-2-1.9-3.8-3.8-4.9c-3.9-2.3-8.9-0.9-11.2,3c-2.3,3.9-0.9,8.9,3,11.2
			c0.3,0.2,0.6,0.3,0.8,0.4l-25,43c-4.4-2.5-10-0.9-12.6,3.5c-2.6,4.5-1.1,10.2,3.4,12.8c3,1.7,6.5,1.6,9.3,0c0.5,2,1.9,3.8,3.8,4.9
			c3.9,2.3,8.9,0.9,11.2-3c2.3-3.9,0.9-8.9-3-11.2c-0.5-0.3-0.9-0.5-1.4-0.7l25.1-43.1c0.1,0.1,0.2,0.2,0.3,0.2
			c4.5,2.6,10.2,1.1,12.8-3.4c2.6-4.5,1.1-10.2-3.4-12.8C2024.1,122.1,2020.6,122.2,2017.8,123.8z"/>
		<path class="st1" d="M2057.8,566c1.3,1.6,3.3,2.7,5.5,2.9c4.5,0.4,8.5-2.9,9-7.4c0.4-4.5-2.9-8.5-7.4-9c-0.3,0-0.6,0-0.9,0
			l4.9-49.5c5.1,0.4,9.5-3.3,10-8.4s-3.3-9.7-8.4-10.2c-3.4-0.3-6.6,1.2-8.5,3.8c-1.3-1.6-3.3-2.7-5.5-2.9c-4.5-0.4-8.5,2.9-9,7.4
			c-0.4,4.5,2.9,8.5,7.4,9c0.5,0.1,1.1,0,1.6,0l-4.9,49.6c-0.1,0-0.3,0-0.4-0.1c-5.1-0.5-9.7,3.3-10.2,8.4
			c-0.5,5.1,3.3,9.7,8.4,10.2C2052.8,570.2,2055.9,568.6,2057.8,566z"/>
		<path class="st1" d="M2067.9,877.1c0.9-1.9,1.2-4.1,0.5-6.2c-1.4-4.3-6-6.7-10.3-5.3s-6.7,6-5.3,10.3c0.1,0.3,0.2,0.6,0.3,0.9
			l-47.3,15.4c-1.7-4.8-6.9-7.4-11.7-5.8c-4.9,1.6-7.6,6.9-6,11.8c1.1,3.3,3.8,5.6,6.9,6.2c-0.9,1.9-1.2,4.1-0.5,6.2
			c1.4,4.3,6,6.7,10.3,5.3s6.7-6,5.3-10.3c-0.2-0.5-0.4-1-0.6-1.4l47.4-15.4c0,0.1,0.1,0.3,0.1,0.4c1.6,4.9,6.9,7.6,11.8,6
			c4.9-1.6,7.6-6.9,6-11.8C2073.7,880.1,2071,877.8,2067.9,877.1z"/>
		<path class="st1" d="M2015.8,1032c2.1-0.1,4.1-1,5.6-2.6c3.1-3.3,2.9-8.5-0.5-11.6c-3.3-3.1-8.5-2.9-11.6,0.5
			c-0.2,0.2-0.4,0.5-0.6,0.7l-36.6-33.7c3.4-3.8,3.1-9.6-0.7-13.1c-3.8-3.5-9.7-3.3-13.2,0.5c-2.3,2.5-3,6-2.1,9.1
			c-2.1,0.1-4.1,1-5.6,2.6c-3.1,3.3-2.9,8.5,0.5,11.6c3.3,3.1,8.5,2.9,11.6-0.5c0.4-0.4,0.7-0.8,0.9-1.2l36.6,33.8
			c-0.1,0.1-0.2,0.2-0.3,0.3c-3.5,3.8-3.3,9.7,0.5,13.2s9.7,3.3,13.2-0.5C2016,1038.5,2016.7,1035.1,2015.8,1032z"/>
		<path class="st1" d="M1314.7,665c-0.3-2.1-1.4-4-3.2-5.3c-3.7-2.7-8.8-1.9-11.5,1.8s-1.9,8.8,1.8,11.5c0.3,0.2,0.5,0.4,0.8,0.5
			l-29.4,40.1c-4.2-2.9-9.9-2-12.9,2.1c-3.1,4.2-2.2,10,2,13.1c2.8,2,6.3,2.3,9.3,1c0.3,2.1,1.4,4,3.2,5.3c3.7,2.7,8.8,1.9,11.5-1.8
			s1.9-8.8-1.8-11.5c-0.4-0.3-0.9-0.6-1.3-0.8l29.5-40.2c0.1,0.1,0.2,0.2,0.3,0.3c4.2,3.1,10,2.2,13.1-2s2.2-10-2-13.1
			C1321.2,664,1317.6,663.7,1314.7,665z"/>
		<path class="st1" d="M2096.5,84.3c2,0.6,4.2,0.5,6.2-0.5c4-2.1,5.7-7,3.6-11c-2.1-4-7-5.7-11-3.6c-0.3,0.1-0.6,0.3-0.8,0.5
			L2072,25.2c4.5-2.4,6.2-7.9,3.9-12.5s-8-6.4-12.6-4.1c-3.1,1.6-4.9,4.6-5.1,7.8c-2-0.6-4.2-0.5-6.2,0.5c-4,2-5.7,7-3.6,11
			c2.1,4,7,5.7,11,3.6c0.5-0.2,0.9-0.5,1.3-0.8l22.5,44.5c-0.1,0.1-0.3,0.1-0.4,0.2c-4.6,2.3-6.4,8-4.1,12.6s8,6.4,12.6,4.1
			C2094.5,90.5,2096.3,87.5,2096.5,84.3z"/>
		<path class="st1" d="M2078.3,222.9c1.4,1.5,3.5,2.4,5.7,2.5c4.5,0.1,8.3-3.5,8.4-8c0.1-4.5-3.5-8.3-8-8.4c-0.3,0-0.6,0-0.9,0
			l1.2-49.7c5.1,0,9.2-4,9.4-9.1c0.1-5.2-4-9.5-9.1-9.6c-3.4-0.1-6.5,1.7-8.2,4.4c-1.4-1.5-3.5-2.4-5.7-2.5c-4.5-0.1-8.3,3.5-8.4,8
			c-0.1,4.5,3.5,8.3,8,8.4c0.5,0,1.1,0,1.6-0.1l-1.2,49.8c-0.1,0-0.3,0-0.4,0c-5.2-0.1-9.5,4-9.6,9.1c-0.1,5.2,4,9.5,9.1,9.6
			C2073.6,227.4,2076.6,225.6,2078.3,222.9z"/>
		<path class="st1" d="M2061,269.9c1-1.8,1.3-4,0.8-6.2c-1.2-4.4-5.7-6.9-10.1-5.8c-4.4,1.2-6.9,5.7-5.8,10.1
			c0.1,0.3,0.2,0.6,0.3,0.9l-48,13.1c-1.4-4.9-6.5-7.7-11.4-6.4c-5,1.4-7.9,6.5-6.6,11.5c0.9,3.3,3.5,5.7,6.6,6.6
			c-1,1.8-1.3,4-0.8,6.2c1.2,4.4,5.7,6.9,10.1,5.8c4.4-1.2,6.9-5.7,5.8-10.1c-0.1-0.5-0.3-1-0.6-1.5l48.1-13.2
			c0,0.1,0.1,0.3,0.1,0.4c1.4,5,6.5,7.9,11.5,6.6c5-1.4,7.9-6.5,6.6-11.5C2066.7,273.2,2064.1,270.8,2061,269.9z"/>
		<path class="st1" d="M1354.5,1000.1c-0.4-2-1.5-4-3.3-5.3c-3.7-2.6-8.8-1.8-11.5,1.9c-2.6,3.7-1.8,8.8,1.9,11.5
			c0.3,0.2,0.5,0.3,0.8,0.5l-29.1,40.4c-4.2-2.9-9.9-1.9-12.9,2.2c-3,4.2-2.1,10,2.1,13.1c2.8,2,6.3,2.3,9.3,0.9
			c0.4,2,1.5,4,3.3,5.3c3.7,2.6,8.8,1.8,11.5-1.9c2.6-3.7,1.8-8.8-1.9-11.5c-0.4-0.3-0.9-0.6-1.4-0.8l29.1-40.5
			c0.1,0.1,0.2,0.2,0.3,0.3c4.2,3,10,2.1,13.1-2.1c3-4.2,2.1-10-2.1-13.1C1360.9,999,1357.4,998.8,1354.5,1000.1z"/>
		<path class="st1" d="M1158.9,709.5c-1.8-1.1-3.9-1.5-6.1-1.1c-4.4,1-7.2,5.4-6.3,9.8c1,4.4,5.3,7.2,9.8,6.3
			c0.3-0.1,0.6-0.2,0.9-0.3l10.7,48.6c-4.9,1.2-8,6.1-6.9,11.1s6.1,8.2,11.1,7.1c3.4-0.7,5.9-3.2,6.9-6.3c1.8,1.1,3.9,1.5,6.1,1.1
			c4.4-1,7.2-5.4,6.3-9.8c-1-4.4-5.4-7.2-9.8-6.3c-0.5,0.1-1,0.3-1.5,0.5l-10.7-48.7c0.1,0,0.3,0,0.4-0.1c5-1.1,8.2-6.1,7.1-11.1
			s-6.1-8.2-11.1-7.1C1162.4,704,1159.9,706.5,1158.9,709.5z"/>
		<path class="st1" d="M2016.3,63.1c2-0.5,3.8-1.8,4.9-3.8c2.3-3.9,1-8.9-2.9-11.2s-8.9-1-11.2,2.9c-0.2,0.3-0.3,0.6-0.4,0.8
			l-42.9-25.2c2.5-4.4,1-10-3.4-12.6c-4.5-2.6-10.2-1.1-12.8,3.3c-1.7,3-1.7,6.5-0.1,9.3c-2,0.5-3.8,1.8-4.9,3.8
			c-2.3,3.9-1,8.9,2.9,11.2s8.9,1,11.2-2.9c0.3-0.5,0.5-0.9,0.7-1.4l43,25.3c-0.1,0.1-0.2,0.2-0.2,0.3c-2.6,4.5-1.1,10.2,3.3,12.8
			c4.5,2.6,10.2,1.1,12.8-3.3C2017.9,69.5,2017.9,65.9,2016.3,63.1z"/>
		<path class="st1" d="M1757,53.5c1.9-0.8,3.5-2.4,4.4-4.4c1.7-4.2-0.3-9-4.5-10.7s-9,0.3-10.7,4.5c-0.1,0.3-0.2,0.6-0.3,0.9
			L1699.7,25c1.8-4.7-0.5-10.1-5.2-12c-4.8-1.9-10.2,0.4-12.2,5.1c-1.3,3.2-0.7,6.7,1.3,9.2c-1.9,0.8-3.5,2.4-4.4,4.4
			c-1.7,4.2,0.3,9,4.5,10.7s9-0.3,10.7-4.5c0.2-0.5,0.3-1,0.4-1.5l46.2,18.8c-0.1,0.1-0.1,0.2-0.2,0.4c-1.9,4.8,0.4,10.2,5.1,12.2
			c4.8,1.9,10.2-0.4,12.2-5.1C1759.5,59.5,1758.9,56,1757,53.5z"/>
		<path class="st1" d="M1805,317.9c1.5-1.4,2.5-3.4,2.5-5.7c0.2-4.5-3.4-8.3-7.9-8.5s-8.3,3.4-8.5,7.9c0,0.3,0,0.6,0,0.9l-49.7-1.7
			c0.1-5.1-3.9-9.3-9-9.5c-5.2-0.2-9.5,3.9-9.7,9c-0.1,3.4,1.6,6.5,4.4,8.2c-1.5,1.4-2.5,3.4-2.5,5.7c-0.2,4.5,3.4,8.3,7.9,8.5
			s8.3-3.4,8.5-7.9c0-0.5,0-1.1-0.1-1.6l49.8,1.7c0,0.1,0,0.3,0,0.4c-0.2,5.2,3.9,9.5,9,9.7c5.2,0.2,9.5-3.9,9.7-9
			C1809.4,322.7,1807.7,319.6,1805,317.9z"/>
		<path class="st1" d="M1703,860.4c-1.9,0.8-3.5,2.4-4.3,4.4c-1.7,4.2,0.3,9,4.5,10.7s9-0.3,10.7-4.5c0.1-0.3,0.2-0.6,0.3-0.9
			l46.1,18.7c-1.8,4.7,0.5,10.1,5.2,12c4.8,1.9,10.2-0.4,12.2-5.2c1.3-3.2,0.7-6.7-1.3-9.2c1.9-0.8,3.5-2.4,4.3-4.4
			c1.7-4.2-0.3-9-4.5-10.7s-9,0.3-10.7,4.5c-0.2,0.5-0.3,1-0.4,1.5l-46.2-18.7c0.1-0.1,0.1-0.2,0.2-0.4c1.9-4.8-0.4-10.2-5.2-12.2
			c-4.8-1.9-10.2,0.4-12.2,5.2C1700.4,854.4,1701,857.9,1703,860.4z"/>
		<path class="st1" d="M1738.9,641.8c-1.3-1.6-3.2-2.7-5.5-3c-4.5-0.5-8.6,2.7-9.1,7.2s2.7,8.6,7.2,9.1c0.3,0,0.6,0,0.9,0l-5.5,49.4
			c-5-0.5-9.6,3.2-10.1,8.3c-0.6,5.1,3.1,9.8,8.3,10.3c3.4,0.4,6.6-1.1,8.5-3.7c1.3,1.6,3.2,2.7,5.5,3c4.5,0.5,8.6-2.7,9.1-7.2
			s-2.7-8.6-7.2-9.1c-0.5-0.1-1.1-0.1-1.6,0l5.6-49.5c0.1,0,0.3,0.1,0.4,0.1c5.1,0.6,9.8-3.1,10.3-8.3c0.6-5.1-3.1-9.8-8.3-10.3
			C1744,637.7,1740.8,639.2,1738.9,641.8z"/>
		<path class="st1" d="M1254.3,63.2c1.8-1,3.3-2.6,4-4.8c1.4-4.3-1-8.9-5.3-10.3c-4.3-1.4-8.9,1-10.3,5.3c-0.1,0.3-0.2,0.6-0.2,0.9
			l-47.5-15c1.4-4.9-1.3-10-6.1-11.5c-4.9-1.6-10.2,1.2-11.7,6.1c-1,3.3-0.2,6.7,2,9.1c-1.8,1-3.3,2.6-4,4.8
			c-1.4,4.3,1,8.9,5.3,10.3s8.9-1,10.3-5.3c0.2-0.5,0.3-1,0.3-1.5l47.5,15.1c0,0.1-0.1,0.3-0.1,0.4c-1.6,4.9,1.2,10.2,6.1,11.7
			c4.9,1.6,10.2-1.2,11.7-6.1C1257.3,69,1256.4,65.6,1254.3,63.2z"/>
		<path class="st1" d="M1490.7,684.2c-1.8-1.1-3.9-1.6-6.1-1.1c-4.4,1-7.2,5.3-6.3,9.8c1,4.4,5.3,7.2,9.8,6.3
			c0.3-0.1,0.6-0.2,0.9-0.3l10.5,48.6c-4.9,1.2-8,6.1-7,11.1c1.1,5,6.1,8.3,11.1,7.2c3.4-0.7,5.9-3.2,6.9-6.2
			c1.8,1.1,3.9,1.6,6.1,1.1c4.4-1,7.2-5.3,6.3-9.8c-1-4.4-5.3-7.2-9.8-6.3c-0.5,0.1-1,0.3-1.5,0.5l-10.5-48.7c0.1,0,0.3,0,0.4-0.1
			c5-1.1,8.3-6.1,7.2-11.1c-1.1-5-6.1-8.3-11.1-7.2C1494.2,678.7,1491.7,681.1,1490.7,684.2z"/>
		<path class="st1" d="M2050.9,738.2c-1.9-0.8-4.2-0.8-6.2,0.1c-4.2,1.8-6.1,6.6-4.4,10.8s6.6,6.1,10.8,4.4c0.3-0.1,0.6-0.3,0.8-0.4
			l19.4,45.8c-4.6,2.1-6.8,7.5-4.8,12.2c2,4.8,7.5,7,12.3,5c3.2-1.3,5.2-4.2,5.6-7.4c1.9,0.8,4.2,0.8,6.2-0.1
			c4.2-1.8,6.1-6.6,4.4-10.8c-1.8-4.2-6.6-6.1-10.8-4.4c-0.5,0.2-0.9,0.5-1.4,0.7l-19.4-45.9c0.1,0,0.3-0.1,0.4-0.1
			c4.8-2,7-7.5,5-12.3s-7.5-7-12.3-5C2053.3,732.1,2051.3,735,2050.9,738.2z"/>
		<path class="st1" d="M1376.9,747c-2.1,0-4.2,0.8-5.8,2.3c-3.3,3.2-3.3,8.4-0.2,11.6c3.2,3.3,8.4,3.3,11.6,0.2
			c0.2-0.2,0.4-0.5,0.6-0.7l34.7,35.7c-3.6,3.6-3.6,9.4,0,13.1c3.6,3.7,9.5,3.8,13.2,0.2c2.5-2.4,3.3-5.8,2.6-9
			c2.1,0,4.2-0.8,5.8-2.3c3.3-3.2,3.3-8.4,0.2-11.6c-3.2-3.3-8.4-3.3-11.6-0.2c-0.4,0.4-0.7,0.8-1,1.2l-34.7-35.7
			c0.1-0.1,0.2-0.2,0.3-0.3c3.7-3.6,3.8-9.5,0.2-13.2c-3.6-3.7-9.5-3.8-13.2-0.2C1377,740.5,1376.1,743.9,1376.9,747z"/>
		<path class="st1" d="M1686.4,560.7c0.6-2,0.4-4.2-0.7-6.2c-2.2-4-7.2-5.5-11.1-3.3c-4,2.2-5.5,7.2-3.3,11.1
			c0.2,0.3,0.3,0.5,0.5,0.8l-43.7,23.8c-2.5-4.4-8.1-6-12.6-3.6c-4.5,2.5-6.2,8.2-3.7,12.7c1.6,3,4.7,4.8,7.9,4.9
			c-0.6,2-0.4,4.2,0.7,6.2c2.2,4,7.2,5.5,11.1,3.3c4-2.2,5.5-7.2,3.3-11.1c-0.3-0.5-0.6-0.9-0.9-1.3l43.8-23.8
			c0.1,0.1,0.1,0.3,0.2,0.4c2.5,4.5,8.2,6.2,12.7,3.7s6.2-8.2,3.7-12.7C1692.7,562.6,1689.6,560.8,1686.4,560.7z"/>
		<path class="st1" d="M1496.5,57.9c-1.5,1.5-2.4,3.5-2.4,5.7c0,4.5,3.6,8.2,8.2,8.3c4.5,0,8.2-3.6,8.3-8.2c0-0.3,0-0.6-0.1-0.9
			l49.7,0.3c0.1,5.1,4.2,9.2,9.3,9.2c5.2,0,9.4-4.1,9.4-9.3c0-3.4-1.8-6.5-4.6-8.1c1.5-1.5,2.4-3.5,2.4-5.7c0-4.5-3.6-8.2-8.2-8.3
			c-4.5,0-8.2,3.6-8.3,8.2c0,0.5,0,1.1,0.1,1.6l-49.9-0.3c0-0.1,0-0.3,0-0.4c0-5.2-4.1-9.4-9.3-9.4c-5.2,0-9.4,4.1-9.4,9.3
			C1491.8,53.2,1493.7,56.2,1496.5,57.9z"/>
		<path class="st1" d="M1609.4,954.8c-1.7,1.2-2.9,3.1-3.3,5.3c-0.8,4.5,2.2,8.7,6.7,9.5s8.7-2.2,9.5-6.7c0.1-0.3,0.1-0.6,0.1-0.9
			l49,8.4c-0.8,5,2.6,9.7,7.7,10.6c5.1,0.9,9.9-2.5,10.8-7.6c0.6-3.4-0.7-6.7-3.2-8.7c1.7-1.2,2.9-3.1,3.3-5.3
			c0.8-4.5-2.2-8.7-6.7-9.5s-8.7,2.2-9.5,6.7c-0.1,0.5-0.1,1-0.1,1.6l-49.1-8.5c0-0.1,0.1-0.3,0.1-0.4c0.9-5.1-2.5-9.9-7.6-10.8
			c-5.1-0.9-9.9,2.5-10.8,7.6C1605.6,949.4,1606.9,952.7,1609.4,954.8z"/>
		<path class="st1" d="M1144.8,270.9c-1.4,1.5-2.3,3.6-2.2,5.8c0.1,4.5,3.8,8.1,8.4,8c4.5-0.1,8.1-3.8,8-8.4c0-0.3,0-0.6-0.1-0.9
			l49.7-1c0.2,5.1,4.4,9.1,9.5,9c5.2-0.1,9.3-4.4,9.2-9.5c-0.1-3.4-2-6.4-4.8-8c1.4-1.5,2.3-3.6,2.2-5.8c-0.1-4.5-3.8-8.1-8.4-8
			c-4.5,0.1-8.1,3.8-8,8.4c0,0.5,0.1,1.1,0.2,1.6l-49.8,1c0-0.1,0-0.3,0-0.4c-0.1-5.2-4.4-9.3-9.5-9.2c-5.2,0.1-9.3,4.4-9.2,9.5
			C1140,266.4,1142,269.4,1144.8,270.9z"/>
		<path class="st1" d="M1477.5,889.5c-1,1.8-1.3,4-0.7,6.2c1.2,4.4,5.7,6.9,10.1,5.7s6.9-5.7,5.7-10.1c-0.1-0.3-0.2-0.6-0.3-0.9
			l48-13.2c1.4,4.9,6.5,7.7,11.4,6.3c5-1.4,7.9-6.5,6.5-11.5c-0.9-3.3-3.5-5.7-6.6-6.6c1-1.8,1.3-4,0.7-6.2
			c-1.2-4.4-5.7-6.9-10.1-5.7s-6.9,5.7-5.7,10.1c0.1,0.5,0.3,1,0.6,1.5l-48.1,13.2c0-0.1-0.1-0.3-0.1-0.4c-1.4-5-6.5-7.9-11.5-6.5
			s-7.9,6.5-6.5,11.5C1471.8,886.3,1474.4,888.7,1477.5,889.5z"/>
		<path class="st1" d="M1144.9,1042.1c1.1-1.7,1.6-3.9,1.2-6.1c-0.9-4.4-5.2-7.3-9.7-6.4c-4.4,0.9-7.3,5.2-6.4,9.7
			c0.1,0.3,0.1,0.6,0.2,0.9l-48.8,9.9c-1.1-4.9-6-8.1-11-7.1c-5.1,1-8.3,6-7.3,11c0.7,3.4,3.1,5.9,6.2,7c-1.1,1.7-1.6,3.9-1.2,6.1
			c0.9,4.4,5.2,7.3,9.7,6.4c4.4-0.9,7.3-5.2,6.4-9.7c-0.1-0.5-0.3-1-0.5-1.5l48.9-9.9c0,0.1,0,0.3,0.1,0.4c1,5.1,6,8.3,11,7.3
			c5.1-1,8.3-6,7.3-11C1150.3,1045.7,1147.9,1043.1,1144.9,1042.1z"/>
		<path class="st1" d="M1746.7,180.4c0,2.1,0.8,4.2,2.4,5.7c3.2,3.2,8.4,3.3,11.6,0.1s3.3-8.4,0.1-11.6c-0.2-0.2-0.5-0.4-0.7-0.6
			l35.4-34.9c3.6,3.5,9.4,3.5,13.1-0.1s3.7-9.6,0.1-13.2c-2.4-2.5-5.9-3.3-9-2.5c0-2.1-0.8-4.2-2.4-5.7c-3.2-3.2-8.4-3.3-11.6-0.1
			c-3.2,3.2-3.3,8.4-0.1,11.6c0.4,0.4,0.8,0.7,1.2,1l-35.5,35c-0.1-0.1-0.2-0.2-0.3-0.3c-3.6-3.7-9.6-3.7-13.2-0.1
			c-3.7,3.6-3.7,9.6-0.1,13.2C1740.2,180.3,1743.6,181.2,1746.7,180.4z"/>
		<path class="st1" d="M1057,449.1c-1.5-1.5-3.5-2.4-5.7-2.5c-4.5-0.1-8.3,3.5-8.3,8.1c-0.1,4.5,3.5,8.3,8.1,8.3c0.3,0,0.6,0,0.9,0
			l-0.8,49.7c-5.1,0-9.2,4.1-9.3,9.2c-0.1,5.2,4,9.4,9.2,9.5c3.4,0.1,6.5-1.8,8.1-4.5c1.5,1.5,3.5,2.4,5.7,2.5
			c4.5,0.1,8.3-3.5,8.3-8.1c0.1-4.5-3.5-8.3-8.1-8.3c-0.5,0-1.1,0-1.6,0.1l0.8-49.8c0.1,0,0.3,0,0.4,0c5.2,0.1,9.4-4,9.5-9.2
			s-4-9.4-9.2-9.5C1061.7,444.5,1058.7,446.3,1057,449.1z"/>
		<path class="st1" d="M1959.5,447.1c-1.5-1.4-3.6-2.3-5.8-2.2c-4.5,0.1-8.1,3.9-8,8.4s3.9,8.1,8.4,8c0.3,0,0.6,0,0.9-0.1l1.5,49.7
			c-5.1,0.3-9,4.5-8.9,9.6c0.2,5.2,4.5,9.2,9.6,9.1c3.4-0.1,6.4-2.1,7.9-4.9c1.5,1.4,3.6,2.3,5.8,2.2c4.5-0.1,8.1-3.9,8-8.4
			s-3.9-8.1-8.4-8c-0.5,0-1.1,0.1-1.6,0.2l-1.5-49.8c0.1,0,0.3,0,0.4,0c5.2-0.2,9.2-4.5,9.1-9.6c-0.2-5.2-4.5-9.2-9.6-9.1
			C1963.9,442.4,1961,444.3,1959.5,447.1z"/>
		<path class="st1" d="M1067.3,704.7c-1.4-1.5-3.4-2.4-5.7-2.5c-4.5-0.1-8.3,3.5-8.4,8s3.5,8.3,8,8.4c0.3,0,0.6,0,0.9,0l-1.3,49.7
			c-5.1,0-9.3,4-9.4,9.1c-0.1,5.2,3.9,9.5,9.1,9.6c3.4,0.1,6.5-1.7,8.2-4.4c1.4,1.5,3.4,2.4,5.7,2.5c4.5,0.1,8.3-3.5,8.4-8
			s-3.5-8.3-8-8.4c-0.5,0-1.1,0-1.6,0.1l1.3-49.8c0.1,0,0.3,0,0.4,0c5.2,0.1,9.5-3.9,9.6-9.1c0.1-5.2-3.9-9.5-9.1-9.6
			C1072.1,700.2,1069,702,1067.3,704.7z"/>
		<path class="st1" d="M1317.1,238.9c2.1-0.3,4-1.4,5.3-3.2c2.7-3.6,1.9-8.8-1.7-11.5s-8.8-1.9-11.5,1.7c-0.2,0.3-0.4,0.5-0.5,0.8
			l-40-29.6c2.9-4.1,2-9.9-2.1-12.9c-4.2-3.1-10-2.2-13.1,2c-2,2.8-2.3,6.3-1.1,9.2c-2.1,0.3-4,1.4-5.3,3.2
			c-2.7,3.6-1.9,8.8,1.7,11.5s8.8,1.9,11.5-1.7c0.3-0.4,0.6-0.9,0.8-1.3l40.1,29.6c-0.1,0.1-0.2,0.2-0.3,0.3c-3.1,4.2-2.2,10,2,13.1
			s10,2.2,13.1-2C1318.1,245.4,1318.4,241.9,1317.1,238.9z"/>
		<path class="st1" d="M1121.8,503.8c-1.2,1.7-1.9,3.8-1.5,6c0.6,4.5,4.8,7.6,9.3,7s7.6-4.8,7-9.3c0-0.3-0.1-0.6-0.2-0.9l49.3-6.8
			c0.8,5,5.5,8.5,10.5,7.8c5.1-0.7,8.7-5.4,8-10.5c-0.5-3.4-2.7-6.1-5.7-7.4c1.2-1.7,1.9-3.8,1.5-6c-0.6-4.5-4.8-7.6-9.3-7
			s-7.6,4.8-7,9.3c0.1,0.5,0.2,1,0.4,1.5l-49.4,6.8c0-0.1,0-0.3,0-0.4c-0.7-5.1-5.4-8.7-10.5-8s-8.7,5.4-8,10.5
			C1116.5,499.9,1118.8,502.6,1121.8,503.8z"/>
		<path class="st1" d="M1530.9,989.7c-2.1-0.2-4.2,0.4-5.9,1.9c-3.5,2.9-3.9,8.1-1,11.6s8.1,3.9,11.6,1c0.2-0.2,0.5-0.4,0.7-0.6
			l31.9,38.2c-3.8,3.3-4.3,9.1-1,13c3.3,4,9.2,4.5,13.2,1.2c2.6-2.2,3.7-5.6,3.2-8.7c2.1,0.2,4.2-0.4,5.9-1.9
			c3.5-2.9,3.9-8.1,1-11.6s-8.1-3.9-11.6-1c-0.4,0.3-0.8,0.7-1.1,1.1l-32-38.2c0.1-0.1,0.2-0.2,0.3-0.3c4-3.3,4.5-9.2,1.2-13.2
			s-9.2-4.5-13.2-1.2C1531.5,983.1,1530.4,986.5,1530.9,989.7z"/>
		<path class="st1" d="M1375.4,488.2c-1.6,1.3-2.7,3.2-3,5.5c-0.5,4.5,2.8,8.6,7.3,9.1s8.6-2.8,9.1-7.3c0-0.3,0-0.6,0-0.9l49.4,5.4
			c-0.4,5.1,3.2,9.6,8.3,10.1c5.1,0.6,9.8-3.1,10.3-8.3c0.4-3.4-1.2-6.6-3.7-8.5c1.6-1.3,2.7-3.2,3-5.5c0.5-4.5-2.8-8.6-7.3-9.1
			s-8.6,2.8-9.1,7.3c-0.1,0.5-0.1,1.1,0,1.6l-49.6-5.4c0-0.1,0.1-0.3,0.1-0.4c0.6-5.1-3.1-9.8-8.3-10.3c-5.1-0.6-9.8,3.1-10.3,8.3
			C1371.3,483.1,1372.8,486.3,1375.4,488.2z"/>
		<path class="st1" d="M1861.4,860.6c-2.1-0.3-4.2,0.2-6,1.5c-3.7,2.7-4.4,7.8-1.7,11.5c2.7,3.7,7.8,4.4,11.5,1.7
			c0.3-0.2,0.5-0.4,0.7-0.6l29.5,40.1c-4,3.1-4.8,8.8-1.8,12.9c3.1,4.2,8.9,5.1,13.1,2c2.8-2,4.1-5.3,3.7-8.5c2.1,0.3,4.2-0.2,6-1.5
			c3.7-2.7,4.4-7.8,1.7-11.5c-2.7-3.7-7.8-4.4-11.5-1.7c-0.4,0.3-0.8,0.7-1.2,1l-29.5-40.2c0.1-0.1,0.2-0.1,0.3-0.2
			c4.2-3.1,5.1-8.9,2-13.1c-3.1-4.2-8.9-5.1-13.1-2C1862.4,854.1,1861.1,857.4,1861.4,860.6z"/>
		<path class="st1" d="M1544.8,182.5c-0.3-2.1-1.3-4-3.1-5.4c-3.6-2.8-8.7-2.2-11.5,1.4c-2.8,3.6-2.2,8.7,1.4,11.5
			c0.2,0.2,0.5,0.4,0.8,0.5l-30.8,39.1c-4.1-3-9.8-2.3-13,1.7c-3.2,4.1-2.5,9.9,1.6,13.1c2.7,2.1,6.2,2.5,9.2,1.3
			c0.3,2.1,1.3,4,3.1,5.4c3.6,2.8,8.7,2.2,11.5-1.4c2.8-3.6,2.2-8.7-1.4-11.5c-0.4-0.3-0.9-0.6-1.3-0.8l30.8-39.2
			c0.1,0.1,0.2,0.2,0.3,0.3c4.1,3.2,9.9,2.5,13.1-1.6s2.5-9.9-1.6-13.1C1551.3,181.7,1547.8,181.3,1544.8,182.5z"/>
		<path class="st1" d="M1092.5,124.4c-1.8-1.1-4-1.4-6.2-0.9c-4.4,1.1-7.1,5.6-6,10s5.6,7.1,10,6c0.3-0.1,0.6-0.2,0.9-0.3l12.1,48.3
			c-4.9,1.3-7.8,6.3-6.6,11.3c1.3,5,6.3,8.1,11.3,6.8c3.3-0.8,5.8-3.4,6.7-6.5c1.8,1.1,4,1.4,6.2,0.9c4.4-1.1,7.1-5.6,6-10
			s-5.6-7.1-10-6c-0.5,0.1-1,0.3-1.5,0.5l-12.1-48.4c0.1,0,0.3,0,0.4-0.1c5-1.3,8.1-6.3,6.8-11.3c-1.3-5-6.3-8.1-11.3-6.8
			C1095.8,118.8,1093.4,121.4,1092.5,124.4z"/>
		<path class="st1" d="M1064.7,1023.2c1.5,1.5,3.5,2.4,5.7,2.4c4.5,0,8.2-3.6,8.3-8.2c0-4.5-3.6-8.2-8.2-8.3c-0.3,0-0.6,0-0.9,0.1
			l0.3-49.7c5.1-0.1,9.2-4.2,9.2-9.3c0-5.2-4.1-9.4-9.3-9.4c-3.4,0-6.5,1.8-8.1,4.6c-1.5-1.5-3.5-2.4-5.7-2.4
			c-4.5,0-8.2,3.6-8.3,8.2c0,4.5,3.6,8.2,8.2,8.3c0.5,0,1.1,0,1.6-0.1l-0.3,49.9c-0.1,0-0.3,0-0.4,0c-5.2,0-9.4,4.1-9.4,9.3
			s4.1,9.4,9.3,9.4C1060.1,1027.8,1063.1,1025.9,1064.7,1023.2z"/>
		<path class="st1" d="M1657.1,846.1c2-0.5,3.9-1.7,5.1-3.6c2.5-3.8,1.4-8.9-2.4-11.4s-8.9-1.4-11.4,2.4c-0.2,0.3-0.3,0.5-0.5,0.8
			l-41.8-27c2.7-4.3,1.4-10-2.9-12.8s-10.1-1.6-12.9,2.8c-1.9,2.9-1.9,6.4-0.5,9.3c-2,0.5-3.9,1.7-5.1,3.6
			c-2.5,3.8-1.4,8.9,2.4,11.4s8.9,1.4,11.4-2.4c0.3-0.4,0.5-0.9,0.7-1.4l41.9,27c-0.1,0.1-0.2,0.2-0.2,0.3
			c-2.8,4.3-1.6,10.1,2.8,12.9c4.3,2.8,10.1,1.6,12.9-2.8C1658.5,852.5,1658.6,849,1657.1,846.1z"/>
		<path class="st1" d="M1445,164.8c2-0.4,3.9-1.5,5.2-3.4c2.6-3.7,1.7-8.8-2-11.4c-3.7-2.6-8.8-1.7-11.4,2c-0.2,0.3-0.3,0.5-0.5,0.8
			l-40.8-28.5c2.8-4.2,1.8-9.9-2.4-12.8c-4.2-3-10.1-1.9-13,2.3c-2,2.8-2.2,6.4-0.8,9.3c-2,0.4-3.9,1.5-5.2,3.4
			c-2.6,3.7-1.7,8.8,2,11.4s8.8,1.7,11.4-2c0.3-0.4,0.6-0.9,0.8-1.4l40.9,28.5c-0.1,0.1-0.2,0.2-0.3,0.3c-3,4.2-1.9,10.1,2.3,13
			c4.2,3,10.1,1.9,13-2.3C1446.2,171.2,1446.3,167.7,1445,164.8z"/>
		<path class="st1" d="M1409.3,1048.6c-1.5,1.4-2.5,3.4-2.6,5.6c-0.2,4.5,3.3,8.4,7.8,8.6s8.4-3.3,8.6-7.8c0-0.3,0-0.6,0-0.9
			l49.7,2.5c-0.1,5.1,3.8,9.3,8.9,9.6c5.2,0.3,9.5-3.7,9.8-8.9c0.2-3.4-1.5-6.5-4.2-8.3c1.5-1.4,2.5-3.4,2.6-5.6
			c0.2-4.5-3.3-8.4-7.8-8.6s-8.4,3.3-8.6,7.8c0,0.5,0,1.1,0.1,1.6l-49.8-2.5c0-0.1,0-0.3,0-0.4c0.3-5.2-3.7-9.5-8.9-9.8
			c-5.2-0.3-9.5,3.7-9.8,8.9C1404.9,1043.8,1406.7,1046.9,1409.3,1048.6z"/>
		<path class="st1" d="M1707.8,253.9c2.1,0.3,4.2-0.1,6-1.5c3.7-2.7,4.5-7.8,1.9-11.5c-2.7-3.7-7.8-4.5-11.5-1.9
			c-0.3,0.2-0.5,0.4-0.7,0.6l-29.1-40.4c4-3.1,4.9-8.8,2-12.9c-3-4.2-8.9-5.1-13.1-2.1c-2.8,2-4.1,5.3-3.8,8.5
			c-2.1-0.3-4.2,0.1-6,1.5c-3.7,2.7-4.5,7.8-1.9,11.5c2.7,3.7,7.8,4.5,11.5,1.9c0.4-0.3,0.8-0.7,1.2-1l29.2,40.4
			c-0.1,0.1-0.2,0.1-0.3,0.2c-4.2,3-5.1,8.9-2.1,13.1c3,4.2,8.9,5.1,13.1,2.1C1706.8,260.4,1708.1,257.1,1707.8,253.9z"/>
		<path class="st1" d="M1939,154.9c1.9-0.7,3.6-2.2,4.5-4.2c1.9-4.1,0.1-9-4-10.9s-9-0.1-10.9,4c-0.1,0.3-0.2,0.6-0.3,0.9L1883,124
			c2-4.7-0.1-10.1-4.7-12.2c-4.7-2.2-10.2-0.1-12.4,4.6c-1.4,3.1-1,6.6,0.9,9.3c-1.9,0.7-3.6,2.2-4.5,4.2c-1.9,4.1-0.1,9,4,10.9
			s9,0.1,10.9-4c0.2-0.5,0.4-1,0.5-1.5L1923,156c-0.1,0.1-0.1,0.2-0.2,0.4c-2.2,4.7-0.1,10.2,4.6,12.4c4.7,2.1,10.2,0.1,12.4-4.6
			C1941.3,161.1,1940.8,157.6,1939,154.9z"/>
		<path class="st1" d="M1764.4,805.4c-0.6,2-0.5,4.2,0.6,6.2c2.1,4,7.1,5.6,11.1,3.5s5.6-7,3.5-11.1c-0.1-0.3-0.3-0.5-0.5-0.8
			l44.1-23c2.4,4.4,8,6.2,12.5,3.8c4.6-2.4,6.4-8,4-12.6c-1.6-3.1-4.6-4.9-7.8-5c0.6-2,0.5-4.2-0.6-6.2c-2.1-4-7.1-5.6-11.1-3.5
			s-5.6,7-3.5,11.1c0.2,0.5,0.5,0.9,0.9,1.3l-44.2,23c-0.1-0.1-0.1-0.3-0.2-0.4c-2.4-4.6-8-6.4-12.6-4s-6.4,8-4,12.6
			C1758.2,803.4,1761.2,805.2,1764.4,805.4z"/>
		<path class="st1" d="M1379.9,596.5c-2,0.7-3.6,2.1-4.6,4.2c-2,4.1-0.3,9,3.8,11c4.1,2,9,0.3,11-3.8c0.1-0.3,0.3-0.6,0.4-0.9
			l44.8,21.6c-2.1,4.6-0.1,10.1,4.4,12.3c4.7,2.2,10.2,0.3,12.5-4.4c1.5-3.1,1.1-6.6-0.7-9.3c2-0.7,3.6-2.1,4.6-4.2
			c2-4.1,0.3-9-3.8-11c-4.1-2-9-0.3-11,3.8c-0.2,0.5-0.4,1-0.5,1.5l-44.9-21.7c0.1-0.1,0.1-0.2,0.2-0.4c2.2-4.7,0.3-10.2-4.4-12.5
			c-4.7-2.2-10.2-0.3-12.5,4.4C1377.7,590.3,1378.1,593.9,1379.9,596.5z"/>
		<path class="st1" d="M1314,391.5c1.8,1,4,1.2,6.2,0.6c4.3-1.3,6.8-5.9,5.5-10.2c-1.3-4.3-5.9-6.8-10.2-5.5
			c-0.3,0.1-0.6,0.2-0.9,0.3l-14.5-47.6c4.8-1.6,7.5-6.7,6-11.6s-6.7-7.7-11.7-6.2c-3.3,1-5.6,3.7-6.4,6.8c-1.8-1-4-1.2-6.2-0.6
			c-4.3,1.3-6.8,5.9-5.5,10.2c1.3,4.3,5.9,6.8,10.2,5.5c0.5-0.2,1-0.4,1.4-0.6l14.6,47.7c-0.1,0-0.3,0.1-0.4,0.1
			c-4.9,1.5-7.7,6.7-6.2,11.7c1.5,4.9,6.7,7.7,11.7,6.2C1310.9,397.3,1313.3,394.6,1314,391.5z"/>
		<path class="st1" d="M1052.4,39.1c-1.9,0.9-3.5,2.4-4.3,4.5c-1.6,4.2,0.5,9,4.7,10.6s9-0.5,10.6-4.7c0.1-0.3,0.2-0.6,0.3-0.9
			l46.4,17.9c-1.7,4.8,0.7,10.1,5.4,11.9c4.8,1.9,10.2-0.5,12.1-5.4c1.2-3.2,0.6-6.7-1.4-9.2c1.9-0.9,3.5-2.4,4.3-4.5
			c1.6-4.2-0.5-9-4.7-10.6c-4.2-1.6-9,0.5-10.6,4.7c-0.2,0.5-0.3,1-0.4,1.5L1068.3,37c0.1-0.1,0.1-0.2,0.2-0.4
			c1.9-4.8-0.5-10.2-5.4-12.1c-4.8-1.9-10.2,0.5-12.1,5.4C1049.8,33.1,1050.4,36.5,1052.4,39.1z"/>
		<path class="st1" d="M1060.5,328.6c1.5,1.5,3.5,2.4,5.7,2.4c4.5,0.1,8.3-3.6,8.3-8.1c0.1-4.5-3.6-8.3-8.1-8.3c-0.3,0-0.6,0-0.9,0
			l0.7-49.7c5.1,0,9.2-4.1,9.3-9.2c0.1-5.2-4.1-9.4-9.2-9.5c-3.4,0-6.5,1.8-8.1,4.5c-1.5-1.5-3.5-2.4-5.7-2.4
			c-4.5-0.1-8.3,3.6-8.3,8.1c-0.1,4.5,3.6,8.3,8.1,8.3c0.5,0,1.1,0,1.6-0.1l-0.7,49.8c-0.1,0-0.3,0-0.4,0c-5.2-0.1-9.4,4.1-9.5,9.2
			c-0.1,5.2,4.1,9.4,9.2,9.5C1055.8,333.2,1058.8,331.4,1060.5,328.6z"/>
		<path class="st1" d="M1578.2,461.5c0.1,2.1,1,4.1,2.6,5.6c3.3,3.1,8.5,2.9,11.6-0.4s2.9-8.5-0.4-11.6c-0.2-0.2-0.5-0.4-0.7-0.6
			l33.9-36.4c3.8,3.4,9.6,3.1,13.1-0.6c3.5-3.8,3.3-9.7-0.5-13.2c-2.5-2.3-6-3-9.1-2.1c-0.1-2.1-1-4.1-2.6-5.6
			c-3.3-3.1-8.5-2.9-11.6,0.4s-2.9,8.5,0.4,11.6c0.4,0.4,0.8,0.7,1.2,1l-34,36.5c-0.1-0.1-0.2-0.2-0.3-0.3
			c-3.8-3.5-9.7-3.3-13.2,0.5s-3.3,9.7,0.5,13.2C1571.6,461.8,1575.1,462.5,1578.2,461.5z"/>
		<path class="st1" d="M1342.7,37.3c-1.5,1.5-2.4,3.5-2.4,5.7c0,4.5,3.7,8.2,8.2,8.2s8.2-3.7,8.2-8.2c0-0.3,0-0.6-0.1-0.9l49.7,0.1
			c0.1,5.1,4.2,9.2,9.3,9.2c5.2,0,9.4-4.2,9.4-9.3c0-3.4-1.9-6.5-4.6-8.1c1.5-1.5,2.4-3.5,2.4-5.7c0-4.5-3.7-8.2-8.2-8.2
			s-8.2,3.7-8.2,8.2c0,0.5,0.1,1.1,0.1,1.6l-49.9-0.1c0-0.1,0-0.3,0-0.4c0-5.2-4.2-9.4-9.3-9.4c-5.2,0-9.4,4.2-9.4,9.3
			C1338.1,32.7,1340,35.7,1342.7,37.3z"/>
		<path class="st1" d="M1291.6,578.1c0.9-1.9,1.1-4.1,0.4-6.2c-1.5-4.3-6.1-6.6-10.4-5.1s-6.6,6.1-5.1,10.4c0.1,0.3,0.2,0.6,0.4,0.9
			l-47.1,16c-1.7-4.8-7-7.3-11.8-5.7c-4.9,1.7-7.5,7-5.9,11.9c1.1,3.3,3.8,5.5,7,6.2c-0.9,1.9-1.1,4.1-0.4,6.2
			c1.5,4.3,6.1,6.6,10.4,5.1s6.6-6.1,5.1-10.4c-0.2-0.5-0.4-1-0.6-1.4l47.2-16c0,0.1,0.1,0.3,0.1,0.4c1.7,4.9,7,7.5,11.9,5.9
			c4.9-1.7,7.5-7,5.9-11.9C1297.5,581,1294.8,578.8,1291.6,578.1z"/>
		<path class="st1" d="M1065.9,611.2c-1.8,1.1-3.2,2.8-3.7,5c-1.1,4.4,1.5,8.9,5.9,10s8.9-1.5,10-5.9c0.1-0.3,0.1-0.6,0.2-0.9
			l48.1,12.6c-1.2,4.9,1.8,9.9,6.7,11.2c5,1.3,10.1-1.7,11.4-6.7c0.9-3.3-0.2-6.7-2.4-9c1.8-1.1,3.2-2.8,3.7-5
			c1.1-4.4-1.5-8.9-5.9-10s-8.9,1.5-10,5.9c-0.1,0.5-0.2,1-0.2,1.5l-48.2-12.6c0-0.1,0.1-0.3,0.1-0.4c1.3-5-1.7-10.1-6.7-11.4
			c-5-1.3-10.1,1.7-11.4,6.7C1062.6,605.5,1063.7,608.9,1065.9,611.2z"/>
		<path class="st1" d="M1160.7,938c1,1.8,2.7,3.3,4.8,3.9c4.3,1.3,8.9-1.1,10.2-5.5c1.3-4.3-1.1-8.9-5.5-10.2
			c-0.3-0.1-0.6-0.2-0.9-0.2l14.4-47.6c4.9,1.4,10-1.4,11.5-6.3c1.5-4.9-1.3-10.2-6.3-11.7c-3.3-1-6.7-0.1-9.1,2.1
			c-1-1.8-2.7-3.3-4.8-3.9c-4.3-1.3-8.9,1.1-10.2,5.5c-1.3,4.3,1.1,8.9,5.5,10.2c0.5,0.2,1,0.3,1.5,0.3l-14.4,47.7
			c-0.1,0-0.3-0.1-0.4-0.1c-4.9-1.5-10.2,1.3-11.7,6.3c-1.5,4.9,1.3,10.2,6.3,11.7C1154.9,941.1,1158.4,940.2,1160.7,938z"/>
		<path class="st1" d="M1299.4,897.3c-0.4-2-1.5-4-3.3-5.2c-3.7-2.6-8.8-1.7-11.4,2s-1.7,8.8,2,11.4c0.3,0.2,0.5,0.3,0.8,0.5
			l-28.8,40.6c-4.2-2.8-9.9-1.8-12.9,2.3c-3,4.2-2,10.1,2.2,13c2.8,2,6.3,2.2,9.3,0.9c0.4,2,1.5,4,3.3,5.2c3.7,2.6,8.8,1.7,11.4-2
			s1.7-8.8-2-11.4c-0.4-0.3-0.9-0.6-1.4-0.8l28.8-40.7c0.1,0.1,0.2,0.2,0.3,0.3c4.2,3,10.1,2,13-2.2c3-4.2,2-10.1-2.2-13
			C1305.8,896.2,1302.3,896,1299.4,897.3z"/>
		<path class="st1" d="M1340.4,830.9c1.8-1.1,3.1-2.9,3.6-5c1.1-4.4-1.6-8.8-6-9.9s-8.8,1.6-9.9,6c-0.1,0.3-0.1,0.6-0.2,0.9
			l-48.3-11.8c1.1-5-2-9.9-6.9-11.1c-5-1.2-10.1,1.9-11.3,6.9c-0.8,3.3,0.3,6.7,2.6,8.9c-1.8,1.1-3.1,2.9-3.6,5
			c-1.1,4.4,1.6,8.8,6,9.9s8.8-1.6,9.9-6c0.1-0.5,0.2-1,0.2-1.6l48.4,11.8c0,0.1-0.1,0.3-0.1,0.4c-1.2,5,1.9,10.1,6.9,11.3
			s10.1-1.9,11.3-6.9C1343.8,836.5,1342.7,833.1,1340.4,830.9z"/>
		<path class="st1" d="M1115.6,405.4c0.2,2.1,1.2,4.1,2.9,5.5c3.5,2.9,8.6,2.5,11.6-0.9c2.9-3.5,2.5-8.6-0.9-11.6
			c-0.2-0.2-0.5-0.4-0.8-0.6l32.2-37.9c3.9,3.2,9.7,2.7,13-1.2c3.3-3.9,2.9-9.8-1.1-13.2c-2.6-2.2-6.1-2.7-9.2-1.7
			c-0.2-2.1-1.2-4.1-2.9-5.5c-3.5-2.9-8.6-2.5-11.6,0.9c-2.9,3.5-2.5,8.6,0.9,11.6c0.4,0.3,0.8,0.6,1.3,0.9l-32.3,38
			c-0.1-0.1-0.2-0.2-0.3-0.3c-3.9-3.3-9.8-2.9-13.2,1.1c-3.3,3.9-2.9,9.8,1.1,13.2C1109.1,406,1112.6,406.5,1115.6,405.4z"/>
		<path class="st1" d="M1366.3,931.3c-1.6,1.3-2.7,3.3-2.9,5.5c-0.4,4.5,2.9,8.5,7.4,9c4.5,0.4,8.5-2.9,9-7.4c0-0.3,0-0.6,0-0.9
			l49.5,4.9c-0.4,5.1,3.3,9.5,8.4,10s9.7-3.3,10.2-8.4c0.3-3.4-1.2-6.6-3.8-8.5c1.6-1.3,2.7-3.3,2.9-5.5c0.4-4.5-2.9-8.5-7.4-9
			c-4.5-0.4-8.5,2.9-9,7.4c-0.1,0.5,0,1.1,0,1.6l-49.6-5c0-0.1,0-0.3,0.1-0.4c0.5-5.1-3.3-9.7-8.4-10.2s-9.7,3.3-10.2,8.4
			C1362.1,926.2,1363.7,929.4,1366.3,931.3z"/>
		<path class="st1" d="M1570.4,287.2c-2.1,0.1-4.1,1-5.6,2.7c-3,3.4-2.7,8.6,0.6,11.6c3.4,3,8.6,2.7,11.6-0.6
			c0.2-0.2,0.4-0.5,0.6-0.7l37.1,33.2c-3.3,3.9-2.9,9.6,0.9,13s9.8,3.1,13.2-0.7c2.3-2.6,2.9-6.1,1.9-9.1c2.1-0.1,4.1-1,5.6-2.7
			c3-3.4,2.7-8.6-0.6-11.6c-3.4-3-8.6-2.7-11.6,0.6c-0.4,0.4-0.7,0.8-0.9,1.3l-37.1-33.3c0.1-0.1,0.2-0.2,0.3-0.3
			c3.4-3.8,3.1-9.8-0.7-13.2c-3.8-3.4-9.8-3.1-13.2,0.7C1570,280.7,1569.4,284.2,1570.4,287.2z"/>
		<path class="st1" d="M1921.9,692c1.8-1,3.2-2.7,3.9-4.9c1.3-4.4-1.2-8.9-5.6-10.2s-8.9,1.2-10.2,5.6c-0.1,0.3-0.2,0.6-0.2,0.9
			l-47.7-14c1.3-4.9-1.5-10-6.4-11.4c-5-1.4-10.2,1.4-11.6,6.4c-1,3.3,0,6.7,2.2,9c-1.8,1-3.2,2.7-3.9,4.9
			c-1.3,4.4,1.2,8.9,5.6,10.2s8.9-1.2,10.2-5.6c0.1-0.5,0.2-1,0.3-1.5l47.9,14c0,0.1-0.1,0.3-0.1,0.4c-1.4,5,1.4,10.2,6.4,11.6
			c5,1.4,10.2-1.4,11.6-6.4C1925.1,697.7,1924.2,694.3,1921.9,692z"/>
		<path class="st1" d="M1773.2,1053.4c1.5-1.4,2.5-3.4,2.5-5.7c0.1-4.5-3.4-8.3-7.9-8.5c-4.5-0.1-8.3,3.4-8.5,7.9c0,0.3,0,0.6,0,0.9
			l-49.7-1.6c0-5.1-4-9.3-9.1-9.4c-5.2-0.2-9.5,3.9-9.6,9.1c-0.1,3.4,1.7,6.5,4.4,8.2c-1.5,1.4-2.5,3.4-2.5,5.7
			c-0.1,4.5,3.4,8.3,7.9,8.5c4.5,0.1,8.3-3.4,8.5-7.9c0-0.5,0-1.1-0.1-1.6l49.8,1.6c0,0.1,0,0.3,0,0.4c-0.2,5.2,3.9,9.5,9.1,9.6
			c5.2,0.2,9.5-3.9,9.6-9.1C1777.7,1058.2,1776,1055.1,1773.2,1053.4z"/>
		<path class="st1" d="M1612.5,661.7c-1.4-1.5-3.4-2.5-5.6-2.6c-4.5-0.2-8.4,3.3-8.6,7.8s3.3,8.4,7.8,8.6c0.3,0,0.6,0,0.9,0
			l-2.5,49.7c-5.1-0.1-9.3,3.8-9.6,8.9c-0.3,5.2,3.7,9.5,8.9,9.8c3.4,0.2,6.5-1.5,8.3-4.2c1.4,1.5,3.4,2.5,5.6,2.6
			c4.5,0.2,8.4-3.3,8.6-7.8s-3.3-8.4-7.8-8.6c-0.5,0-1.1,0-1.6,0.1l2.5-49.8c0.1,0,0.3,0,0.4,0c5.2,0.3,9.5-3.7,9.8-8.9
			s-3.7-9.5-8.9-9.8C1617.4,657.3,1614.3,659,1612.5,661.7z"/>
	</g>
</g>
<g>
	<path class="st1" d="M756.5,581.1c-1.6,1.3-2.7,3.3-2.9,5.5c-0.4,4.5,2.9,8.5,7.5,8.9c4.5,0.4,8.5-2.9,8.9-7.5c0-0.3,0-0.6,0-0.9
		l49.6,4.4c-0.3,5.1,3.4,9.5,8.5,9.9c5.1,0.5,9.7-3.3,10.1-8.5c0.3-3.4-1.3-6.6-3.9-8.4c1.6-1.3,2.7-3.3,2.9-5.5
		c0.4-4.5-2.9-8.5-7.5-8.9c-4.5-0.4-8.5,2.9-8.9,7.5c0,0.5,0,1.1,0,1.6l-49.7-4.4c0-0.1,0-0.3,0.1-0.4c0.5-5.1-3.3-9.7-8.5-10.1
		c-5.1-0.5-9.7,3.3-10.1,8.5C752.3,576,753.9,579.2,756.5,581.1z"/>
	<path class="st1" d="M429.8,579.5c-0.2,2.1,0.3,4.2,1.7,6c2.8,3.6,8,4.2,11.5,1.4c3.6-2.8,4.2-8,1.4-11.5c-0.2-0.2-0.4-0.5-0.6-0.7
		l39.1-30.7c3.2,3.9,9,4.6,13,1.4c4.1-3.2,4.8-9.1,1.6-13.1c-2.1-2.7-5.4-3.9-8.6-3.5c0.2-2.1-0.3-4.2-1.7-6
		c-2.8-3.6-8-4.2-11.5-1.4c-3.6,2.8-4.2,8-1.4,11.5c0.3,0.4,0.7,0.8,1.1,1.1l-39.2,30.8c-0.1-0.1-0.2-0.2-0.2-0.3
		c-3.2-4.1-9.1-4.8-13.1-1.6c-4.1,3.2-4.8,9.1-1.6,13.1C423.3,578.7,426.6,579.9,429.8,579.5z"/>
	<path class="st1" d="M824.6,51c1.6-1.3,2.8-3.2,3.1-5.4c0.6-4.5-2.6-8.6-7.1-9.2c-4.5-0.6-8.6,2.6-9.2,7.1c0,0.3-0.1,0.6-0.1,0.9
		L762,38.2c0.5-5-3.1-9.6-8.1-10.2c-5.1-0.6-9.8,3-10.5,8.1c-0.4,3.4,1,6.6,3.6,8.6c-1.6,1.3-2.8,3.2-3.1,5.4
		c-0.6,4.5,2.6,8.6,7.1,9.2c4.5,0.6,8.6-2.6,9.2-7.1c0.1-0.5,0.1-1.1,0-1.6l49.5,6.3c0,0.1-0.1,0.3-0.1,0.4c-0.6,5.1,3,9.8,8.1,10.5
		c5.1,0.6,9.8-3,10.5-8.1C828.7,56.1,827.2,52.9,824.6,51z"/>
	<path class="st1" d="M764.9,212.4c-2.1,0.1-4.1,1-5.6,2.6c-3.1,3.3-2.8,8.5,0.5,11.6s8.5,2.8,11.6-0.5c0.2-0.2,0.4-0.5,0.6-0.7
		l36.7,33.6c-3.3,3.8-3,9.6,0.7,13.1c3.8,3.5,9.7,3.2,13.2-0.6c2.3-2.5,3-6,2-9.1c2.1-0.1,4.1-1,5.6-2.6c3.1-3.3,2.8-8.5-0.5-11.6
		s-8.5-2.8-11.6,0.5c-0.4,0.4-0.7,0.8-0.9,1.3l-36.8-33.7c0.1-0.1,0.2-0.2,0.3-0.3c3.5-3.8,3.2-9.7-0.6-13.2s-9.7-3.2-13.2,0.6
		C764.6,205.9,764,209.4,764.9,212.4z"/>
	<path class="st1" d="M347.3,414.4c0.1,2.1,0.9,4.1,2.5,5.7c3.3,3.1,8.5,3,11.6-0.3s3-8.5-0.3-11.6c-0.2-0.2-0.5-0.4-0.7-0.6
		l34.4-36c3.7,3.4,9.5,3.2,13.1-0.4c3.6-3.7,3.4-9.7-0.3-13.2c-2.5-2.4-6-3.1-9-2.2c-0.1-2.1-0.9-4.1-2.5-5.7
		c-3.3-3.1-8.5-3-11.6,0.3s-3,8.5,0.3,11.6c0.4,0.4,0.8,0.7,1.2,1l-34.4,36c-0.1-0.1-0.2-0.2-0.3-0.3c-3.7-3.6-9.7-3.4-13.2,0.3
		c-3.6,3.7-3.4,9.7,0.3,13.2C340.8,414.5,344.3,415.3,347.3,414.4z"/>
	<path class="st1" d="M162.8,1006c-0.2-2.1-1.2-4-3-5.5c-3.5-2.9-8.7-2.3-11.6,1.2c-2.9,3.5-2.3,8.7,1.2,11.6
		c0.2,0.2,0.5,0.4,0.8,0.5l-31.5,38.5c-4-3.1-9.8-2.5-13,1.4c-3.3,4-2.7,9.9,1.3,13.2c2.7,2.2,6.2,2.6,9.2,1.5c0.2,2.1,1.2,4,3,5.5
		c3.5,2.9,8.7,2.3,11.6-1.2c2.9-3.5,2.3-8.7-1.2-11.6c-0.4-0.3-0.9-0.6-1.3-0.9l31.5-38.6c0.1,0.1,0.2,0.2,0.3,0.3
		c4,3.3,9.9,2.7,13.2-1.3s2.7-9.9-1.3-13.2C169.3,1005.3,165.8,1004.9,162.8,1006z"/>
	<path class="st1" d="M864.3,380.6c2.1-0.2,4.1-1.1,5.5-2.8c3-3.4,2.6-8.6-0.9-11.6c-3.4-3-8.6-2.6-11.6,0.9
		c-0.2,0.2-0.4,0.5-0.6,0.7L819,335.3c3.2-3.9,2.8-9.7-1.1-13c-3.9-3.4-9.8-2.9-13.2,1c-2.3,2.6-2.8,6.1-1.8,9.1
		c-2.1,0.2-4.1,1.1-5.5,2.8c-3,3.4-2.6,8.6,0.9,11.6c3.4,3,8.6,2.6,11.6-0.9c0.3-0.4,0.6-0.8,0.9-1.3l37.7,32.6
		c-0.1,0.1-0.2,0.2-0.3,0.3c-3.4,3.9-2.9,9.8,1,13.2s9.8,2.9,13.2-1C864.8,387.1,865.4,383.6,864.3,380.6z"/>
	<path class="st1" d="M673.8,439.9c-0.6-2-2-3.7-3.9-4.8c-4-2.1-9-0.7-11.1,3.3s-0.7,9,3.3,11.1c0.3,0.2,0.6,0.3,0.9,0.4l-23.6,43.8
		c-4.5-2.3-10.1-0.6-12.5,3.9s-0.7,10.2,3.8,12.7c3,1.6,6.6,1.4,9.3-0.3c0.6,2,2,3.7,3.9,4.8c4,2.1,9,0.7,11.1-3.3s0.7-9-3.3-11.1
		c-0.5-0.3-1-0.5-1.4-0.6l23.6-43.9c0.1,0.1,0.2,0.1,0.4,0.2c4.5,2.4,10.2,0.7,12.7-3.8c2.4-4.5,0.7-10.2-3.8-12.7
		C680.1,438.1,676.6,438.3,673.8,439.9z"/>
	<path class="st1" d="M835.9,774.3c-2.1,0.1-4.1,1-5.7,2.6c-3.1,3.3-2.9,8.5,0.4,11.6c3.3,3.1,8.5,2.9,11.6-0.4
		c0.2-0.2,0.4-0.5,0.6-0.7l36.3,34c-3.4,3.8-3.1,9.6,0.6,13.1c3.8,3.5,9.7,3.3,13.2-0.4c2.4-2.5,3-6,2.1-9.1c2.1-0.1,4.1-1,5.7-2.6
		c3.1-3.3,2.9-8.5-0.4-11.6c-3.3-3.1-8.5-2.9-11.6,0.4c-0.4,0.4-0.7,0.8-1,1.2l-36.4-34.1c0.1-0.1,0.2-0.2,0.3-0.3
		c3.5-3.8,3.3-9.7-0.4-13.2c-3.8-3.5-9.7-3.3-13.2,0.4C835.7,767.8,835,771.2,835.9,774.3z"/>
	<path class="st1" d="M940.5,401.6c-0.7,2-0.7,4.2,0.2,6.2c1.9,4.1,6.7,6,10.9,4.1c4.1-1.9,6-6.7,4.1-10.9c-0.1-0.3-0.3-0.6-0.4-0.8
		l45.3-20.6c2.2,4.6,7.6,6.6,12.3,4.5s6.8-7.7,4.7-12.4c-1.4-3.1-4.4-5.1-7.6-5.4c0.7-2,0.7-4.2-0.2-6.2c-1.9-4.1-6.7-6-10.9-4.1
		c-4.1,1.9-6,6.7-4.1,10.9c0.2,0.5,0.5,0.9,0.8,1.4l-45.4,20.6c-0.1-0.1-0.1-0.3-0.2-0.4c-2.1-4.7-7.7-6.8-12.4-4.7
		c-4.7,2.1-6.8,7.7-4.7,12.4C934.3,399.3,937.3,401.3,940.5,401.6z"/>
	<path class="st1" d="M780.5,482.5c1.9,0.8,4.1,0.9,6.2,0c4.2-1.7,6.2-6.5,4.5-10.7s-6.5-6.2-10.7-4.5c-0.3,0.1-0.6,0.3-0.8,0.4
		l-18.6-46.1c4.7-2,6.9-7.4,5-12.1c-1.9-4.8-7.4-7.1-12.2-5.2c-3.2,1.3-5.3,4.1-5.7,7.3c-1.9-0.8-4.1-0.9-6.2,0
		c-4.2,1.7-6.2,6.5-4.5,10.7s6.5,6.2,10.7,4.5c0.5-0.2,1-0.4,1.4-0.7l18.7,46.2c-0.1,0-0.3,0.1-0.4,0.1c-4.8,1.9-7.1,7.4-5.2,12.2
		c1.9,4.8,7.4,7.1,12.2,5.2C777.9,488.6,780,485.7,780.5,482.5z"/>
	<path class="st1" d="M169.7,163c0.2,2.1,1.2,4,3,5.5c3.5,2.9,8.7,2.4,11.6-1.2c2.9-3.5,2.4-8.7-1.2-11.6c-0.2-0.2-0.5-0.4-0.8-0.5
		l31.5-38.5c4,3.1,9.8,2.5,13-1.4c3.3-4,2.7-9.9-1.3-13.2c-2.7-2.2-6.2-2.6-9.2-1.5c-0.2-2.1-1.2-4-3-5.5c-3.5-2.9-8.7-2.4-11.6,1.2
		c-2.9,3.5-2.4,8.7,1.2,11.6c0.4,0.3,0.9,0.6,1.3,0.9l-31.6,38.6c-0.1-0.1-0.2-0.2-0.3-0.3c-4-3.3-9.9-2.7-13.2,1.3
		s-2.7,9.9,1.3,13.2C163.2,163.7,166.7,164.1,169.7,163z"/>
	<path class="st1" d="M-21,844.6c-2-0.7-4.2-0.6-6.2,0.3c-4.1,1.9-5.9,6.8-3.9,10.9c1.9,4.1,6.8,5.9,10.9,3.9
		c0.3-0.1,0.6-0.3,0.8-0.5l21.3,45c-4.5,2.3-6.5,7.7-4.3,12.4s7.8,6.7,12.5,4.5c3.1-1.5,5-4.4,5.3-7.6c2,0.7,4.2,0.6,6.2-0.3
		c4.1-1.9,5.9-6.8,3.9-10.9c-1.9-4.1-6.8-5.9-10.9-3.9c-0.5,0.2-0.9,0.5-1.3,0.8L-8,854c0.1-0.1,0.3-0.1,0.4-0.2
		c4.7-2.2,6.7-7.8,4.5-12.5s-7.8-6.7-12.5-4.5C-18.8,838.4-20.7,841.4-21,844.6z"/>
	<path class="st1" d="M287.7,255.7c-2.1,0.2-4.1,1.2-5.5,2.9c-2.9,3.5-2.5,8.6,1,11.6c3.5,2.9,8.6,2.5,11.6-1
		c0.2-0.2,0.4-0.5,0.6-0.8l38,32.1c-3.2,3.9-2.7,9.7,1.2,13c3.9,3.3,9.8,2.8,13.2-1.1c2.2-2.6,2.7-6.1,1.7-9.2
		c2.1-0.2,4.1-1.2,5.5-2.9c2.9-3.5,2.5-8.6-1-11.6c-3.5-2.9-8.6-2.5-11.6,1c-0.3,0.4-0.6,0.8-0.9,1.3l-38.2-32
		c0.1-0.1,0.2-0.2,0.3-0.3c3.3-3.9,2.8-9.8-1.1-13.2s-9.8-2.8-13.2,1.1C287.1,249.2,286.6,252.7,287.7,255.7z"/>
	<path class="st1" d="M748.9,946.1c0.4-2,0.1-4.2-1.1-6.1c-2.5-3.8-7.5-4.9-11.4-2.4c-3.8,2.5-4.9,7.5-2.4,11.4
		c0.2,0.3,0.4,0.5,0.6,0.8l-41.8,27c-2.8-4.2-8.5-5.4-12.8-2.6c-4.3,2.8-5.6,8.6-2.8,12.9c1.9,2.9,5.1,4.4,8.3,4.3
		c-0.4,2-0.1,4.2,1.1,6.1c2.5,3.8,7.5,4.9,11.4,2.4c3.8-2.5,4.9-7.5,2.4-11.4c-0.3-0.4-0.6-0.9-1-1.2l41.9-27.1
		c0.1,0.1,0.1,0.2,0.2,0.4c2.8,4.3,8.6,5.6,12.9,2.8c4.3-2.8,5.6-8.6,2.8-12.9C755.3,947.5,752.1,946,748.9,946.1z"/>
	<path class="st1" d="M989.1,978c-1.7-1.2-3.9-1.7-6.1-1.3c-4.5,0.8-7.5,5-6.7,9.5s5,7.5,9.5,6.7c0.3-0.1,0.6-0.1,0.9-0.2l8.5,49
		c-5,1-8.3,5.7-7.4,10.8c0.9,5.1,5.7,8.5,10.8,7.6c3.4-0.6,6-2.9,7.2-6c1.7,1.2,3.9,1.7,6.1,1.3c4.5-0.8,7.5-5,6.7-9.5
		s-5-7.5-9.5-6.7c-0.5,0.1-1,0.2-1.5,0.4l-8.5-49.1c0.1,0,0.3,0,0.4-0.1c5.1-0.9,8.5-5.7,7.6-10.8s-5.7-8.5-10.8-7.6
		C992.9,972.6,990.3,975,989.1,978z"/>
	<path class="st1" d="M527.5,129.4c-1,1.8-1.3,4-0.7,6.2c1.3,4.4,5.8,6.9,10.2,5.6c4.4-1.3,6.9-5.8,5.6-10.2
		c-0.1-0.3-0.2-0.6-0.3-0.9l47.8-13.9c1.5,4.8,6.6,7.6,11.5,6.2c5-1.4,7.8-6.6,6.4-11.6c-1-3.3-3.6-5.7-6.7-6.5c1-1.8,1.3-4,0.7-6.2
		c-1.3-4.4-5.8-6.9-10.2-5.6s-6.9,5.8-5.6,10.2c0.1,0.5,0.3,1,0.6,1.5l-47.9,13.9c0-0.1-0.1-0.3-0.1-0.4c-1.4-5-6.6-7.8-11.6-6.4
		s-7.8,6.6-6.4,11.6C521.8,126.3,524.4,128.7,527.5,129.4z"/>
	<path class="st1" d="M203,495c2,0.6,4.2,0.5,6.2-0.6c4-2.1,5.6-7,3.5-11.1c-2.1-4-7-5.6-11.1-3.5c-0.3,0.1-0.5,0.3-0.8,0.5
		l-22.9-44.1c4.4-2.4,6.2-8,3.8-12.5c-2.4-4.6-8-6.4-12.6-4c-3.1,1.6-4.9,4.6-5,7.8c-2-0.6-4.2-0.5-6.2,0.6c-4,2.1-5.6,7-3.5,11.1
		c2.1,4,7,5.6,11.1,3.5c0.5-0.2,0.9-0.5,1.3-0.9l23,44.2c-0.1,0.1-0.3,0.1-0.4,0.2c-4.6,2.4-6.4,8-4,12.6s8,6.4,12.6,4
		C201,501.2,202.8,498.2,203,495z"/>
	<path class="st1" d="M840.8,1071.5c2.1,0.3,4.2-0.1,6-1.4c3.7-2.6,4.5-7.8,1.9-11.5s-7.8-4.5-11.5-1.9c-0.3,0.2-0.5,0.4-0.7,0.6
		l-29-40.4c4.1-3,4.9-8.8,2-12.9c-3-4.2-8.9-5.1-13.1-2.1c-2.8,2-4.1,5.3-3.8,8.5c-2.1-0.3-4.2,0.1-6,1.4c-3.7,2.6-4.5,7.8-1.9,11.5
		c2.6,3.7,7.8,4.5,11.5,1.9c0.4-0.3,0.8-0.7,1.2-1l29.1,40.5c-0.1,0.1-0.2,0.1-0.3,0.2c-4.2,3-5.1,8.9-2.1,13.1s8.9,5.1,13.1,2.1
		C839.8,1077.9,841.1,1074.7,840.8,1071.5z"/>
	<path class="st1" d="M937.4,700c0.5,2,1.7,3.9,3.6,5c3.8,2.4,8.9,1.2,11.3-2.6c2.4-3.8,1.2-8.9-2.6-11.3c-0.3-0.2-0.5-0.3-0.8-0.4
		l26.3-42.2c4.4,2.6,10,1.2,12.7-3.1c2.7-4.4,1.4-10.2-3-12.9c-2.9-1.8-6.5-1.8-9.3-0.3c-0.5-2-1.7-3.9-3.6-5
		c-3.8-2.4-8.9-1.2-11.3,2.6c-2.4,3.8-1.2,8.9,2.6,11.3c0.5,0.3,0.9,0.5,1.4,0.7L938.4,684c-0.1-0.1-0.2-0.2-0.3-0.2
		c-4.4-2.7-10.2-1.4-12.9,3s-1.4,10.2,3,12.9C931.1,701.5,934.6,701.5,937.4,700z"/>
	<path class="st1" d="M940.8,126.8c-0.5-2-1.9-3.8-3.8-4.9c-3.9-2.3-8.9-0.9-11.2,3s-0.9,8.9,3,11.2c0.3,0.2,0.6,0.3,0.8,0.4l-25,43
		c-4.4-2.5-10-0.9-12.6,3.5c-2.6,4.5-1.1,10.2,3.4,12.8c3,1.7,6.5,1.6,9.3,0c0.5,2,1.9,3.8,3.8,4.9c3.9,2.3,8.9,0.9,11.2-3
		s0.9-8.9-3-11.2c-0.5-0.3-0.9-0.5-1.4-0.7l25.1-43.1c0.1,0.1,0.2,0.2,0.3,0.2c4.5,2.6,10.2,1.1,12.8-3.4s1.1-10.2-3.4-12.8
		C947.1,125.1,943.6,125.2,940.8,126.8z"/>
	<path class="st1" d="M980.8,569c1.3,1.6,3.3,2.7,5.5,2.9c4.5,0.4,8.5-2.9,9-7.4c0.4-4.5-2.9-8.5-7.4-9c-0.3,0-0.6,0-0.9,0l4.9-49.5
		c5.1,0.4,9.5-3.3,10-8.4s-3.3-9.7-8.4-10.2c-3.4-0.3-6.6,1.2-8.5,3.8c-1.3-1.6-3.3-2.7-5.5-2.9c-4.5-0.4-8.5,2.9-9,7.4
		c-0.4,4.5,2.9,8.5,7.4,9c0.5,0.1,1.1,0,1.6,0l-4.9,49.6c-0.1,0-0.3,0-0.4-0.1c-5.1-0.5-9.7,3.3-10.2,8.4c-0.5,5.1,3.3,9.7,8.4,10.2
		C975.8,573.2,978.9,571.6,980.8,569z"/>
	<path class="st1" d="M990.9,880.1c0.9-1.9,1.2-4.1,0.5-6.2c-1.4-4.3-6-6.7-10.3-5.3s-6.7,6-5.3,10.3c0.1,0.3,0.2,0.6,0.3,0.9
		l-47.3,15.4c-1.7-4.8-6.9-7.4-11.7-5.8c-4.9,1.6-7.6,6.9-6,11.8c1.1,3.3,3.8,5.6,6.9,6.2c-0.9,1.9-1.2,4.1-0.5,6.2
		c1.4,4.3,6,6.7,10.3,5.3s6.7-6,5.3-10.3c-0.2-0.5-0.4-1-0.6-1.4l47.4-15.4c0,0.1,0.1,0.3,0.1,0.4c1.6,4.9,6.9,7.6,11.8,6
		c4.9-1.6,7.6-6.9,6-11.8C996.7,883.1,994,880.8,990.9,880.1z"/>
	<path class="st1" d="M938.8,1035c2.1-0.1,4.1-1,5.6-2.6c3.1-3.3,2.9-8.5-0.5-11.6c-3.3-3.1-8.5-2.9-11.6,0.5
		c-0.2,0.2-0.4,0.5-0.6,0.7l-36.6-33.7c3.4-3.8,3.1-9.6-0.7-13.1s-9.7-3.3-13.2,0.5c-2.3,2.5-3,6-2.1,9.1c-2.1,0.1-4.1,1-5.6,2.6
		c-3.1,3.3-2.9,8.5,0.5,11.6c3.3,3.1,8.5,2.9,11.6-0.5c0.4-0.4,0.7-0.8,0.9-1.2l36.6,33.8c-0.1,0.1-0.2,0.2-0.3,0.3
		c-3.5,3.8-3.3,9.7,0.5,13.2s9.7,3.3,13.2-0.5C939,1041.5,939.7,1038.1,938.8,1035z"/>
	<path class="st1" d="M237.7,668c-0.3-2.1-1.4-4-3.2-5.3c-3.7-2.7-8.8-1.9-11.5,1.8s-1.9,8.8,1.8,11.5c0.3,0.2,0.5,0.4,0.8,0.5
		l-29.4,40.1c-4.2-2.9-9.9-2-12.9,2.1c-3.1,4.2-2.2,10,2,13.1c2.8,2,6.3,2.3,9.3,1c0.3,2.1,1.4,4,3.2,5.3c3.7,2.7,8.8,1.9,11.5-1.8
		s1.9-8.8-1.8-11.5c-0.4-0.3-0.9-0.6-1.3-0.8l29.5-40.2c0.1,0.1,0.2,0.2,0.3,0.3c4.2,3.1,10,2.2,13.1-2s2.2-10-2-13.1
		C244.2,667,240.6,666.7,237.7,668z"/>
	<path class="st1" d="M1019.5,87.3c2,0.6,4.2,0.5,6.2-0.5c4-2.1,5.7-7,3.6-11s-7-5.7-11-3.6c-0.3,0.1-0.6,0.3-0.8,0.5L995,28.2
		c4.5-2.4,6.2-7.9,3.9-12.5s-8-6.4-12.6-4.1c-3.1,1.6-4.9,4.6-5.1,7.8c-2-0.6-4.2-0.5-6.2,0.5c-4,2-5.7,7-3.6,11c2.1,4,7,5.7,11,3.6
		c0.5-0.2,0.9-0.5,1.3-0.8l22.5,44.5c-0.1,0.1-0.3,0.1-0.4,0.2c-4.6,2.3-6.4,8-4.1,12.6c2.3,4.6,8,6.4,12.6,4.1
		C1017.5,93.5,1019.3,90.5,1019.5,87.3z"/>
	<path class="st1" d="M1001.3,225.9c1.4,1.5,3.5,2.4,5.7,2.5c4.5,0.1,8.3-3.5,8.4-8s-3.5-8.3-8-8.4c-0.3,0-0.6,0-0.9,0l1.2-49.7
		c5.1,0,9.2-4,9.4-9.1c0.1-5.2-4-9.5-9.1-9.6c-3.4-0.1-6.5,1.7-8.2,4.4c-1.4-1.5-3.5-2.4-5.7-2.5c-4.5-0.1-8.3,3.5-8.4,8
		c-0.1,4.5,3.5,8.3,8,8.4c0.5,0,1.1,0,1.6-0.1l-1.2,49.8c-0.1,0-0.3,0-0.4,0c-5.2-0.1-9.5,4-9.6,9.1c-0.1,5.2,4,9.5,9.1,9.6
		C996.6,230.4,999.6,228.6,1001.3,225.9z"/>
	<path class="st1" d="M984,272.9c1-1.8,1.3-4,0.8-6.2c-1.2-4.4-5.7-6.9-10.1-5.8c-4.4,1.2-6.9,5.7-5.8,10.1c0.1,0.3,0.2,0.6,0.3,0.9
		l-48,13.1c-1.4-4.9-6.5-7.7-11.4-6.4c-5,1.4-7.9,6.5-6.6,11.5c0.9,3.3,3.5,5.7,6.6,6.6c-1,1.8-1.3,4-0.8,6.2
		c1.2,4.4,5.7,6.9,10.1,5.8c4.4-1.2,6.9-5.7,5.8-10.1c-0.1-0.5-0.3-1-0.6-1.5l48.1-13.2c0,0.1,0.1,0.3,0.1,0.4
		c1.4,5,6.5,7.9,11.5,6.6c5-1.4,7.9-6.5,6.6-11.5C989.7,276.2,987.1,273.8,984,272.9z"/>
	<path class="st1" d="M277.5,1003.1c-0.4-2-1.5-4-3.3-5.3c-3.7-2.6-8.8-1.8-11.5,1.9c-2.6,3.7-1.8,8.8,1.9,11.5
		c0.3,0.2,0.5,0.3,0.8,0.5l-29.1,40.4c-4.2-2.9-9.9-1.9-12.9,2.2c-3,4.2-2.1,10,2.1,13.1c2.8,2,6.3,2.3,9.3,0.9c0.4,2,1.5,4,3.3,5.3
		c3.7,2.6,8.8,1.8,11.5-1.9c2.6-3.7,1.8-8.8-1.9-11.5c-0.4-0.3-0.9-0.6-1.4-0.8l29.1-40.5c0.1,0.1,0.2,0.2,0.3,0.3
		c4.2,3,10,2.1,13.1-2.1c3-4.2,2.1-10-2.1-13.1C283.9,1002,280.4,1001.8,277.5,1003.1z"/>
	<path class="st1" d="M81.9,712.5c-1.8-1.1-3.9-1.5-6.1-1.1c-4.4,1-7.2,5.4-6.3,9.8c1,4.4,5.3,7.2,9.8,6.3c0.3-0.1,0.6-0.2,0.9-0.3
		l10.7,48.6c-4.9,1.2-8,6.1-6.9,11.1s6.1,8.2,11.1,7.1c3.4-0.7,5.9-3.2,6.9-6.3c1.8,1.1,3.9,1.5,6.1,1.1c4.4-1,7.2-5.4,6.3-9.8
		c-1-4.4-5.4-7.2-9.8-6.3c-0.5,0.1-1,0.3-1.5,0.5l-10.7-48.7c0.1,0,0.3,0,0.4-0.1c5-1.1,8.2-6.1,7.1-11.1s-6.1-8.2-11.1-7.1
		C85.4,707,82.9,709.5,81.9,712.5z"/>
	<path class="st1" d="M939.3,66.1c2-0.5,3.8-1.8,4.9-3.8c2.3-3.9,1-8.9-2.9-11.2c-3.9-2.3-8.9-1-11.2,2.9c-0.2,0.3-0.3,0.6-0.4,0.8
		l-42.9-25.2c2.5-4.4,1-10-3.4-12.6c-4.5-2.6-10.2-1.1-12.8,3.3c-1.7,3-1.7,6.5-0.1,9.3c-2,0.5-3.8,1.8-4.9,3.8
		c-2.3,3.9-1,8.9,2.9,11.2c3.9,2.3,8.9,1,11.2-2.9c0.3-0.5,0.5-0.9,0.7-1.4l43,25.3c-0.1,0.1-0.2,0.2-0.2,0.3
		c-2.6,4.5-1.1,10.2,3.3,12.8c4.5,2.6,10.2,1.1,12.8-3.3C940.9,72.5,940.9,68.9,939.3,66.1z"/>
	<path class="st1" d="M680,56.5c1.9-0.8,3.5-2.4,4.4-4.4c1.7-4.2-0.3-9-4.5-10.7s-9,0.3-10.7,4.5c-0.1,0.3-0.2,0.6-0.3,0.9L622.7,28
		c1.8-4.7-0.5-10.1-5.2-12c-4.8-1.9-10.2,0.4-12.2,5.1c-1.3,3.2-0.7,6.7,1.3,9.2c-1.9,0.8-3.5,2.4-4.4,4.4c-1.7,4.2,0.3,9,4.5,10.7
		s9-0.3,10.7-4.5c0.2-0.5,0.3-1,0.4-1.5L664,58.2c-0.1,0.1-0.1,0.2-0.2,0.4c-1.9,4.8,0.4,10.2,5.1,12.2c4.8,1.9,10.2-0.4,12.2-5.1
		C682.5,62.5,681.9,59,680,56.5z"/>
	<path class="st1" d="M728,320.9c1.5-1.4,2.5-3.4,2.5-5.7c0.2-4.5-3.4-8.3-7.9-8.5s-8.3,3.4-8.5,7.9c0,0.3,0,0.6,0,0.9l-49.7-1.7
		c0.1-5.1-3.9-9.3-9-9.5c-5.2-0.2-9.5,3.9-9.7,9c-0.1,3.4,1.6,6.5,4.4,8.2c-1.5,1.4-2.5,3.4-2.5,5.7c-0.2,4.5,3.4,8.3,7.9,8.5
		s8.3-3.4,8.5-7.9c0-0.5,0-1.1-0.1-1.6l49.8,1.7c0,0.1,0,0.3,0,0.4c-0.2,5.2,3.9,9.5,9,9.7c5.2,0.2,9.5-3.9,9.7-9
		C732.4,325.7,730.7,322.6,728,320.9z"/>
	<path class="st1" d="M626,863.4c-1.9,0.8-3.5,2.4-4.3,4.4c-1.7,4.2,0.3,9,4.5,10.7s9-0.3,10.7-4.5c0.1-0.3,0.2-0.6,0.3-0.9
		l46.1,18.7c-1.8,4.7,0.5,10.1,5.2,12c4.8,1.9,10.2-0.4,12.2-5.2c1.3-3.2,0.7-6.7-1.3-9.2c1.9-0.8,3.5-2.4,4.3-4.4
		c1.7-4.2-0.3-9-4.5-10.7s-9,0.3-10.7,4.5c-0.2,0.5-0.3,1-0.4,1.5l-46.2-18.7c0.1-0.1,0.1-0.2,0.2-0.4c1.9-4.8-0.4-10.2-5.2-12.2
		c-4.8-1.9-10.2,0.4-12.2,5.2C623.4,857.4,624,860.9,626,863.4z"/>
	<path class="st1" d="M661.9,644.8c-1.3-1.6-3.2-2.7-5.5-3c-4.5-0.5-8.6,2.7-9.1,7.2s2.7,8.6,7.2,9.1c0.3,0,0.6,0,0.9,0l-5.5,49.4
		c-5-0.5-9.6,3.2-10.1,8.3c-0.6,5.1,3.1,9.8,8.3,10.3c3.4,0.4,6.6-1.1,8.5-3.7c1.3,1.6,3.2,2.7,5.5,3c4.5,0.5,8.6-2.7,9.1-7.2
		s-2.7-8.6-7.2-9.1c-0.5-0.1-1.1-0.1-1.6,0l5.6-49.5c0.1,0,0.3,0.1,0.4,0.1c5.1,0.6,9.8-3.1,10.3-8.3c0.6-5.1-3.1-9.8-8.3-10.3
		C667,640.7,663.8,642.2,661.9,644.8z"/>
	<path class="st1" d="M177.3,66.2c1.8-1,3.3-2.6,4-4.8c1.4-4.3-1-8.9-5.3-10.3s-8.9,1-10.3,5.3c-0.1,0.3-0.2,0.6-0.2,0.9l-47.5-15
		c1.4-4.9-1.3-10-6.1-11.5c-4.9-1.6-10.2,1.2-11.7,6.1c-1,3.3-0.2,6.7,2,9.1c-1.8,1-3.3,2.6-4,4.8c-1.4,4.3,1,8.9,5.3,10.3
		s8.9-1,10.3-5.3c0.2-0.5,0.3-1,0.3-1.5l47.5,15.1c0,0.1-0.1,0.3-0.1,0.4c-1.6,4.9,1.2,10.2,6.1,11.7c4.9,1.6,10.2-1.2,11.7-6.1
		C180.3,72,179.4,68.6,177.3,66.2z"/>
	<path class="st1" d="M413.7,687.2c-1.8-1.1-3.9-1.6-6.1-1.1c-4.4,1-7.2,5.3-6.3,9.8c1,4.4,5.3,7.2,9.8,6.3c0.3-0.1,0.6-0.2,0.9-0.3
		l10.5,48.6c-4.9,1.2-8,6.1-7,11.1c1.1,5,6.1,8.3,11.1,7.2c3.4-0.7,5.9-3.2,6.9-6.2c1.8,1.1,3.9,1.6,6.1,1.1c4.4-1,7.2-5.3,6.3-9.8
		c-1-4.4-5.3-7.2-9.8-6.3c-0.5,0.1-1,0.3-1.5,0.5l-10.5-48.7c0.1,0,0.3,0,0.4-0.1c5-1.1,8.3-6.1,7.2-11.1c-1.1-5-6.1-8.3-11.1-7.2
		C417.2,681.7,414.7,684.1,413.7,687.2z"/>
	<path class="st1" d="M973.9,741.2c-1.9-0.8-4.2-0.8-6.2,0.1c-4.2,1.8-6.1,6.6-4.4,10.8c1.8,4.2,6.6,6.1,10.8,4.4
		c0.3-0.1,0.6-0.3,0.8-0.4l19.4,45.8c-4.6,2.1-6.8,7.5-4.8,12.2c2,4.8,7.5,7,12.3,5c3.2-1.3,5.2-4.2,5.6-7.4
		c1.9,0.8,4.2,0.8,6.2-0.1c4.2-1.8,6.1-6.6,4.4-10.8c-1.8-4.2-6.6-6.1-10.8-4.4c-0.5,0.2-0.9,0.5-1.4,0.7l-19.4-45.9
		c0.1,0,0.3-0.1,0.4-0.1c4.8-2,7-7.5,5-12.3s-7.5-7-12.3-5C976.3,735.1,974.3,738,973.9,741.2z"/>
	<path class="st1" d="M299.9,750c-2.1,0-4.2,0.8-5.8,2.3c-3.3,3.2-3.3,8.4-0.2,11.6c3.2,3.3,8.4,3.3,11.6,0.2
		c0.2-0.2,0.4-0.5,0.6-0.7l34.7,35.7c-3.6,3.6-3.6,9.4,0,13.1c3.6,3.7,9.5,3.8,13.2,0.2c2.5-2.4,3.3-5.8,2.6-9
		c2.1,0,4.2-0.8,5.8-2.3c3.3-3.2,3.3-8.4,0.2-11.6c-3.2-3.3-8.4-3.3-11.6-0.2c-0.4,0.4-0.7,0.8-1,1.2l-34.7-35.7
		c0.1-0.1,0.2-0.2,0.3-0.3c3.7-3.6,3.8-9.5,0.2-13.2c-3.6-3.7-9.5-3.8-13.2-0.2C300,743.5,299.1,746.9,299.9,750z"/>
	<path class="st1" d="M609.4,563.7c0.6-2,0.4-4.2-0.7-6.2c-2.2-4-7.2-5.5-11.1-3.3c-4,2.2-5.5,7.2-3.3,11.1c0.2,0.3,0.3,0.5,0.5,0.8
		L551.1,590c-2.5-4.4-8.1-6-12.6-3.6c-4.5,2.5-6.2,8.2-3.7,12.7c1.6,3,4.7,4.8,7.9,4.9c-0.6,2-0.4,4.2,0.7,6.2
		c2.2,4,7.2,5.5,11.1,3.3c4-2.2,5.5-7.2,3.3-11.1c-0.3-0.5-0.6-0.9-0.9-1.3l43.8-23.8c0.1,0.1,0.1,0.3,0.2,0.4
		c2.5,4.5,8.2,6.2,12.7,3.7s6.2-8.2,3.7-12.7C615.7,565.6,612.6,563.8,609.4,563.7z"/>
	<path class="st1" d="M419.5,60.9c-1.5,1.5-2.4,3.5-2.4,5.7c0,4.5,3.6,8.2,8.2,8.3c4.5,0,8.2-3.6,8.3-8.2c0-0.3,0-0.6-0.1-0.9
		l49.7,0.3c0.1,5.1,4.2,9.2,9.3,9.2c5.2,0,9.4-4.1,9.4-9.3c0-3.4-1.8-6.5-4.6-8.1c1.5-1.5,2.4-3.5,2.4-5.7c0-4.5-3.6-8.2-8.2-8.3
		c-4.5,0-8.2,3.6-8.3,8.2c0,0.5,0,1.1,0.1,1.6l-49.9-0.3c0-0.1,0-0.3,0-0.4c0-5.2-4.1-9.4-9.3-9.4c-5.2,0-9.4,4.1-9.4,9.3
		C414.8,56.2,416.7,59.2,419.5,60.9z"/>
	<path class="st1" d="M532.4,957.8c-1.7,1.2-2.9,3.1-3.3,5.3c-0.8,4.5,2.2,8.7,6.7,9.5s8.7-2.2,9.5-6.7c0.1-0.3,0.1-0.6,0.1-0.9
		l49,8.4c-0.8,5,2.6,9.7,7.7,10.6c5.1,0.9,9.9-2.5,10.8-7.6c0.6-3.4-0.7-6.7-3.2-8.7c1.7-1.2,2.9-3.1,3.3-5.3
		c0.8-4.5-2.2-8.7-6.7-9.5s-8.7,2.2-9.5,6.7c-0.1,0.5-0.1,1-0.1,1.6l-49.1-8.5c0-0.1,0.1-0.3,0.1-0.4c0.9-5.1-2.5-9.9-7.6-10.8
		c-5.1-0.9-9.9,2.5-10.8,7.6C528.6,952.4,529.9,955.7,532.4,957.8z"/>
	<path class="st1" d="M67.8,273.9c-1.4,1.5-2.3,3.6-2.2,5.8c0.1,4.5,3.8,8.1,8.4,8c4.5-0.1,8.1-3.8,8-8.4c0-0.3,0-0.6-0.1-0.9
		l49.7-1c0.2,5.1,4.4,9.1,9.5,9c5.2-0.1,9.3-4.4,9.2-9.5c-0.1-3.4-2-6.4-4.8-8c1.4-1.5,2.3-3.6,2.2-5.8c-0.1-4.5-3.8-8.1-8.4-8
		s-8.1,3.8-8,8.4c0,0.5,0.1,1.1,0.2,1.6l-49.8,1c0-0.1,0-0.3,0-0.4c-0.1-5.2-4.4-9.3-9.5-9.2c-5.2,0.1-9.3,4.4-9.2,9.5
		C63,269.4,65,272.4,67.8,273.9z"/>
	<path class="st1" d="M400.5,892.5c-1,1.8-1.3,4-0.7,6.2c1.2,4.4,5.7,6.9,10.1,5.7s6.9-5.7,5.7-10.1c-0.1-0.3-0.2-0.6-0.3-0.9
		l48-13.2c1.4,4.9,6.5,7.7,11.4,6.3c5-1.4,7.9-6.5,6.5-11.5c-0.9-3.3-3.5-5.7-6.6-6.6c1-1.8,1.3-4,0.7-6.2
		c-1.2-4.4-5.7-6.9-10.1-5.7s-6.9,5.7-5.7,10.1c0.1,0.5,0.3,1,0.6,1.5L412,881.4c0-0.1-0.1-0.3-0.1-0.4c-1.4-5-6.5-7.9-11.5-6.5
		s-7.9,6.5-6.5,11.5C394.8,889.3,397.4,891.7,400.5,892.5z"/>
	<path class="st1" d="M67.9,1045.1c1.1-1.7,1.6-3.9,1.2-6.1c-0.9-4.4-5.2-7.3-9.7-6.4c-4.4,0.9-7.3,5.2-6.4,9.7
		c0.1,0.3,0.1,0.6,0.2,0.9L4.4,1053c-1.1-4.9-6-8.1-11-7.1c-5.1,1-8.3,6-7.3,11c0.7,3.4,3.1,5.9,6.2,7c-1.1,1.7-1.6,3.9-1.2,6.1
		c0.9,4.4,5.2,7.3,9.7,6.4c4.4-0.9,7.3-5.2,6.4-9.7c-0.1-0.5-0.3-1-0.5-1.5l48.9-9.9c0,0.1,0,0.3,0.1,0.4c1,5.1,6,8.3,11,7.3
		s8.3-6,7.3-11C73.3,1048.7,70.9,1046.1,67.9,1045.1z"/>
	<path class="st1" d="M669.7,183.4c0,2.1,0.8,4.2,2.4,5.7c3.2,3.2,8.4,3.3,11.6,0.1c3.2-3.2,3.3-8.4,0.1-11.6
		c-0.2-0.2-0.5-0.4-0.7-0.6l35.4-34.9c3.6,3.5,9.4,3.5,13.1-0.1c3.7-3.6,3.7-9.6,0.1-13.2c-2.4-2.5-5.9-3.3-9-2.5
		c0-2.1-0.8-4.2-2.4-5.7c-3.2-3.2-8.4-3.3-11.6-0.1c-3.2,3.2-3.3,8.4-0.1,11.6c0.4,0.4,0.8,0.7,1.2,1l-35.5,35
		c-0.1-0.1-0.2-0.2-0.3-0.3c-3.6-3.7-9.6-3.7-13.2-0.1c-3.7,3.6-3.7,9.6-0.1,13.2C663.2,183.3,666.6,184.2,669.7,183.4z"/>
	<path class="st1" d="M-20,452.1c-1.5-1.5-3.5-2.4-5.7-2.5c-4.5-0.1-8.3,3.5-8.3,8.1c-0.1,4.5,3.5,8.3,8.1,8.3c0.3,0,0.6,0,0.9,0
		l-0.8,49.7c-5.1,0-9.2,4.1-9.3,9.2c-0.1,5.2,4,9.4,9.2,9.5c3.4,0.1,6.5-1.8,8.1-4.5c1.5,1.5,3.5,2.4,5.7,2.5
		c4.5,0.1,8.3-3.5,8.3-8.1c0.1-4.5-3.5-8.3-8.1-8.3c-0.5,0-1.1,0-1.6,0.1l0.8-49.8c0.1,0,0.3,0,0.4,0c5.2,0.1,9.4-4,9.5-9.2
		c0.1-5.2-4-9.4-9.2-9.5C-15.3,447.5-18.3,449.3-20,452.1z"/>
	<path class="st1" d="M882.5,450.1c-1.5-1.4-3.6-2.3-5.8-2.2c-4.5,0.1-8.1,3.9-8,8.4s3.9,8.1,8.4,8c0.3,0,0.6,0,0.9-0.1l1.5,49.7
		c-5.1,0.3-9,4.5-8.9,9.6c0.2,5.2,4.5,9.2,9.6,9.1c3.4-0.1,6.4-2.1,7.9-4.9c1.5,1.4,3.6,2.3,5.8,2.2c4.5-0.1,8.1-3.9,8-8.4
		s-3.9-8.1-8.4-8c-0.5,0-1.1,0.1-1.6,0.2l-1.5-49.8c0.1,0,0.3,0,0.4,0c5.2-0.2,9.2-4.5,9.1-9.6c-0.2-5.2-4.5-9.2-9.6-9.1
		C886.9,445.4,884,447.3,882.5,450.1z"/>
	<path class="st1" d="M-9.7,707.7c-1.4-1.5-3.4-2.4-5.7-2.5c-4.5-0.1-8.3,3.5-8.4,8c-0.1,4.5,3.5,8.3,8,8.4c0.3,0,0.6,0,0.9,0
		l-1.3,49.7c-5.1,0-9.3,4-9.4,9.1c-0.1,5.2,3.9,9.5,9.1,9.6c3.4,0.1,6.5-1.7,8.2-4.4c1.4,1.5,3.4,2.4,5.7,2.5c4.5,0.1,8.3-3.5,8.4-8
		c0.1-4.5-3.5-8.3-8-8.4c-0.5,0-1.1,0-1.6,0.1l1.3-49.8c0.1,0,0.3,0,0.4,0c5.2,0.1,9.5-3.9,9.6-9.1c0.1-5.2-3.9-9.5-9.1-9.6
		C-4.9,703.2-8,705-9.7,707.7z"/>
	<path class="st1" d="M240.1,241.9c2.1-0.3,4-1.4,5.3-3.2c2.7-3.6,1.9-8.8-1.7-11.5c-3.6-2.7-8.8-1.9-11.5,1.7
		c-0.2,0.3-0.4,0.5-0.5,0.8l-40-29.6c2.9-4.1,2-9.9-2.1-12.9c-4.2-3.1-10-2.2-13.1,2c-2,2.8-2.3,6.3-1.1,9.2c-2.1,0.3-4,1.4-5.3,3.2
		c-2.7,3.6-1.9,8.8,1.7,11.5c3.6,2.7,8.8,1.9,11.5-1.7c0.3-0.4,0.6-0.9,0.8-1.3l40.1,29.6c-0.1,0.1-0.2,0.2-0.3,0.3
		c-3.1,4.2-2.2,10,2,13.1s10,2.2,13.1-2C241.1,248.4,241.4,244.9,240.1,241.9z"/>
	<path class="st1" d="M44.8,506.8c-1.2,1.7-1.9,3.8-1.5,6c0.6,4.5,4.8,7.6,9.3,7s7.6-4.8,7-9.3c0-0.3-0.1-0.6-0.2-0.9l49.3-6.8
		c0.8,5,5.5,8.5,10.5,7.8c5.1-0.7,8.7-5.4,8-10.5c-0.5-3.4-2.7-6.1-5.7-7.4c1.2-1.7,1.9-3.8,1.5-6c-0.6-4.5-4.8-7.6-9.3-7
		s-7.6,4.8-7,9.3c0.1,0.5,0.2,1,0.4,1.5l-49.4,6.8c0-0.1,0-0.3,0-0.4c-0.7-5.1-5.4-8.7-10.5-8s-8.7,5.4-8,10.5
		C39.5,502.9,41.8,505.6,44.8,506.8z"/>
	<path class="st1" d="M453.9,992.7c-2.1-0.2-4.2,0.4-5.9,1.9c-3.5,2.9-3.9,8.1-1,11.6s8.1,3.9,11.6,1c0.2-0.2,0.5-0.4,0.7-0.6
		l31.9,38.2c-3.8,3.3-4.3,9.1-1,13c3.3,4,9.2,4.5,13.2,1.2c2.6-2.2,3.7-5.6,3.2-8.7c2.1,0.2,4.2-0.4,5.9-1.9c3.5-2.9,3.9-8.1,1-11.6
		c-2.9-3.5-8.1-3.9-11.6-1c-0.4,0.3-0.8,0.7-1.1,1.1l-32-38.2c0.1-0.1,0.2-0.2,0.3-0.3c4-3.3,4.5-9.2,1.2-13.2s-9.2-4.5-13.2-1.2
		C454.5,986.1,453.4,989.5,453.9,992.7z"/>
	<path class="st1" d="M298.4,491.2c-1.6,1.3-2.7,3.2-3,5.5c-0.5,4.5,2.8,8.6,7.3,9.1s8.6-2.8,9.1-7.3c0-0.3,0-0.6,0-0.9l49.4,5.4
		c-0.4,5.1,3.2,9.6,8.3,10.1c5.1,0.6,9.8-3.1,10.3-8.3c0.4-3.4-1.2-6.6-3.7-8.5c1.6-1.3,2.7-3.2,3-5.5c0.5-4.5-2.8-8.6-7.3-9.1
		s-8.6,2.8-9.1,7.3c-0.1,0.5-0.1,1.1,0,1.6l-49.6-5.4c0-0.1,0.1-0.3,0.1-0.4c0.6-5.1-3.1-9.8-8.3-10.3c-5.1-0.6-9.8,3.1-10.3,8.3
		C294.3,486.1,295.8,489.3,298.4,491.2z"/>
	<path class="st1" d="M784.4,863.6c-2.1-0.3-4.2,0.2-6,1.5c-3.7,2.7-4.4,7.8-1.7,11.5s7.8,4.4,11.5,1.7c0.3-0.2,0.5-0.4,0.7-0.6
		l29.5,40.1c-4,3.1-4.8,8.8-1.8,12.9c3.1,4.2,8.9,5.1,13.1,2c2.8-2,4.1-5.3,3.7-8.5c2.1,0.3,4.2-0.2,6-1.5c3.7-2.7,4.4-7.8,1.7-11.5
		s-7.8-4.4-11.5-1.7c-0.4,0.3-0.8,0.7-1.2,1l-29.5-40.2c0.1-0.1,0.2-0.1,0.3-0.2c4.2-3.1,5.1-8.9,2-13.1c-3.1-4.2-8.9-5.1-13.1-2
		C785.4,857.1,784.1,860.4,784.4,863.6z"/>
	<path class="st1" d="M467.8,185.5c-0.3-2.1-1.3-4-3.1-5.4c-3.6-2.8-8.7-2.2-11.5,1.4c-2.8,3.6-2.2,8.7,1.4,11.5
		c0.2,0.2,0.5,0.4,0.8,0.5l-30.8,39.1c-4.1-3-9.8-2.3-13,1.7c-3.2,4.1-2.5,9.9,1.6,13.1c2.7,2.1,6.2,2.5,9.2,1.3
		c0.3,2.1,1.3,4,3.1,5.4c3.6,2.8,8.7,2.2,11.5-1.4s2.2-8.7-1.4-11.5c-0.4-0.3-0.9-0.6-1.3-0.8l30.8-39.2c0.1,0.1,0.2,0.2,0.3,0.3
		c4.1,3.2,9.9,2.5,13.1-1.6s2.5-9.9-1.6-13.1C474.3,184.7,470.8,184.3,467.8,185.5z"/>
	<path class="st1" d="M15.5,127.4c-1.8-1.1-4-1.4-6.2-0.9c-4.4,1.1-7.1,5.6-6,10s5.6,7.1,10,6c0.3-0.1,0.6-0.2,0.9-0.3l12.1,48.3
		c-4.9,1.3-7.8,6.3-6.6,11.3c1.3,5,6.3,8.1,11.3,6.8c3.3-0.8,5.8-3.4,6.7-6.5c1.8,1.1,4,1.4,6.2,0.9c4.4-1.1,7.1-5.6,6-10
		s-5.6-7.1-10-6c-0.5,0.1-1,0.3-1.5,0.5l-12.1-48.4c0.1,0,0.3,0,0.4-0.1c5-1.3,8.1-6.3,6.8-11.3c-1.3-5-6.3-8.1-11.3-6.8
		C18.8,121.8,16.4,124.4,15.5,127.4z"/>
	<path class="st1" d="M-12.3,1026.2c1.5,1.5,3.5,2.4,5.7,2.4c4.5,0,8.2-3.6,8.3-8.2c0-4.5-3.6-8.2-8.2-8.3c-0.3,0-0.6,0-0.9,0.1
		l0.3-49.7c5.1-0.1,9.2-4.2,9.2-9.3c0-5.2-4.1-9.4-9.3-9.4c-3.4,0-6.5,1.8-8.1,4.6c-1.5-1.5-3.5-2.4-5.7-2.4c-4.5,0-8.2,3.6-8.3,8.2
		c0,4.5,3.6,8.2,8.2,8.3c0.5,0,1.1,0,1.6-0.1l-0.3,49.9c-0.1,0-0.3,0-0.4,0c-5.2,0-9.4,4.1-9.4,9.3s4.1,9.4,9.3,9.4
		C-16.9,1030.8-13.9,1028.9-12.3,1026.2z"/>
	<path class="st1" d="M580.1,849.1c2-0.5,3.9-1.7,5.1-3.6c2.5-3.8,1.4-8.9-2.4-11.4s-8.9-1.4-11.4,2.4c-0.2,0.3-0.3,0.5-0.5,0.8
		l-41.8-27c2.7-4.3,1.4-10-2.9-12.8c-4.3-2.8-10.1-1.6-12.9,2.8c-1.9,2.9-1.9,6.4-0.5,9.3c-2,0.5-3.9,1.7-5.1,3.6
		c-2.5,3.8-1.4,8.9,2.4,11.4s8.9,1.4,11.4-2.4c0.3-0.4,0.5-0.9,0.7-1.4l41.9,27c-0.1,0.1-0.2,0.2-0.2,0.3
		c-2.8,4.3-1.6,10.1,2.8,12.9c4.3,2.8,10.1,1.6,12.9-2.8C581.5,855.5,581.6,852,580.1,849.1z"/>
	<path class="st1" d="M368,167.8c2-0.4,3.9-1.5,5.2-3.4c2.6-3.7,1.7-8.8-2-11.4c-3.7-2.6-8.8-1.7-11.4,2c-0.2,0.3-0.3,0.5-0.5,0.8
		l-40.8-28.5c2.8-4.2,1.8-9.9-2.4-12.8c-4.2-3-10.1-1.9-13,2.3c-2,2.8-2.2,6.4-0.8,9.3c-2,0.4-3.9,1.5-5.2,3.4
		c-2.6,3.7-1.7,8.8,2,11.4c3.7,2.6,8.8,1.7,11.4-2c0.3-0.4,0.6-0.9,0.8-1.4l40.9,28.5c-0.1,0.1-0.2,0.2-0.3,0.3
		c-3,4.2-1.9,10.1,2.3,13c4.2,3,10.1,1.9,13-2.3C369.2,174.2,369.3,170.7,368,167.8z"/>
	<path class="st1" d="M332.3,1051.6c-1.5,1.4-2.5,3.4-2.6,5.6c-0.2,4.5,3.3,8.4,7.8,8.6s8.4-3.3,8.6-7.8c0-0.3,0-0.6,0-0.9l49.7,2.5
		c-0.1,5.1,3.8,9.3,8.9,9.6c5.2,0.3,9.5-3.7,9.8-8.9c0.2-3.4-1.5-6.5-4.2-8.3c1.5-1.4,2.5-3.4,2.6-5.6c0.2-4.5-3.3-8.4-7.8-8.6
		s-8.4,3.3-8.6,7.8c0,0.5,0,1.1,0.1,1.6l-49.8-2.5c0-0.1,0-0.3,0-0.4c0.3-5.2-3.7-9.5-8.9-9.8c-5.2-0.3-9.5,3.7-9.8,8.9
		C327.9,1046.8,329.7,1049.9,332.3,1051.6z"/>
	<path class="st1" d="M630.8,256.9c2.1,0.3,4.2-0.1,6-1.5c3.7-2.7,4.5-7.8,1.9-11.5c-2.7-3.7-7.8-4.5-11.5-1.9
		c-0.3,0.2-0.5,0.4-0.7,0.6l-29.1-40.4c4-3.1,4.9-8.8,2-12.9c-3-4.2-8.9-5.1-13.1-2.1c-2.8,2-4.1,5.3-3.8,8.5
		c-2.1-0.3-4.2,0.1-6,1.5c-3.7,2.7-4.5,7.8-1.9,11.5c2.7,3.7,7.8,4.5,11.5,1.9c0.4-0.3,0.8-0.7,1.2-1l29.2,40.4
		c-0.1,0.1-0.2,0.1-0.3,0.2c-4.2,3-5.1,8.9-2.1,13.1c3,4.2,8.9,5.1,13.1,2.1C629.8,263.4,631.1,260.1,630.8,256.9z"/>
	<path class="st1" d="M862,157.9c1.9-0.7,3.6-2.2,4.5-4.2c1.9-4.1,0.1-9-4-10.9s-9-0.1-10.9,4c-0.1,0.3-0.2,0.6-0.3,0.9L806,127
		c2-4.7-0.1-10.1-4.7-12.2c-4.7-2.2-10.2-0.1-12.4,4.6c-1.4,3.1-1,6.6,0.9,9.3c-1.9,0.7-3.6,2.2-4.5,4.2c-1.9,4.1-0.1,9,4,10.9
		s9,0.1,10.9-4c0.2-0.5,0.4-1,0.5-1.5L846,159c-0.1,0.1-0.1,0.2-0.2,0.4c-2.2,4.7-0.1,10.2,4.6,12.4c4.7,2.1,10.2,0.1,12.4-4.6
		C864.3,164.1,863.8,160.6,862,157.9z"/>
	<path class="st1" d="M687.4,808.4c-0.6,2-0.5,4.2,0.6,6.2c2.1,4,7,5.6,11.1,3.5c4-2.1,5.6-7,3.5-11.1c-0.1-0.3-0.3-0.5-0.5-0.8
		l44.1-23c2.4,4.4,8,6.2,12.5,3.8c4.6-2.4,6.4-8,4-12.6c-1.6-3.1-4.6-4.9-7.8-5c0.6-2,0.5-4.2-0.6-6.2c-2.1-4-7-5.6-11.1-3.5
		c-4,2.1-5.6,7-3.5,11.1c0.2,0.5,0.5,0.9,0.9,1.3l-44.2,23c-0.1-0.1-0.1-0.3-0.2-0.4c-2.4-4.6-8-6.4-12.6-4s-6.4,8-4,12.6
		C681.2,806.4,684.2,808.2,687.4,808.4z"/>
	<path class="st1" d="M302.9,599.5c-2,0.7-3.6,2.1-4.6,4.2c-2,4.1-0.3,9,3.8,11c4.1,2,9,0.3,11-3.8c0.1-0.3,0.3-0.6,0.4-0.9
		l44.8,21.6c-2.1,4.6-0.1,10.1,4.4,12.3c4.7,2.2,10.2,0.3,12.5-4.4c1.5-3.1,1.1-6.6-0.7-9.3c2-0.7,3.6-2.1,4.6-4.2
		c2-4.1,0.3-9-3.8-11c-4.1-2-9-0.3-11,3.8c-0.2,0.5-0.4,1-0.5,1.5l-44.9-21.7c0.1-0.1,0.1-0.2,0.2-0.4c2.2-4.7,0.3-10.2-4.4-12.5
		c-4.7-2.2-10.2-0.3-12.5,4.4C300.7,593.3,301.1,596.9,302.9,599.5z"/>
	<path class="st1" d="M237,394.5c1.8,1,4,1.2,6.2,0.6c4.3-1.3,6.8-5.9,5.5-10.2c-1.3-4.3-5.9-6.8-10.2-5.5c-0.3,0.1-0.6,0.2-0.9,0.3
		L223,332.1c4.8-1.6,7.5-6.7,6-11.6s-6.7-7.7-11.7-6.2c-3.3,1-5.6,3.7-6.4,6.8c-1.8-1-4-1.2-6.2-0.6c-4.3,1.3-6.8,5.9-5.5,10.2
		s5.9,6.8,10.2,5.5c0.5-0.2,1-0.4,1.4-0.6l14.6,47.7c-0.1,0-0.3,0.1-0.4,0.1c-4.9,1.5-7.7,6.7-6.2,11.7s6.7,7.7,11.7,6.2
		C233.9,400.3,236.3,397.6,237,394.5z"/>
	<path class="st1" d="M-24.6,42.1c-1.9,0.9-3.5,2.4-4.3,4.5c-1.6,4.2,0.5,9,4.7,10.6s9-0.5,10.6-4.7c0.1-0.3,0.2-0.6,0.3-0.9
		l46.4,17.9c-1.7,4.8,0.7,10.1,5.4,11.9c4.8,1.9,10.2-0.5,12.1-5.4c1.2-3.2,0.6-6.7-1.4-9.2c1.9-0.9,3.5-2.4,4.3-4.5
		c1.6-4.2-0.5-9-4.7-10.6s-9,0.5-10.6,4.7c-0.2,0.5-0.3,1-0.4,1.5L-8.7,40c0.1-0.1,0.1-0.2,0.2-0.4c1.9-4.8-0.5-10.2-5.4-12.1
		c-4.8-1.9-10.2,0.5-12.1,5.4C-27.2,36.1-26.6,39.5-24.6,42.1z"/>
	<path class="st1" d="M-16.5,331.6c1.5,1.5,3.5,2.4,5.7,2.4c4.5,0.1,8.3-3.6,8.3-8.1c0.1-4.5-3.6-8.3-8.1-8.3c-0.3,0-0.6,0-0.9,0
		l0.7-49.7c5.1,0,9.2-4.1,9.3-9.2c0.1-5.2-4.1-9.4-9.2-9.5c-3.4,0-6.5,1.8-8.1,4.5c-1.5-1.5-3.5-2.4-5.7-2.4
		c-4.5-0.1-8.3,3.6-8.3,8.1c-0.1,4.5,3.6,8.3,8.1,8.3c0.5,0,1.1,0,1.6-0.1l-0.7,49.8c-0.1,0-0.3,0-0.4,0c-5.2-0.1-9.4,4.1-9.5,9.2
		c-0.1,5.2,4.1,9.4,9.2,9.5C-21.2,336.2-18.2,334.4-16.5,331.6z"/>
	<path class="st1" d="M501.2,464.5c0.1,2.1,1,4.1,2.6,5.6c3.3,3.1,8.5,2.9,11.6-0.4s2.9-8.5-0.4-11.6c-0.2-0.2-0.5-0.4-0.7-0.6
		l33.9-36.4c3.8,3.4,9.6,3.1,13.1-0.6c3.5-3.8,3.3-9.7-0.5-13.2c-2.5-2.3-6-3-9.1-2.1c-0.1-2.1-1-4.1-2.6-5.6
		c-3.3-3.1-8.5-2.9-11.6,0.4s-2.9,8.5,0.4,11.6c0.4,0.4,0.8,0.7,1.2,1l-34,36.5c-0.1-0.1-0.2-0.2-0.3-0.3c-3.8-3.5-9.7-3.3-13.2,0.5
		s-3.3,9.7,0.5,13.2C494.6,464.8,498.1,465.5,501.2,464.5z"/>
	<path class="st1" d="M265.7,40.3c-1.5,1.5-2.4,3.5-2.4,5.7c0,4.5,3.7,8.2,8.2,8.2s8.2-3.7,8.2-8.2c0-0.3,0-0.6-0.1-0.9l49.7,0.1
		c0.1,5.1,4.2,9.2,9.3,9.2c5.2,0,9.4-4.2,9.4-9.3c0-3.4-1.9-6.5-4.6-8.1c1.5-1.5,2.4-3.5,2.4-5.7c0-4.5-3.7-8.2-8.2-8.2
		s-8.2,3.7-8.2,8.2c0,0.5,0.1,1.1,0.1,1.6l-49.9-0.1c0-0.1,0-0.3,0-0.4c0-5.2-4.2-9.4-9.3-9.4c-5.2,0-9.4,4.2-9.4,9.3
		C261.1,35.7,263,38.7,265.7,40.3z"/>
	<path class="st1" d="M214.6,581.1c0.9-1.9,1.1-4.1,0.4-6.2c-1.5-4.3-6.1-6.6-10.4-5.1c-4.3,1.5-6.6,6.1-5.1,10.4
		c0.1,0.3,0.2,0.6,0.4,0.9l-47.1,16c-1.7-4.8-7-7.3-11.8-5.7c-4.9,1.7-7.5,7-5.9,11.9c1.1,3.3,3.8,5.5,7,6.2
		c-0.9,1.9-1.1,4.1-0.4,6.2c1.5,4.3,6.1,6.6,10.4,5.1c4.3-1.5,6.6-6.1,5.1-10.4c-0.2-0.5-0.4-1-0.6-1.4l47.2-16
		c0,0.1,0.1,0.3,0.1,0.4c1.7,4.9,7,7.5,11.9,5.9c4.9-1.7,7.5-7,5.9-11.9C220.5,584,217.8,581.8,214.6,581.1z"/>
	<path class="st1" d="M-11.1,614.2c-1.8,1.1-3.2,2.8-3.7,5c-1.1,4.4,1.5,8.9,5.9,10s8.9-1.5,10-5.9c0.1-0.3,0.1-0.6,0.2-0.9
		L49.4,635c-1.2,4.9,1.8,9.9,6.7,11.2c5,1.3,10.1-1.7,11.4-6.7c0.9-3.3-0.2-6.7-2.4-9c1.8-1.1,3.2-2.8,3.7-5c1.1-4.4-1.5-8.9-5.9-10
		s-8.9,1.5-10,5.9c-0.1,0.5-0.2,1-0.2,1.5L4.5,610.3c0-0.1,0.1-0.3,0.1-0.4c1.3-5-1.7-10.1-6.7-11.4c-5-1.3-10.1,1.7-11.4,6.7
		C-14.4,608.5-13.3,611.9-11.1,614.2z"/>
	<path class="st1" d="M83.7,941c1,1.8,2.7,3.3,4.8,3.9c4.3,1.3,8.9-1.1,10.2-5.5c1.3-4.3-1.1-8.9-5.5-10.2c-0.3-0.1-0.6-0.2-0.9-0.2
		l14.4-47.6c4.9,1.4,10-1.4,11.5-6.3c1.5-4.9-1.3-10.2-6.3-11.7c-3.3-1-6.7-0.1-9.1,2.1c-1-1.8-2.7-3.3-4.8-3.9
		c-4.3-1.3-8.9,1.1-10.2,5.5c-1.3,4.3,1.1,8.9,5.5,10.2c0.5,0.2,1,0.3,1.5,0.3l-14.4,47.7c-0.1,0-0.3-0.1-0.4-0.1
		c-4.9-1.5-10.2,1.3-11.7,6.3c-1.5,4.9,1.3,10.2,6.3,11.7C77.9,944.1,81.4,943.2,83.7,941z"/>
	<path class="st1" d="M222.4,900.3c-0.4-2-1.5-4-3.3-5.2c-3.7-2.6-8.8-1.7-11.4,2c-2.6,3.7-1.7,8.8,2,11.4c0.3,0.2,0.5,0.3,0.8,0.5
		l-28.8,40.6c-4.2-2.8-9.9-1.8-12.9,2.3c-3,4.2-2,10.1,2.2,13c2.8,2,6.3,2.2,9.3,0.9c0.4,2,1.5,4,3.3,5.2c3.7,2.6,8.8,1.7,11.4-2
		c2.6-3.7,1.7-8.8-2-11.4c-0.4-0.3-0.9-0.6-1.4-0.8l28.8-40.7c0.1,0.1,0.2,0.2,0.3,0.3c4.2,3,10.1,2,13-2.2c3-4.2,2-10.1-2.2-13
		C228.8,899.2,225.3,899,222.4,900.3z"/>
	<path class="st1" d="M263.4,833.9c1.8-1.1,3.1-2.9,3.6-5c1.1-4.4-1.6-8.8-6-9.9c-4.4-1.1-8.8,1.6-9.9,6c-0.1,0.3-0.1,0.6-0.2,0.9
		l-48.3-11.8c1.1-5-2-9.9-6.9-11.1c-5-1.2-10.1,1.9-11.3,6.9c-0.8,3.3,0.3,6.7,2.6,8.9c-1.8,1.1-3.1,2.9-3.6,5
		c-1.1,4.4,1.6,8.8,6,9.9c4.4,1.1,8.8-1.6,9.9-6c0.1-0.5,0.2-1,0.2-1.6l48.4,11.8c0,0.1-0.1,0.3-0.1,0.4c-1.2,5,1.9,10.1,6.9,11.3
		s10.1-1.9,11.3-6.9C266.8,839.5,265.7,836.1,263.4,833.9z"/>
	<path class="st1" d="M38.6,408.4c0.2,2.1,1.2,4.1,2.9,5.5c3.5,2.9,8.6,2.5,11.6-0.9c2.9-3.5,2.5-8.6-0.9-11.6
		c-0.2-0.2-0.5-0.4-0.8-0.6l32.2-37.9c3.9,3.2,9.7,2.7,13-1.2c3.3-3.9,2.9-9.8-1.1-13.2c-2.6-2.2-6.1-2.7-9.2-1.7
		c-0.2-2.1-1.2-4.1-2.9-5.5c-3.5-2.9-8.6-2.5-11.6,0.9c-2.9,3.5-2.5,8.6,0.9,11.6c0.4,0.3,0.8,0.6,1.3,0.9l-32.3,38
		c-0.1-0.1-0.2-0.2-0.3-0.3c-3.9-3.3-9.8-2.9-13.2,1.1c-3.3,3.9-2.9,9.8,1.1,13.2C32.1,409,35.6,409.5,38.6,408.4z"/>
	<path class="st1" d="M289.3,934.3c-1.6,1.3-2.7,3.3-2.9,5.5c-0.4,4.5,2.9,8.5,7.4,9c4.5,0.4,8.5-2.9,9-7.4c0-0.3,0-0.6,0-0.9
		l49.5,4.9c-0.4,5.1,3.3,9.5,8.4,10s9.7-3.3,10.2-8.4c0.3-3.4-1.2-6.6-3.8-8.5c1.6-1.3,2.7-3.3,2.9-5.5c0.4-4.5-2.9-8.5-7.4-9
		c-4.5-0.4-8.5,2.9-9,7.4c-0.1,0.5,0,1.1,0,1.6l-49.6-5c0-0.1,0-0.3,0.1-0.4c0.5-5.1-3.3-9.7-8.4-10.2s-9.7,3.3-10.2,8.4
		C285.1,929.2,286.7,932.4,289.3,934.3z"/>
	<path class="st1" d="M493.4,290.2c-2.1,0.1-4.1,1-5.6,2.7c-3,3.4-2.7,8.6,0.6,11.6c3.4,3,8.6,2.7,11.6-0.6c0.2-0.2,0.4-0.5,0.6-0.7
		l37.1,33.2c-3.3,3.9-2.9,9.6,0.9,13c3.8,3.4,9.8,3.1,13.2-0.7c2.3-2.6,2.9-6.1,1.9-9.1c2.1-0.1,4.1-1,5.6-2.7
		c3-3.4,2.7-8.6-0.6-11.6s-8.6-2.7-11.6,0.6c-0.4,0.4-0.7,0.8-0.9,1.3L509,293.9c0.1-0.1,0.2-0.2,0.3-0.3c3.4-3.8,3.1-9.8-0.7-13.2
		c-3.8-3.4-9.8-3.1-13.2,0.7C493,283.7,492.4,287.2,493.4,290.2z"/>
	<path class="st1" d="M844.9,695c1.8-1,3.2-2.7,3.9-4.9c1.3-4.4-1.2-8.9-5.6-10.2c-4.4-1.3-8.9,1.2-10.2,5.6
		c-0.1,0.3-0.2,0.6-0.2,0.9l-47.7-14c1.3-4.9-1.5-10-6.4-11.4c-5-1.4-10.2,1.4-11.6,6.4c-1,3.3,0,6.7,2.2,9c-1.8,1-3.2,2.7-3.9,4.9
		c-1.3,4.4,1.2,8.9,5.6,10.2s8.9-1.2,10.2-5.6c0.1-0.5,0.2-1,0.3-1.5l47.9,14c0,0.1-0.1,0.3-0.1,0.4c-1.4,5,1.4,10.2,6.4,11.6
		s10.2-1.4,11.6-6.4C848.1,700.7,847.2,697.3,844.9,695z"/>
	<path class="st1" d="M696.2,1056.4c1.5-1.4,2.5-3.4,2.5-5.7c0.1-4.5-3.4-8.3-7.9-8.5c-4.5-0.1-8.3,3.4-8.5,7.9c0,0.3,0,0.6,0,0.9
		l-49.7-1.6c0-5.1-4-9.3-9.1-9.4c-5.2-0.2-9.5,3.9-9.6,9.1c-0.1,3.4,1.7,6.5,4.4,8.2c-1.5,1.4-2.5,3.4-2.5,5.7
		c-0.1,4.5,3.4,8.3,7.9,8.5c4.5,0.1,8.3-3.4,8.5-7.9c0-0.5,0-1.1-0.1-1.6l49.8,1.6c0,0.1,0,0.3,0,0.4c-0.2,5.2,3.9,9.5,9.1,9.6
		c5.2,0.2,9.5-3.9,9.6-9.1C700.7,1061.2,699,1058.1,696.2,1056.4z"/>
	<path class="st1" d="M535.5,664.7c-1.4-1.5-3.4-2.5-5.6-2.6c-4.5-0.2-8.4,3.3-8.6,7.8c-0.2,4.5,3.3,8.4,7.8,8.6c0.3,0,0.6,0,0.9,0
		l-2.5,49.7c-5.1-0.1-9.3,3.8-9.6,8.9c-0.3,5.2,3.7,9.5,8.9,9.8c3.4,0.2,6.5-1.5,8.3-4.2c1.4,1.5,3.4,2.5,5.6,2.6
		c4.5,0.2,8.4-3.3,8.6-7.8c0.2-4.5-3.3-8.4-7.8-8.6c-0.5,0-1.1,0-1.6,0.1l2.5-49.8c0.1,0,0.3,0,0.4,0c5.2,0.3,9.5-3.7,9.8-8.9
		s-3.7-9.5-8.9-9.8C540.4,660.3,537.3,662,535.5,664.7z"/>
</g>
<rect x="-35.1" y="1232" class="st0" width="752.3" height="382"/>
</svg>
